<svg version="1.1" xmlns="http://www.w3.org/2000/svg" viewBox="0 0 86 102" width="258" height="306">
  <!-- svg-source:excalidraw -->
  
  <defs>
    <style class="style-fonts">
      @font-face {
        font-family: "Virgil";
        src: url("https://excalidraw.com/Virgil.woff2");
      }
      @font-face {
        font-family: "Cascadia";
        src: url("https://excalidraw.com/Cascadia.woff2");
      }
    </style>
    
  </defs>
  <g stroke-linecap="round" transform="translate(26 10) rotate(0 25 41)"><path d="M25.96 0.04 C25.96 0.04, 25.96 0.04, 25.96 0.04 M25.96 0.04 C25.96 0.04, 25.96 0.04, 25.96 0.04 M12.45 20.6 C17.53 15.91, 21.24 16.35, 30.27 0.38 M10.92 20.06 C19.84 15.58, 25.03 8.26, 28.06 2.39 M-1.28 46.26 C13.23 31.86, 24.96 15.22, 31.03 10.22 M-1.2 40.44 C9.08 33.45, 12.83 27.09, 29.32 8.15 M-1.38 47.08 C15.08 34.97, 21.37 21.83, 30.57 12.49 M1.96 47.16 C13.42 34.22, 27.36 18.88, 32.92 10.07 M1.25 48.79 C13.21 38.64, 18.05 36.63, 34.56 17.01 M2.71 48.2 C14.52 35.52, 25.99 25.9, 34.65 13.17 M9.73 49.57 C17.68 47.33, 22.39 32.38, 33.72 20.91 M7.1 53.17 C13.75 45.52, 22.54 38.09, 37.86 18.22 M5.59 57.93 C19.21 43.01, 34 28.73, 42.75 18.42 M8.09 56.4 C19.2 45.4, 26.64 32.89, 39.08 20.68 M8.3 57.22 C15.39 54.05, 28.92 43.57, 41.73 27.08 M11.83 58.66 C24.8 46.02, 32.7 32.35, 40.28 26.22 M14.08 66.87 C23.05 52.94, 35.3 33.43, 45.66 26.02 M15.2 61.68 C24.01 52.02, 36.91 37.47, 41.04 30.23 M18.05 63.87 C19.76 56.05, 29.71 48.93, 47.34 29.7 M14.73 66.92 C21.22 56.78, 30.7 50.04, 44.22 32.82 M21.78 71.8 C24.51 60.52, 38.02 51.92, 50.08 38.38 M16.88 69.78 C25.52 62.37, 35.98 52.54, 47.51 38.52 M23.41 74.32 C27.64 63.58, 28.52 62.01, 50.69 39.94 M18.95 74.39 C32.35 61.46, 41.7 47.46, 48.99 39.38 M20.52 76.41 C34.96 68.54, 36.48 57.61, 53.53 43.31 M22.64 76.07 C32.61 63.28, 42.52 52.26, 52.12 45.6 M21.6 76.89 C31.27 73.12, 32.42 66.64, 43.61 59.61 M24.31 79.13 C26.39 76.7, 31.4 73.99, 41.45 64" stroke="#eaddd7" stroke-width="0.5" fill="none"></path><path d="M25.61 2.64 C31.68 10.3, 39.51 18.45, 48.25 45.17 M26.54 1.78 C30.74 9.64, 37.53 19.79, 50.4 43.52 M49.59 43.37 C39.35 61.89, 34.35 70.26, 29.83 79.18 M49.29 43.53 C42.15 54.35, 34.02 68.45, 27.86 81.43 M24.46 82.74 C22.49 73.87, 9.34 58.6, 2.39 42.22 M24.5 80.91 C21.26 70.87, 12.09 59.82, -1.63 41.93 M2.3 41.48 C4.97 33.18, 17.22 20.22, 23.33 0.48 M1.97 42.01 C7.14 29.34, 17.76 11.98, 26.23 -0.73" stroke="#1e1e1e" stroke-width="1" fill="none"></path></g><g stroke-linecap="round" transform="translate(10 34) rotate(0 29 29)"><path d="M-0.24 30.27 C-0.24 30.27, -0.24 30.27, -0.24 30.27 M-0.24 30.27 C-0.24 30.27, -0.24 30.27, -0.24 30.27 M4.46 31.11 C12.48 26.76, 20.16 12.26, 34.47 -1.38 M3.78 34.23 C14.43 21.68, 25.07 6.95, 32.76 0.78 M7.57 38.77 C16.89 24.58, 25.23 16.65, 31.04 3.49 M7.67 34.62 C10.48 30.22, 17.5 22.73, 33.23 3.2 M12.62 38.22 C21.48 22.57, 29.29 14.51, 40.17 5.91 M8.01 40.03 C16.6 30.53, 22.39 21.95, 34.47 6.8 M14.56 37.3 C21.86 33.09, 28.78 24.37, 40.8 8.69 M11.2 38.98 C19.98 33.37, 27.17 22.75, 38.03 9.76 M17.77 47.19 C21.82 32.88, 26.85 28.8, 39.44 15.45 M15.03 44.23 C22.46 38.1, 27.87 29.54, 43.75 11.21 M15.56 46.88 C27.53 36.22, 39.17 23, 45.01 16.39 M18.96 46.47 C27.91 32.5, 38.84 21.32, 43.41 14.25 M17 52.46 C34.71 38.04, 42.64 26.98, 50.39 14.56 M21.72 48.86 C26.4 38.97, 35.62 31.75, 48.96 17.44 M21.06 54.58 C28.14 40.42, 38.88 33.3, 53.84 20.05 M22.14 53.77 C29.65 45.2, 34.33 37.83, 48.72 22.3 M24.13 51.48 C34.55 43.79, 43.47 34.2, 49.91 27.81 M25.54 53.02 C38.62 42.43, 46.35 30.74, 53.06 24.32 M26.22 58.46 C37.06 52.07, 46.49 41.73, 54.2 24.09 M28.52 58.67 C40.64 47.43, 48.17 38.34, 53.89 28.67" stroke="#eaddd7" stroke-width="0.5" fill="none"></path><path d="M31.11 1.3 C41.04 7.99, 42.58 18.22, 55.55 26.94 M29.65 -0.28 C39.9 9.02, 48.62 20.37, 59.94 29.24 M57.18 33.57 C50.67 37.24, 39.79 49.36, 30.82 57.36 M57.97 29.39 C48.11 40.31, 41.21 48.32, 29.6 56.62 M33.21 60.83 C17.15 47.15, 11.79 38.9, -1.95 27.52 M31.29 57.35 C22.57 49.95, 15.78 45.46, -0.71 28.72 M-2.45 31.78 C8.61 23.97, 9.06 18.49, 31.36 1.08 M-1.31 31.34 C8.86 19.18, 17.31 11.59, 29.3 -1.35" stroke="#1e1e1e" stroke-width="1" fill="none"></path></g></svg>