<svg version="1.1" xmlns="http://www.w3.org/2000/svg" viewBox="0 0 86 102" width="258" height="306">
  <!-- svg-source:excalidraw -->
  
  <defs>
    <style class="style-fonts">
      @font-face {
        font-family: "Virgil";
        src: url("https://excalidraw.com/Virgil.woff2");
      }
      @font-face {
        font-family: "Cascadia";
        src: url("https://excalidraw.com/Cascadia.woff2");
      }
    </style>
    
  </defs>
  <g stroke-linecap="round" transform="translate(26 10) rotate(0 25 41)"><path d="M25.96 0.04 C25.96 0.04, 25.96 0.04, 25.96 0.04 M25.96 0.04 C25.96 0.04, 25.96 0.04, 25.96 0.04 M10.14 22.7 C21.71 19.12, 20.75 5.49, 29.54 3.05 M12.93 20.67 C17.45 15.93, 24.11 8.1, 28.35 2.8 M-3.43 42.68 C13.53 30.12, 22.32 18.51, 33.2 9.92 M-0.81 40.89 C7.56 34.46, 14.81 25.03, 28.25 6.3 M1.04 48.72 C8.04 36.07, 18.51 31.15, 32.83 11.84 M1.45 44.92 C13.03 36.08, 17.61 27.61, 33.55 12.83 M6.2 45.53 C13.43 36.37, 26.47 29.18, 32.65 16.61 M6 50.55 C16.89 35.68, 25.86 23.22, 33.56 15.7 M5.69 53.25 C21.08 44.15, 26.91 28.19, 34.91 22.32 M8.38 51.63 C20.11 39.45, 27.3 27.02, 34.58 18.42 M8.57 57.37 C14.74 52.15, 18.8 44.43, 38.81 19.18 M8.55 57.24 C15.14 49.69, 22.29 40.19, 37.66 21.73 M10.84 61.21 C19.03 49.7, 29.16 36.99, 38.01 23.7 M13.11 57.44 C18.86 47.32, 31.83 36.84, 38.73 27.08 M14.27 67.16 C22.62 51.43, 33.51 41.81, 42.01 32.96 M12.95 61.73 C21.18 54.97, 26.31 47.88, 44.86 28.09 M16.48 70.18 C28.66 52.19, 40.23 38.23, 43.14 34.4 M16.07 65.82 C26.22 55.27, 34.01 44.71, 43.9 33.66 M18.59 66.82 C24.22 62.61, 29.28 50.74, 49.26 36.26 M17.93 69.87 C30.1 58.76, 39.52 45.79, 48.01 35.59 M23.28 72.7 C25.24 63.01, 31.18 58.15, 50.69 37.37 M22.3 73.29 C27.1 65.52, 35.6 55.95, 51.28 39.67 M21.65 79.79 C34.79 67.16, 42.61 46.83, 50.33 44.64 M22.87 77.17 C28.33 68.67, 37.15 62.17, 50.63 44.4 M28.71 76.86 C32.67 73.15, 40.32 66.39, 36.73 62.15 M25.49 82.07 C27.23 77.33, 30.89 71.97, 41.6 63.33" stroke="#eaddd7" stroke-width="0.5" fill="none"></path><path d="M25.19 -1.08 C37.65 17.58, 46.19 29.54, 48.44 39.23 M24.99 -1.22 C30.63 7.63, 35.89 16.76, 48.8 40.19 M51.21 38.95 C40.79 53.98, 35.64 63.68, 25.88 81.65 M49.79 43.9 C40.05 55.48, 30.15 72.3, 27.26 81.9 M27.87 78.68 C14.11 69.83, 7.29 49.94, 1.86 38.9 M26.34 82.81 C19.9 68.9, 10.92 56.53, 0.92 41.27 M-0.19 42.82 C7.68 27.35, 10.79 20.3, 23.28 0.11 M0.94 40.86 C9.54 26.95, 18.39 8.39, 24.07 0.29" stroke="#343a40" stroke-width="1" fill="none"></path></g><g stroke-linecap="round" transform="translate(10 34) rotate(0 29 29)"><path d="M-0.24 30.27 C-0.24 30.27, -0.24 30.27, -0.24 30.27 M-0.24 30.27 C-0.24 30.27, -0.24 30.27, -0.24 30.27 M3.95 36.65 C14.81 21.37, 15.42 15.8, 30.62 3.67 M1.92 31.61 C11.36 23.81, 17.71 16.08, 30.37 2.03 M6.21 37.66 C14.72 26.38, 24.16 20.99, 35.72 0.63 M4.42 36.21 C12.42 29.19, 17.41 18.32, 32.1 1.94 M11.89 37.61 C14.07 33.19, 23.99 21.05, 37.28 5.53 M8.09 39.94 C14.52 29.86, 21.32 26.51, 38.27 6.74 M8.34 40 C16.68 35.71, 26.98 23.47, 40.28 13.67 M13.36 41.67 C21.15 27.98, 31.34 18.68, 39.37 10.8 M15.7 46.74 C24.6 35.37, 26.64 27.86, 45.63 15.26 M14.08 45.18 C20.75 33.82, 27.18 26.65, 41.73 10.61 M19.46 45.67 C30.76 32.78, 39.57 24.31, 42.13 12.17 M19.33 45.42 C28.72 35.48, 36.13 23.92, 44.68 16.34 M22.28 46.79 C33.01 34.81, 42.58 23.52, 44.88 19.23 M18.52 47.5 C27.66 40.94, 36.42 27.34, 48.26 19.84 M27.12 50.78 C33.69 39.41, 46.39 28.54, 53.78 17.39 M21.69 53.95 C31.02 42.62, 40.05 33.25, 48.91 22.6 M29.77 57 C33.27 47.24, 40.82 32.34, 53.45 26.56 M25.41 55.44 C36.41 41.67, 47.38 31.26, 52.71 23.29 M26.05 55.96 C35.97 46.96, 38.23 45.46, 54.95 31.06 M29.11 58.08 C40.5 45.4, 50.02 37.13, 54.28 25.98" stroke="#eaddd7" stroke-width="0.5" fill="none"></path><path d="M28.92 2.33 C41.93 12.16, 47.64 18.87, 55.23 26.75 M28.78 0 C34.82 7.06, 41.08 12.6, 56.19 30.15 M54.95 28.6 C50.74 37.89, 41.25 43.83, 29.65 61.4 M59.9 28.82 C46 38.13, 37.38 51.26, 29.9 59.84 M26.68 56.18 C25.65 51.84, 12.87 44.15, -3.1 30.13 M30.81 59.4 C20.64 51.35, 12.84 44.92, -0.73 29.67 M0.82 30.96 C8.61 15.38, 24.82 4.6, 30.11 3.63 M-1.14 29.78 C11.73 17.78, 19.99 6.97, 30.29 -1.58" stroke="#343a40" stroke-width="1" fill="none"></path></g></svg>