<svg version="1.1" xmlns="http://www.w3.org/2000/svg" viewBox="0 0 86 102" width="258" height="306">
  <!-- svg-source:excalidraw -->
  
  <defs>
    <style class="style-fonts">
      @font-face {
        font-family: "Virgil";
        src: url("https://excalidraw.com/Virgil.woff2");
      }
      @font-face {
        font-family: "Cascadia";
        src: url("https://excalidraw.com/Cascadia.woff2");
      }
    </style>
    
  </defs>
  <g stroke-linecap="round" transform="translate(26 10) rotate(0 25 41)"><path d="M25.96 0.04 C25.96 0.04, 25.96 0.04, 25.96 0.04 M25.96 0.04 C25.96 0.04, 25.96 0.04, 25.96 0.04 M10.41 20.53 C17.59 16.06, 21.11 13.8, 28.55 1.52 M13.64 20.6 C14.43 16.46, 21.51 12.26, 28.32 2.48 M0.19 41.99 C7.65 27.88, 23.01 17.73, 30.01 4 M0.63 43.38 C5.46 34.04, 13.33 28.39, 30.97 6.72 M-0.77 45.91 C8.55 34.64, 18.45 24.96, 32.43 7.77 M1.14 44.32 C10.69 35.75, 16.62 28.95, 32.81 9.64 M6.91 46.24 C12.99 42.24, 19.82 25.19, 30.43 14.74 M4.29 47.71 C16.26 34.51, 25.13 25.77, 34.88 14.89 M5.02 55.5 C18.37 42.24, 30.72 26.13, 37.07 15.22 M8.51 52.66 C17.31 41.16, 28.11 27.66, 34.81 19.54 M11.19 57.64 C18.02 45.1, 22.54 42.69, 35.77 20.71 M8.19 56.69 C13.24 48.52, 23.1 44.4, 40 21.6 M11.37 59.52 C19.91 51.54, 24.11 43.35, 42.79 25.13 M11.41 57.97 C19.52 49.31, 31.5 40.27, 39.26 23.98 M11.69 63.2 C23.89 49.87, 30.38 42.95, 41.68 30.05 M13.1 62.35 C20.84 52.8, 32.45 42.72, 42.64 30.48 M13.58 66.36 C24.96 51.78, 38.61 41.53, 47.17 29.48 M15.32 66.58 C21.65 61.76, 28.06 51.98, 46.47 33.35 M14.3 70.4 C25.39 58.41, 39.49 49.75, 42.99 39.35 M17.15 69.09 C28.61 56.34, 37.75 45.08, 48.45 37.48 M22.14 72.87 C30.67 67.16, 37.23 55.41, 45.68 42.27 M19.03 73.22 C27.5 64.52, 37.67 56.81, 48.77 39.94 M20.18 79.75 C32.6 66.18, 40.83 59.17, 47.8 44 M23.87 78.2 C28.41 71.3, 34.55 65.58, 50.47 45.2 M26.85 76.93 C28.43 78.12, 33.27 72.31, 39.94 61.6 M26.77 81.47 C28.44 76.83, 31.2 73.09, 38.79 64.01" stroke="#eaddd7" stroke-width="0.5" fill="none"></path><path d="M27.36 1 C35.91 9.88, 40.26 28.38, 51.89 39.69 M27.65 -1.21 C35.82 13.21, 41.58 28.68, 49.16 41.5 M46.58 41.42 C44.2 52.82, 34.27 60.05, 29.92 83 M51.56 41.06 C42.02 56.61, 33.58 70.19, 26.8 83.99 M28.05 84.99 C23.12 73.49, 18.57 65.67, 2.57 43.2 M24.74 81.88 C17.14 68.75, 7.9 56.89, 1.32 42.54 M-0.91 39.17 C8.09 26.25, 22.66 6.89, 24.13 -1.93 M0.6 43.1 C8.02 29.4, 16.56 15.44, 25.52 0.99" stroke="#343a40" stroke-width="1" fill="none"></path></g><g stroke-linecap="round" transform="translate(10 34) rotate(0 29 29)"><path d="M-0.24 30.27 C-0.24 30.27, -0.24 30.27, -0.24 30.27 M-0.24 30.27 C-0.24 30.27, -0.24 30.27, -0.24 30.27 M1.78 33.88 C9.93 24.46, 20.31 14.87, 29.09 -2.19 M1.85 30.96 C10.01 25.14, 17.81 14.75, 30.05 1.96 M5.52 32.12 C13.32 25.93, 25.04 15.12, 29.8 0.17 M6.91 35.12 C14.2 25.65, 25.2 14.6, 32.53 3.04 M9.08 36.13 C13.26 31.24, 18.99 23.95, 33.21 4.04 M7.49 38.75 C13.02 31.11, 20.31 25.59, 35.08 6.39 M9.05 40.35 C22.95 29.08, 23.83 18.75, 38.41 12.34 M10.52 41.7 C17.55 30.81, 29.07 23.36, 38.56 10.75 M17.95 44.07 C22.44 39.56, 24.08 30.49, 38.53 14.29 M15.11 43.29 C22.46 35.3, 27.8 25.01, 42.85 11.09 M19.73 47.9 C23.18 35.96, 36.8 23.97, 43.66 11.22 M18.78 44.04 C26.01 38.45, 37.27 28.01, 44.55 13.56 M20.6 51.03 C27.6 40.09, 34.44 34.29, 46.31 18.76 M19.04 48.17 C27.9 42.93, 36.39 31.37, 45.16 19.06 M23.16 52.72 C28.84 40.69, 40.97 33.04, 50.86 21.13 M22.31 50.38 C30.2 44.84, 37.59 35.2, 51.3 22.66 M25.96 53.31 C33.41 45.47, 45.18 35.82, 48.53 20.89 M26.18 54.06 C34.61 47.32, 38.07 42.29, 52.4 24.67 M29.64 55.74 C36.45 51.61, 46.57 34.31, 58.04 29.4 M28.33 58.08 C37.82 45.22, 48.8 35.17, 56.17 26.35" stroke="#eaddd7" stroke-width="0.5" fill="none"></path><path d="M31 2.43 C33.23 6.57, 45.34 17.29, 55.69 31.22 M28.79 1.72 C39.25 8.68, 49.79 17.9, 57.5 28.95 M57.42 30.05 C50.25 34.3, 38.86 50.86, 31 60.48 M57.06 30.93 C50.51 39.24, 41.99 46.48, 31.99 56.36 M32.99 60.09 C22.88 55.56, 17.4 48.96, 1.2 31.39 M29.88 57.05 C23.46 50.52, 18.97 47.71, 0.54 31.48 M-2.83 28.36 C8.91 24.38, 14.21 10.35, 28.07 0.23 M1.1 30.86 C12.07 19.44, 22.79 5.65, 30.99 -0.26" stroke="#343a40" stroke-width="1" fill="none"></path></g></svg>