<svg version="1.1" xmlns="http://www.w3.org/2000/svg" viewBox="0 0 86 102" width="258" height="306">
  <!-- svg-source:excalidraw -->
  
  <defs>
    <style class="style-fonts">
      @font-face {
        font-family: "Virgil";
        src: url("https://excalidraw.com/Virgil.woff2");
      }
      @font-face {
        font-family: "Cascadia";
        src: url("https://excalidraw.com/Cascadia.woff2");
      }
    </style>
    
  </defs>
  <g stroke-linecap="round" transform="translate(26 10) rotate(0 25 41)"><path d="M25.96 0.04 C25.96 0.04, 25.96 0.04, 25.96 0.04 M25.96 0.04 C25.96 0.04, 25.96 0.04, 25.96 0.04 M14.62 18.93 C21.29 11.77, 26.62 5.34, 26.06 4.2 M10.86 19.64 C16.3 17.36, 21.48 7.88, 29.44 4.81 M3.71 41.04 C11.42 28.28, 25.32 16.04, 33.65 3.87 M-1.72 44.2 C8.65 31.62, 18.79 20.97, 28.79 9.08 M5.71 48.01 C10.47 36.68, 19.38 20.22, 33.32 13.04 M1.35 46.44 C13.83 30.97, 26.28 18.86, 32.58 9.77 M1.33 47.72 C12 37.84, 15.02 35.46, 33.51 19.04 M4.39 49.84 C16.96 35.84, 27.64 26.24, 32.84 13.97 M6.21 50.13 C13.5 38.3, 25.72 32.8, 33.6 17.11 M6.8 50.91 C14.7 43.25, 20.86 38, 35.91 20.41 M12.28 56.1 C21.03 43.25, 22.05 35.91, 39.86 19.17 M9.66 54.82 C19.01 45.32, 30.31 31.59, 39.62 23.01 M8.33 60.91 C16.95 55.77, 22.38 41.39, 39.85 23.04 M13.54 57.67 C20.28 48.94, 26.58 42.65, 41.03 26.83 M15.82 66.53 C23.01 52.11, 33.12 37.29, 40.95 29.74 M11.55 61.47 C23.97 49.08, 36.38 38.28, 44.12 28.11 M16 66.09 C30.15 56.65, 37.92 38.94, 46.25 36.2 M17.73 65.4 C25.64 55.47, 35.7 40.49, 44.96 33.76 M14.48 67.89 C27.88 57.3, 43.45 45.91, 48.26 40.76 M16.87 68.53 C27.97 59.64, 38.42 48.26, 46.69 37.56 M24.34 71.91 C32.47 62.88, 38.57 52.77, 52.89 43.95 M20.87 73.12 C26.23 66.45, 32.98 60.44, 48.71 39.77 M22.02 74.05 C33.7 64.39, 42.17 58.09, 54.52 40.96 M21.85 75.58 C28.52 66.36, 36.86 60.23, 51.04 42.26 M23.77 77.63 C24.8 78.74, 31.51 70.21, 42.05 65.76 M25.87 80.74 C29.81 76.96, 34.43 68.5, 41.62 63.45" stroke="#eaddd7" stroke-width="0.5" fill="none"></path><path d="M26.4 2.14 C33.2 11.89, 41.62 27.6, 52.36 38.81 M24.61 0.69 C31.62 11.78, 35.75 19.04, 48.75 40.12 M53.07 41.47 C40.79 56.75, 36.32 64.62, 26.9 81.09 M49.27 43.79 C45.25 48.03, 41.47 59.39, 27.9 82.3 M22.5 81.23 C17.57 75.08, 14.52 60.56, 1.54 45.85 M27.52 82.9 C17.24 66.87, 9.35 54.47, 0.63 42.98 M0.84 45.35 C9.56 31.45, 11.39 21.41, 29.88 2.81 M-0.78 43.79 C5.51 29.85, 11.74 20.1, 25.98 -1.84" stroke="#343a40" stroke-width="1" fill="none"></path></g><g stroke-linecap="round" transform="translate(10 34) rotate(0 29 29)"><path d="M-0.24 30.27 C-0.24 30.27, -0.24 30.27, -0.24 30.27 M-0.24 30.27 C-0.24 30.27, -0.24 30.27, -0.24 30.27 M0.18 35.86 C10.21 23.14, 20.91 6.74, 31.77 1.28 M0.89 31.39 C11.35 23.76, 14.85 18, 32.39 1.71 M4.57 36.57 C14.42 27.46, 24.79 15.58, 29.67 5.3 M7.73 34.75 C17.5 22.9, 29.2 10.2, 34.88 4.69 M11.18 36.68 C22.59 22.29, 28.89 13.68, 38.48 9.42 M9.61 38.34 C14.9 30.79, 23.57 20.68, 35.21 5.09 M10.53 41.48 C17.22 28.09, 31.42 20.63, 42.71 11.89 M12.65 42.47 C17.48 34.9, 26.7 23.73, 37.64 9.88 M12.58 41.57 C21.27 33.15, 36.31 17.02, 40.42 9.76 M13.35 44.67 C23.2 32.93, 35.47 20.75, 43.72 11.95 M18.18 49.4 C21.91 33.59, 31.14 30.04, 42.12 16.69 M16.91 45.4 C25.98 38.5, 30.81 30.6, 45.96 13.21 M21.98 48.48 C30.81 40.18, 30.44 32.72, 44.22 17.14 M18.74 50.61 C28.25 37.91, 40.21 27.83, 48.01 19.98 M26.49 50.9 C34.27 38.7, 41.68 28, 50.56 24.66 M21.43 50.46 C27.75 45.57, 35.65 41.16, 48.93 22.56 M25.69 58.34 C36.86 45.85, 39.77 37.4, 55.25 27.62 M25 53.55 C35.32 43.32, 40.61 36.82, 52.8 26.22 M27.13 55.55 C36.14 52.69, 44.33 43.65, 59.45 27.73 M27.77 57.72 C36.08 51.63, 41.92 41.84, 56.25 26.92" stroke="#eaddd7" stroke-width="0.5" fill="none"></path><path d="M32.14 0.73 C36.05 9.8, 46.81 17.45, 54.81 27.84 M30.69 -0.21 C39.26 7.15, 44.37 16.66, 56.12 29.58 M57.47 27.53 C53.3 38.45, 41.75 47.86, 29.09 54.21 M59.79 30.1 C47.16 39.69, 41.66 48.97, 30.3 57.05 M29.23 55.75 C25.19 51.69, 13.22 44.92, 3.85 31.68 M30.9 58.02 C19.2 51.47, 11.9 43.08, 0.98 28.57 M3.35 33.53 C7.73 20.63, 15.96 16.42, 32.81 -2.64 M1.79 30.05 C8.82 19.23, 20.09 7.81, 28.16 1.04" stroke="#343a40" stroke-width="1" fill="none"></path></g></svg>