<svg version="1.1" xmlns="http://www.w3.org/2000/svg" viewBox="0 0 86 102" width="258" height="306">
  <!-- svg-source:excalidraw -->
  
  <defs>
    <style class="style-fonts">
      @font-face {
        font-family: "Virgil";
        src: url("https://excalidraw.com/Virgil.woff2");
      }
      @font-face {
        font-family: "Cascadia";
        src: url("https://excalidraw.com/Cascadia.woff2");
      }
    </style>
    
  </defs>
  <g stroke-linecap="round" transform="translate(26 10) rotate(0 25 41)"><path d="M25.96 0.04 C25.96 0.04, 25.96 0.04, 25.96 0.04 M25.96 0.04 C25.96 0.04, 25.96 0.04, 25.96 0.04 M11.31 18.06 C19.59 12.8, 18.15 13.92, 30.89 6.5 M12.69 21.41 C16.82 14.02, 24.91 11.01, 28.34 4.87 M-1.98 40.48 C6.9 30.68, 16.75 24.58, 26.6 8.09 M-0.29 41.27 C11.19 27.14, 21.59 17.58, 28.06 5.61 M4.4 46.58 C11.64 37.63, 16.88 27.82, 29.25 8.29 M1.91 47.35 C13.04 30.67, 23.48 19.19, 33.56 8.94 M5.3 46.12 C18.48 35.37, 30.96 25.91, 31.75 15.42 M4.32 50.01 C10.89 41.99, 18.77 36.62, 34.65 15.02 M3.08 55.78 C15.03 46.21, 15.3 41.2, 33.56 19.63 M5.02 51.97 C17.01 38.64, 28.56 26.9, 37.95 18.46 M8 57.11 C21.42 40.64, 29.63 31.84, 39.6 18.67 M10.24 55.43 C18.07 43.45, 28.28 33.63, 40.48 23.36 M9.76 56.96 C16.14 51.27, 25.82 41.86, 41.71 28.1 M12.61 59.77 C23.02 48.29, 34.04 34.9, 41.97 26.76 M12.32 60.78 C22.87 54.61, 29.93 42.2, 40.1 27.55 M12.79 64.11 C21.46 53.59, 29.26 45.13, 41.01 30.15 M16.03 66.06 C25.23 54.59, 32.77 44.44, 42.3 34.5 M16.3 65.99 C28 56.26, 34.55 45.02, 44.73 34.52 M17.2 71.42 C24.89 65.86, 25.94 55.53, 47.88 38.74 M19.88 71.71 C23.67 63.61, 31.63 53.39, 48.3 36.01 M22.2 70.02 C28.17 64.3, 37.39 51.19, 47.36 44.15 M20.32 75 C28.49 63.74, 38.98 53.2, 48.6 41.03 M26.35 78.87 C37.89 66.15, 46.19 54, 52.35 46.18 M24.07 75.56 C31.99 65.48, 41.46 53.99, 53.05 44.93 M25.37 79.28 C27.04 72.88, 34.78 72.05, 36.59 60.97 M25.52 80.8 C30.07 76.41, 33.09 72.63, 39.49 62.35" stroke="#eaddd7" stroke-width="0.5" fill="none"></path><path d="M29.47 -1.25 C30.39 5.65, 36.19 19.72, 52.4 44.03 M25.78 1.7 C33.77 13.04, 40.89 25.33, 51.43 43.18 M49.12 42.31 C44.21 48.53, 36.63 62.94, 28.12 81.17 M49.89 42.75 C44.83 54.03, 34.8 66.52, 24.46 82.35 M27.53 82.47 C20.1 69.72, 8.05 54.62, -2.68 42.44 M27.29 80.73 C17 68.41, 4.12 52.79, -1.31 40.23 M-0.96 43.47 C7.14 28.41, 15.17 13.69, 25.11 -3.96 M0.31 40.35 C7.91 29.7, 16.51 13.65, 26.19 0.42" stroke="#1e1e1e" stroke-width="1" fill="none"></path></g><g stroke-linecap="round" transform="translate(10 34) rotate(0 29 29)"><path d="M-0.24 30.27 C-0.24 30.27, -0.24 30.27, -0.24 30.27 M-0.24 30.27 C-0.24 30.27, -0.24 30.27, -0.24 30.27 M-0.69 35.2 C7.49 20.24, 21.83 17.49, 34.07 1.92 M2.65 32.09 C12.08 22.74, 25.7 8.66, 32.44 0.31 M4.01 34.07 C14.11 24.12, 27.94 9.94, 33.89 6.52 M4.8 35.1 C8.99 28.02, 17.77 20.72, 31.41 2.32 M9.75 40.14 C14.36 31.66, 18.13 21.42, 33.73 10.13 M10.51 37.71 C18 24.26, 30.7 15.09, 34.38 8.17 M8.93 42.6 C16.73 37.33, 25.82 25.84, 39.09 6.26 M12.82 40.84 C19.97 33.37, 29.76 23, 38.69 7.99 M18.23 45.55 C24.66 29.91, 35.66 20.44, 42.94 15.81 M14.42 42.03 C21.84 33.92, 30.82 27.71, 41.77 13.79 M19.2 47.55 C24.33 34.6, 37.13 25.97, 41.62 15.88 M17.52 45.74 C26.08 35.1, 36.82 25.12, 46.31 15.04 M18.03 45.81 C32.53 35.29, 43.33 27.12, 49.27 20.97 M20.84 50.38 C29.9 40.88, 37.07 31.01, 47.94 18.59 M20.73 52.7 C33.99 40.48, 41 28.64, 48.36 20.26 M24.07 51.47 C29.6 43.63, 37.19 35.2, 50.97 20.7 M25.66 55.77 C30.47 47.18, 36.59 36.35, 53.54 26.35 M25.59 56.49 C33.73 45.56, 40.38 40, 53.56 22.59 M30.66 58.26 C40.52 43.64, 45.59 38.63, 57.43 24.77 M30.95 56.05 C39.57 46.57, 46.07 38.18, 54.7 26.58" stroke="#eaddd7" stroke-width="0.5" fill="none"></path><path d="M28.75 -1.37 C38.4 10.59, 54.58 25.24, 60.03 30.84 M31.7 -0.64 C41.17 10.37, 50.75 24.57, 59.18 28.52 M58.31 29.58 C46.91 35.88, 43.7 49.14, 29.17 57.3 M58.75 31.28 C49.2 37.55, 40.85 47.54, 30.35 58.94 M30.47 61.07 C22.45 50.06, 12.42 39.1, 0.44 33.39 M28.73 59.57 C20.44 46.72, 9.11 36.35, -1.77 29.84 M1.47 30.2 C10.02 19.46, 18.87 6.61, 26.04 1.52 M-1.65 29.55 C12.42 18.76, 21.07 9.07, 30.42 1" stroke="#1e1e1e" stroke-width="1" fill="none"></path></g></svg>