<svg version="1.1" xmlns="http://www.w3.org/2000/svg" viewBox="0 0 79 102" width="237" height="306">
  <!-- svg-source:excalidraw -->
  
  <defs>
    <style class="style-fonts">
      @font-face {
        font-family: "Virgil";
        src: url("https://excalidraw.com/Virgil.woff2");
      }
      @font-face {
        font-family: "Cascadia";
        src: url("https://excalidraw.com/Cascadia.woff2");
      }
    </style>
    
  </defs>
  <g stroke-linecap="round" transform="translate(19 10) rotate(0 25 41)"><path d="M25.96 0.04 C25.96 0.04, 25.96 0.04, 25.96 0.04 M25.96 0.04 C25.96 0.04, 25.96 0.04, 25.96 0.04 M8.65 25.19 C15.88 18.03, 26.58 10.37, 24.37 4.11 M14.27 19.55 C19.36 15.63, 23.33 7.13, 27.09 3.01 M-0.82 40.76 C13.76 28.22, 23.37 17.33, 27.2 11.31 M-1.21 42.96 C11.63 28.71, 21.33 19.31, 29.18 9.37 M4.54 44.92 C14.38 29.3, 22.67 17.21, 29.93 10.95 M3.64 45.71 C13.2 35.15, 22.25 20.6, 32.43 9.84 M1.52 50.22 C15.79 38.14, 17.32 30.1, 34.89 14.7 M5.03 50.63 C14.18 37.74, 27.76 23.91, 34.07 16.8 M5.87 48.7 C13.3 42.45, 24.94 26.09, 38.48 20.53 M6.44 50.66 C15.3 43.79, 22.03 37.08, 38.37 18.83 M12.79 57.73 C19.1 46.51, 30.77 36.02, 38.01 22.51 M9.77 55.95 C15.15 46.4, 20.97 41.52, 38.29 23.72 M8.41 60.47 C22.53 48.64, 29.66 34.26, 37.25 29.05 M13.56 59.59 C20.55 44.87, 34.23 32.16, 39.7 25.99 M12.6 67.21 C19.21 54.5, 21.83 53.1, 43.85 33.08 M14.63 64.15 C24.44 52.33, 34.86 38.47, 41.61 30.32 M13.13 68.79 C21.53 55.46, 37.73 46.26, 44.26 29.94 M16.94 68.42 C21.58 58.73, 26.65 52.37, 45.83 34.67 M21.24 69.62 C31.48 56.64, 38.08 43.83, 44.45 39.72 M17.85 69.62 C29.11 57.89, 38.09 44.9, 48.43 37.91 M21.73 73.22 C30.14 66.48, 37.86 50.7, 52.89 37.14 M21.1 74.21 C29.55 64.47, 39.2 52.41, 49.44 38.89 M23.81 79.4 C28.7 69.21, 43.59 53.14, 54.59 40.99 M22.3 76.34 C29.72 69.45, 34.35 62.65, 49.72 43.16 M24.65 80.82 C24.78 75.66, 34.77 71.79, 40.22 63.21 M23.25 79.64 C29.53 76.08, 35.64 69.01, 38.77 61.36" stroke="#eaddd7" stroke-width="0.5" fill="none"></path><path d="M24.9 1.46 C34.7 19.94, 45.71 34.3, 51.93 39.82 M27.98 1.41 C35.27 13.78, 39.95 23.23, 51.1 41.25 M50.88 42.65 C45.4 48.78, 40.42 63.62, 24.79 85.76 M48.51 42.03 C42.92 54.61, 35.63 68.36, 26.04 82.32 M25.68 82.69 C20.98 72.28, 13.92 63, -2.52 44.54 M25.43 80.65 C17.33 69.29, 10.84 57.03, -1.75 42.82 M0.05 42.13 C12.4 27.3, 17.53 13.17, 27.05 -2.83 M0.96 41.69 C4.71 33.8, 8.54 25.75, 27.94 1.81" stroke="#1e1e1e" stroke-width="1" fill="none"></path></g><g stroke-linecap="round" transform="translate(10 34) rotate(0 29 29)"><path d="M-0.24 30.27 C-0.24 30.27, -0.24 30.27, -0.24 30.27 M-0.24 30.27 C-0.24 30.27, -0.24 30.27, -0.24 30.27 M6.43 30.61 C12.35 28.88, 17.47 14.23, 31.69 2.69 M0.8 34.28 C13.24 20.45, 21.38 7.73, 30.58 2.12 M4.29 37.61 C12.44 27.25, 22.24 15.87, 37.11 6.1 M6.49 36.35 C12.18 26.88, 22.72 17.58, 35.17 5.74 M8.09 38.73 C15.93 23.55, 27.32 12.97, 36.39 7.75 M8.88 39.67 C20.4 26.14, 27.96 13.48, 35.28 5.83 M13.03 43.58 C16.39 30.35, 23.78 27.51, 38.37 13.06 M13.44 39.07 C21.37 32.24, 28.34 22.52, 40.47 10.67 M11.15 40.22 C26.87 30.02, 32.45 21.8, 43.84 10.37 M13.11 44.26 C22.07 35.27, 31.19 28.38, 42.14 12.7 M19.81 46.59 C27.34 39.23, 35.59 26.07, 45.46 11.69 M18.04 46.12 C26.31 33.37, 39.24 21.19, 46.67 16.04 M21.54 50.83 C31.92 36.1, 39.75 22.06, 50.22 21.95 M20.66 47.7 C29.26 37.61, 39.9 23.92, 47.16 16.47 M27.17 51.75 C28.64 40.08, 41.41 36.16, 53.9 24.23 M24.11 51.45 C31.5 43.07, 36.85 35.83, 51.14 21.41 M28.39 50.81 C31.52 51.38, 38.77 40.95, 48.99 20.59 M28.02 54.02 C30.54 46.6, 36.42 42.93, 53.72 25.47 M28.86 60.67 C35.93 47.04, 43.19 34.96, 58.41 29.44 M28.86 57.42 C34.98 49.29, 39.83 45.15, 56.6 26.67" stroke="#eaddd7" stroke-width="0.5" fill="none"></path><path d="M31.46 -0.4 C40.38 9.62, 46.05 18.45, 55.82 29.66 M31.41 1.48 C43.45 10.42, 51.67 24.17, 57.25 29.42 M58.65 31.85 C45.32 42.08, 40.74 46.08, 33.76 59.13 M58.03 30.18 C46.85 40.93, 36.89 50.78, 30.32 56.04 M30.69 57.97 C19.33 48.62, 10.09 40.45, 2.54 30.36 M28.65 57.08 C20.95 51.06, 13.13 41.29, 0.82 30.68 M0.13 33.97 C9.15 20.51, 18.96 11.23, 27.17 -3.85 M-0.31 30.16 C12.08 16.73, 24.27 8.3, 31.81 0.06" stroke="#1e1e1e" stroke-width="1" fill="none"></path></g></svg>