<svg version="1.1" xmlns="http://www.w3.org/2000/svg" viewBox="0 0 83 102" width="249" height="306">
  <!-- svg-source:excalidraw -->
  
  <defs>
    <style class="style-fonts">
      @font-face {
        font-family: "Virgil";
        src: url("https://excalidraw.com/Virgil.woff2");
      }
      @font-face {
        font-family: "Cascadia";
        src: url("https://excalidraw.com/Cascadia.woff2");
      }
    </style>
    
  </defs>
  <g stroke-linecap="round" transform="translate(23 10) rotate(0 25 41)"><path d="M25.96 0.04 C25.96 0.04, 25.96 0.04, 25.96 0.04 M25.96 0.04 C25.96 0.04, 25.96 0.04, 25.96 0.04 M10.96 18.25 C20.85 19.06, 26.65 12.92, 32.11 4.26 M11.8 20.7 C16.16 15.53, 18.99 13.09, 27.94 5.38 M3.13 43.23 C12.82 35.79, 15.34 19.98, 32.55 9.26 M0.4 40.99 C8.51 33.57, 14.26 23.88, 28.73 8.61 M2.84 45.31 C4.96 34.21, 11.02 34.54, 34.79 14.41 M1.92 46.88 C11.76 37.77, 19.09 29.12, 33.97 10.72 M2.13 46.52 C19.03 38.33, 24.57 23.15, 33.61 14.19 M3.29 50.49 C14.8 38.52, 22.47 29.31, 34.73 14.96 M2.99 55.97 C13.39 41.48, 28.33 29.06, 37.74 19.98 M6.97 52.52 C14.28 41.83, 26.53 32.42, 36.96 19.74 M6.7 58.69 C13.13 43.72, 22.42 42.32, 37.78 20.87 M9.63 53.82 C18.76 42.59, 29.91 34.14, 38.56 22.14 M10.39 59.11 C18.46 52.25, 26.36 47.98, 36.65 24.85 M11.9 57.66 C17.8 50.7, 28.97 41.18, 41.16 25.91 M10.86 61.36 C21 56.28, 28.71 44.05, 40.07 28.07 M11.49 64.71 C20.56 58.14, 26.31 50.82, 41.83 29.45 M19.71 69.72 C24.51 60.28, 32.69 49.77, 48.46 31.64 M15.51 68.32 C21.62 58.6, 32.05 47.92, 46.2 33.33 M15.88 72.65 C21.5 58.42, 29.66 50.39, 50.7 39.04 M18.33 69.24 C25.53 57.95, 38.27 50.2, 47.51 36.54 M16.82 75.28 C34.04 57.01, 46.27 44.31, 48.02 40.96 M21.91 74.9 C25.54 66.17, 31.49 58.4, 47.73 39.97 M26.29 79.67 C33.98 65.23, 39.26 55.05, 53.14 39.75 M20.97 78.39 C32.11 64.49, 46.33 50.85, 49.94 41.69 M22.88 80.3 C32.59 75.58, 36.51 72.3, 40.33 61.53 M24.64 80.7 C30.47 73.04, 35.51 70.04, 41.68 63.77" stroke="#eaddd7" stroke-width="0.5" fill="none"></path><path d="M27.67 -2.83 C38.04 17.05, 41.71 29.64, 47.88 43.37 M27.82 -0.86 C35.52 16.32, 42.96 30.06, 51.16 41.63 M49.46 39.54 C42.02 55.51, 37.79 69.05, 28.84 82.11 M48.37 42.03 C40.42 56.57, 31.15 70.76, 24.47 82.6 M24.9 82.79 C16.44 69.95, 6.87 49.57, 0.9 45.2 M26.41 81.97 C21.62 74.4, 15.96 63.56, -0.54 40.15 M-3.48 44.01 C7.56 30.87, 10.24 26.1, 25 -3.49 M1.88 43.9 C9.24 27.76, 17.81 11.93, 27.74 0.97" stroke="#1e1e1e" stroke-width="1" fill="none"></path></g><g stroke-linecap="round" transform="translate(10 34) rotate(0 29 29)"><path d="M-0.24 30.27 C-0.24 30.27, -0.24 30.27, -0.24 30.27 M-0.24 30.27 C-0.24 30.27, -0.24 30.27, -0.24 30.27 M-0.5 35.98 C15.83 26.01, 25.08 15.5, 31.83 -2.95 M1.95 32.92 C7.69 24.36, 16.29 16.29, 32.95 0.31 M6.76 39.26 C16.32 24.67, 17.47 21.96, 35.06 2.69 M4.52 36.5 C16.93 21.97, 27.05 10.2, 34.41 1.9 M8.48 34.61 C12.23 25.45, 27.45 22.52, 39.85 5.19 M10.05 39.34 C17.61 30.22, 25.61 22.95, 36.16 8.15 M9.33 43.64 C21.42 29.85, 26.52 24.03, 37.86 10.14 M13.3 41.83 C19.59 31.81, 28.62 23.83, 38.63 10.58 M18.42 40.31 C25.17 34.55, 34 22.69, 43.29 12.92 M14.97 42.05 C25 33.42, 36.31 20.56, 43.05 11.18 M20.78 43.39 C23.99 34.34, 40.81 21.91, 43.82 16.54 M15.91 45.57 C24.33 37.25, 35.52 26.78, 45.09 13.42 M20.18 49.77 C27.97 42.97, 38.38 28.51, 46.03 17.81 M18.73 47.91 C31.58 38.85, 41.89 26.03, 47.09 17.72 M21.32 51.85 C33.17 42.9, 37.91 31.09, 48.89 17.6 M24.67 53.3 C34.98 42.2, 44.52 29.33, 50.27 20.95 M29.31 54.67 C36.47 46.02, 42.53 42.28, 50.68 22.66 M27.91 52.93 C33.59 48.08, 38.31 40.37, 52.38 23.45 M31.88 53.32 C33.29 46.14, 40.88 44.46, 57.72 28.01 M28.48 55.69 C37.1 48.48, 49.28 36.62, 55.23 28.77" stroke="#eaddd7" stroke-width="0.5" fill="none"></path><path d="M27.17 3.75 C40.15 7.15, 45.79 14.48, 59.37 31.66 M29.14 1.81 C38.62 7.8, 44.79 15.16, 57.63 30.29 M55.54 30.01 C52.01 40.12, 46.1 46.49, 30.11 61.06 M58.03 28.9 C47.2 38.55, 36 48.67, 30.6 59.41 M30.79 57.63 C26.39 50.67, 13.47 45.01, 3.2 26.61 M29.97 59.73 C19.71 49.58, 6.53 37.14, -1.85 28.41 M2.01 32.08 C8.11 19.61, 22.55 9.64, 26.51 1.73 M1.9 30.38 C9.43 20.21, 17.26 12.67, 30.97 0.29" stroke="#1e1e1e" stroke-width="1" fill="none"></path></g></svg>