<svg version="1.1" xmlns="http://www.w3.org/2000/svg" viewBox="0 0 86 102" width="258" height="306">
  <!-- svg-source:excalidraw -->
  
  <defs>
    <style class="style-fonts">
      @font-face {
        font-family: "Virgil";
        src: url("https://excalidraw.com/Virgil.woff2");
      }
      @font-face {
        font-family: "Cascadia";
        src: url("https://excalidraw.com/Cascadia.woff2");
      }
    </style>
    
  </defs>
  <g stroke-linecap="round" transform="translate(26 10) rotate(0 25 41)"><path d="M25.96 0.04 C25.96 0.04, 25.96 0.04, 25.96 0.04 M25.96 0.04 C25.96 0.04, 25.96 0.04, 25.96 0.04 M13.38 25.1 C21.56 12.72, 27.15 8.36, 27.4 6.09 M12.8 22.41 C15.03 16.74, 20.82 12.71, 26.36 2.44 M-1.27 41.98 C14.82 26.21, 25.55 14.61, 32.39 6.09 M-1.89 44.04 C10.45 32.45, 20.74 19.03, 31.64 7.89 M-1.76 48.14 C10.49 32.55, 22.09 19.8, 29.42 13.65 M2.19 45.74 C12.62 31.09, 23.3 19.79, 34 9.09 M8.37 49.7 C13.59 42.6, 21.59 32.45, 37.02 13.49 M6.29 48.7 C13.31 38.69, 21.03 30.9, 33.43 15.04 M9.09 55.73 C16.43 41.07, 29.18 29.57, 36.28 16.12 M6.66 52.46 C14.41 42.99, 23.97 33.85, 36.73 19.15 M8.3 52.13 C20.77 43.92, 23.82 33.16, 41.75 19.67 M9.72 54 C18.64 45.03, 25.62 34.05, 39.13 22.33 M13.32 62.15 C22.45 51.96, 28.73 38.74, 42.87 28.07 M10.28 57.54 C20.47 47.99, 30.97 35.12, 40.54 24.43 M9.75 63.6 C20.63 50.77, 32.88 40.17, 41.5 29.34 M13.2 65 C24.45 51.03, 32.55 43.42, 41.72 27.76 M15.54 70.36 C21.22 56.77, 29.68 49.18, 42.79 37.32 M14.19 66.75 C24.62 56.7, 35.7 44.71, 46 32.11 M16.64 69.4 C30.87 59.84, 36.63 49.68, 47.93 34.18 M18.15 71.87 C24.96 64.15, 31.24 54.87, 46.75 38.45 M21.05 70.28 C24.87 68.37, 29.61 57.5, 53.07 44.18 M20.09 74.93 C30.74 62.15, 42.05 50.19, 49.01 39.99 M21.7 78.37 C32.75 62.53, 41.1 54.26, 55.45 47.14 M22.64 78.43 C29.47 68.74, 37.49 60.07, 50.41 44.89 M23.94 83.36 C28.64 73.61, 29.98 71.24, 42.41 63.56 M26.37 78.6 C28.24 74.82, 32.98 68.61, 40.97 62.62" stroke="#eaddd7" stroke-width="0.5" fill="none"></path><path d="M22.5 -3.84 C33.74 11.18, 40.04 25.45, 50.11 44.96 M26.03 -0.65 C34.44 13.21, 39.67 24.53, 50.5 42.39 M52.81 43.87 C44.14 50.59, 37.45 60.94, 25.99 85.31 M51.19 41.05 C39.84 55.68, 33.08 71.28, 27.42 82.59 M28.23 83.89 C17.52 69.92, 10.12 56.86, 0.33 44.87 M26.32 81.47 C15.84 68.92, 9.17 54.31, -0.09 40.6 M0.73 40.84 C8.42 30.49, 13.22 18.86, 27.86 -3.78 M-0.07 42.15 C8.71 28.44, 16.5 13.83, 24.21 -1.15" stroke="#343a40" stroke-width="1" fill="none"></path></g><g stroke-linecap="round" transform="translate(10 34) rotate(0 29 29)"><path d="M-0.24 30.27 C-0.24 30.27, -0.24 30.27, -0.24 30.27 M-0.24 30.27 C-0.24 30.27, -0.24 30.27, -0.24 30.27 M6.35 36.2 C6.99 28.35, 15.75 16.14, 33.67 -1.24 M3.65 31.19 C10.59 23.94, 18.98 13.03, 30.01 2.4 M5.51 38.65 C12.49 27.23, 23.66 17.43, 31.89 5.43 M7.57 36.54 C18.82 24.38, 28.22 12.28, 33.69 5.11 M11.31 35.63 C17.45 26.33, 26.43 14.8, 39.09 9.08 M8.91 37.69 C15.95 26.96, 26.37 19.02, 34.53 5.51 M12.51 41.98 C20.78 34.2, 26 27.6, 37.16 8.86 M11.51 41.69 C20.28 29.99, 31.27 17.99, 38.71 9.93 M18.18 43.42 C20.15 39.66, 25.28 28.5, 39.43 11.28 M14.91 42.31 C20.51 37.22, 26.43 30.25, 42.46 12.56 M14.22 48.13 C23.2 34.48, 29.61 33.45, 42.62 15.06 M16.09 46.19 C24.07 36.39, 30.06 30.57, 45.28 15.06 M23.22 50.94 C28.69 41.83, 31.08 38.44, 49.25 20.34 M18.62 47.9 C27.56 40.76, 33.17 33.78, 45.61 18.47 M23.56 49.86 C26.9 46.88, 32.46 37.44, 50.16 21.91 M24.96 53.18 C28.2 44.58, 37.82 36.34, 48.58 19.24 M29.96 54.06 C30.92 47.73, 37.9 35.23, 56.37 26.01 M26.34 53.68 C35.18 46.61, 42.07 38.89, 51.15 24.76 M28.64 60.4 C35.28 50.64, 41.35 45.18, 52.87 23.78 M31.11 58.21 C39.94 47.49, 47.19 35.61, 57.14 25.55" stroke="#eaddd7" stroke-width="0.5" fill="none"></path><path d="M26.16 -0.87 C37.94 9.52, 49.11 23.64, 60.96 30.03 M29.35 0.66 C41.29 9.68, 50.25 22.53, 58.39 28.42 M59.87 29.28 C48.83 37.25, 41.39 48.31, 33.31 61.07 M57.05 28.9 C48.32 39.86, 40.5 48.46, 30.59 59.07 M31.89 59.21 C20.99 51.17, 11.18 38.34, 2.87 31.6 M29.47 56.74 C20.94 50.42, 10.74 40.83, -1.4 29.1 M-1.16 31.61 C7.64 21.29, 15.12 14.97, 26.22 1.63 M0.15 29.69 C9.22 20.2, 17.37 11.35, 28.85 0.51" stroke="#343a40" stroke-width="1" fill="none"></path></g></svg>