<svg version="1.1" xmlns="http://www.w3.org/2000/svg" viewBox="0 0 78 114.44099222080604" width="234" height="343.3229766624181">
  <!-- svg-source:excalidraw -->
  
  <defs>
    <style class="style-fonts">
      @font-face {
        font-family: "Virgil";
        src: url("https://excalidraw.com/Virgil.woff2");
      }
      @font-face {
        font-family: "Cascadia";
        src: url("https://excalidraw.com/Cascadia.woff2");
      }
    </style>
    
  </defs>
  <g stroke-linecap="round" transform="translate(15 10) rotate(0 25 41)"><path d="M25.96 0.04 C25.96 0.04, 25.96 0.04, 25.96 0.04 M25.96 0.04 C25.96 0.04, 25.96 0.04, 25.96 0.04 M15.22 17.88 C16.96 20.12, 23.69 14.62, 27.12 4.45 M12.01 21.99 C18.98 15.63, 22.08 8.7, 27.45 3.91 M-0.94 41.87 C3.62 35.97, 12.86 31.59, 29.18 7.67 M1.43 40.92 C8.71 33.35, 15.49 26.83, 29.6 9.23 M5.35 45.25 C12.69 31.6, 22.52 14.69, 32.3 8.73 M2.68 44.01 C11.64 37.22, 19.01 25.9, 33.54 9.67 M8.12 49.85 C12.24 39.39, 25.46 22.93, 30.74 16.38 M5.29 47.88 C13.69 36.6, 26.08 26.64, 32.23 13.74 M4.83 51.01 C12.76 41.95, 19.21 32.73, 38.24 18.78 M7.62 52.47 C17.14 42.16, 26.35 32.03, 34.73 19.81 M5.75 54.54 C12.25 43.68, 23.53 40.01, 39.87 24.26 M7.48 56.62 C17.17 44, 27.05 34.7, 39.34 23.73 M14.5 56.14 C20.54 50.35, 22.33 42.46, 38.53 22.58 M11.88 60.33 C19.67 49.62, 25.01 42.74, 41.33 26.73 M15.86 61.71 C21.9 56.54, 31.42 40.58, 45.42 26.17 M14.15 63.78 C21.58 52.77, 34.69 42.49, 44.64 27.45 M14.91 63.77 C25.18 56.14, 33.54 44.89, 47.97 30.89 M14.29 66.56 C27.13 52.88, 38.36 43.39, 43.03 33.47 M21.58 73.57 C29.67 62.66, 33.01 44.92, 43.51 37.5 M16.79 70.41 C25.57 59.75, 37.51 46.32, 47.13 37.49 M17.8 73.51 C29.11 60.02, 42.73 51.64, 47.28 36.45 M19.03 74.5 C30.47 63.57, 41.07 48.49, 49.55 40.92 M25.32 77.39 C29.51 67.77, 39.31 63.84, 51.48 40.35 M24.33 78.41 C31.24 65.43, 43.96 52.98, 53.24 45.06 M22.22 77.98 C26.4 73.08, 35.56 73.12, 39.37 64.1 M23.71 80.37 C30.19 75.33, 35.96 66.31, 38.88 61.97" stroke="#eaddd7" stroke-width="0.5" fill="none"></path><path d="M24.71 3.51 C35.73 11.69, 46.78 28.25, 50.9 45.55 M26.67 0.96 C35.36 13.8, 44.33 31.06, 49.56 42.37 M52.9 38.35 C41.37 52.54, 41.51 56.68, 28.9 84.54 M49.32 40.8 C42.58 50.96, 38.92 63.31, 26.02 82.59 M22.24 83.06 C18.75 71.65, 11.53 60.86, 2.34 43.73 M25.93 83.05 C21.13 75.27, 14.62 65.95, -1.15 42.69 M1.71 41.97 C4.84 32.27, 9.58 22.03, 28.15 -3.23 M0.84 43.39 C4.06 31.03, 12.37 21.44, 27.27 0.82" stroke="#343a40" stroke-width="1" fill="none"></path></g><g stroke-linecap="round" transform="translate(10 46.44099222080604) rotate(0 29 29)"><path d="M-0.24 30.27 C-0.24 30.27, -0.24 30.27, -0.24 30.27 M-0.24 30.27 C-0.24 30.27, -0.24 30.27, -0.24 30.27 M-0.87 33.09 C11.74 29.07, 16.34 18.23, 32.02 1.78 M3.24 34.18 C12.37 21.24, 21 10.27, 31.48 -1.56 M5.4 33.33 C15.04 26.76, 26.2 14.99, 33.47 1.4 M4.45 36.49 C10.83 29.13, 18.25 21.71, 35.03 5.64 M8.42 36.5 C15.32 26.06, 18.96 21.54, 34.17 5.59 M7.18 39.85 C21.05 26.03, 30.4 13.85, 35.12 7.47 M12.66 38.69 C24.64 28.94, 30.65 12.66, 40.05 11.94 M10.69 39.02 C17.72 33.53, 26.07 24.15, 37.41 9.1 M13.46 41.86 C23.16 29.52, 32.71 22.88, 42.09 13.31 M14.92 43.74 C22.19 35.61, 29.64 26.14, 43.12 11.41 M16.63 42.26 C24.71 34.58, 39.98 23.33, 47.2 15.69 M18.71 44.46 C24.43 36.75, 33.46 29.49, 46.68 14 M17.22 51.74 C30.03 34.07, 40.72 23.06, 43.76 16.38 M21.4 50.81 C29.31 36.98, 41.06 26.23, 47.91 18.66 M21.66 51.22 C34.47 42.7, 36.48 37.13, 46.99 22.23 M23.74 50.42 C31.63 44.75, 40.22 35.83, 48.27 20.9 M23.37 55.7 C33.35 46.61, 39.72 39.82, 49.94 27.48 M26.16 55.11 C32.47 47.23, 42.98 36.16, 52.51 24.96 M32.81 59.76 C41.76 42.83, 43.88 32.49, 56.19 28.13 M29.65 55.66 C39 47.95, 45.59 36.64, 56.18 27.49" stroke="#eaddd7" stroke-width="0.5" fill="none"></path><path d="M33.51 1.01 C34.64 11.78, 43.51 17.9, 61.55 31.87 M30.96 0.43 C39.51 12.07, 52.64 21.72, 58.37 28.61 M54.35 26.7 C50.21 41.89, 36.01 51.55, 32.54 55.91 M56.8 29.28 C51.29 37.15, 47.95 41.39, 30.59 58.13 M31.06 58.67 C22.95 50.58, 15.55 43.24, 1.73 26.39 M31.05 58.49 C22.17 49.35, 12.6 40.67, 0.69 28.11 M-0.03 29.41 C7.59 19.89, 14.64 14.57, 26.77 -2.76 M1.39 28.29 C8.52 20.49, 18.49 11.31, 30.82 0.91" stroke="#343a40" stroke-width="1" fill="none"></path></g></svg>