<svg version="1.1" xmlns="http://www.w3.org/2000/svg" viewBox="0 0 78 114.44099222080604" width="234" height="343.3229766624181">
  <!-- svg-source:excalidraw -->
  
  <defs>
    <style class="style-fonts">
      @font-face {
        font-family: "Virgil";
        src: url("https://excalidraw.com/Virgil.woff2");
      }
      @font-face {
        font-family: "Cascadia";
        src: url("https://excalidraw.com/Cascadia.woff2");
      }
    </style>
    
  </defs>
  <g stroke-linecap="round" transform="translate(15 10) rotate(0 25 41)"><path d="M25.96 0.04 C25.96 0.04, 25.96 0.04, 25.96 0.04 M25.96 0.04 C25.96 0.04, 25.96 0.04, 25.96 0.04 M14.44 21.84 C19.45 18.61, 18.71 15.18, 29.71 5.02 M11.74 21.33 C16.53 15.62, 20.7 10.04, 27.31 3.94 M0.51 40.72 C14.07 28.54, 19.41 20.58, 33.93 3.61 M-1.32 42.62 C7.25 36.35, 12.72 30.33, 28.95 9.41 M4.41 47.94 C6.87 37.59, 14.21 31.93, 35.71 8.47 M3.47 47.18 C7.7 38.64, 15.83 33.33, 34.06 9.74 M6.7 47.01 C10.72 38.45, 22.69 31.24, 36.68 18.73 M5.56 47.23 C14.35 37.94, 24.55 22.51, 33.36 16.47 M10.45 53.42 C11.26 46.27, 20.56 34.45, 40.02 20.31 M7.9 52.84 C17.21 40.65, 30.91 26.47, 36.83 17.05 M5.66 52.48 C20.2 46.65, 24.75 36.13, 41.36 19.74 M8.1 55.07 C14.14 50.54, 22.67 41.99, 39.42 21.95 M12.73 59.84 C21.99 51.32, 31.98 42.44, 42.26 22.35 M12.71 59.66 C20.74 49.05, 28.14 38.88, 41.22 24.07 M13.35 62.71 C20.86 52.05, 27.76 45.58, 39.67 26.58 M14.76 61.59 C21.68 52.49, 31.49 42.01, 43.72 30.25 M12.58 69.39 C25 54.63, 32.02 45.95, 40.81 33.67 M14.67 67.77 C23.18 57.24, 29.38 52.78, 43.44 32.34 M14.45 70.25 C27.2 66.07, 31.93 55.08, 47.99 38.19 M18.56 71.34 C27.91 58.15, 36.76 46.93, 47.45 34.85 M20.06 71.25 C30.11 64.21, 41.67 51.97, 49.44 37.81 M19.11 74.41 C25.77 66.72, 33.46 58.99, 51.01 42.05 M22.43 75.17 C29.64 64.33, 33.62 59.43, 49.49 42.76 M21.18 78.52 C35.57 64.09, 45.44 51.32, 50.43 44.63 M26 78.12 C33.57 73.9, 34.94 62.96, 41.59 64.95 M24.04 78.45 C28.25 76.24, 33.82 70.05, 38.94 62.11" stroke="#eaddd7" stroke-width="0.5" fill="none"></path><path d="M25.88 1.54 C29.97 16.63, 39.41 26.71, 52.81 45.4 M24.8 -1.97 C34.8 14.21, 41.48 25.54, 50.12 42.22 M50.91 38.07 C37.75 54.15, 33.42 73.32, 29.72 79.86 M51.78 42.68 C43.16 55.8, 32.25 73.78, 26.43 82.62 M25.28 85.92 C12.94 65.36, 8.54 49.6, 0.14 39.24 M24.27 82.51 C17.2 66.77, 5.31 50.8, -1.3 43.7 M-1.99 38.13 C7.06 27.96, 13.32 18.64, 22.89 -2.52 M-1.49 40.59 C9.03 27.04, 16.43 10.83, 27.36 0.94" stroke="#1e1e1e" stroke-width="1" fill="none"></path></g><g stroke-linecap="round" transform="translate(10 46.44099222080604) rotate(0 29 29)"><path d="M-0.24 30.27 C-0.24 30.27, -0.24 30.27, -0.24 30.27 M-0.24 30.27 C-0.24 30.27, -0.24 30.27, -0.24 30.27 M3.09 35.97 C10.4 23.81, 17.67 18.83, 32.59 0.95 M2.57 31.84 C10.55 22.34, 18.44 14.17, 31.51 1.42 M4.25 38.79 C10.77 25.93, 21.51 24.16, 29.41 0.04 M6.15 36.74 C15.4 26.71, 24.88 15.5, 35.21 2.37 M11.11 36.11 C17.66 25.93, 28.9 20.45, 33.91 2.92 M10.35 37.12 C16.96 29.56, 26.79 21.57, 35.18 5.54 M9.82 39.85 C19.83 32.63, 31.16 20.29, 42.4 12.82 M10.04 39.74 C22.59 28.11, 29.01 18.77, 40.14 9.43 M15.87 39.83 C27.89 29.28, 35.25 24.28, 43.62 15.35 M15.29 42.56 C23.41 36.18, 29.55 25.86, 40.36 12.97 M14.57 47.32 C27.97 33.33, 36.7 30.21, 42.69 11.33 M17.16 44.94 C28.43 37.59, 35.68 26.72, 44.9 14.98 M20.91 51.25 C30.54 43.03, 39.76 31.89, 43.53 17.99 M20.73 50.66 C29.87 37.76, 39.43 26.43, 45.24 18.23 M22.67 50.71 C28.82 41.03, 39.16 32.67, 47.4 22.21 M21.55 51.13 C33.65 39.31, 44.38 29.33, 51.07 21.37 M28.99 54.98 C33.17 43.59, 43.41 31.78, 52.71 21.33 M27.37 56.23 C34.25 44.73, 47.22 30.62, 51.38 22.49 M29.49 60 C37.71 52.81, 39.13 45.62, 56.88 28.58 M30.58 57.47 C37.01 46.78, 45.4 38.3, 53.54 27.32" stroke="#eaddd7" stroke-width="0.5" fill="none"></path><path d="M31.54 -3.87 C42.02 6.96, 47.03 21.16, 61.4 30.88 M28.03 0.23 C41.83 11.52, 50.84 24.45, 58.22 31.76 M54.07 26.27 C43.43 42.56, 35.9 56.22, 27.86 60.73 M58.68 31.64 C47.49 39.71, 41.09 50.22, 30.62 59.64 M33.92 55.67 C16.75 49.94, 4.32 35.71, -2.76 33.4 M30.51 59.32 C21.54 48.14, 11.55 38.6, 1.7 29.91 M-3.87 29.13 C6.48 19.85, 17.72 10.88, 27.48 2.01 M-1.41 29.99 C8.98 19.51, 16.7 13.37, 30.94 -1.75" stroke="#1e1e1e" stroke-width="1" fill="none"></path></g></svg>