<svg version="1.1" xmlns="http://www.w3.org/2000/svg" viewBox="0 0 78 107" width="234" height="321">
  <!-- svg-source:excalidraw -->
  
  <defs>
    <style class="style-fonts">
      @font-face {
        font-family: "Virgil";
        src: url("https://excalidraw.com/Virgil.woff2");
      }
      @font-face {
        font-family: "Cascadia";
        src: url("https://excalidraw.com/Cascadia.woff2");
      }
    </style>
    
  </defs>
  <g stroke-linecap="round" transform="translate(15 10) rotate(0 25 41)"><path d="M25.96 0.04 C25.96 0.04, 25.96 0.04, 25.96 0.04 M25.96 0.04 C25.96 0.04, 25.96 0.04, 25.96 0.04 M13.01 20.8 C21.04 17.36, 20.61 12.31, 26.06 -0.12 M14.4 22.78 C15.54 16.54, 19.96 12.72, 27.6 3.03 M1.43 41.31 C12.28 28.83, 16.08 23.22, 28.04 10.03 M1.59 43.89 C6.55 34.37, 13.13 26.96, 31.92 7.45 M0.1 49.32 C7.8 39.17, 20.74 27.16, 32.95 11.68 M0.93 44.4 C7.67 36.03, 13.89 31.73, 34.05 11.35 M5.03 47.92 C8.68 41.38, 20.19 29.84, 31.84 13.52 M2.65 50.27 C15.08 38.77, 22.57 26.35, 32.48 14.98 M8.73 54.14 C15.79 44.76, 19.57 34.51, 39.35 21.04 M5.48 52.3 C14.6 43.75, 26.03 34.56, 37.97 17.53 M12.62 56.87 C18.93 46.45, 23.59 37.67, 36.54 22.31 M7.83 57.25 C16.52 47.77, 25.98 36.26, 39.26 20.17 M14.55 61.31 C17.95 47.77, 31.45 39.79, 40.4 22.26 M10.01 57.59 C20.17 51.38, 26.74 41.72, 39.22 25.52 M11.64 62.25 C22.35 55.39, 32.77 41.66, 45.32 28.85 M11.83 62.01 C26.17 51.13, 38.76 36, 43.12 29.15 M14.4 69.53 C22.76 55.52, 30.1 56.15, 45.97 30.91 M17.51 66.15 C24.71 58.17, 33.89 49.23, 44.26 34.62 M14.29 69.1 C25.75 64.81, 29.67 57.45, 46.07 36.57 M17.93 70.86 C25.22 61.79, 29.68 56.21, 47.49 37.17 M21.84 72.47 C31.08 57.21, 42.33 46.7, 49.32 43.06 M19.57 72.97 C29.09 63.09, 38.76 53.02, 50.85 38.77 M21.52 73.99 C35.1 68.7, 45.47 54.43, 49.46 46.17 M22.07 75.74 C32.15 67.61, 43.6 54.44, 50.44 42.84 M23.22 79.34 C26.11 78.96, 34.93 67.12, 43.41 61.37 M24.46 78.67 C31.43 72.59, 34.05 68.32, 40.27 64.63" stroke="#eaddd7" stroke-width="0.5" fill="none"></path><path d="M26.82 -0.84 C37.39 13.99, 37.52 24.63, 50.54 38.19 M25.41 0.58 C33.43 13.67, 41.55 28.04, 49.66 40.72 M49.63 44.92 C42.02 54.62, 41.07 62.08, 29.95 79.52 M51.84 41.06 C42.22 53.77, 36.68 62.28, 26.7 82.74 M27 85.37 C22.23 75.66, 16.83 61.47, -0.97 45.16 M27.19 81.28 C20.67 71.81, 12.24 63.85, -1.87 43.48 M1.43 43.08 C2.93 28.43, 12.08 18.61, 24.08 0.66 M1.46 43.02 C5.69 31.42, 11.45 21.33, 27.16 0.12" stroke="#343a40" stroke-width="1" fill="none"></path></g><g stroke-linecap="round" transform="translate(10 39) rotate(0 29 29)"><path d="M-0.24 30.27 C-0.24 30.27, -0.24 30.27, -0.24 30.27 M-0.24 30.27 C-0.24 30.27, -0.24 30.27, -0.24 30.27 M2.05 36.18 C10.73 23.65, 17.53 16.25, 27.45 -0.57 M4.03 31.38 C10.1 22.53, 18.58 14.81, 30.6 0.76 M4.84 38.89 C13.54 21.22, 29.09 9.88, 35.83 0.63 M7.41 35.31 C12.76 26.47, 20.2 20.34, 33.25 3.28 M12.49 34.83 C17.4 33.38, 20.47 26.08, 37.13 3.29 M7.57 37.36 C16.86 25.76, 30.24 17.15, 36.79 5.67 M10.73 37.36 C21.95 30.86, 28.18 17.99, 37.19 10.08 M13.08 42.08 C19.51 32.39, 25.02 22.36, 38.65 9.26 M16.59 43.76 C22.64 32.12, 27.85 31.71, 44.35 12.07 M14.75 42.21 C23.12 37.37, 30.82 29.12, 40.84 12.72 M18.96 46.71 C28.57 30.9, 39.81 21.75, 45.26 13.49 M19.34 44.89 C24.16 40.76, 26.98 34.25, 43.12 15.68 M22.39 46.59 C29.76 38.73, 42.71 25.99, 43.44 17.02 M18.66 50.67 C30.89 38.93, 39.68 26.26, 46.7 18.69 M22.21 51.94 C34.6 43.44, 40.12 34.75, 49.67 24.97 M21.97 52.77 C31.43 46.17, 36.63 36.92, 49.97 19.16 M29.13 55.46 C28.51 49.44, 42.56 40.92, 49.96 24.13 M25.75 55.82 C37.83 44.21, 48.92 30.04, 53.67 22.98 M28.33 58.53 C39.96 46.73, 48.53 37.5, 55.26 23.15 M30.1 59.12 C37.78 46.23, 48.95 34.71, 55.86 28.66" stroke="#eaddd7" stroke-width="0.5" fill="none"></path><path d="M29.16 3.74 C42.28 7.36, 50.44 21.95, 54.19 31.69 M30.58 -0.02 C35.91 6.33, 41.77 12.39, 56.72 29.14 M60.92 27.62 C49.96 43.17, 36.75 54.68, 27.52 56.82 M57.06 28.9 C51.17 38.1, 41.15 46.64, 30.74 56.91 M33.37 60.31 C25.47 54.12, 13.25 42.52, 3.16 27.27 M29.28 58.84 C20.35 47.87, 12.08 38.62, 1.48 29.84 M1.08 26.06 C10.35 15.83, 24.36 4.71, 30.66 -2.43 M1.02 29.29 C7.82 20.06, 16.11 14.05, 30.12 1.39" stroke="#343a40" stroke-width="1" fill="none"></path></g></svg>