<svg version="1.1" xmlns="http://www.w3.org/2000/svg" viewBox="0 0 78 114.44099222080604" width="234" height="343.3229766624181">
  <!-- svg-source:excalidraw -->
  
  <defs>
    <style class="style-fonts">
      @font-face {
        font-family: "Virgil";
        src: url("https://excalidraw.com/Virgil.woff2");
      }
      @font-face {
        font-family: "Cascadia";
        src: url("https://excalidraw.com/Cascadia.woff2");
      }
    </style>
    
  </defs>
  <g stroke-linecap="round" transform="translate(15 10) rotate(0 25 41)"><path d="M25.96 0.04 C25.96 0.04, 25.96 0.04, 25.96 0.04 M25.96 0.04 C25.96 0.04, 25.96 0.04, 25.96 0.04 M14.2 18.33 C13.02 15.46, 22.96 14.84, 28.11 3.78 M14.37 20.08 C17.9 16.73, 21.37 11.65, 26.66 2.76 M-0.99 38.48 C5.93 32.24, 12.45 28.04, 27.69 3.76 M-1.73 40.7 C10.96 30.6, 18.68 18.92, 28.97 8.28 M1.63 44.04 C12.55 33.23, 18.7 21.9, 32.59 10.05 M2.27 46.11 C8.95 39.29, 16.01 32.5, 34.23 9.59 M6.54 47.36 C8.34 41.97, 23.05 29.06, 31.89 15.1 M3.98 50.01 C12.54 36.85, 24.36 28.75, 35.56 15.44 M8.23 53.26 C19.25 43.36, 25.79 32.82, 35.67 18.66 M6.76 53.68 C17.94 41.58, 25.71 28.3, 35.63 20.26 M7.61 56.87 C15.47 46.76, 30.03 32.87, 41.99 21.57 M10.91 57.14 C21.46 41.04, 32.61 28.79, 40.28 23.21 M15.53 56.17 C17.55 47.56, 25.56 45.67, 42.33 28.03 M11.87 60.83 C20.16 47.79, 32.19 36.45, 38.77 27.65 M15.57 65.2 C22.57 48.89, 38.91 33.76, 43.06 31.76 M13.84 64.21 C21.99 52.7, 33.41 38.97, 44.02 28.65 M18.24 67.59 C26.47 59.3, 33.88 46.33, 48.33 33.86 M14.65 68.38 C23.87 57.16, 33.83 48.62, 46.19 31.99 M20.47 73.53 C23.79 62.06, 36.02 47.85, 44.86 33.22 M20.09 70.46 C26.49 60.43, 31.75 53.66, 48.28 37.93 M19.8 73.32 C24.48 68.3, 33.99 54.32, 48.81 36.33 M20.76 74.25 C30.21 65.09, 36.37 54.34, 47.7 40.17 M25.15 74.56 C35.31 68.61, 40.12 55.91, 47.93 42.76 M21.68 76.78 C27.89 67.63, 36.78 62.57, 53.2 44.63 M28.42 82.69 C31.38 76.99, 34.87 69.26, 38.59 66.25 M24.52 82.01 C31.78 73.04, 35.44 67.63, 40.65 63.78" stroke="#eaddd7" stroke-width="0.5" fill="none"></path><path d="M27.29 1.89 C33.13 15.75, 41.14 25.3, 52.26 42.16 M26.16 -1.43 C34.71 14.53, 45.31 32.64, 51.28 42.92 M51.52 45.21 C44.91 54.13, 29.92 67.97, 26.49 84.29 M48.55 43.54 C42.64 53.7, 35.91 64.21, 24.33 83.61 M25.94 80.3 C20.09 71.99, 13.25 56.17, -2.61 40.21 M25.64 80.16 C17.86 65.28, 6.26 49.14, -1.5 42.12 M2.02 42.51 C8.41 21.69, 20.97 7.13, 25.71 2.73 M0.57 40.22 C7.29 30.7, 14.16 21.88, 25.39 -1.63" stroke="#1e1e1e" stroke-width="1" fill="none"></path></g><g stroke-linecap="round" transform="translate(10 46.44099222080604) rotate(0 29 29)"><path d="M-0.24 30.27 C-0.24 30.27, -0.24 30.27, -0.24 30.27 M-0.24 30.27 C-0.24 30.27, -0.24 30.27, -0.24 30.27 M-0.42 29.32 C9.89 25.47, 22.18 13.31, 31.35 -1.91 M1.33 34.08 C8.57 26.46, 13.76 17.15, 30.34 -0.64 M2.01 33.63 C10.4 25.86, 20.79 19.34, 29.56 4.67 M4.23 36.79 C12.93 26.42, 20.07 17.24, 34.08 4.51 M7.21 38.17 C15.42 25.75, 23.15 21.3, 35.5 3.08 M9.28 38.71 C19.57 28.17, 29.9 17.83, 35.03 5.59 M10.17 37.3 C23 33.23, 28.3 16.47, 38.77 10.46 M12.82 39.53 C18.96 32.31, 30.18 22.61, 39.11 10.28 M15.71 46.76 C27.14 31.66, 37.93 18.55, 41.97 13.86 M16.13 44.38 C23.06 33.52, 28.79 25.07, 43.57 12.91 M18.96 43.23 C30.18 36.55, 37.63 25.54, 44.52 19.02 M19.23 46.01 C23.18 37.46, 31 32.02, 46.16 13.98 M17.24 48.57 C26.33 38.01, 42.11 28.76, 49.21 19.58 M21.91 47.88 C25.67 43.59, 31.14 33.98, 48.83 20.16 M25.16 50.29 C31.79 43.64, 39.58 29.24, 52.58 22.35 M24.17 51.33 C33.89 41.35, 41.4 30.06, 49.46 20.27 M27.18 57.59 C34.24 49.45, 36.61 42.56, 52.9 24.08 M27.98 54.37 C34.19 47.25, 43.11 38.56, 51.04 24.81 M32.77 53.84 C39.93 47.27, 44.38 36.2, 51.9 24.94 M29.7 58.94 C37.3 45.71, 48.15 36.37, 56.62 26.18" stroke="#eaddd7" stroke-width="0.5" fill="none"></path><path d="M31.89 0.42 C41.56 10.1, 47.28 19.4, 58.16 32.9 M28.57 -0.89 C39.97 12.1, 53.05 23.97, 58.92 31.27 M61.21 33.16 C45.55 37.18, 34.77 50.84, 32.29 56.37 M59.54 28.57 C49.91 37.08, 40.63 46.77, 31.61 57.47 M28.3 59.3 C22.02 50.79, 7.74 37.85, -1.79 33.6 M28.16 59.23 C22.86 51.96, 16.21 45, 0.12 31.69 M0.51 28.55 C5.28 21.31, 16.37 10.43, 32.73 -1.9 M-1.78 31.45 C10.91 19.98, 24.3 6.01, 28.37 -0.44" stroke="#1e1e1e" stroke-width="1" fill="none"></path></g></svg>