<svg version="1.1" xmlns="http://www.w3.org/2000/svg" viewBox="0 0 78 114.44099222080604" width="234" height="343.3229766624181">
  <!-- svg-source:excalidraw -->
  
  <defs>
    <style class="style-fonts">
      @font-face {
        font-family: "Virgil";
        src: url("https://excalidraw.com/Virgil.woff2");
      }
      @font-face {
        font-family: "Cascadia";
        src: url("https://excalidraw.com/Cascadia.woff2");
      }
    </style>
    
  </defs>
  <g stroke-linecap="round" transform="translate(15 10) rotate(0 25 41)"><path d="M25.96 0.04 C25.96 0.04, 25.96 0.04, 25.96 0.04 M25.96 0.04 C25.96 0.04, 25.96 0.04, 25.96 0.04 M12.96 18.28 C19.66 17.08, 18.44 15.35, 31.35 6.02 M11.48 22.1 C19.06 17.01, 21.21 7.63, 28.02 4.46 M-3.73 39.87 C8.51 26.55, 17.43 13.79, 27.43 5.57 M-1.88 43.02 C6.31 34.66, 16.88 25.77, 31.85 7.6 M5.35 47.74 C8.5 32.14, 19.65 22.71, 35.74 14.6 M1.95 45.9 C11.17 32.88, 20.82 26.27, 33.14 11.69 M5.49 48.66 C12.91 33.46, 29.35 27.35, 34.68 11.46 M4.05 47.36 C16.65 35.61, 24.92 27.02, 32.2 16.64 M8.52 53.37 C11.32 46.64, 22.86 32.46, 36.17 17.34 M5 53.86 C13.73 43.49, 24.77 31.29, 36.67 18.29 M13.19 58.42 C17.67 43.76, 19.58 41.6, 36.59 18.01 M8.04 56.81 C19.81 44.04, 30.07 32.26, 39.09 23.47 M8.65 58.71 C20.75 49.05, 30.91 38.73, 38.25 22.07 M13.33 58.34 C20.97 47.49, 34.41 36.29, 41.2 25.46 M17.33 60.71 C21.41 48.46, 37.71 36.92, 46.84 31.19 M11.54 61.8 C22.97 55.28, 29.67 45.81, 42.11 27.48 M13.06 67.96 C25.44 53.59, 35.78 47.76, 46.35 33.86 M16.7 66.47 C23.85 55.21, 32.44 47.66, 43.97 33.74 M16.61 66.1 C33.13 60.24, 44.03 46.08, 47.82 35.91 M16.56 69.87 C29.15 56.78, 39.64 43.7, 47.45 37.14 M21.83 72.31 C28.32 69.47, 29.03 58.03, 48.25 38.25 M21.44 74.48 C28.66 61.23, 39.11 52.25, 49.46 38.32 M22.49 76.64 C31.66 66.69, 37.34 63.28, 52.7 46.37 M21.8 78.23 C29.46 69.83, 36.32 63.07, 51.93 44.35 M23.78 78.45 C30.69 74.94, 37.75 71.16, 39.39 59.43 M26.56 80.26 C32.09 74.51, 37.33 64.8, 41.72 63.11" stroke="#eaddd7" stroke-width="0.5" fill="none"></path><path d="M26.89 -0.13 C33.53 9.87, 41.92 28.09, 49.11 39.74 M27.42 0.34 C34.84 12.75, 41.48 27.35, 48.55 40.6 M52.77 42.13 C46.43 54.37, 36.41 64.39, 27.73 83.95 M49.72 40.66 C41.6 55.01, 32.79 72.15, 25.57 81.85 M24.16 85.41 C17.21 67.53, 10.17 62.02, 2.78 40 M24.77 80.99 C17.92 69.5, 12.99 58.62, 0.39 43.99 M-1.15 41.99 C6.61 29.52, 12.52 14.31, 25.86 1.13 M-1.59 40.79 C10.3 27.86, 16.86 16.85, 27.09 -1.12" stroke="#343a40" stroke-width="1" fill="none"></path></g><g stroke-linecap="round" transform="translate(10 46.44099222080604) rotate(0 29 29)"><path d="M-0.24 30.27 C-0.24 30.27, -0.24 30.27, -0.24 30.27 M-0.24 30.27 C-0.24 30.27, -0.24 30.27, -0.24 30.27 M-0.47 36.75 C12.4 20.05, 25.06 11.93, 33.59 1.7 M3.35 34.15 C12.72 21.72, 17.76 13.55, 32.03 1.7 M3.4 33.6 C12.45 20.84, 22.04 10.97, 31.37 1.68 M6.55 34.29 C14.02 29.53, 20.97 21.07, 33.4 4.27 M10.91 35.13 C16.54 24.61, 28.32 18.03, 40.04 6.39 M9.07 38.12 C14.79 29.17, 26.95 19.62, 37.13 7.9 M11.47 38.01 C16.65 34.43, 30.93 23.43, 35.13 11.79 M10.17 42.05 C16.44 33.06, 25.88 24.82, 40.31 8.73 M15.82 40.81 C26.55 34.36, 29.86 21.81, 40.65 12.26 M16.31 41.66 C24.84 34.32, 31.51 23.77, 41.6 11.3 M20.51 47.55 C23.41 31.05, 38.81 21.8, 40.96 17.36 M18.9 45.91 C26.06 36.97, 34.23 28.62, 46.42 16.07 M19.78 47.9 C27.87 41.31, 35.3 33.38, 43.25 21.06 M19.41 48.23 C29.11 41.04, 38.42 30.34, 46.64 19.42 M20.67 49.72 C28.12 46.12, 36.31 37.25, 52 19.01 M21.75 53.65 C29.26 47.1, 33.8 38.92, 48.29 21.64 M27.56 55.03 C32.56 46.48, 46.11 37.2, 52.9 25.29 M26.07 53.67 C34.06 42.88, 45.75 34.01, 52.79 26.43 M25.33 60.52 C39.54 52.25, 45.43 42.64, 54.6 29.87 M29.11 57.42 C35.29 49.59, 41.5 42.05, 55.83 25.16" stroke="#eaddd7" stroke-width="0.5" fill="none"></path><path d="M29.87 1.21 C33.89 8.82, 45.75 11.8, 55.74 30.83 M30.34 0.82 C39.77 9.51, 50.36 18.44, 56.6 29.8 M58.13 33.73 C51.48 38.31, 42.63 46.61, 31.95 60.18 M56.66 30.73 C50.67 36.57, 47.41 41.93, 29.85 57.44 M33.41 55.94 C18.35 48.49, 16 46.08, -2 29.54 M28.99 57.01 C21.42 52.25, 14.63 44.11, 1.99 30.18 M-0.01 29.39 C12.46 15.51, 22.15 6.18, 31.13 0.75 M-1.21 31.99 C8.2 21.83, 19.48 13.74, 28.88 1.35" stroke="#343a40" stroke-width="1" fill="none"></path></g></svg>