<svg version="1.1" xmlns="http://www.w3.org/2000/svg" viewBox="0 0 78 114.44099222080604" width="234" height="343.3229766624181">
  <!-- svg-source:excalidraw -->
  
  <defs>
    <style class="style-fonts">
      @font-face {
        font-family: "Virgil";
        src: url("https://excalidraw.com/Virgil.woff2");
      }
      @font-face {
        font-family: "Cascadia";
        src: url("https://excalidraw.com/Cascadia.woff2");
      }
    </style>
    
  </defs>
  <g stroke-linecap="round" transform="translate(15 10) rotate(0 25 41)"><path d="M25.96 0.04 C25.96 0.04, 25.96 0.04, 25.96 0.04 M25.96 0.04 C25.96 0.04, 25.96 0.04, 25.96 0.04 M16.05 24.39 C18.05 18, 25.94 14.48, 27.96 4.39 M14.56 19.64 C17.2 16.37, 21.35 14.56, 27.92 3.49 M3.6 38.33 C3.92 35.39, 9.79 24.93, 31.16 10.15 M-1.52 40.27 C12.44 30.78, 23.23 16.94, 30.95 6.32 M1.8 47.17 C8.07 39.99, 19.54 25.69, 31.32 10.79 M4 45.12 C9.66 33.28, 20.21 24.43, 32.58 12.66 M8.25 52.4 C11.16 34.93, 25.81 27.56, 30.79 18.24 M4.77 47.08 C11.76 39.05, 20.56 28.43, 33.61 15.56 M8.48 48.54 C18.87 39.84, 24.34 34.49, 39.86 19.32 M4.97 52.64 C19.44 38.38, 29.06 25.73, 36.69 20.21 M5.37 52.06 C17.79 43.34, 33.24 32.24, 36.69 24.55 M9.99 57.43 C17.69 43.14, 31.1 32.3, 39.45 23.47 M15.59 56.84 C21.88 49.24, 32.91 32.94, 37.77 29.36 M12.18 60.49 C21.76 48.69, 30.26 37.51, 42.24 25.87 M9.51 62.43 C19.66 52.07, 30.78 42.02, 40.38 31.35 M11.96 63.29 C22.23 51.58, 29.8 44.23, 43.83 27.59 M14.27 66.57 C21.82 55.61, 28.55 44.98, 46.5 31.03 M14.17 64.95 C24.51 56.22, 29.39 50.22, 46.6 31.99 M18.41 73.13 C25.87 60.79, 33.29 55.63, 48.57 37.36 M17.89 69 C26.06 59.31, 34.13 50.92, 47.49 37.83 M18.91 76.71 C25.74 63.48, 36.8 61.35, 45.38 36.45 M20.81 74.66 C30.47 64.18, 40.35 52.51, 51.18 38.78 M25.11 74.79 C32.09 64.1, 43.76 58.13, 49.23 40.08 M24.35 75.79 C31.36 67.79, 41.56 59.38, 50.5 42.7 M23.17 79.28 C28.69 77.18, 35.68 69.84, 43.94 65.83 M23.38 79.17 C32.05 72.27, 34.46 67.53, 41.67 62.45" stroke="#eaddd7" stroke-width="0.5" fill="none"></path><path d="M23.7 1.19 C38.27 18.15, 44.14 29.3, 48.77 42.51 M27.08 -1.76 C37.45 14.41, 44.05 29.57, 50.05 43.14 M46.79 41.07 C42.54 59.27, 30.82 68.5, 28.09 79.87 M51.32 41.12 C46.69 51.84, 39.64 58.57, 27.62 80.18 M28.83 84.46 C18.54 71.82, 8.32 59.91, 1.86 39.14 M25.13 82.75 C18.27 68, 9.24 54.04, 1.44 40.55 M-0.1 45.87 C7.97 28.94, 19.81 10.4, 28.59 3.6 M0.18 43.88 C11.67 27.71, 18.64 11.58, 25.82 -0.29" stroke="#343a40" stroke-width="1" fill="none"></path></g><g stroke-linecap="round" transform="translate(10 46.44099222080604) rotate(0 29 29)"><path d="M-0.24 30.27 C-0.24 30.27, -0.24 30.27, -0.24 30.27 M-0.24 30.27 C-0.24 30.27, -0.24 30.27, -0.24 30.27 M5.63 33.5 C10.2 29.8, 17.59 18.9, 31.96 -2.81 M0.89 34.06 C9.87 24.58, 20.4 12.65, 31.07 -1.44 M1.86 33.23 C13.77 23.53, 18.13 18.46, 35.95 6.83 M3.8 37.13 C17.02 25.85, 25.87 14.58, 32.12 2.98 M10.34 36.81 C22.71 28.34, 27.98 12.71, 36.23 7.19 M8.29 36.3 C17.06 25.74, 28.83 15.84, 38.1 7.35 M15.21 37.43 C18.58 30.88, 32.07 15.93, 41.91 9.41 M9.89 39.67 C20.87 29.35, 29.22 19.19, 39.23 9.93 M10.99 46.6 C21.91 32.21, 36.18 25.31, 42.63 16.44 M15.09 44.06 C22.35 33.28, 31.21 25.9, 43.52 14.44 M14.15 42.67 C26.89 37.75, 37.27 26.22, 47.5 16.85 M19.52 44.73 C26.97 36.21, 37.91 23.28, 46.42 17.04 M17.91 48.07 C31.5 37.93, 36.38 27.83, 50.54 19.01 M21.56 49.95 C26.35 42.19, 31.72 36.86, 47.05 17.89 M22.39 50.78 C31.33 42.82, 40.58 26.88, 52.17 21.37 M23.25 51.64 C29.43 41.98, 39.94 36.24, 48.41 20.56 M26.16 53.4 C34.53 40.67, 43.21 33.26, 50.08 22.21 M24.55 55.72 C29.2 47.87, 36.6 44.85, 51.04 23.14 M32.37 58.57 C36.82 48.81, 48.46 38.05, 56.05 26.15 M28.24 56.82 C33.92 49.84, 40.91 43.62, 56.51 25.86" stroke="#eaddd7" stroke-width="0.5" fill="none"></path><path d="M31.19 3.22 C41.51 9.12, 44.96 16.71, 58.51 32.9 M28.24 1.93 C38.51 10.36, 48.36 21.9, 59.14 30.9 M57.07 30.41 C51.64 36.37, 37.22 51.34, 27.87 54.48 M57.12 31.1 C48.66 40.27, 36.15 53.52, 28.18 58.08 M32.46 58.93 C20.82 46.94, 10.26 40.1, -2.86 32.24 M30.75 59.25 C22.72 51.78, 15.04 44.32, -1.45 31.86 M3.87 27.83 C12.75 20.18, 20.01 14.03, 33.6 3.18 M1.88 31.19 C8.41 21.45, 15.01 16.2, 29.71 -1.05" stroke="#343a40" stroke-width="1" fill="none"></path></g></svg>