<svg version="1.1" xmlns="http://www.w3.org/2000/svg" viewBox="0 0 78 114.44099222080604" width="234" height="343.3229766624181">
  <!-- svg-source:excalidraw -->
  
  <defs>
    <style class="style-fonts">
      @font-face {
        font-family: "Virgil";
        src: url("https://excalidraw.com/Virgil.woff2");
      }
      @font-face {
        font-family: "Cascadia";
        src: url("https://excalidraw.com/Cascadia.woff2");
      }
    </style>
    
  </defs>
  <g stroke-linecap="round" transform="translate(15 10) rotate(0 25 41)"><path d="M25.96 0.04 C25.96 0.04, 25.96 0.04, 25.96 0.04 M25.96 0.04 C25.96 0.04, 25.96 0.04, 25.96 0.04 M12.96 19.73 C19.86 18.04, 26.12 8.52, 29.16 4.5 M11.61 20.31 C14.37 19.29, 18.99 13.53, 30.3 2.62 M3.1 45.83 C12.46 34.33, 20.4 19.58, 32.82 6.23 M0.01 41.34 C9.77 29.77, 19.7 20.97, 28.11 7.39 M4.13 48.94 C10.28 31.14, 24.02 17.24, 34.12 14.13 M1.04 44.42 C8.09 38.64, 15.7 27.67, 31.05 11.83 M7 46.43 C13.82 41.78, 21.26 33.85, 31.57 14.69 M4.33 49.47 C11.39 42.46, 18.56 33.94, 34.75 16.41 M7.66 53.15 C21.03 42.66, 28.44 23.77, 39.74 14.7 M7.75 53.54 C17.46 38.14, 29.3 28.07, 34.87 16.8 M11.51 55.26 C17.82 45.92, 28.21 34.42, 40.16 19.04 M8.62 53.84 C17.86 42.31, 31.78 30.44, 40.8 22.88 M12.84 62.78 C23.28 52.14, 30.32 41.37, 42.78 24.9 M9.88 57.59 C21.12 46.04, 32.52 36.59, 39.81 26.26 M13.73 66.78 C26.07 47.86, 34.32 41.67, 43.42 32.07 M13.76 64.44 C22.2 52.57, 32.01 43.09, 41.31 27.75 M14.14 64.91 C25.67 53.77, 38.3 41.02, 46.72 36.67 M14.62 65.26 C25.9 54.82, 34.15 46.31, 46.52 32.35 M19.47 70.41 C26.25 55.72, 38.53 46.56, 50.86 37.63 M17.24 68.38 C27.71 59.22, 36.88 49.16, 47.91 37.06 M22.73 73.6 C34.4 63.4, 44.54 47.54, 46.47 38.45 M21.74 74.36 C28.84 65.71, 35.65 56.8, 50.93 41.81 M23.32 79.11 C28.51 70.94, 37.07 58.75, 54.77 40.75 M21.16 78.43 C33.49 64.51, 43.68 52.08, 50.84 44.26 M22.58 78.41 C33.61 70.91, 34.66 68.34, 36.6 65.29 M23.69 80.31 C30.63 76.5, 34.06 72.91, 40.53 62.11" stroke="#eaddd7" stroke-width="0.5" fill="none"></path><path d="M23.24 -2.72 C36.87 17.87, 42.77 24.43, 51.97 39.17 M27.29 -1.56 C32.24 14.75, 38.33 27.25, 48.9 42.81 M47.42 45.07 C42.74 54.82, 31.45 71.97, 25.81 83.15 M48.26 42.54 C44.93 48.85, 39.68 58.45, 24.85 82.93 M27.53 78.07 C14.31 73.41, 8.6 56.39, 2.29 41.64 M25.9 82.87 C16.16 68.16, 6.84 53.25, 0.99 40.57 M-1.49 43.64 C7.67 31.34, 15.25 10.87, 28.61 0.46 M-1.17 41.97 C6.65 34.04, 11.2 23.57, 26.97 -0.13" stroke="#343a40" stroke-width="1" fill="none"></path></g><g stroke-linecap="round" transform="translate(10 46.44099222080604) rotate(0 29 29)"><path d="M-0.24 30.27 C-0.24 30.27, -0.24 30.27, -0.24 30.27 M-0.24 30.27 C-0.24 30.27, -0.24 30.27, -0.24 30.27 M0.98 34.15 C12.41 27.02, 16.11 18.54, 32.07 -2.39 M1.56 31.26 C14.55 21.24, 22.75 12.56, 30.19 0.88 M9.36 38.15 C16.31 27.6, 19.97 21.2, 32.03 4.3 M4.87 35.49 C10.28 28.89, 18.44 19.42, 33.19 5.48 M12.11 34.88 C16.83 26.21, 25.43 18.42, 39.57 3.52 M7.59 37.51 C19.28 27.54, 25.8 15.01, 37.27 5.73 M9.24 42.14 C21.42 32.43, 30.31 19.87, 38.36 6.9 M12.28 40.54 C19.65 33.37, 25.53 26.07, 40.08 11.33 M15.6 46.16 C24.98 34.21, 25.97 30.18, 38.01 14.94 M15.99 43.69 C22.8 33.21, 34.93 18.79, 40.11 13.11 M17.35 45.09 C28.92 34.31, 38.33 24.96, 41.98 17.84 M15.93 44.25 C27.29 35.56, 38.31 24.37, 45.83 14.59 M23.85 53.25 C31.27 41.92, 38.57 30.97, 46.08 20.73 M18.66 48.69 C27.57 40.33, 38.61 29.28, 47.44 19.97 M26.74 53.62 C28.65 41.45, 43.29 33.95, 52.89 20.88 M24.4 51.86 C29.52 44.83, 37.06 34.27, 48.56 22.07 M24.51 53.87 C30.48 50.32, 34.82 44.37, 55.72 24.51 M24.86 55.79 C31.04 48.02, 39.16 41.61, 51.4 25.91 M29.65 54.84 C35.98 46.25, 47.84 41.13, 56.31 28.25 M27.62 56.94 C35.58 49.74, 42.62 44.25, 55.75 28.92" stroke="#eaddd7" stroke-width="0.5" fill="none"></path><path d="M27.28 2.68 C42.81 10.65, 44.41 21.72, 55.17 30.04 M28.44 -0.76 C38.87 5.95, 46.39 14.96, 58.81 31.74 M61.07 31.71 C45.85 38.85, 38.02 48.46, 31.15 54.13 M58.54 30.58 C51.09 35.4, 46.88 39.73, 30.93 57.53 M26.07 54.28 C19.86 44.88, 2 38.28, -0.36 33.33 M30.87 57.62 C23.83 51.6, 17.14 45.69, -1.43 30.5 M1.64 28.58 C9.74 21.2, 9.65 19.37, 30.46 -3.36 M-0.03 31.73 C12.65 19.52, 22.74 8.32, 29.87 1.76" stroke="#343a40" stroke-width="1" fill="none"></path></g></svg>