<svg version="1.1" xmlns="http://www.w3.org/2000/svg" viewBox="0 0 78 110.44099222080604" width="234" height="331.3229766624181">
  <!-- svg-source:excalidraw -->
  
  <defs>
    <style class="style-fonts">
      @font-face {
        font-family: "Virgil";
        src: url("https://excalidraw.com/Virgil.woff2");
      }
      @font-face {
        font-family: "Cascadia";
        src: url("https://excalidraw.com/Cascadia.woff2");
      }
    </style>
    
  </defs>
  <g stroke-linecap="round" transform="translate(15 10) rotate(0 25 41)"><path d="M25.96 0.04 C25.96 0.04, 25.96 0.04, 25.96 0.04 M25.96 0.04 C25.96 0.04, 25.96 0.04, 25.96 0.04 M16.12 20.48 C19.18 17.87, 25.29 14.07, 27.64 5.72 M10.67 21.05 C16.7 18.54, 18.95 14.52, 27.88 3.28 M-0.48 43.88 C9.07 32.15, 12.42 27.39, 31.08 8.2 M0.54 41.79 C11.19 27.17, 22.78 15.06, 30.03 8.97 M0.44 44.71 C10.99 34.7, 22.26 23.83, 35.43 8.01 M1.57 44.24 C13.71 35.17, 24.54 21.54, 31.28 12.21 M3.06 46.88 C13.83 41.39, 27.53 25.64, 31.6 13.54 M3.59 48.6 C11.34 41.88, 21.72 29.09, 35.67 14.34 M5.49 49.36 C19.19 37.46, 24.19 29.19, 36.44 22.03 M6.03 53.62 C16.98 42.9, 27.7 30.87, 36.05 17.8 M9.13 55.05 C17.65 42.46, 33.26 29.26, 36.68 20.44 M8.48 56.22 C17.38 48.15, 21.58 41.15, 39.27 21.76 M15.24 58.28 C19.32 48.67, 32.63 40.65, 43.37 26.64 M12.53 57.72 C20.21 47.71, 30.63 35.74, 41.92 26.02 M12.74 65.03 C26.77 52.03, 33.31 39.5, 42.34 26.66 M14.8 62.87 C23.68 51.18, 32.91 40.93, 41.98 31.04 M17.36 69.46 C21.54 58.26, 28.64 51.07, 42.14 31.46 M15.35 67.07 C25.31 58.09, 32.49 48.8, 44.03 33.47 M16.17 69.91 C27.4 61.74, 34.38 49.72, 43.78 34.43 M19.48 71.14 C28.85 58.06, 42.55 45.17, 46.24 38.33 M22.73 77.4 C30.67 61.55, 40.27 53.74, 48.62 44.12 M22.12 72.57 C27.53 61.91, 38.92 55.58, 49.52 38.61 M24.93 79.84 C36.89 65.03, 45.66 50, 49.5 44.75 M20.88 76.51 C33.85 66.55, 44.37 51.93, 49.9 42.41 M21.5 77.59 C27.31 73.98, 31.67 72.1, 36.81 64.32 M25.85 82.02 C28.65 76.22, 33.48 69.9, 41.84 63.88" stroke="#eaddd7" stroke-width="0.5" fill="none"></path><path d="M22.14 2.48 C35.81 13.12, 40.06 21.96, 46.75 41.82 M26.89 0.87 C32.13 12.08, 36.53 22.98, 51.44 43.29 M47.09 41.78 C40.36 54.78, 39.1 67.75, 29.02 80.17 M51.66 42.54 C43.21 54.49, 33.38 67.97, 24.86 82.24 M23.06 84.92 C17.74 74.19, 14.52 58.45, 0.87 38.69 M27.44 83.07 C15.45 68.6, 8.84 56.88, -0.07 40.15 M-3.31 38.84 C8.92 33.06, 13.67 20.19, 23.37 -0.88 M-0.87 41.47 C7.88 30.33, 16.6 15.67, 27.21 -0.25" stroke="#343a40" stroke-width="1" fill="none"></path></g><g stroke-linecap="round" transform="translate(10 42.44099222080604) rotate(0 29 29)"><path d="M-0.24 30.27 C-0.24 30.27, -0.24 30.27, -0.24 30.27 M-0.24 30.27 C-0.24 30.27, -0.24 30.27, -0.24 30.27 M1.72 35.24 C15.82 23.46, 28.43 6.12, 33.29 -2.51 M2.3 33.53 C12.61 22.34, 21.74 12.15, 30.85 -1.52 M7.41 39.22 C13.23 24.39, 26.04 12.33, 34 6.97 M5.32 35.3 C11.65 26.29, 20.5 17.36, 34.77 3.67 M7.88 37.62 C14.38 32.96, 20.05 26.72, 33.46 8.8 M7.41 39.38 C21.35 27.44, 30.72 12.96, 37.65 6.98 M9.69 40.19 C22.62 36.01, 25.31 21.58, 37.21 8.68 M11.41 39.07 C20.21 34.46, 22.93 28.14, 38 10.89 M11.81 45.02 C19.19 31.4, 30.21 26.77, 45.34 14.15 M16.07 43.41 C25.4 34.59, 33.42 23.86, 41.11 14.32 M17.14 43 C27.01 36.56, 36.27 22.97, 43.39 12.3 M18.31 46.9 C24.66 36.96, 32.05 31.59, 44.71 15.68 M19.35 47.13 C27.2 42.94, 36.67 36.74, 47.82 20.1 M18.79 48 C27.83 39.47, 34.9 32.81, 47.2 20.32 M24.99 53.97 C34.05 38.96, 43.59 31.49, 47.48 22.54 M22.83 51.87 C28.58 43.87, 35.76 36.88, 51.86 20.05 M29.06 52.65 C31.53 46.14, 38 39.52, 50.51 22.47 M26.67 56.64 C32.49 49.21, 38.01 39.21, 52.52 24.15 M29.15 58.4 C38.52 48.13, 44.03 35.78, 53.12 31.07 M30.38 56.15 C37.14 50.39, 44.1 41.05, 57.02 27.11" stroke="#eaddd7" stroke-width="0.5" fill="none"></path><path d="M32.48 2.63 C37.99 8.44, 41.79 14.06, 57.82 28.87 M30.87 0.18 C37.82 4.76, 43.79 15.08, 59.29 29.81 M57.78 27.64 C51.78 40.26, 45.81 47.25, 28.17 58.54 M58.54 30.35 C48.14 38.26, 39.33 48.81, 30.24 57.21 M32.92 55.74 C25.89 53.15, 14.46 47.03, -3.31 31.22 M31.07 56.6 C18.68 48.66, 9.09 37.66, -1.85 29.28 M-3.16 32.55 C12.92 20.14, 21.94 6.28, 29.12 0.47 M-0.53 29.96 C11.11 21.17, 19.2 12.15, 29.75 1.95" stroke="#343a40" stroke-width="1" fill="none"></path></g></svg>