<svg version="1.1" xmlns="http://www.w3.org/2000/svg" viewBox="0 0 82 102" width="246" height="306">
  <!-- svg-source:excalidraw -->
  
  <defs>
    <style class="style-fonts">
      @font-face {
        font-family: "Virgil";
        src: url("https://excalidraw.com/Virgil.woff2");
      }
      @font-face {
        font-family: "Cascadia";
        src: url("https://excalidraw.com/Cascadia.woff2");
      }
    </style>
    
  </defs>
  <g stroke-linecap="round" transform="translate(10 10) rotate(0 25 41)"><path d="M25.96 0.04 C25.96 0.04, 25.96 0.04, 25.96 0.04 M25.96 0.04 C25.96 0.04, 25.96 0.04, 25.96 0.04 M10.82 23.62 C20.28 14.04, 23.38 13.25, 28.57 3.29 M12.55 23.41 C19.3 15.76, 24.49 11.08, 29 1.6 M0.15 44.51 C13.07 32.04, 22.9 13.08, 31.41 5.03 M-0.01 44 C9.11 29.33, 21.42 18.52, 31.65 6.21 M1.82 45.87 C11.47 30.79, 21.22 19.77, 35.06 7.56 M0.27 44.3 C12.54 33.97, 21.56 25.29, 30.8 11.93 M1.35 51.77 C13.17 36.24, 20.86 27.48, 30.78 12.4 M2.84 48.18 C13.71 40.03, 20.2 28.88, 34.57 15.24 M5.17 54.34 C17.5 44.55, 22.86 35.75, 34.77 18.98 M7.16 53.57 C16.95 42.15, 28.88 27.18, 36.38 17.28 M6.06 58.65 C23.37 43.87, 32.6 31.52, 40.09 25.4 M9.44 56.04 C19.15 44.95, 28.87 32.76, 40.18 23.38 M11.61 62.15 C17.3 51.02, 33.38 34.3, 39.14 29.69 M12.32 59.11 C22.53 47.64, 35.24 33.92, 40.1 27.02 M16.07 67.02 C22.8 53.34, 28.78 48.22, 46.09 31.03 M14 65.19 C22.73 52.64, 30.1 43.02, 44.22 29.82 M15.53 64.55 C29.26 52.75, 34.01 46.16, 40.85 30.55 M16.63 66.84 C25.41 56.57, 33.18 48.76, 43.71 33.1 M16.39 67.24 C23.07 57.51, 33.16 54.14, 50.76 36.78 M20.09 69.58 C25.92 61.52, 30.69 53.87, 47.8 38.08 M18.56 77.26 C25.5 68.7, 36.4 57.11, 46.51 42.44 M22.36 75.04 C28.37 67.1, 30.96 60.55, 48.99 41.38 M19.29 74.7 C27.48 71.24, 37.27 59.37, 53.31 40.9 M24.67 76.06 C32.61 64.87, 45.95 50.75, 51.38 42.3 M25.63 77.05 C29.08 70.66, 37.3 70.71, 36.88 62.32 M25.16 78.86 C29.94 74.85, 34.58 70.57, 42.01 61.67" stroke="#eaddd7" stroke-width="0.5" fill="none"></path><path d="M24.29 0.46 C35.69 12.27, 41.53 23.59, 47.24 44.46 M24.13 -1.55 C34.32 11.73, 39.2 20.32, 51.3 42.17 M48.27 45.35 C42.28 56.12, 30.66 64.68, 29.54 79.13 M50.15 42.55 C42.49 52.29, 41 58.51, 25.89 83.39 M28.37 79.34 C14.59 67.06, 8.51 53.79, 0.6 38.65 M26.5 81.66 C21.13 70.27, 13.31 60.51, -1.34 43.75 M1.56 44.54 C6.9 27.35, 8.6 21.23, 26.85 0.92 M-0.85 40.94 C9.34 24, 21.97 9.49, 25.71 -0.33" stroke="#343a40" stroke-width="1" fill="none"></path></g><g stroke-linecap="round" transform="translate(14 22) rotate(0 29 29)"><path d="M-0.24 30.27 C-0.24 30.27, -0.24 30.27, -0.24 30.27 M-0.24 30.27 C-0.24 30.27, -0.24 30.27, -0.24 30.27 M4.87 35.54 C8.44 25.31, 20.83 16.13, 30.87 1.03 M4.66 34.56 C10.43 26.01, 19.09 16, 29.17 2.24 M8.04 37.51 C19.59 23.52, 24.61 12.83, 30.83 5.25 M7.53 34.18 C10.96 28.94, 18.22 22.32, 32.01 5.32 M9.04 36.75 C17.91 22.67, 30.84 15.72, 33 6.75 M7.47 38.53 C13.49 32.3, 21.14 24.08, 37.37 6.15 M14.58 41.35 C18.39 29.92, 29 15.62, 36.07 8.58 M10.99 42 C20.2 31.54, 26.43 22.75, 38.91 8.79 M16.79 46.73 C23.93 35.2, 32.09 22.34, 42.29 14.63 M16.02 43.21 C25.84 34.07, 32.08 22.14, 40.59 14.24 M20.74 48.14 C25.57 38.96, 32.84 33.03, 48.35 15.33 M18.13 46.73 C25.16 38.46, 31.12 29.52, 46.33 15.49 M23.23 45.92 C31.47 42.72, 34.12 27.93, 50.87 21.98 M20.18 49.61 C31.96 39.03, 41.49 24.98, 48.2 16.96 M26.98 54.97 C29.75 43.83, 41.07 34.66, 51.85 20.94 M25.15 52.07 C28.55 43.76, 34.87 39.66, 50.64 22.05 M24.15 57.76 C30.49 44.94, 42.03 35.84, 49.6 23.38 M26.44 55.84 C30.78 49.12, 37.58 40.77, 52.15 24.12 M26.48 53.88 C33.31 47.81, 46.48 44.87, 55.47 23.84 M28.81 58.82 C36.1 47.46, 43.79 39.01, 56.76 26.22" stroke="#eaddd7" stroke-width="0.5" fill="none"></path><path d="M30.46 3.55 C36.81 10.42, 43.49 12.28, 60.46 27.72 M28.45 1.72 C41.98 13.04, 51.31 25.31, 58.17 30.41 M61.35 30.5 C52.74 32.87, 41.93 46.4, 27.13 54.61 M58.55 28.25 C53.4 38.3, 44.67 42.6, 31.39 59.7 M27.34 56.66 C21.75 52.31, 14.62 41.68, -3.35 27.72 M29.66 59.4 C19.41 49.81, 10.54 40.32, 1.75 28.9 M2.54 31 C6.29 15.38, 21.18 9.19, 30.92 2.96 M-1.06 28.78 C3.66 25.92, 10.88 17.92, 29.67 1.03" stroke="#343a40" stroke-width="1" fill="none"></path></g></svg>