<svg version="1.1" xmlns="http://www.w3.org/2000/svg" viewBox="0 0 82 102" width="246" height="306">
  <!-- svg-source:excalidraw -->
  
  <defs>
    <style class="style-fonts">
      @font-face {
        font-family: "Virgil";
        src: url("https://excalidraw.com/Virgil.woff2");
      }
      @font-face {
        font-family: "Cascadia";
        src: url("https://excalidraw.com/Cascadia.woff2");
      }
    </style>
    
  </defs>
  <g stroke-linecap="round" transform="translate(10 10) rotate(0 25 41)"><path d="M25.96 0.04 C25.96 0.04, 25.96 0.04, 25.96 0.04 M25.96 0.04 C25.96 0.04, 25.96 0.04, 25.96 0.04 M12.83 21.41 C17.11 15.51, 19.54 11.99, 32.07 6.75 M13.25 19.71 C18.64 17.69, 19.63 10.97, 29.44 4.42 M1.23 39.74 C12.41 27.18, 19.87 17.3, 33.48 4.88 M1.47 40.93 C7.66 36.86, 12.6 27.14, 30.14 6.86 M4.88 42.27 C10.66 33.07, 15.33 24.2, 29.68 11.7 M0.62 46.64 C8.81 38.69, 17.1 27.91, 33.76 11.23 M1.26 46.36 C10.16 41.74, 19.04 30.2, 32.4 17.53 M5.04 49.2 C12.86 39.26, 24.4 27.41, 35.07 16.74 M5.25 52.94 C18.44 42.98, 22.43 30.79, 38.78 18.08 M6.86 51.25 C19.04 39.29, 29.11 26.56, 37.89 19.51 M10.57 59.36 C19.67 43.33, 32.31 32.5, 39.34 23.26 M10.65 57.35 C18.08 46.65, 26.72 35.97, 40.32 20.09 M10.27 62.89 C25.16 50.96, 32.13 36.77, 40.42 26.39 M11.23 60.23 C20.24 47.31, 31.24 35.91, 42.39 27.43 M16.57 64.99 C19.76 52.1, 26.28 48.66, 46.67 29.45 M14.7 63.78 C22.67 53.31, 29.45 45.16, 41.83 30.9 M11.98 63.76 C21.97 54.76, 29.9 52.12, 44.93 35.86 M14.84 66.31 C22.19 57.84, 27.89 49.33, 43.19 31.78 M21.89 69.99 C21.12 63.09, 30.22 59.84, 46 39.96 M18.94 71.28 C24.04 61.79, 30.52 53.96, 48.88 35.5 M17.65 75.64 C27.67 59.09, 44.71 51.52, 52.53 43.74 M20.13 74.59 C29.16 60.95, 38.86 48.95, 48.27 39.19 M24.44 74.1 C35.61 67.54, 44.1 58.84, 50.17 41.4 M22.51 75.51 C33.56 63.56, 42.08 53.34, 50.12 42.87 M21.79 79.68 C28.51 78.68, 32.65 72.87, 37.6 63.39 M26.92 79.02 C29.16 76.11, 36.37 69.09, 41.87 64.32" stroke="#eaddd7" stroke-width="0.5" fill="none"></path><path d="M23.24 2.46 C31.72 16.62, 39.53 22.2, 46.89 45.43 M27.3 0.17 C35.49 14.09, 43.36 29.86, 51.67 42.25 M53.54 39.13 C37.87 52.13, 35.73 68.82, 27.11 78.49 M49.89 43.39 C43.61 56.69, 32.03 72.46, 24.67 81.33 M26.6 78.65 C14.94 69.43, 8.01 57.94, -0.69 44.81 M24.66 83.75 C19.6 74.42, 17.07 65.83, 1.27 42.5 M0.85 42.92 C8.99 29.49, 14.92 23.25, 23.88 -2.43 M-0.29 41.67 C5.75 33.64, 9.57 25.69, 25.49 -0.35" stroke="#1e1e1e" stroke-width="1" fill="none"></path></g><g stroke-linecap="round" transform="translate(14 22) rotate(0 29 29)"><path d="M-0.24 30.27 C-0.24 30.27, -0.24 30.27, -0.24 30.27 M-0.24 30.27 C-0.24 30.27, -0.24 30.27, -0.24 30.27 M2.66 33.48 C10.14 21.47, 20.28 15.84, 34.32 0.13 M0.96 34.7 C15.23 18.09, 24.94 8.18, 31.99 1.83 M3.27 36.94 C11.85 23.52, 23.1 19.67, 30.68 0.57 M4.46 37.02 C17.42 24.07, 24.72 13.49, 32.66 2.88 M5.44 38.44 C11.24 27.96, 17.38 20.73, 37.14 3.63 M9.81 37.85 C18.27 29.94, 23.89 20.54, 36.67 5.05 M9.17 39.53 C20.34 32.9, 24.59 21.18, 41.2 10.34 M12.01 39.73 C20.48 32.98, 27.03 23.74, 40.41 10.3 M15.39 45.57 C25.41 29.89, 33.2 25.24, 41.39 15 M13.69 45.19 C23.93 33.26, 33.36 22.28, 42.82 13.28 M21.45 46.27 C24.97 39.5, 33.7 28.01, 46.21 15.04 M19.44 46.43 C28.85 34.45, 38.26 24.3, 43.04 16.36 M23.97 52.93 C34.5 37.69, 42.73 25.71, 47.57 21.18 M21.3 47.91 C30.98 36.46, 42.18 27.5, 48.61 17.14 M24.95 51.88 C29.61 40.01, 43.72 33.29, 50.27 19.74 M23.74 52.99 C28.6 44.33, 35.78 36.15, 51.72 19.89 M23.36 53.57 C28.76 47.65, 40.54 40.66, 54.91 22.36 M25.91 54.31 C34.94 42.41, 43.94 32.1, 50.83 22.63 M29.23 54.02 C36.14 48.67, 46.72 39.92, 58.64 24.5 M30.52 56.41 C36.75 46.82, 44.61 40.84, 54.19 28.81" stroke="#eaddd7" stroke-width="0.5" fill="none"></path><path d="M32.46 -2.28 C44.03 9.59, 46.98 19.46, 61.43 32.6 M30.17 0.41 C38.06 9.31, 47.99 21.62, 58.25 30.71 M55.13 26.61 C48.66 39.01, 45.93 43.58, 26.49 60.76 M59.39 31.7 C46.79 40.03, 36.72 50.82, 29.33 58.36 M26.65 55.72 C18.44 46.94, 8.73 36.97, 2.81 26.23 M31.75 56.9 C22.83 51.06, 13.61 42.34, 0.5 28.05 M0.92 32.96 C2.23 27.25, 10.74 15.26, 27.57 -3.64 M-0.33 31.03 C11.97 17.98, 24.32 6.51, 29.65 1.93" stroke="#1e1e1e" stroke-width="1" fill="none"></path></g></svg>