<svg version="1.1" xmlns="http://www.w3.org/2000/svg" viewBox="0 0 82 102" width="246" height="306">
  <!-- svg-source:excalidraw -->
  
  <defs>
    <style class="style-fonts">
      @font-face {
        font-family: "Virgil";
        src: url("https://excalidraw.com/Virgil.woff2");
      }
      @font-face {
        font-family: "Cascadia";
        src: url("https://excalidraw.com/Cascadia.woff2");
      }
    </style>
    
  </defs>
  <g stroke-linecap="round" transform="translate(10 10) rotate(0 25 41)"><path d="M25.96 0.04 C25.96 0.04, 25.96 0.04, 25.96 0.04 M25.96 0.04 C25.96 0.04, 25.96 0.04, 25.96 0.04 M11.22 21.82 C14.49 18.94, 22.92 10.43, 29.13 6.52 M12 21.03 C17.38 17.82, 23.9 10.24, 30.23 4.28 M3.01 38.67 C10.85 32.38, 22.61 21.34, 30.09 4.9 M-1.48 41.14 C10.52 32.17, 19.14 17.21, 30.88 6.76 M6.08 45.35 C13.78 32.19, 24.28 16.87, 29.44 11.05 M0.32 44.33 C11.93 31.52, 25.32 18.74, 32.52 11.52 M6.97 51.15 C7.52 44.37, 17.84 31.35, 33.95 13.21 M4.7 49.46 C9.7 40.99, 19.08 34.73, 33.88 13.32 M7.61 54.95 C14.66 43.67, 29.31 31.7, 37.84 19.03 M7.76 50.72 C14.68 44.49, 21.88 35.86, 37.76 16.8 M6.8 58.04 C15.19 48.07, 29.29 36.82, 38.68 24.36 M9.06 57.2 C18.62 44.74, 28.99 33.21, 40.21 20.03 M12.64 59.61 C21.7 49.83, 28.89 37.22, 43.89 22.46 M13.36 59.16 C19.35 49.8, 26.56 42.42, 42.25 26.5 M14.43 61.07 C23.93 58.01, 32.4 42.21, 45.16 29.25 M11.74 63.03 C24.93 52.31, 35.57 36.85, 41.56 29.12 M13.72 66.46 C25.94 52.1, 39.85 39.69, 42.41 36.08 M13.96 66.64 C23.07 60.15, 29.32 52.09, 45.68 33.68 M16.97 66.5 C23.88 58.86, 29.57 49.54, 45.49 39.23 M18.25 69.98 C31.5 56.93, 42.45 43.02, 46.97 35.18 M18.6 71.1 C28.03 66.16, 37.1 54.44, 50.12 40.64 M19.74 74.47 C28.63 67.97, 35.11 59.49, 47.78 41.24 M20.85 73.57 C27.08 65.75, 36.72 59.78, 53.01 40.43 M23.49 77.95 C34.94 64.26, 41.83 54.87, 52.83 43.42 M22.31 78.16 C30.15 71.99, 32.52 66.4, 41.9 64.98 M26.29 80.9 C28.45 75.1, 32 72.83, 40.53 64.05" stroke="#eaddd7" stroke-width="0.5" fill="none"></path><path d="M23.86 -3.05 C33.44 15.23, 47.07 29.78, 52.79 42.13 M27.83 -0.94 C30.19 8.42, 39.32 20.98, 50.77 41.67 M47.36 41.05 C39.58 60.04, 33.05 72.72, 22.56 79.17 M48.52 43.26 C40.26 57.68, 29.03 74.05, 27.92 80.98 M26.34 79.93 C20.16 68, 8.79 59.59, 2.59 44.84 M25.89 81.53 C18.98 68.76, 11.69 54.62, -0.1 40.08 M2.28 45.45 C6.88 35.05, 12.37 18.83, 22.33 0.28 M-1.99 43.81 C7.31 27.06, 15.3 12.81, 27.69 -0.62" stroke="#1e1e1e" stroke-width="1" fill="none"></path></g><g stroke-linecap="round" transform="translate(14 22) rotate(0 29 29)"><path d="M-0.24 30.27 C-0.24 30.27, -0.24 30.27, -0.24 30.27 M-0.24 30.27 C-0.24 30.27, -0.24 30.27, -0.24 30.27 M3.07 31.13 C16.04 22.77, 23.43 7.97, 34.09 0.69 M2.28 32.87 C12.94 25.09, 19.28 15.7, 31.85 1.11 M2.2 35.82 C13.22 30.45, 19.51 21.9, 30.7 5.2 M4.67 35.65 C13.82 27.05, 17 21.72, 32.56 5.44 M8.52 37.75 C14.98 28.84, 19.28 19.9, 36.49 9.11 M7.49 36.2 C13.36 32.22, 19.24 25.13, 36.96 4.85 M13.96 37.54 C24.07 30.21, 27.94 18.67, 36.88 6.5 M12.27 39.03 C17.46 34.75, 24.84 26.07, 36.99 10.29 M17.4 41.62 C25.41 37.1, 32.71 25.59, 42.34 10.75 M13.17 43.62 C24.11 33.3, 32.65 25.07, 40.11 12.36 M20.13 42.77 C26.69 41, 31.98 31.25, 47.31 16.34 M19.29 46.15 C28.56 34.75, 38.76 23.37, 42.98 16.42 M20.69 49.33 C33.26 34.1, 43.01 29.23, 43.64 17.05 M20.23 50.04 C30.21 36.99, 42.21 26.32, 47.68 18.02 M21.03 54.72 C36.93 43.91, 40.08 32.3, 50.07 24.27 M22.99 52.65 C34.37 41.92, 41.02 29.95, 49.93 22.4 M26.06 54.43 C32.36 48.24, 40.62 33.14, 55.13 20.7 M26.23 55.54 C32.56 49.45, 37.3 42.49, 52.73 23.56 M25.74 55.56 C33.97 45.52, 40.52 38.94, 57.92 30.87 M29.22 59.26 C37.13 49.78, 44.15 39.22, 53.86 27.92" stroke="#eaddd7" stroke-width="0.5" fill="none"></path><path d="M26.95 -1.71 C41.3 15.62, 52.18 26.63, 58.13 27.24 M29.06 -1.87 C38.22 12.05, 51.19 21.94, 57.67 31.3 M57.05 28.27 C52.82 38.77, 42.26 43.46, 27.17 61.54 M59.26 30.15 C51.69 34.22, 46.12 44.29, 28.98 57.89 M27.93 60.37 C15.78 46.37, 8.08 39.95, 2.84 30.6 M29.53 58.5 C23.48 53.31, 15.45 45.75, -1.92 28.66 M3.45 31.56 C14.5 19.03, 19.68 2.73, 30.28 0.85 M1.81 29.15 C8.18 19.69, 17.11 12.91, 29.38 -0.29" stroke="#1e1e1e" stroke-width="1" fill="none"></path></g></svg>