<svg version="1.1" xmlns="http://www.w3.org/2000/svg" viewBox="0 0 78 102" width="234" height="306">
  <!-- svg-source:excalidraw -->
  
  <defs>
    <style class="style-fonts">
      @font-face {
        font-family: "Virgil";
        src: url("https://excalidraw.com/Virgil.woff2");
      }
      @font-face {
        font-family: "Cascadia";
        src: url("https://excalidraw.com/Cascadia.woff2");
      }
    </style>
    
  </defs>
  <g stroke-linecap="round" transform="translate(10 10) rotate(0 25 41)"><path d="M25.96 0.04 C25.96 0.04, 25.96 0.04, 25.96 0.04 M25.96 0.04 C25.96 0.04, 25.96 0.04, 25.96 0.04 M10.52 19.77 C22.56 15.49, 23.09 8.5, 26.56 5.51 M14.13 21.66 C18.44 15.13, 23.69 7.71, 28.3 5.3 M1.57 43.62 C7.83 32, 26.2 11.49, 30.33 9.79 M-1.47 42.96 C8.66 30.83, 19.15 16.85, 30.17 9.28 M0.63 48.89 C7.13 40.3, 20.72 28.91, 32 11.15 M2.27 46.99 C8.86 37.04, 16.65 26.36, 30.45 9.58 M5.76 45.85 C16.46 37.56, 26.29 29.43, 30.87 17.81 M3.65 47.37 C13 37.75, 23.75 28.11, 32.36 14.22 M3.44 53.34 C17.86 38.13, 28.87 30.46, 34.7 20.38 M7.23 51.56 C18.37 40.27, 30.24 24.47, 36.69 19.6 M6 55.62 C15.13 49.12, 23.54 37.89, 35.58 24.69 M10.57 56.42 C21.24 43.94, 29.63 33.23, 38.96 22.08 M8.07 61.87 C24.48 48.45, 32.04 36.91, 40.47 28.95 M9.92 58.47 C19.26 53.37, 25.25 44.51, 41.18 25.9 M14.46 62.43 C24.2 49.27, 32.31 39.46, 45.6 33.06 M13.33 64.9 C25.7 50.2, 34.26 37.31, 43.52 31.23 M15.29 69.34 C25.66 58.96, 31.42 46.74, 44.39 31.34 M17.04 64.8 C25.58 53.91, 36.18 41.84, 45.5 33.64 M18.52 68.27 C28.09 57.13, 38.09 42.3, 45.25 34.04 M19.29 71.95 C24.88 61.5, 31.28 55.9, 48.95 36.37 M17.11 75.11 C34.24 59.18, 40.83 46.02, 47.43 44.06 M20.67 72.03 C27.71 63.69, 32.59 58.91, 51.23 41.83 M24.84 76.14 C36.06 61.26, 43 48.26, 48.16 41.49 M21.23 77.63 C28.41 70.08, 37.59 61.28, 53.53 42.85 M24.81 79.57 C26.07 77.34, 29.5 69.49, 40.72 59.69 M26.26 78.5 C29.23 75.69, 34.55 71.65, 40.25 61.5" stroke="#eaddd7" stroke-width="0.5" fill="none"></path><path d="M28.28 1.95 C39.14 15.54, 42.83 30.14, 48.29 42.46 M26.07 -1.38 C36.63 14.85, 46.56 31.37, 48.13 40.45 M49.34 44.6 C41.6 58.43, 29.36 72.1, 24.27 85.35 M48.58 43.77 C41.35 52.39, 33.81 67.84, 26.15 82.55 M23.96 81.78 C22.7 77.4, 14.75 63.45, 2.37 39.34 M27.42 82.3 C17.25 70.53, 11.88 60.54, 0.5 41.66 M-3.85 39.31 C13.92 24.29, 22.32 14.38, 27.56 2.54 M0.14 42.42 C9.73 30.31, 15.74 16.98, 25.15 -1.06" stroke="#343a40" stroke-width="1" fill="none"></path></g><g stroke-linecap="round" transform="translate(10 32) rotate(0 29 29)"><path d="M-0.24 30.27 C-0.24 30.27, -0.24 30.27, -0.24 30.27 M-0.24 30.27 C-0.24 30.27, -0.24 30.27, -0.24 30.27 M1.02 36.87 C10.95 23.44, 17.99 14.65, 33.08 3.08 M2.91 32.83 C10.14 23.6, 16.54 15.87, 32.87 2.11 M7.15 31.87 C16.85 29.18, 17.7 17.06, 35.59 5.81 M6.49 34.25 C16.68 22.84, 25.01 12.61, 35.08 2.48 M12.05 35.45 C17.58 35.3, 20.3 24.11, 36.59 5.05 M10.16 36.45 C16.41 28.22, 21.89 20.16, 35.02 6.83 M8.66 42.75 C17.39 35.89, 26.28 23.17, 41.48 10.41 M10.18 39.43 C17.43 34.02, 24.67 25.04, 37.89 11.06 M15.79 43.73 C21.27 34.85, 34.3 22.73, 43.69 15.79 M14.01 43.66 C24.44 34.12, 30.36 23.51, 42.91 12.27 M17.71 43.69 C30.86 32.7, 39.3 20.7, 47.64 17.2 M18.51 47.8 C27.21 34.87, 37.68 24.68, 45.03 15.79 M22.94 52.51 C28.69 41.6, 36.35 31.31, 50.13 14.98 M19.54 51.26 C31.29 40.29, 39.32 27.97, 47.08 18.67 M22.39 54.14 C29.66 41.53, 40.31 31.79, 53.88 24.03 M24.86 52.86 C29.14 43.15, 35.24 38.17, 52.04 21.13 M28.93 55.61 C35.63 44.64, 40.45 38.4, 50.39 27.58 M24.4 53.18 C32.39 45.26, 39.19 40.67, 52.68 25.65 M27.51 56.53 C34.79 48.62, 38.4 40.56, 52.72 23.69 M31.19 57.23 C33.37 50.81, 40.38 46.35, 55.06 28.63" stroke="#eaddd7" stroke-width="0.5" fill="none"></path><path d="M31.95 3.69 C37.31 6.32, 43.46 15.53, 58.46 33.55 M28.62 1.23 C37.93 11.08, 46.78 16.65, 56.45 31.72 M60.6 30.34 C48.81 37.49, 36.83 48.61, 33.35 58.5 M59.77 28.57 C46.42 37.52, 39.98 48.56, 30.55 56.25 M29.78 60.78 C21.78 47.7, 5.26 39.4, -2.66 28.66 M30.3 56.33 C18.96 49.41, 10.09 41.12, -0.34 31.4 M-2.69 33.5 C4.01 26.69, 15.81 19.8, 32.54 1 M0.42 30.46 C8.1 21.9, 14.51 16.96, 28.94 -1.22" stroke="#343a40" stroke-width="1" fill="none"></path></g></svg>