<svg version="1.1" xmlns="http://www.w3.org/2000/svg" viewBox="0 0 82 102" width="246" height="306">
  <!-- svg-source:excalidraw -->
  
  <defs>
    <style class="style-fonts">
      @font-face {
        font-family: "Virgil";
        src: url("https://excalidraw.com/Virgil.woff2");
      }
      @font-face {
        font-family: "Cascadia";
        src: url("https://excalidraw.com/Cascadia.woff2");
      }
    </style>
    
  </defs>
  <g stroke-linecap="round" transform="translate(10 10) rotate(0 25 41)"><path d="M25.96 0.04 C25.96 0.04, 25.96 0.04, 25.96 0.04 M25.96 0.04 C25.96 0.04, 25.96 0.04, 25.96 0.04 M13.38 24.63 C18.13 15.17, 24.01 7.75, 27.32 3.36 M14.48 22.4 C19.15 12.6, 26.48 8.88, 26.53 3.57 M-0.09 39.62 C11.63 26.97, 22.41 14.47, 27.77 7.83 M0.7 41.48 C13.59 28.01, 25.12 17.89, 29.88 7.36 M-0.74 45.76 C14.34 31.95, 21.19 20.94, 29.74 7.05 M2.34 46.24 C7.5 39, 15.8 31.14, 33.46 9.32 M4.43 47.17 C12.04 34.26, 25 24.66, 34.95 11.59 M4.35 47.28 C12.23 40.38, 18.33 31.8, 35.37 14.18 M8.32 52.99 C14.97 40.97, 29.12 30.25, 33.08 18.89 M8.23 50.76 C17.48 38.72, 29.93 26.48, 37.59 16.83 M9.16 58.32 C21.17 46.5, 31.14 29.82, 41.65 22.1 M10.69 53.99 C19.64 46.73, 27.94 35.04, 39.05 21.8 M15.02 55.67 C21.66 50.08, 37.41 37.3, 40.52 27.26 M13.38 59.71 C19.74 49.96, 27.26 39.56, 39.42 27.31 M15.64 63.21 C27.67 52.03, 35.93 33.74, 42.36 30.6 M12.04 63.08 C26.33 50.59, 37.62 35.71, 42.79 29.23 M13.54 69.29 C18.59 55.91, 28.39 47.08, 44.51 35.27 M16.82 66.89 C23.34 56.38, 32.8 45.95, 42.82 32.62 M16.62 72.44 C29.08 62.89, 28.67 55.64, 46.8 40.83 M18.1 68.38 C26.38 62.5, 32.65 51.18, 45.8 35.9 M21.25 73.85 C29.51 62.01, 39.94 45.21, 51.4 44.03 M18.91 74.44 C30.51 61.75, 40.26 46.99, 47.71 38.46 M24.14 73.63 C31.92 65.71, 40.82 61.54, 53.96 47.29 M23.96 76.63 C30.44 66.48, 39.1 57.65, 50.67 43.83 M26.82 82.34 C25.26 76.12, 32.36 75, 41.69 62.79 M25.44 81.41 C30.39 74.96, 31.57 73.5, 42.25 62.55" stroke="#eaddd7" stroke-width="0.5" fill="none"></path><path d="M28.79 0.13 C31.46 15.5, 39.42 29.79, 48.12 38.26 M26.77 -0.33 C33.36 9.2, 37.8 17.05, 49.52 41.14 M46.56 39.17 C44.43 54.65, 28.29 69.91, 28.53 82.31 M51.92 40.98 C41.32 56.83, 35.26 68.72, 24.97 83.19 M28.59 84.84 C20.79 69.4, 11.84 63.19, -0.94 43.01 M25.9 80.08 C16.74 71.95, 9.64 60.03, 1.72 42.78 M-3.67 42.28 C10.09 28.15, 21.66 7.99, 29.62 -1.71 M1.69 41.38 C6.64 31.78, 14.38 21.98, 25.42 1.07" stroke="#343a40" stroke-width="1" fill="none"></path></g><g stroke-linecap="round" transform="translate(14 22) rotate(0 29 29)"><path d="M-0.24 30.27 C-0.24 30.27, -0.24 30.27, -0.24 30.27 M-0.24 30.27 C-0.24 30.27, -0.24 30.27, -0.24 30.27 M5.88 33.14 C13.27 21.49, 22.56 8.02, 30.93 4.19 M3.64 33.57 C11.82 21.72, 26.04 5.69, 31.14 1.56 M3.15 36.9 C12.47 25.85, 21.97 11.08, 33.63 7.27 M5.01 37.14 C11.4 29.4, 21.1 20.36, 33.16 3.93 M8.93 40.81 C13.05 30.45, 19.94 19.09, 32.49 3.73 M9.41 36.55 C19.05 27.69, 28.05 18.93, 34.76 7.82 M9.98 37.45 C18.06 29.82, 29.44 22.18, 35.26 8.12 M10.09 41.23 C21.65 28.6, 31.55 19.72, 37.85 10.79 M15.44 41.7 C25.56 33.52, 36.99 16.09, 42.2 14.76 M13.21 43.31 C21.12 35.84, 28.86 26.16, 40.14 13.88 M20.41 47.28 C30.7 35.36, 36.14 27, 45.05 15.58 M16.08 47.37 C28.48 35.67, 36.44 25.08, 44.75 16.57 M16.74 48 C29.31 45.88, 34.7 35.73, 48.44 18.34 M20.78 48.96 C29.23 37.83, 37.06 28.59, 48.49 20.31 M23.17 55.21 C35.41 40.01, 40.51 28.05, 51.41 24.85 M23.04 53.35 C32.09 43.99, 38.74 33.53, 50.05 20.01 M28.89 50.89 C33.64 42.45, 42.92 32.02, 54.31 24.78 M26.49 53.75 C35.67 43.16, 44.91 30.86, 51.66 23.05 M31.67 61.06 C35.43 47.72, 41.45 44.3, 59.52 26.11 M27.62 58.11 C40.82 45.01, 48.58 33.3, 54.59 28.99" stroke="#eaddd7" stroke-width="0.5" fill="none"></path><path d="M30.13 -2.76 C43.39 8.99, 55.48 21.05, 54.26 26.89 M29.67 1.3 C41.36 11.76, 50.68 22.46, 57.14 31.67 M55.17 33.54 C46.58 34.88, 37.75 49.54, 30.31 59.11 M56.98 29.89 C53.83 38.18, 46.67 41.39, 31.19 56.67 M32.84 58.6 C18.55 48.64, 13.68 42.52, 1.01 29.31 M28.08 56.66 C21.18 46.51, 9.46 38.97, 0.78 31.27 M0.28 30.85 C11.25 23.76, 16.12 14.67, 28.29 -2.12 M-0.62 29.71 C7.4 23.35, 15.15 14.56, 31.07 -0.51" stroke="#343a40" stroke-width="1" fill="none"></path></g></svg>