<svg version="1.1" xmlns="http://www.w3.org/2000/svg" viewBox="0 0 81 102" width="243" height="306">
  <!-- svg-source:excalidraw -->
  
  <defs>
    <style class="style-fonts">
      @font-face {
        font-family: "Virgil";
        src: url("https://excalidraw.com/Virgil.woff2");
      }
      @font-face {
        font-family: "Cascadia";
        src: url("https://excalidraw.com/Cascadia.woff2");
      }
    </style>
    
  </defs>
  <g stroke-linecap="round" transform="translate(10 10) rotate(0 25 41)"><path d="M25.96 0.04 C25.96 0.04, 25.96 0.04, 25.96 0.04 M25.96 0.04 C25.96 0.04, 25.96 0.04, 25.96 0.04 M16.55 22.08 C15.32 17.46, 18.83 14.76, 30.97 1.63 M12.52 21.83 C16.76 15.22, 22.35 11.8, 29.99 3.26 M-3.79 45.88 C14.64 24.76, 23.7 16.87, 32.02 10.33 M-1.41 42.98 C8.07 30.47, 18.64 22.86, 28.69 5.93 M-0.47 48.65 C16.69 32.98, 22.75 21.62, 31 9.05 M0.53 45.8 C7.12 36.07, 13.9 28.19, 32.78 9.53 M6.56 48.44 C15.81 41.22, 19.23 31.44, 34.68 12.27 M3.24 48.41 C13.76 39.89, 20.65 28.55, 35.33 15.33 M7.28 50.34 C16.73 45.01, 22.82 34.59, 39.8 19.39 M7.21 53.5 C17.54 39.61, 26.81 31.11, 36.28 19.72 M6.98 59.38 C18.12 45.68, 28.15 33.91, 40.96 23.48 M11.09 55.92 C17.38 46.95, 26.51 35.72, 39.54 21.81 M14.78 60 C23.9 46.97, 33.52 37.25, 37.06 28.54 M13.53 60.93 C25.03 46.61, 35.06 33.82, 40.75 27.32 M15.49 60.32 C25.63 48.1, 38.67 40.94, 45.85 26.71 M14.22 63.23 C22.29 50.45, 35.08 40.49, 42.95 28.67 M16.7 68.63 C20.54 58.32, 29.08 48.66, 47.72 31.09 M14.28 66.14 C20.6 59.04, 30.35 51.1, 45.8 32.42 M17.36 69.39 C27.12 55, 36.76 43.99, 43.58 33.19 M18.06 68.44 C25.45 60.7, 34.88 51.56, 48.52 35.56 M22.91 71.72 C27.82 60.89, 36.45 57.09, 46.63 43.69 M21.56 71.53 C28.9 64.26, 40.76 54.21, 51.09 40.99 M25.12 73.69 C26.94 66.29, 31.79 60.03, 49.62 44.93 M21.47 78.51 C33.62 66.66, 44.41 53.71, 50.59 44.76 M22.58 81.77 C27.73 72.02, 36.43 64.71, 38.8 59.04 M24.93 80.38 C31.24 75.25, 35.26 67.29, 40.55 62.96" stroke="#eaddd7" stroke-width="0.5" fill="none"></path><path d="M29.69 -1.01 C32.05 10.2, 40.18 27.19, 53.55 42.36 M27.23 -1.14 C36.73 14.92, 41.9 29.83, 51.72 43.3 M50.34 42.81 C39.11 54.9, 31.89 72.73, 26.5 83.43 M48.57 40.31 C42.82 52.24, 39.32 60.09, 24.25 83.38 M28.78 85.39 C16.45 64.06, 8.18 47.62, -1.34 42.72 M24.33 80.86 C15.84 67.02, 6.97 52.55, 1.4 40.11 M3.5 39.81 C10.76 33.4, 17.72 20.1, 27 -3.9 M0.46 43.48 C3.37 34.96, 9.91 23.34, 24.78 -1.82" stroke="#343a40" stroke-width="1" fill="none"></path></g><g stroke-linecap="round" transform="translate(13 27) rotate(0 29 29)"><path d="M-0.24 30.27 C-0.24 30.27, -0.24 30.27, -0.24 30.27 M-0.24 30.27 C-0.24 30.27, -0.24 30.27, -0.24 30.27 M3.32 31.53 C10.37 22.5, 19.18 18.84, 29.2 1.24 M3.08 32.31 C12.89 20.64, 25.91 10.09, 30.84 2.34 M9.4 38.68 C11.44 25.45, 26.73 16.27, 36.13 3.88 M6.51 34.18 C10.89 28.6, 20.18 19.72, 31.73 4.67 M11.82 42.01 C15.18 29.87, 22.87 20.62, 34.49 3.49 M8.97 36.25 C15.42 27.07, 23.73 19.8, 34.97 6.57 M11.25 43.15 C23.32 27.08, 32.8 20.69, 35.94 9.67 M11.22 40.89 C19.6 31.55, 25.14 26.67, 39 9.6 M12.79 44.06 C22.98 35, 28.08 33.53, 42.7 13.82 M15.95 44.21 C21.89 33.81, 33.2 23.67, 43.03 13.74 M21.47 43.51 C26 36.36, 32.46 35, 46.43 14.93 M18.01 45.77 C28.87 34.43, 37.49 23.77, 44.76 16.46 M21.07 50.37 C25.92 42.42, 34.11 32.51, 49.71 21.81 M22.01 51.09 C26.17 42.97, 31.83 35.96, 48.5 20.17 M20.28 53.07 C29.97 44.31, 44.71 34.43, 47.53 23.34 M23.19 50.39 C30.5 43.21, 40.67 33.42, 49.49 19.74 M28.23 52.63 C33.24 45.59, 38.9 40.2, 50.14 22.26 M25.74 52.87 C36.38 44.9, 46.18 34.17, 51.47 25.54 M28.62 56.14 C34.16 46.28, 43.05 35.23, 51.88 25.6 M27.68 57.42 C38.08 48.41, 47.11 37.13, 54.25 27.08" stroke="#eaddd7" stroke-width="0.5" fill="none"></path><path d="M28.99 -2.14 C37.24 8.48, 50.75 24.45, 58.36 32.79 M28.86 1.83 C37.14 6.89, 45.02 19.57, 59.3 30.77 M58.81 27.36 C49.47 36.26, 45.83 46.43, 31.43 54.56 M56.31 28.52 C53.34 36.17, 46.21 40.68, 31.38 59.92 M33.39 58.34 C20.49 53.82, 12.43 43.13, 0.72 32.59 M28.86 57.89 C18.32 47.61, 7.31 38.13, -1.89 29.9 M-2.19 32.28 C9.96 24.93, 15.17 18.25, 26.1 -3.67 M1.48 28.01 C10.89 19.8, 17.23 10.23, 28.18 1.69" stroke="#343a40" stroke-width="1" fill="none"></path></g></svg>