<svg version="1.1" xmlns="http://www.w3.org/2000/svg" viewBox="0 0 82 102" width="246" height="306">
  <!-- svg-source:excalidraw -->
  
  <defs>
    <style class="style-fonts">
      @font-face {
        font-family: "Virgil";
        src: url("https://excalidraw.com/Virgil.woff2");
      }
      @font-face {
        font-family: "Cascadia";
        src: url("https://excalidraw.com/Cascadia.woff2");
      }
    </style>
    
  </defs>
  <g stroke-linecap="round" transform="translate(10 10) rotate(0 25 41)"><path d="M25.96 0.04 C25.96 0.04, 25.96 0.04, 25.96 0.04 M25.96 0.04 C25.96 0.04, 25.96 0.04, 25.96 0.04 M15.22 19.74 C18.38 18.9, 22.66 10.11, 28.91 2.26 M14.24 21.38 C18.81 17.12, 21.91 9.46, 30.13 5 M1.84 45.04 C6.2 31.99, 13.86 24.82, 31.46 4.88 M-1.48 40.64 C8 32.51, 16.12 23.5, 31.53 9.49 M0.82 43.76 C8.16 35.58, 22.6 21.93, 32.7 7.14 M2.6 44.25 C10.07 38.54, 15.4 30.83, 32.1 12.13 M5.16 46.23 C15.4 34.77, 22.65 21.98, 32.86 15.32 M5.81 49.29 C14.43 36.62, 24.61 27.63, 33.07 15.4 M10.28 53.35 C19.35 40.36, 27.02 27.96, 38.64 20.09 M6.76 53.69 C14.52 43.1, 19.5 36.28, 38.26 17.2 M11.43 57.44 C20.23 45.8, 32.15 34.74, 39.09 21.34 M10.02 55.77 C21.58 41.33, 32.48 32.1, 39.24 22.32 M8.2 61.74 C24.02 44.9, 28.24 41.8, 44.07 29.35 M11.88 60.53 C21.82 49.78, 28.32 40.34, 39.05 26.49 M16.32 60.67 C22.39 54.36, 30.54 47.85, 42.76 26.08 M13.43 62.63 C20.29 52.79, 31.4 43.77, 43.87 28.33 M18.86 64.3 C22.08 59.82, 29.02 44.51, 43.53 29.92 M16.93 65.63 C25.11 56.96, 31.74 46.49, 44.27 32.91 M14.71 66.4 C23 65.83, 34.36 56.38, 43.72 37.16 M19.65 68.77 C25.98 58.69, 35.36 51.77, 46.11 35.92 M17.77 76.89 C28.54 65.27, 31.91 59.05, 45.51 38.78 M22.22 74.19 C28.43 62.3, 39.81 50.76, 47.76 39.25 M20.75 78.14 C31.05 66.67, 37.66 59.87, 55.08 44.93 M21.72 77.97 C33.65 65, 42.5 52.04, 52.48 42.17 M23.71 76.4 C30.54 78.25, 29.27 71.27, 40.64 65.04 M25.46 80.32 C30.5 75.79, 37.05 67.58, 39.67 64.25" stroke="#eaddd7" stroke-width="0.5" fill="none"></path><path d="M29.55 0.36 C33.8 9.47, 33.62 21.19, 47.72 45.66 M27.72 1.3 C32.05 10.67, 38.66 21.79, 50.41 40.68 M50.5 43.43 C39.58 50.62, 39.94 61.63, 22.61 79.04 M48.25 43.38 C43.27 55.64, 32.52 72.58, 27.7 82.17 M24.66 82.72 C21.66 74.56, 13.21 58.44, -2.28 41.78 M27.4 80.11 C18.51 68.92, 10.07 61.53, -1.1 43.14 M1 38.1 C6.04 25.73, 20.6 10.15, 28.96 -3.97 M-1.22 40.18 C12.2 25.25, 20.37 9.15, 27.03 0.25" stroke="#1e1e1e" stroke-width="1" fill="none"></path></g><g stroke-linecap="round" transform="translate(14 22) rotate(0 29 29)"><path d="M-0.24 30.27 C-0.24 30.27, -0.24 30.27, -0.24 30.27 M-0.24 30.27 C-0.24 30.27, -0.24 30.27, -0.24 30.27 M0.99 33.7 C12.76 24.46, 16.76 16.5, 29.83 -0.56 M2.63 34.8 C11.46 23.41, 17.19 14.85, 32.57 -1.36 M8.57 35.57 C11.26 26.88, 19.86 17.18, 30.68 1.56 M4.17 36.36 C12.91 27.78, 20.82 17.94, 35.29 3.67 M6.93 35.19 C16.89 31.81, 21.39 20.25, 32.58 3.79 M7.41 38.27 C15.43 30.01, 21.43 24.88, 37.57 7.51 M9.04 40.62 C15.45 30.59, 20.54 25.88, 38.99 10.68 M12.1 40.54 C16.09 34.31, 23.73 26.21, 39.07 11.1 M15.8 44.77 C22.02 33.33, 28.85 29.29, 43.4 9.06 M16.14 44.68 C21.22 33.73, 30.08 25.98, 40.5 13.57 M19.53 45.87 C25.86 40.22, 32.79 32.44, 44.29 17.89 M17.86 47.4 C24.25 37.68, 35.86 27.26, 45.26 15.3 M22.82 52.75 C24.31 39.23, 39.56 34.92, 50.53 18.44 M21.6 51.11 C29.74 38.62, 39.2 27.28, 47.67 17.34 M20.63 54.29 C32.48 43.45, 44.14 28.74, 46.9 20.54 M22.59 50.69 C31.37 43.08, 40.99 32.47, 49.15 20.97 M23.9 52.45 C36.94 41.58, 39.15 35.37, 48.96 24.37 M25.23 55.72 C35.49 43.03, 43.96 33.17, 51.96 22.68 M25.64 55.79 C38.85 53.74, 43.15 38.94, 55.84 26.92 M28.01 57.27 C38.25 45.64, 51.63 31.88, 54.61 25.91" stroke="#eaddd7" stroke-width="0.5" fill="none"></path><path d="M30.36 2.79 C37.41 4.46, 46.93 12.66, 61.66 28.12 M31.3 0.77 C34.99 7.01, 41.27 12.31, 56.68 29.52 M59.43 26.56 C48.45 40.8, 41.22 41.06, 27.04 60.53 M59.38 31.92 C48.52 38.01, 42.31 48.43, 30.17 56.97 M30.72 60.59 C22.43 48.34, 5.47 35.4, -0.22 29.06 M28.11 57.9 C18.41 47.97, 12.33 39.11, 1.14 31.72 M-3.9 26.33 C10.07 20.53, 20.88 12.46, 26.03 3.62 M-1.82 31.69 C7.42 22.35, 15.43 15.95, 30.25 -0.58" stroke="#1e1e1e" stroke-width="1" fill="none"></path></g></svg>