<svg version="1.1" xmlns="http://www.w3.org/2000/svg" viewBox="0 0 82 102" width="246" height="306">
  <!-- svg-source:excalidraw -->
  
  <defs>
    <style class="style-fonts">
      @font-face {
        font-family: "Virgil";
        src: url("https://excalidraw.com/Virgil.woff2");
      }
      @font-face {
        font-family: "Cascadia";
        src: url("https://excalidraw.com/Cascadia.woff2");
      }
    </style>
    
  </defs>
  <g stroke-linecap="round" transform="translate(10 10) rotate(0 25 41)"><path d="M25.96 0.04 C25.96 0.04, 25.96 0.04, 25.96 0.04 M25.96 0.04 C25.96 0.04, 25.96 0.04, 25.96 0.04 M13.16 20.37 C17.49 14.65, 28.19 11.2, 28.01 7.22 M14.38 23.12 C16.06 15.76, 24.38 10.39, 29.71 3.45 M1.28 39.6 C4.4 34.81, 17.16 23.76, 26.78 9.25 M1.35 44.21 C7 33.44, 15.11 23.91, 29.09 6.08 M2.52 41.86 C8.24 31.77, 17.32 25.9, 29.58 11.18 M1.92 46.84 C13.77 32.3, 24.02 22.77, 31 10.86 M3.34 49.28 C13.48 37.34, 18.4 34.67, 34.62 14.62 M3.54 49.36 C11.97 40.88, 17.94 36.21, 34.57 15.76 M9.12 54.05 C13.13 42.09, 28.12 30.6, 39.02 21.03 M8.74 51.16 C14.51 43.75, 21.24 39.05, 37.29 18.38 M9.56 55.3 C22.64 43.19, 31.05 32.01, 38.79 24.59 M9.72 56.28 C15.27 48.17, 22.74 39.33, 40.11 23.5 M15.2 62.56 C18.02 52.87, 24.05 44.94, 43.26 29.39 M10.18 59.69 C20.14 49.35, 32.56 38.61, 39.22 27.09 M13.23 60.04 C21.08 54.2, 34.18 42.94, 41.56 26.68 M14.35 62.29 C21.34 53.25, 28.91 45.1, 41.71 28.24 M14.67 63.12 C26.81 56.77, 37.77 45.23, 42.5 35.63 M15.4 66.12 C23.22 55.62, 32.55 44.47, 42.77 32.73 M14.86 70.36 C27.68 62.11, 37.26 49.3, 44.38 36.86 M17.24 69.13 C22.89 61.58, 32.21 54, 48.69 37.25 M16.65 71.99 C31.96 66.62, 42.04 56.03, 50.84 37.12 M18.9 72.45 C29.06 59.71, 39.74 48.8, 49.99 40.89 M26.21 78.14 C31.19 73.57, 33.76 60.37, 54 45.88 M23.61 75.38 C30.3 67.76, 38.14 57.15, 49.79 44.42 M25.55 82.4 C32.23 74.05, 33.48 68.51, 40.53 63.34 M24.58 81.61 C32.31 73.82, 37.36 69.33, 39.18 61.13" stroke="#eaddd7" stroke-width="0.5" fill="none"></path><path d="M23.72 3.66 C30.82 8.71, 36.88 28.62, 52.6 43.54 M26.41 -1.32 C32.88 11.01, 41.83 24.03, 50.71 40.28 M46.61 39.04 C47.73 51.13, 40.81 56.49, 28.76 85.85 M51.7 42.17 C42.95 53.48, 36.67 61.59, 26.36 83.29 M23.72 81.78 C15.3 67.73, 5.9 54.69, -3.77 41.8 M24.9 83.14 C22.96 75.09, 17.21 66.66, -1.95 40.16 M2.96 38.03 C11.42 27.28, 13.66 13.67, 22.36 3.38 M1.03 42.25 C6.53 31.87, 13.59 19.15, 27.93 1.77" stroke="#343a40" stroke-width="1" fill="none"></path></g><g stroke-linecap="round" transform="translate(14 22) rotate(0 29 29)"><path d="M-0.24 30.27 C-0.24 30.27, -0.24 30.27, -0.24 30.27 M-0.24 30.27 C-0.24 30.27, -0.24 30.27, -0.24 30.27 M1.62 31.89 C11.38 26.63, 23.41 12.63, 34.8 2.16 M4.36 31.1 C12.93 22.68, 23.19 12.12, 31.02 -0.88 M3.13 33.26 C15.69 28.17, 21.96 10.87, 35.05 2.23 M7.74 35.37 C16.52 23.14, 26.52 10.02, 31.88 3.88 M5.03 35.49 C15.58 23.77, 30.33 12.04, 36.62 7.62 M10.01 39.2 C12.97 32.61, 20.95 22.85, 36.3 5.51 M12.09 41.62 C14.61 32.52, 26.39 28.02, 38.29 6.33 M12.17 42.04 C19.6 32.01, 30.85 21.51, 39.43 10.12 M16.5 40.01 C22.15 37.44, 28.27 29.71, 44.34 9.14 M13.61 44.52 C21.55 35.19, 32.2 25.43, 41.69 13.72 M17.39 48.84 C26.51 36.23, 36.6 25.42, 47.54 11.47 M18.37 46.24 C27.25 36.03, 35.43 24.45, 46.45 13.32 M23.63 49.38 C28.09 40.61, 34.35 35.25, 50.57 19.54 M20.77 48.28 C28.75 43.04, 36.36 31.26, 48.27 18.41 M20 51.48 C34.47 44.06, 43.54 27.19, 47.49 20.63 M22.25 51.91 C32.86 39.35, 44.38 27.89, 49.06 22.38 M22.72 54.55 C33.92 48.89, 39.93 40.23, 54.68 24.88 M25.72 52.86 C32.24 45.61, 38.1 37.48, 51.78 25.64 M29.6 57.11 C43.65 44.81, 53.13 31.28, 55.54 23.73 M28.37 56.1 C36.95 49.09, 45.52 38.58, 55.93 27.28" stroke="#eaddd7" stroke-width="0.5" fill="none"></path><path d="M33.66 -1.88 C33.1 4.14, 46.74 16.78, 59.54 29.34 M28.68 -0.48 C39.4 12.51, 50.74 22.5, 56.28 28.58 M55.04 32.53 C47.03 41.51, 32.34 54.04, 33.85 55.96 M58.17 28.97 C51.33 37.39, 41.23 47.33, 31.29 59.42 M29.78 57.06 C22.03 48.15, 14.37 36.24, -0.2 26.15 M31.14 59.72 C23.31 52.42, 16.04 42.68, -1.84 30.14 M-3.97 33.62 C7.79 17.8, 16.7 6.64, 33.38 -1.25 M0.25 29.42 C9.73 20.62, 16.86 14.5, 31.77 0.77" stroke="#343a40" stroke-width="1" fill="none"></path></g></svg>