<svg version="1.1" xmlns="http://www.w3.org/2000/svg" viewBox="0 0 78 102" width="234" height="306">
  <!-- svg-source:excalidraw -->
  
  <defs>
    <style class="style-fonts">
      @font-face {
        font-family: "Virgil";
        src: url("https://excalidraw.com/Virgil.woff2");
      }
      @font-face {
        font-family: "Cascadia";
        src: url("https://excalidraw.com/Cascadia.woff2");
      }
    </style>
    
  </defs>
  <g stroke-linecap="round" transform="translate(14.078556990149991 10) rotate(0 25 41)"><path d="M25.96 0.04 C25.96 0.04, 25.96 0.04, 25.96 0.04 M25.96 0.04 C25.96 0.04, 25.96 0.04, 25.96 0.04 M10.51 25.15 C18.84 17.31, 24.68 6.58, 25.53 0.33 M14.11 23.41 C19.46 14.17, 23.22 8.59, 29.09 3.55 M1.71 45.07 C4.69 38.25, 14.15 31.26, 30.72 5.93 M-0.85 43.39 C9.86 33.03, 17.91 23.25, 30.93 6.01 M-0.53 45.76 C9.32 37.49, 15.68 26.9, 32.77 10.04 M3.79 46.28 C8.98 38.2, 18.81 26.21, 32.97 10.17 M2.01 51.82 C10.09 38.78, 26.76 26.44, 32.14 18.23 M5.97 50.78 C12.91 38.81, 17.1 30.24, 33.61 13.62 M4.96 55.45 C13.36 42.22, 23.25 27.09, 38.72 17.47 M5.46 53.93 C12.1 44.8, 22.16 37.4, 36.3 18.86 M6.8 53.24 C19.28 46.36, 25.29 37.2, 39.79 24.89 M10.47 54.65 C19.17 44.49, 26.86 34.76, 38.76 20.82 M13.32 57.71 C20.53 49, 27.13 33.66, 38.44 25.09 M11.42 60.06 C23.81 46.62, 32.33 34.89, 40.64 26.81 M9.5 61.57 C26.61 50.31, 33.12 36.2, 44.06 27.29 M14.05 64.42 C21.14 53.36, 30.81 46.68, 43.31 28.58 M14.6 70.16 C24.97 59.15, 31.08 51.76, 48.25 34.17 M15.76 68.41 C25.79 55.13, 38.11 41.03, 42.93 33.78 M18.74 69.54 C22.88 60.4, 29.45 52.79, 50.54 39.3 M19.45 69.87 C27.99 58.7, 35.03 50.69, 45.53 38.24 M22.04 74.92 C28.34 64.46, 36.84 54.76, 50.36 43.94 M21.9 75.06 C29.17 61.05, 39.02 50.83, 48.12 41.44 M22.43 78.92 C34.32 67.96, 41.94 56.55, 54.09 41.52 M22.84 77.65 C33.84 65.89, 43.2 51.99, 51.09 41.78 M28.18 79.1 C30.35 71.51, 38.51 69.36, 41.17 61.75 M26.7 80.98 C31.26 75.11, 34.91 70, 41.48 63.42" stroke="#eaddd7" stroke-width="0.5" fill="none"></path><path d="M22.25 -2.93 C29.21 10.28, 37.47 19.89, 53.96 43.22 M27.08 -1.06 C33.59 15.28, 40.75 27.28, 50.04 42.85 M50.07 41.23 C39.79 53.5, 30.83 66.93, 26.94 83.39 M49.57 40.54 C42.45 51.62, 35.79 63.83, 24.12 82.69 M28.21 80.55 C15.9 71.68, 6.75 60.31, 2.21 42.4 M26.76 81.81 C19.09 72.38, 14.92 63.42, 0.97 40.51 M3.85 44.19 C3.59 26.81, 12.75 17, 28.91 -3.33 M-1.59 41.55 C7.44 29.81, 15.18 16.5, 24.22 0.59" stroke="#1e1e1e" stroke-width="1" fill="none"></path></g><g stroke-linecap="round" transform="translate(10 15.11041829807391) rotate(0 29 29)"><path d="M-0.24 30.27 C-0.24 30.27, -0.24 30.27, -0.24 30.27 M-0.24 30.27 C-0.24 30.27, -0.24 30.27, -0.24 30.27 M6.4 32.59 C11.94 25.53, 14.44 16.52, 27.9 2.98 M4.66 34.25 C12.18 20.29, 23.25 10.09, 31.13 -1.38 M8.6 33.77 C16.21 28.4, 23.67 19.41, 31.73 2.38 M6.92 36.88 C11.28 30.76, 16.24 23.81, 31.81 2.17 M8.93 38.54 C15.88 29.91, 20.48 21.28, 35.48 4.71 M9.45 37.54 C20.03 27.99, 26.68 15.88, 35.61 6.99 M14.63 37.2 C23.05 32.62, 32.19 15.3, 41.9 7.73 M13.59 42.42 C20.62 26.74, 31.06 15.52, 37.29 10.68 M17.9 39.87 C25.03 29.85, 30.27 25.82, 40.78 10.51 M16.37 41.66 C26.01 32.95, 37.37 20.13, 42.17 11.51 M15.33 49 C27.03 36.43, 36.42 24.38, 47.84 15.22 M16.74 47.1 C25.68 35.39, 35.05 25.39, 43.77 15.47 M18.79 48.64 C27.21 38.25, 29.04 32.02, 46.27 21.34 M21.14 50.8 C28.19 39.33, 36.9 30.96, 47.99 19.79 M21.53 53.89 C28.7 43.23, 33.01 40, 48.11 19.93 M24.38 51.77 C30.64 43.95, 41.28 33.62, 49.4 20.37 M29.76 55.93 C34.19 46.87, 42.26 43.09, 53.22 27.39 M28.01 54.26 C36.35 45.2, 43.86 31.78, 52.83 22.85 M28.78 55.53 C34.13 47.41, 41.01 44.22, 57.98 27.93 M29.11 58.44 C38.69 44.26, 51.43 32.27, 56.93 26.31" stroke="#eaddd7" stroke-width="0.5" fill="none"></path><path d="M27.07 -2.66 C41.79 12.06, 52.64 26.87, 59.22 30.99 M28.94 0.61 C37.29 5.77, 41.34 11.96, 58.85 30.57 M57.23 27.42 C47.1 35.67, 38.06 49.58, 31.39 55.84 M56.54 28.9 C51.31 34.51, 47.19 41, 30.69 58.29 M28.55 55.52 C25.37 48.4, 19.63 47.58, 0.4 26.54 M29.81 56.52 C19.81 50.16, 10.85 43.25, -1.49 30.08 M2.19 26.31 C8.83 15.76, 23.01 9.88, 26.67 -0.78 M-0.45 30.09 C8.3 22.25, 15.53 11.17, 30.59 -0.28" stroke="#1e1e1e" stroke-width="1" fill="none"></path></g></svg>