<svg version="1.1" xmlns="http://www.w3.org/2000/svg" viewBox="0 0 78 102" width="234" height="306">
  <!-- svg-source:excalidraw -->
  
  <defs>
    <style class="style-fonts">
      @font-face {
        font-family: "Virgil";
        src: url("https://excalidraw.com/Virgil.woff2");
      }
      @font-face {
        font-family: "Cascadia";
        src: url("https://excalidraw.com/Cascadia.woff2");
      }
    </style>
    
  </defs>
  <g stroke-linecap="round" transform="translate(14.53927849507454 10) rotate(0 25 41)"><path d="M25.96 0.04 C25.96 0.04, 25.96 0.04, 25.96 0.04 M25.96 0.04 C25.96 0.04, 25.96 0.04, 25.96 0.04 M10.2 21.44 C19.21 11.33, 23.71 6.48, 26.16 0.69 M14.51 22.24 C16.84 15.24, 23.79 8.33, 27.04 4.42 M1.4 40.1 C10.33 29.78, 20.36 19.63, 29.41 10.98 M0.25 40.69 C8.13 32.6, 17.14 19.94, 30.64 9.45 M2.97 49.4 C17.45 35.94, 26.99 22.27, 29.04 7.2 M2.55 45.91 C12.15 31.64, 25.24 19.57, 32.46 10.4 M0.72 49.63 C12.72 34.09, 28.61 19.9, 37.59 18.09 M5.47 50.9 C16.14 37.68, 26.59 24.81, 32.7 15.4 M6.36 52.13 C12.49 43.59, 21.37 33.92, 33.53 17.29 M8.59 53.23 C15.52 41.98, 29.46 28.4, 38.42 19.73 M6.95 52.19 C19.53 41.81, 24.59 29.91, 41.22 20.12 M9.71 54.61 C20.26 47.1, 29.24 35.07, 40.65 21.36 M9.35 56.49 C17.29 49.58, 22.9 42.23, 41.32 28.83 M10.6 59.2 C21.15 45.7, 34.66 34.05, 42.17 24.9 M12.12 63.41 C23.85 49.25, 30.92 37.29, 41.31 25.82 M14.06 64.55 C19.07 57.11, 25.69 49.93, 41.13 29.62 M12.6 63.47 C24.1 52.2, 36.7 46.17, 43.36 30.44 M16.35 64.87 C24.41 57.88, 31.29 50.29, 44.33 32.98 M15.49 71.4 C21.76 61.66, 28.51 53.22, 46.09 40.44 M16.96 69.8 C30.39 55.87, 41.49 45.4, 46.1 38.83 M23.98 70.57 C35.24 61.22, 38.97 48.25, 52.48 40.75 M18.98 71.64 C30.51 62.88, 38.53 50.98, 49.56 40.95 M19.59 73.29 C33.73 65.58, 42 57.14, 53.02 43.97 M22.24 76.35 C31.47 67.09, 40.79 57.53, 50.91 42.27 M22.66 76.28 C27.99 77.96, 32.19 71.89, 39.71 62.47 M25.01 81.79 C30.15 76.65, 34 72.15, 38.8 61.75" stroke="#eaddd7" stroke-width="0.5" fill="none"></path><path d="M29.04 -3.72 C37.58 11.64, 39.2 25.84, 53.45 41.46 M24.16 0.76 C33.06 9.3, 39.85 20.62, 51.38 40.69 M53.93 38.38 C44.59 56.36, 38.92 66.47, 26.54 78.29 M48.49 41.1 C43.6 52.51, 39.16 61.86, 27.52 83.36 M26.56 83.67 C22.15 74.04, 9.05 55.46, 0.55 38.01 M24.34 83.27 C21.44 71.53, 16.23 62.56, 1.5 43.29 M-0.8 43.45 C6.79 31.3, 13.99 23.31, 22.2 2.74 M0.76 41.12 C8.52 30.85, 15.29 14.39, 26.03 0.03" stroke="#343a40" stroke-width="1" fill="none"></path></g><g stroke-linecap="round" transform="translate(10 15.11041829807391) rotate(0 29 29)"><path d="M-0.24 30.27 C-0.24 30.27, -0.24 30.27, -0.24 30.27 M-0.24 30.27 C-0.24 30.27, -0.24 30.27, -0.24 30.27 M2.69 34.21 C8.27 22.46, 19.38 8.83, 28.26 2.42 M3.49 31.84 C12.74 21.37, 22.04 8.32, 31.99 0.13 M3.63 38.04 C13.97 26.88, 24.47 9.89, 36.78 3.63 M4.22 34.99 C15.06 25.01, 21.31 16.06, 35.25 5.35 M12.57 42.01 C20.39 30.61, 28.03 15.74, 32.64 9.53 M9.08 36.42 C15.03 29.84, 23.17 21.7, 35.84 8.36 M12.44 37.5 C19.46 31.75, 27.82 23.8, 41.76 11.45 M13.71 41.63 C17.63 35.38, 21.9 26.31, 39.07 9.82 M14.58 40.21 C24.73 30.52, 33.76 20.93, 40.6 14.56 M15.68 41.86 C25.71 34.27, 33.39 23.55, 43.04 12.85 M14.28 46.68 C22.4 33.81, 29.02 31.14, 43.07 15.58 M16.7 47.78 C28.06 37.95, 34.88 28.8, 44.31 14.04 M17.56 47.52 C25.64 38.51, 33.28 34.97, 50.01 21.09 M20.27 48.04 C25.89 43.26, 33.36 35.3, 46.08 18.93 M23.36 52.91 C28.2 41.39, 35.24 32.19, 46.64 17.72 M24.51 51.98 C35.05 39.81, 45.85 25.6, 50.44 21.52 M23.07 53.62 C30.03 48.65, 42.26 36.45, 49.49 21.94 M24.47 55.94 C31.1 49.21, 37.12 41, 52.03 23.28 M30.64 54.5 C38.87 43.15, 48.42 33.76, 59.13 30.54 M29.04 57.93 C33.97 51.26, 42.34 42.88, 57.52 28.88" stroke="#eaddd7" stroke-width="0.5" fill="none"></path><path d="M26.28 3.33 C38.76 9.03, 51.1 26.88, 57.46 27.51 M30.76 0.81 C39.6 13.37, 51.18 23.83, 56.69 29.82 M54.38 31.95 C53.66 40.86, 45.08 45.19, 26.29 55.55 M57.1 29.24 C50.24 38.8, 41.36 48.48, 31.36 57.7 M31.67 61.26 C25.48 48.31, 10.42 43.92, -3.99 26.81 M31.27 58.81 C20.63 51.65, 12.78 44.64, 1.29 29 M1.45 30.5 C9.5 21.58, 21.74 6.86, 32.74 0.49 M-0.88 30.72 C12.14 19, 18.94 9.51, 30.03 -0.19" stroke="#343a40" stroke-width="1" fill="none"></path></g></svg>