<svg version="1.1" xmlns="http://www.w3.org/2000/svg" viewBox="0 0 78 102" width="234" height="306">
  <!-- svg-source:excalidraw -->
  
  <defs>
    <style class="style-fonts">
      @font-face {
        font-family: "Virgil";
        src: url("https://excalidraw.com/Virgil.woff2");
      }
      @font-face {
        font-family: "Cascadia";
        src: url("https://excalidraw.com/Cascadia.woff2");
      }
    </style>
    
  </defs>
  <g stroke-linecap="round" transform="translate(14.078556990149991 10) rotate(0 25 41)"><path d="M25.96 0.04 C25.96 0.04, 25.96 0.04, 25.96 0.04 M25.96 0.04 C25.96 0.04, 25.96 0.04, 25.96 0.04 M13.35 23.17 C13.67 14.81, 16.52 13.23, 28.37 1.22 M11.98 22.9 C17.33 17.93, 20.36 14.05, 29.44 3.84 M1.19 38.56 C10.98 28.7, 24.08 14.76, 32.97 6.46 M-0.68 44.07 C11.99 31.63, 21.67 17.23, 31.96 7.33 M-1.48 42.91 C5.84 40.66, 12.23 30.72, 33.44 9.57 M1.09 45.95 C13.49 32.3, 25.75 19.57, 31.34 12.85 M8.52 49.12 C15.99 37.69, 27.12 30.85, 31.71 15.92 M5.62 50.22 C15.01 37.6, 24.83 26.34, 34.12 15.24 M8.29 53.17 C18.38 38.5, 31.75 30.55, 39.62 19.77 M6.82 53.13 C14.36 41.55, 21.6 33.28, 35.67 18.46 M10.25 54.97 C22.65 43, 31.99 31.48, 38.89 21.07 M10.82 57.1 C20.55 41.82, 31.43 30.28, 37.32 23.16 M10.64 61.83 C18.39 47.02, 28.96 39.71, 43.58 26.68 M9.67 60.96 C21.55 48.48, 28.52 41.75, 42.16 26.64 M9.4 60.75 C19.08 53.39, 34.26 40.91, 42.52 27.65 M14.51 62.96 C22.37 52.25, 33.53 40.29, 42.68 30.87 M17.24 66.89 C26.36 51.91, 38.94 41.4, 47.27 31.94 M15.89 67.99 C26.06 57.77, 30.57 50.03, 45.95 33.98 M16.23 67.57 C25.47 59.36, 32.53 52.55, 45.82 37.92 M17.63 70.38 C26.43 59.89, 35.3 50.14, 48.66 38.52 M22.95 70.82 C25.79 60.42, 35.08 52.77, 50.53 43.15 M21.12 73.11 C29.43 63.88, 37.96 52.84, 50.2 38.95 M20.29 77.55 C27.42 70.15, 32.54 61.78, 49.25 44.86 M22.51 74.82 C31.39 67.99, 41.99 56.81, 53.1 44.89 M25.95 77.13 C32.23 77.68, 32.76 68.23, 43.38 60.04 M26.39 80.1 C30.66 75.44, 35.83 70.54, 38.33 63.99" stroke="#eaddd7" stroke-width="0.5" fill="none"></path><path d="M27.7 3.24 C35.64 14.14, 42.15 21.99, 53.21 40.48 M26.31 0.78 C30.61 7.98, 34.8 18.26, 50.16 41.63 M46.24 43.86 C40.22 54.14, 35.17 67.88, 26.8 81.93 M49.72 42.48 C45.6 50.54, 39.79 60.7, 24.61 82.45 M24.78 82.86 C20.02 73.05, 17.4 66.92, 1.93 43.09 M26.91 82.51 C15.82 67.44, 6.96 53.16, 1.99 43.22 M-3.06 40.17 C6.46 21.41, 18.08 9.27, 26.69 2.69 M1.28 41.39 C5.38 30.3, 10.38 20.01, 27.34 0.17" stroke="#1e1e1e" stroke-width="1" fill="none"></path></g><g stroke-linecap="round" transform="translate(10 23.86412689164945) rotate(0 29 29)"><path d="M-0.24 30.27 C-0.24 30.27, -0.24 30.27, -0.24 30.27 M-0.24 30.27 C-0.24 30.27, -0.24 30.27, -0.24 30.27 M4.42 30.92 C9.15 19.72, 20.6 11.29, 28.79 -1.18 M4.15 33.69 C13.35 21.85, 23.69 12.27, 31.41 1.58 M2.09 35.24 C10.37 30.77, 14.56 25.02, 32.26 6.37 M7.6 36.74 C16.33 25.81, 23.07 18, 33.13 2.43 M6.07 34.96 C20.66 24.74, 27.56 19.39, 35.01 10.23 M9.12 36.85 C14.84 31.01, 21.47 24.39, 38.3 6.67 M11.93 42.82 C18.4 35.78, 29.48 20.93, 39.59 11.11 M13.02 41.85 C21.57 30.22, 31.47 17.81, 38.91 11.27 M15.62 43.89 C21.88 36.56, 34.86 27.32, 43.08 11.55 M15.58 43.26 C24.06 30.13, 35.83 18.2, 41.77 13.66 M17.06 48.1 C22.96 40.18, 29.34 32.98, 44.02 17.65 M19.19 46.08 C22.68 38.44, 29.92 29.38, 46.11 14.74 M22.91 47.42 C23.48 43.03, 31.6 38.75, 47.86 17.35 M22.04 51.28 C26.17 42.24, 36.04 34.18, 47.82 18.37 M20.71 49.41 C33.2 45.14, 40.56 29.67, 48.47 22.67 M22.92 50.52 C29.96 44.18, 35.77 37.18, 51.68 22.86 M26.48 54.22 C33.04 45.45, 44.08 37.26, 50.99 23.45 M27.59 56.42 C31.92 46.7, 38.75 43.43, 53.03 23.99 M26.81 56.07 C33.35 48.99, 41.29 43.56, 56.61 25.86 M29.61 57.32 C33.98 51.74, 39.1 45.47, 57.2 26.74" stroke="#eaddd7" stroke-width="0.5" fill="none"></path><path d="M33.24 2.1 C41.91 12.29, 47.69 24.79, 56.48 26.4 M30.78 -0.03 C36.99 6.62, 45.53 15.24, 57.63 30.08 M59.86 27.62 C49.91 37.4, 43.43 46.38, 29.93 55.3 M58.48 31.08 C48.49 39.5, 40.63 45.99, 30.45 56.31 M30.86 58.19 C17.74 50.6, 9.1 38.95, 1.09 32.17 M30.51 56.54 C21.69 50.46, 14.4 46.87, 1.22 31.99 M-1.83 26.44 C6.47 17.84, 21.4 10.55, 32.69 -2.43 M-0.61 29.88 C9.87 16.7, 21.2 7.82, 30.17 -0.48" stroke="#1e1e1e" stroke-width="1" fill="none"></path></g></svg>