<svg version="1.1" xmlns="http://www.w3.org/2000/svg" viewBox="0 0 78 102" width="234" height="306">
  <!-- svg-source:excalidraw -->
  
  <defs>
    <style class="style-fonts">
      @font-face {
        font-family: "Virgil";
        src: url("https://excalidraw.com/Virgil.woff2");
      }
      @font-face {
        font-family: "Cascadia";
        src: url("https://excalidraw.com/Cascadia.woff2");
      }
    </style>
    
  </defs>
  <g stroke-linecap="round" transform="translate(14.078556990149991 10) rotate(0 25 41)"><path d="M25.96 0.04 C25.96 0.04, 25.96 0.04, 25.96 0.04 M25.96 0.04 C25.96 0.04, 25.96 0.04, 25.96 0.04 M13.96 24.03 C15.56 19.66, 19.46 16.07, 24.8 3.98 M11.01 19.93 C17.19 13.81, 23.91 10.31, 27.7 1.91 M1.09 38.66 C10.16 31.93, 17.38 24.26, 29.48 6.57 M-1.45 42.94 C5.19 33.46, 12.36 24.87, 29.59 9.35 M-0.07 45.14 C15.7 29.12, 27.25 20.42, 30.67 14.89 M3.97 44.22 C15.59 32.41, 23.59 18.87, 33.97 11.19 M1.62 45.44 C15.16 37.77, 22.24 24.27, 34.56 16.5 M2.96 47.26 C14.3 38.48, 22.58 29.49, 34.76 15.25 M5.78 51.47 C16.19 41.88, 26.6 32.23, 34.89 15.77 M5.68 50.45 C14.85 44.32, 23.3 33.98, 36.18 18.26 M8.96 58.98 C19.06 48.91, 26.57 40.13, 35.86 19.66 M7.96 54.1 C23.46 41.49, 33.67 29.27, 38.38 20.97 M8.14 60.06 C18.96 51.13, 30.84 40.96, 41.59 23.95 M13.56 58.24 C17.3 51.12, 25.44 46.48, 41.67 27.55 M11.56 64.37 C23.84 49.45, 38.63 34.71, 45.57 31.49 M11.74 65.13 C24.01 50.98, 36.11 37.76, 42.77 29.14 M12.86 68.63 C23.13 57.47, 27.49 54.01, 45.63 29.97 M14.13 65.96 C24.76 53.54, 37.89 41.28, 44.42 34.87 M14.62 73.66 C29.08 57.63, 34.43 53.01, 44.59 38.42 M17.07 71.16 C27.24 61.38, 31.18 53.94, 46.9 35.52 M18.5 69.85 C23.89 64.7, 31.21 56.59, 49.28 36.92 M18.48 73.11 C28.28 62.8, 35.26 55.03, 49.67 38.64 M20.1 74.41 C31.67 66.14, 43.49 55.78, 52.57 40.15 M23.41 76.64 C33.6 64.42, 42.73 55.85, 52.31 43.21 M28.41 79.91 C29.77 70.82, 40.98 67.1, 38.5 62.45 M26.35 80.8 C30.67 74.46, 34.84 70.98, 42.22 62.04" stroke="#eaddd7" stroke-width="0.5" fill="none"></path><path d="M26.67 0.52 C31.25 14.05, 43.73 31.92, 50.12 40.93 M24.07 0.3 C34.18 15.95, 45.78 32.18, 51.74 43.51 M51.78 45.74 C42.81 56.38, 35.42 67.42, 23.19 82.66 M49.71 41.86 C41.35 54.82, 34.17 67.07, 24.53 81.42 M29.3 83.63 C13.4 69.8, 11.28 52.49, 3.9 44.57 M24.82 80.2 C18.14 68.05, 7.62 54.73, 1.2 41.15 M0.81 39.65 C11.6 32.27, 19.24 16.31, 29.65 -0.93 M-1.16 40.66 C5.93 30.84, 11.61 20.86, 26.39 1.43" stroke="#343a40" stroke-width="1" fill="none"></path></g><g stroke-linecap="round" transform="translate(10 15.11041829807391) rotate(0 29 29)"><path d="M-0.24 30.27 C-0.24 30.27, -0.24 30.27, -0.24 30.27 M-0.24 30.27 C-0.24 30.27, -0.24 30.27, -0.24 30.27 M5.28 32.82 C16.08 20.29, 27.55 3.51, 31.55 1.33 M1.18 32.38 C8.99 25.15, 19.44 14.05, 29.48 -0.82 M2.19 38.11 C9.73 31.08, 16.31 20.94, 32.37 1.47 M6.47 34.13 C15.82 22.33, 26.09 11.32, 35.15 5.55 M8.31 39.47 C12.04 32.41, 23.06 22.22, 40.33 10.04 M7.39 40.05 C18.58 24.91, 28.04 17.44, 36.63 6.8 M8.24 41.38 C17.09 32.92, 20.08 28.49, 40.17 8.82 M10.07 42.14 C17.77 34.51, 25.26 25.41, 38.92 9.65 M13.92 44.23 C23.08 36.04, 32.14 21.68, 39.08 12 M12.9 42.56 C23.81 34.52, 30.5 26.85, 41.57 12.26 M21.07 47.85 C31.53 34.59, 43.25 18.61, 42.61 18.95 M16.19 47.89 C22.91 40.01, 30.04 32.43, 43.92 15.66 M21.14 47.73 C33.46 38.72, 44.55 27.21, 45.13 15.46 M19.31 48.13 C26.18 41.81, 35.49 35.13, 48.73 19.85 M24.33 51.53 C29.89 46.56, 35.61 36.76, 52.3 22.99 M25.09 51.93 C28.96 47.01, 33.81 37.96, 49.96 19.68 M28.23 55.08 C31.36 45.51, 42.21 40.72, 49.02 27.41 M25.56 53.35 C35.33 44.87, 45.25 32.41, 53.91 24.48 M32.9 58.9 C32.12 49.97, 42.74 43.27, 57.11 24.54 M30.4 59.14 C34.65 49.42, 41.23 43.26, 54.21 26.18" stroke="#eaddd7" stroke-width="0.5" fill="none"></path><path d="M30.52 -3.45 C35.56 7.65, 44.84 15.56, 56.93 33.82 M30.3 -1.64 C38.31 11.18, 47.41 22.61, 59.51 30.81 M61.74 31.73 C52.96 38.56, 44.58 39.04, 30.66 57.99 M57.86 28.41 C49.98 37.21, 41.37 46.19, 29.42 59.06 M31.63 54.93 C22.32 52.82, 8.77 43.08, 2.57 30.81 M28.2 58.33 C19.79 47.83, 10.75 42.93, -0.85 30.26 M-2.35 33.52 C12.64 23.72, 19 15.18, 29.07 -2.07 M-1.34 29.06 C6.78 21.1, 14.75 15.69, 31.43 1.32" stroke="#343a40" stroke-width="1" fill="none"></path></g></svg>