<svg version="1.1" xmlns="http://www.w3.org/2000/svg" viewBox="0 0 78 102" width="234" height="306">
  <!-- svg-source:excalidraw -->
  
  <defs>
    <style class="style-fonts">
      @font-face {
        font-family: "Virgil";
        src: url("https://excalidraw.com/Virgil.woff2");
      }
      @font-face {
        font-family: "Cascadia";
        src: url("https://excalidraw.com/Cascadia.woff2");
      }
    </style>
    
  </defs>
  <g stroke-linecap="round" transform="translate(14.078556990149991 10) rotate(0 25 41)"><path d="M25.96 0.04 C25.96 0.04, 25.96 0.04, 25.96 0.04 M25.96 0.04 C25.96 0.04, 25.96 0.04, 25.96 0.04 M13.99 20.89 C13.46 13.17, 20.35 14.41, 29.63 -0.11 M14.32 21.3 C15.95 18.55, 21.68 10.44, 29.97 3.13 M-3.65 43.26 C15.07 32.09, 19.9 15.64, 29.69 10.47 M1.26 42.36 C8.14 32.74, 15.79 23.17, 30.35 9.52 M-1.1 44.09 C16.69 34.63, 23.83 23.3, 32.18 9.17 M1.3 45.62 C12.73 32.3, 23.58 20, 30.59 9.48 M4.08 49.26 C10.77 40.36, 19.83 26.74, 35.12 14.99 M4.32 50.76 C13.8 40.04, 20.52 32.34, 34.56 15.22 M7.36 50.11 C16.68 47.43, 18.12 39.38, 36.58 19.2 M8.46 50.55 C17.08 41.55, 23.32 31.64, 38.19 18.18 M5.62 57.31 C17.49 46.37, 26.67 40.98, 41.58 19.2 M11.27 53.98 C19.19 47.44, 28.43 36.81, 39.1 19.97 M8.66 57.36 C16.97 53.69, 26.44 45.39, 43.57 28.68 M11.95 60 C21.78 51.35, 27.17 38.3, 40.81 23.97 M10.05 65.85 C21.8 52.48, 29.34 44.67, 45.89 31.92 M12.97 64.03 C20.84 54.57, 28.57 47.33, 41 30.71 M17.25 64.92 C25.94 60.08, 32.27 43.02, 44.66 33.54 M16.94 68.67 C22.47 56.44, 33.57 46.94, 45.11 32.97 M19.18 68.32 C25.68 59.95, 36.09 50.45, 45.57 32.96 M16.91 70.01 C28.5 56.23, 38.04 45.42, 45.88 35.49 M24.33 74.85 C28.1 61.9, 41.08 49.12, 46.75 42.22 M21.23 72.35 C29.33 62.73, 38.27 53.14, 49.02 41.94 M23.61 73.66 C30.19 68.07, 38.93 53.43, 52.91 47.39 M23.2 78.69 C35.63 65.77, 45.59 52.97, 50.01 41.74 M25.86 80.72 C27.57 71.88, 36.68 67.37, 40.4 61.76 M23.26 80.49 C29.38 72.58, 37.46 65.34, 42.02 64.35" stroke="#eaddd7" stroke-width="0.5" fill="none"></path><path d="M28.11 -2.61 C29.55 8.16, 36.92 15.71, 47.93 38.12 M27.73 -1.76 C30.34 10.43, 36.61 17.6, 51.86 40.45 M46.52 41.69 C36.4 57.24, 30.35 71.25, 26.68 84.68 M48.61 41.88 C46.09 49.73, 37.87 57.94, 24.49 80.95 M24.67 78.14 C20.28 67.38, 11.07 56.39, -0.64 41.2 M25.37 83.15 C19.23 70.75, 10.1 60.45, -1.2 42.11 M-3.02 38.63 C5.04 30.46, 12.83 21.85, 28.69 2.01 M0.91 40.34 C7.85 30.74, 16.16 18.25, 24.67 -0.16" stroke="#343a40" stroke-width="1" fill="none"></path></g><g stroke-linecap="round" transform="translate(10 15.11041829807391) rotate(0 29 29)"><path d="M-0.24 30.27 C-0.24 30.27, -0.24 30.27, -0.24 30.27 M-0.24 30.27 C-0.24 30.27, -0.24 30.27, -0.24 30.27 M2.14 29.15 C9.65 20.11, 25.91 12.03, 27.47 -1.42 M2.55 32.42 C13.92 22.67, 19.95 12.07, 30.7 2.11 M6.79 39.27 C17.59 23.06, 23.1 15.76, 36.27 2.05 M5.89 35.61 C11.52 27.83, 17.2 20.79, 35.32 4.46 M7.26 41.91 C14.87 33.11, 20.61 25.64, 34.61 9.36 M8.79 37.83 C18.38 26.24, 28.97 13.7, 34.92 5.94 M12.07 38.38 C18.74 32.23, 20.67 27.52, 38.66 7.61 M13.57 42.52 C18.25 33.91, 25.97 24.95, 38.89 8.49 M12.56 46.4 C26.5 30.9, 35.06 23.46, 42.51 12.83 M13 45.06 C25.23 29.44, 36.53 20.1, 41.48 11.2 M19.4 47.63 C26.36 38.98, 38.88 26.64, 42.15 14.7 M16.07 46.99 C26.19 39.33, 32.21 30.17, 42.92 13.85 M18.43 47.88 C31.06 41.26, 39.03 33.63, 49.86 17.86 M21.07 51.03 C28.96 39.98, 32.44 33.34, 45.14 16.86 M25.81 53.65 C26.82 47.19, 33.39 39.59, 52.74 19.08 M23.99 52.27 C31.73 42.69, 41.71 30.15, 51.53 21.32 M24.52 56.09 C38.93 42.99, 41.12 34.08, 52.58 24.07 M28.27 53 C33.61 46.3, 41.67 36.62, 52.02 24.5 M27.56 55.55 C34.86 50.64, 41 42.84, 51.65 28.97 M29.25 57.93 C35.98 47.41, 45.69 35.81, 54.17 28.07" stroke="#eaddd7" stroke-width="0.5" fill="none"></path><path d="M27.39 -2.43 C40.18 10.94, 49.32 20.77, 54.12 26.04 M28.24 -0.76 C40.87 10.19, 48.93 21.36, 56.45 31.6 M57.69 26.23 C52.14 34.74, 45.05 42.01, 32.68 54.93 M57.88 31.16 C47.33 37.31, 37.2 46.92, 28.95 57.52 M26.14 58.73 C20.57 50.62, 14.33 45.42, -0.8 28.73 M31.15 58.75 C18.34 46.11, 7.74 36.04, 0.11 28.83 M-3.37 28.75 C7.62 21.76, 18.1 15.26, 32.01 -0.07 M-1.66 29.65 C8.75 22.51, 16.23 13.55, 29.84 0.91" stroke="#343a40" stroke-width="1" fill="none"></path></g></svg>