<svg version="1.1" xmlns="http://www.w3.org/2000/svg" viewBox="0 0 78 102" width="234" height="306">
  <!-- svg-source:excalidraw -->
  
  <defs>
    <style class="style-fonts">
      @font-face {
        font-family: "Virgil";
        src: url("https://excalidraw.com/Virgil.woff2");
      }
      @font-face {
        font-family: "Cascadia";
        src: url("https://excalidraw.com/Cascadia.woff2");
      }
    </style>
    
  </defs>
  <g stroke-linecap="round" transform="translate(14.078556990149991 10) rotate(0 25 41)"><path d="M25.96 0.04 C25.96 0.04, 25.96 0.04, 25.96 0.04 M25.96 0.04 C25.96 0.04, 25.96 0.04, 25.96 0.04 M10.88 24.51 C14.57 17.96, 21.54 17.04, 31.83 -0.02 M13.01 20.59 C16.42 15.37, 23.1 9.92, 26.6 1.96 M-1.78 39.17 C12.01 31.62, 19.89 20.25, 31.81 9.46 M-0.21 42.11 C4.39 33.96, 11.22 28, 30 8.17 M1.19 43.73 C13.63 32.24, 27.4 16.55, 33.75 8.82 M1.67 46.34 C13.14 31.76, 26.85 18.67, 33.48 12.4 M1.42 47.68 C14.49 38.13, 27.94 25.24, 32 17.99 M4.3 50.2 C11.45 40.15, 22.23 26.73, 33.87 15.69 M8.44 53.54 C19.82 37.88, 30.87 28.26, 36.85 15.79 M7.86 52.15 C15.53 44.72, 23.78 33.2, 37.81 19.24 M9.11 53.77 C16.81 43.03, 24.94 33.15, 42.46 20.74 M9.73 55.83 C14.85 48.23, 23.23 42.22, 38.93 19.89 M12.11 58.27 C18.8 51.67, 27.94 39.41, 41.32 28.27 M10.29 60.28 C20.7 50.06, 28.2 39.14, 41.58 26.18 M11.81 66.58 C21.26 50.67, 35.81 38.37, 46.71 27.97 M13.93 62.97 C23.04 50.72, 35.43 41.61, 44.53 30.29 M19.36 68.44 C21.42 57.02, 27.45 48.75, 44.61 36.37 M17.5 67.02 C22 58.61, 31.29 47.41, 46.16 31.58 M15.27 67.72 C28.96 58.38, 39.53 43, 43.46 38.42 M20.07 71.97 C30.18 58.55, 41.89 45.31, 47.41 36.81 M20.56 75.02 C28.45 62.61, 37.13 56.47, 50.06 44.22 M19.36 73.01 C26.29 64.34, 35.1 57.32, 48.96 39.65 M20.54 79.81 C32.76 66, 38.68 59.75, 52.69 41.58 M24.76 76.03 C33.26 65.01, 43.06 51.94, 51.64 43.96 M25.38 78.02 C28.53 72.1, 30.14 71.89, 43.18 64.04 M27.15 79.8 C27.36 76.55, 34.94 70.04, 39.67 62.6" stroke="#eaddd7" stroke-width="0.5" fill="none"></path><path d="M22.63 2.72 C38.42 13.61, 41.76 29.15, 47.73 40.51 M25.74 0.23 C35.2 13.48, 42.35 28.52, 49.44 42.15 M52.5 44.32 C38.71 56.13, 31.37 70.45, 22.83 82.59 M49.33 43.5 C44.2 49.55, 38.58 62.54, 27.87 82.08 M22.32 84.43 C16.62 64.26, 8.02 55.85, -2.62 41.57 M24 80.03 C17.94 67, 6.93 52.85, 0.04 43.84 M2.17 45.55 C2.22 32.98, 11.45 21.61, 29.89 0.75 M1.41 42.54 C8.47 26.65, 16.98 13.17, 24.29 -1.1" stroke="#343a40" stroke-width="1" fill="none"></path></g><g stroke-linecap="round" transform="translate(10 15.11041829807391) rotate(0 29 29)"><path d="M-0.24 30.27 C-0.24 30.27, -0.24 30.27, -0.24 30.27 M-0.24 30.27 C-0.24 30.27, -0.24 30.27, -0.24 30.27 M5.75 31.67 C12.13 25.41, 23.85 16.21, 27.55 3.39 M1.84 31.09 C13.82 19.89, 25.46 7.32, 29.53 0.32 M2.7 38.18 C11.14 30.73, 15.78 24.17, 35.26 0.82 M5.64 33.52 C14.61 22.88, 25.76 14.11, 33.97 5.6 M6.9 37.55 C16.11 31.43, 21.13 23.06, 34.26 9.96 M9.51 37.55 C17.37 29.36, 26.76 18.68, 37.84 8.33 M10.48 38.95 C22 32.34, 30.19 21.41, 41.65 9.96 M13.01 39.28 C23.68 29.19, 30.98 16.63, 39.36 10.78 M15.98 45.9 C19.79 37.7, 29.62 25.99, 39.1 11.78 M14.6 43.52 C24.48 34.34, 30.26 26.84, 42.55 12.64 M15.86 44.75 C25.13 32.82, 35.28 27.78, 43.69 11.96 M17.92 45.56 C28.16 35.42, 40 22.3, 42.84 14.1 M19.34 49.93 C31.85 39.38, 38.7 25.38, 49.44 18.91 M21.36 49.63 C30.35 38.33, 38.62 30.44, 47.36 19.31 M26.54 49.43 C28.94 46.4, 34.95 40.7, 48.79 23.04 M22.93 51.69 C31.84 42.92, 43.88 32.12, 51.11 19.84 M28.03 53.83 C33.92 41.72, 42.94 32.61, 55.42 22.67 M26.62 53.63 C34.92 45.59, 40.44 36.75, 50.63 25.77 M26.96 57.78 C38.49 48.13, 43.97 34.08, 57.1 30.38 M31.2 58.08 C37.46 50.19, 43.92 41.13, 55.49 25.36" stroke="#eaddd7" stroke-width="0.5" fill="none"></path><path d="M32.72 2.49 C38.01 8.57, 48.12 21.19, 56.51 31.2 M30.23 0.66 C40.18 11.16, 51.8 21.89, 58.15 30.87 M60.32 27.46 C51.74 35.32, 45.72 40.39, 30.59 55.56 M59.5 29.69 C46.71 38.89, 40.87 50.23, 30.08 59.41 M32.43 58.76 C15.86 49.04, 11.34 34.44, -0.43 33.1 M28.03 59.2 C22.78 50.96, 16.82 44.56, 1.84 28.05 M3.55 27.45 C10.25 20.35, 18.12 12.1, 30.75 0.82 M0.54 30 C6.63 21.24, 15.13 10.84, 28.9 -0.51" stroke="#343a40" stroke-width="1" fill="none"></path></g></svg>