<svg version="1.1" xmlns="http://www.w3.org/2000/svg" viewBox="0 0 78 102" width="234" height="306">
  <!-- svg-source:excalidraw -->
  
  <defs>
    <style class="style-fonts">
      @font-face {
        font-family: "Virgil";
        src: url("https://excalidraw.com/Virgil.woff2");
      }
      @font-face {
        font-family: "Cascadia";
        src: url("https://excalidraw.com/Cascadia.woff2");
      }
    </style>
    
  </defs>
  <g stroke-linecap="round" transform="translate(14.078556990149991 10) rotate(0 25 41)"><path d="M25.96 0.04 C25.96 0.04, 25.96 0.04, 25.96 0.04 M25.96 0.04 C25.96 0.04, 25.96 0.04, 25.96 0.04 M9.14 18.97 C19.66 15.48, 24.78 10.62, 24.87 7.3 M11.17 20.85 C16.27 15.81, 19.58 11.58, 26.85 4.59 M-3.37 42.35 C8.76 31.28, 18.42 28.3, 26.65 10.76 M0.9 42.34 C7.79 36.14, 13.46 26.11, 30.16 7.47 M0.37 43.54 C11.13 37.47, 14.42 28.36, 28.83 8.05 M1.79 47.2 C12.69 36.46, 20.38 21.77, 33.81 12.54 M5.08 52.39 C12.08 38.36, 21.63 29.13, 30.18 15.64 M2.96 50.74 C14.17 39.49, 21.16 26.75, 33.67 14.9 M2.98 53.74 C12.67 48.4, 17.78 35.36, 40.04 19.8 M8.55 50.63 C16.47 40.06, 25.39 28.86, 36.41 18.11 M6.23 57.23 C13.9 43.53, 24.75 39.52, 37.2 18.41 M8.82 53.98 C15.6 47.84, 21.09 41.27, 37.14 21.17 M10.4 61.86 C18.47 50.82, 26.61 46.37, 39.38 23.13 M10.5 59.13 C18.92 47.91, 27.27 39.08, 39.63 26.09 M13.31 61.2 C18.6 54.86, 26.91 42.38, 44.66 29.75 M14.29 62.12 C25.4 51.73, 35.96 40.27, 44.54 29.28 M13.2 68.87 C26.32 50.4, 41.08 41.74, 46.46 35.86 M15.78 67.45 C20.51 59.98, 27.49 50.44, 43.06 32.67 M16.24 71.6 C29.37 61.09, 39.95 43.67, 50.21 39.36 M19.76 70.34 C22.82 61.58, 29.88 58.4, 48.43 35.36 M18.69 70.69 C29.96 66.05, 37.69 53.64, 48.31 40.28 M21.1 71.46 C27.23 63.24, 33.44 58.81, 49.58 40.67 M25.74 79.26 C29.89 64.7, 41.11 55.37, 50.24 42.18 M22.32 75.45 C31.8 67.16, 40.63 56.39, 52 42.89 M22.98 78.76 C30.62 76.08, 34.83 76.48, 39.62 65.32 M23.85 80.65 C28.78 74.92, 33.44 70.76, 41.59 61.62" stroke="#eaddd7" stroke-width="0.5" fill="none"></path><path d="M26.38 2.15 C35.61 11.12, 37.7 21.56, 48.12 39.73 M24.45 1.66 C33.72 11.85, 39.7 22.25, 50.14 43.37 M48.06 45.99 C40.38 57.33, 30.72 72.78, 26.79 84.41 M50.23 42.58 C43.72 49.78, 40.62 60.28, 26.91 80.75 M27.71 79.92 C17.36 67.83, 12.41 54.14, -0.98 43.85 M26.98 82.91 C18.03 72.02, 11.45 60.77, -0.87 43.75 M-2.47 44.29 C6.36 28.81, 21.57 7.82, 23.79 -1.67 M-0.89 42.29 C7.9 33.48, 12.6 20.8, 26.93 0.9" stroke="#1e1e1e" stroke-width="1" fill="none"></path></g><g stroke-linecap="round" transform="translate(10 15.11041829807391) rotate(0 29 29)"><path d="M-0.24 30.27 C-0.24 30.27, -0.24 30.27, -0.24 30.27 M-0.24 30.27 C-0.24 30.27, -0.24 30.27, -0.24 30.27 M0.22 34.7 C11.98 24.51, 22.35 9.03, 34.87 -2.04 M2.1 32.9 C10.01 22.54, 19.08 11.16, 32.16 -0.44 M5.88 36.58 C11.46 30.03, 25.12 14.73, 36.56 1.47 M5.87 36.35 C17.01 24.15, 24.32 14.76, 33.28 2.58 M6.71 39.85 C17.09 26.8, 24.42 15.99, 33.49 7.08 M10.37 39.59 C20.86 26.06, 27.4 16.05, 37.98 6.19 M15.2 39.59 C18.17 32.26, 25.95 20.08, 39.31 10.16 M13.55 41.58 C22.1 29.16, 29.17 19.29, 38.57 8.57 M16.19 41.77 C25.6 32.73, 27.28 32.14, 43.11 13.48 M13.08 43.94 C24.17 30.65, 34.59 18.6, 41.41 11.8 M19.32 42.82 C23.22 36.37, 36.83 25.18, 41.35 12.02 M16.07 45.2 C23.57 37.27, 30.64 30.57, 44.12 13.41 M22.94 49.83 C26.75 43.09, 37.14 30.83, 44.31 18.15 M20.2 47.81 C25.15 40.59, 32.49 33.95, 47.27 18.32 M21.16 49.04 C34.65 37.34, 42 31.06, 50.57 22.94 M22.08 53.37 C29.74 46.23, 36.32 38.97, 50.1 22.85 M28.47 53.89 C30.35 49.22, 42.02 39.75, 54.9 20.85 M27.05 53.41 C34.57 45.06, 40.04 34.58, 51.72 26.27 M30.84 57.48 C42.05 46.99, 46.33 40.66, 58.05 23.28 M29.58 56.61 C37.66 45.79, 51.32 35.22, 54.05 26.97" stroke="#eaddd7" stroke-width="0.5" fill="none"></path><path d="M32.15 2.47 C40.32 8.95, 49.54 20.1, 55.73 28.75 M31.66 0.51 C41.21 12.2, 51.27 24.03, 59.37 31.68 M61.99 29.55 C49.36 37.37, 40.91 47.6, 32.41 54.88 M58.58 28.89 C47.99 40.13, 40.66 48.88, 28.75 58.33 M27.92 58.01 C17.81 51.68, 6.22 37.55, 1.85 28.36 M30.91 57.52 C18.89 46.9, 6.14 35.29, 1.75 31.89 M2.29 26.79 C14.79 20.67, 21.81 5.25, 28.33 -2.57 M0.29 31.78 C10.33 21.6, 16.56 13.18, 30.9 -1.8" stroke="#1e1e1e" stroke-width="1" fill="none"></path></g></svg>