<svg version="1.1" xmlns="http://www.w3.org/2000/svg" viewBox="0 0 78 102" width="234" height="306">
  <!-- svg-source:excalidraw -->
  
  <defs>
    <style class="style-fonts">
      @font-face {
        font-family: "Virgil";
        src: url("https://excalidraw.com/Virgil.woff2");
      }
      @font-face {
        font-family: "Cascadia";
        src: url("https://excalidraw.com/Cascadia.woff2");
      }
    </style>
    
  </defs>
  <g stroke-linecap="round" transform="translate(15 10) rotate(0 25 41)"><path d="M25.96 0.04 C25.96 0.04, 25.96 0.04, 25.96 0.04 M25.96 0.04 C25.96 0.04, 25.96 0.04, 25.96 0.04 M16.32 18.14 C19.96 19.29, 19.45 7.63, 24.92 3.11 M12.43 20.89 C17.93 16.56, 19.17 14.21, 29.95 4.7 M-1.74 45.62 C5.17 30.09, 17.79 21.72, 32.33 8.98 M0.36 42.06 C5.28 35.14, 13.04 28.1, 31.58 9.05 M-1.73 48.73 C11.5 41.39, 18.34 29.37, 28.69 14.91 M2.29 44.73 C12.93 34.16, 21.99 22.89, 33.41 12.47 M8.03 51.88 C14.66 44.95, 19.57 36.74, 36.42 13.74 M4.33 48.83 C16.19 34.11, 29.07 22.53, 35.72 16.04 M9.13 54.54 C19.88 43.44, 29.29 25.37, 39.87 19.25 M6.13 52.87 C13.33 43.18, 24.89 34.77, 35.63 17.98 M10.51 52.12 C22.59 37.93, 35.87 25.9, 41.26 18.87 M7.55 57.5 C21.21 43.18, 33.91 30.97, 40.24 21.19 M12.89 55.44 C22.16 47.05, 30.89 38.99, 43.14 22.99 M10.42 59.81 C22.37 45.94, 30.29 36.32, 42.37 25.22 M12.72 62.98 C23.71 56.5, 28.13 46.27, 46.86 26.13 M11.61 64.3 C25.83 50.59, 36.27 34.65, 44.26 30.29 M17.21 69.41 C24.6 60.67, 33.03 47.55, 44.45 31.76 M15.43 66.11 C24.3 54.11, 36.74 42.8, 42.74 32.78 M20.93 73.56 C28.21 55.96, 39.64 47.13, 44.43 33.75 M19.44 69.81 C27.66 61.38, 36.99 48.79, 48.24 37.49 M20.96 70.95 C30.69 59.83, 37.8 50.5, 47.66 41.17 M18.8 72.64 C31.55 61.92, 44.2 49.38, 49.91 41.12 M20.67 74 C37.53 64.81, 43.15 53.3, 54.47 46.74 M23.38 75.51 C32.3 64.78, 43.27 52.94, 52.03 43.57 M26.3 83.56 C31.97 79.37, 31.5 70.98, 38.76 62.95 M23.54 81.21 C31.45 74.15, 35.7 67.39, 41.32 62.7" stroke="#eaddd7" stroke-width="0.5" fill="none"></path><path d="M23.33 -0.68 C34.86 7.81, 36.62 20.34, 46.42 45.24 M24.37 -0.16 C34.3 16.51, 46.92 32.16, 51.92 43.05 M52.58 43.18 C42.18 48.09, 39.46 62.3, 28.91 80.97 M48.68 43.34 C39.57 59.44, 31.69 73.13, 27.05 81.28 M27.91 78.58 C18.65 73.25, 10.86 61.44, -0.46 45.08 M25.62 82.72 C17.05 71.1, 10.37 60.66, -0.31 41.25 M3.44 44.97 C5.23 31.76, 16.21 21.67, 26.87 3.81 M0.32 40.74 C6.18 31.46, 10.72 23.09, 24.64 1.44" stroke="#343a40" stroke-width="1" fill="none"></path></g><g stroke-linecap="round" transform="translate(10 29.853506455674506) rotate(0 29 29)"><path d="M-0.24 30.27 C-0.24 30.27, -0.24 30.27, -0.24 30.27 M-0.24 30.27 C-0.24 30.27, -0.24 30.27, -0.24 30.27 M-0.61 35.38 C16.32 17.5, 20.74 5.52, 30.68 -3.02 M2.14 34.8 C9.67 23.71, 19.04 16.52, 32.28 -0.68 M9.15 33.54 C10.64 29.2, 19.28 18.38, 34.78 0.57 M5.59 34.2 C13.93 26.39, 22.15 19.28, 34.85 2.29 M11.9 41.17 C22.52 30.07, 28.46 11.52, 40.35 7.05 M7.9 39.49 C17.08 28.87, 25.57 18.83, 37.91 5.23 M14.69 43.52 C22.91 32.82, 29.85 26.46, 37.41 13.63 M11.64 40.25 C16.59 34.35, 24.67 28.1, 39.71 10.87 M16.99 46.17 C26.89 34.5, 29.82 25.73, 42.56 11.34 M15.32 41.76 C23.01 36.17, 31.96 24.11, 41.29 14.39 M14.21 47.52 C21.34 39.88, 30.65 30.21, 41.82 18.79 M19.59 46.77 C28.45 37.03, 39.42 25.26, 44.14 14.43 M16.51 52.07 C24.73 44.01, 33.29 34.05, 44.17 20.42 M20.89 49.99 C26.61 38.99, 36.57 33.2, 46.4 16.61 M22.94 55.87 C30.17 46.55, 33.68 40.68, 46.95 24.74 M24.26 52.84 C31.63 43.23, 36.77 35.95, 51.11 20.98 M29.01 55.56 C40.22 43.62, 47.04 30.97, 50.8 26.11 M25.7 53.68 C34.23 45.8, 43.43 31.77, 51.83 25.07 M32.8 57.87 C34.25 50.11, 44.46 35.83, 52.44 27.19 M29.05 58.62 C40.66 47.38, 48.11 35.21, 56.17 27.63" stroke="#eaddd7" stroke-width="0.5" fill="none"></path><path d="M29.32 3.06 C35.06 6.52, 43.75 11.87, 61.24 33.53 M29.84 -1.34 C40.5 12.56, 49.3 22.66, 59.05 28.78 M59.18 27.52 C44.77 40.68, 39.62 52.87, 28.97 61.08 M59.34 28.18 C50.52 38.91, 39.19 50.53, 29.28 56.45 M26.58 56.61 C20.29 45.86, 7.71 39.77, 3.08 28.68 M30.72 56.14 C19.58 47.36, 10.25 39.72, -0.75 29.39 M2.97 27.46 C7.47 24.61, 15.01 17.74, 33.81 -2.61 M-1.26 29.81 C7.41 20.1, 16.95 12.43, 31.44 -0.21" stroke="#343a40" stroke-width="1" fill="none"></path></g></svg>