<svg version="1.1" xmlns="http://www.w3.org/2000/svg" viewBox="0 0 82 108" width="246" height="324">
  <!-- svg-source:excalidraw -->
  
  <defs>
    <style class="style-fonts">
      @font-face {
        font-family: "Virgil";
        src: url("https://excalidraw.com/Virgil.woff2");
      }
      @font-face {
        font-family: "Cascadia";
        src: url("https://excalidraw.com/Cascadia.woff2");
      }
    </style>
    
  </defs>
  <g stroke-linecap="round" transform="translate(10 10) rotate(0 25 41)"><path d="M25.96 0.04 C25.96 0.04, 25.96 0.04, 25.96 0.04 M25.96 0.04 C25.96 0.04, 25.96 0.04, 25.96 0.04 M8.78 18.45 C15.32 15.36, 19.17 12.78, 30.3 1.27 M11.29 21.87 C17.94 13.64, 23.04 10.61, 28.26 5.33 M-0.73 46.08 C11.33 35.92, 19.44 22.81, 30.27 3.94 M-1.63 42.54 C8.71 31.15, 21.82 19.27, 29.99 8.82 M1.6 43.66 C12.22 33.02, 21.84 23.15, 31.74 12.46 M3.95 47.6 C10.38 36.38, 19.85 27.11, 31.41 10.16 M7.59 47.73 C12.84 39.69, 25.14 23.81, 35.74 13.33 M3.42 47.56 C8.73 40.33, 15.55 34.65, 32.84 14.26 M5.47 55.37 C15.86 46.03, 21.77 31.84, 35.79 15.4 M6.49 50.75 C12.93 43.02, 21.86 32.65, 36.2 18.41 M9.3 53.08 C16.69 51.26, 21.97 36.57, 41.73 18.74 M7.84 54.9 C21.31 41.29, 31.62 30.96, 38.16 23.81 M15.49 60.3 C20.81 49.23, 32.48 35.97, 38.26 23.82 M12.84 57.4 C22.19 45.8, 34.07 35.16, 41.84 27.6 M14.59 61.63 C20.23 53.19, 38.62 40.28, 39.36 32.8 M14.68 62.33 C20.73 53.39, 32.14 43.16, 44.53 30.81 M14.45 63.33 C28.9 53.28, 37.78 46.26, 48.22 34.23 M14.71 67.65 C28.11 55.8, 38.12 39.98, 42.88 33.9 M16.81 69.36 C27.89 54.2, 38.26 44.6, 42.98 40.62 M16.29 72.01 C25.93 63.81, 29.55 57.11, 47.84 36.98 M24.36 73.83 C31.01 63.47, 41.22 45.45, 48.64 41.12 M21.15 73.97 C34.12 59.43, 42.35 45.17, 49.9 39.34 M20.63 73.28 C27.51 67.92, 35.17 58.64, 48.18 42.07 M22.47 74.99 C32.2 61.89, 44.87 52.01, 51.38 42.66 M22.49 78.16 C29.95 71.64, 37.03 64.96, 36.65 63.09 M26.64 81.7 C30.05 76.84, 34.62 71.07, 41.8 61.92" stroke="#eaddd7" stroke-width="0.5" fill="none"></path><path d="M25.64 3.08 C30.51 9.75, 37.25 22.53, 47.51 43.42 M25.62 0.39 C35.81 13.45, 44.45 29.18, 48.48 43.48 M53.21 44.56 C48.49 51.48, 40.9 60.56, 28.02 82.49 M51.97 41.69 C43.92 49.96, 39.98 58.97, 24.89 82.5 M29.42 81.87 C18.25 69.67, 16.31 62.16, -2.51 38.2 M24.16 81.67 C16.01 67.49, 7.98 54.29, 1.27 43.68 M0.04 43.06 C8.24 29.57, 8.66 23.35, 26.63 2.92 M0.87 41.4 C11.28 24.52, 23.29 9.4, 24.71 1.09" stroke="#343a40" stroke-width="1" fill="none"></path></g><g stroke-linecap="round" transform="translate(14 40) rotate(0 29 29)"><path d="M-0.24 30.27 C-0.24 30.27, -0.24 30.27, -0.24 30.27 M-0.24 30.27 C-0.24 30.27, -0.24 30.27, -0.24 30.27 M-0.3 31.34 C11.11 20.21, 23.26 13.25, 28.84 2.36 M3.12 32.84 C9.99 22.52, 22.22 12.59, 32.9 -0.06 M9.61 38.29 C15.7 30.51, 18.81 20.5, 29.74 5.05 M6.07 33.88 C12.39 30.27, 18.21 21.6, 34.62 3.49 M6.83 38.91 C11.52 33.72, 16.99 24.89, 37.91 5.1 M10.77 38.21 C16.79 29.94, 24.78 18.23, 35.6 7.65 M10.54 38.07 C21.46 31.56, 24.56 26.46, 37 5.84 M10.37 38.97 C17.89 31.05, 26.95 21.55, 37.93 9.45 M17.82 43.5 C24.15 34.29, 25.6 28.89, 38.71 10.95 M13.2 41.74 C22.87 33.25, 29.93 23.66, 41.72 11.14 M15.17 46.25 C28.45 36.38, 28.87 32.48, 41.69 18.18 M16.98 46.33 C22.1 39.09, 30.49 32.17, 46.76 15.15 M21.37 49.95 C29.24 42.16, 34.92 26.27, 45 21.6 M18.47 49.25 C28.62 39.34, 39.74 29.29, 48.78 19.67 M21.59 48.29 C33.71 46.3, 41.36 29.21, 53.62 21.88 M22.29 50.46 C34.41 40.34, 45.25 29.85, 51.63 22.04 M22.93 58.05 C33.52 46.62, 47.13 37.57, 53.28 28 M27.25 55.66 C35.65 46.28, 40.07 36.31, 52.95 25.86 M28.6 56.61 C34.53 46.32, 46.03 33.19, 59.31 23.77 M31.25 58.98 C38.78 47.03, 47.8 39.06, 55.67 28.67" stroke="#eaddd7" stroke-width="0.5" fill="none"></path><path d="M33.08 -2.52 C38.34 9.28, 50.59 20.3, 59.42 32.26 M30.39 1.58 C35.94 9.61, 44.01 14.28, 59.48 28.02 M60.56 32.9 C49.56 40.42, 40.77 52.14, 30.49 55.25 M57.69 28.81 C46.01 41.7, 35.04 50.9, 30.5 57.37 M29.87 56.43 C21.63 56.35, 18.81 44.73, -3.8 31.55 M29.67 57.35 C19.01 47.28, 8.33 38.12, 1.68 28.36 M1.06 32.35 C4.97 18.89, 16.1 14.22, 32.92 3.84 M-0.6 30.29 C5.66 25.2, 13.72 15.37, 31.09 -0.28" stroke="#343a40" stroke-width="1" fill="none"></path></g></svg>