<svg version="1.1" xmlns="http://www.w3.org/2000/svg" viewBox="0 0 78 103" width="234" height="309">
  <!-- svg-source:excalidraw -->
  
  <defs>
    <style class="style-fonts">
      @font-face {
        font-family: "Virgil";
        src: url("https://excalidraw.com/Virgil.woff2");
      }
      @font-face {
        font-family: "Cascadia";
        src: url("https://excalidraw.com/Cascadia.woff2");
      }
    </style>
    
  </defs>
  <g stroke-linecap="round" transform="translate(11.073290654361244 10) rotate(0 25 41)"><path d="M25.96 0.04 C25.96 0.04, 25.96 0.04, 25.96 0.04 M25.96 0.04 C25.96 0.04, 25.96 0.04, 25.96 0.04 M8.66 23.68 C19.49 20.27, 24.53 10.19, 31.99 5.73 M11.98 23.32 C19.13 17.09, 20.86 11.55, 27.23 4.7 M-3.08 41.55 C13.68 28.61, 23.35 18.67, 31.81 6.69 M-0.56 41.57 C6.35 36.05, 11.52 26.02, 28.99 8.05 M-1.72 49.25 C11.16 34.74, 19.1 22.8, 33.63 14.14 M1.95 44.09 C11.78 36.93, 17.47 26.12, 33.36 12.77 M1.8 50.05 C10.49 45.33, 21.28 31.4, 35.74 13.29 M6.29 48.02 C13.4 39.1, 20.82 30.59, 36.07 14.37 M8.98 55.78 C19.51 38.13, 28.31 27.79, 36.9 19.76 M5.54 52.3 C14.03 43.48, 22.2 37.31, 38.39 16.77 M7.12 59.71 C22.08 43.08, 28.19 29.53, 36.22 24.37 M9.75 57.29 C18.12 44.74, 24.41 37.5, 40.36 23.8 M13.87 56.01 C17.76 50.44, 20.93 47.98, 39.63 26.34 M11.67 59.02 C21.52 47.6, 32.2 38.32, 40.49 27.23 M17.03 60.04 C16.41 54.42, 28.35 53.97, 42.37 26.57 M11.86 64.18 C22.83 52.05, 35.74 39.27, 43.43 30.71 M13.73 68.81 C19.62 58.5, 26.88 50.41, 44.88 36.38 M15.06 65.37 C24.96 52.66, 35.28 41.2, 45.22 33.32 M18.92 69.02 C29.01 62.05, 36.11 48.05, 46.54 35.01 M19.99 71.84 C25.48 61.27, 29.99 53.5, 48.19 37.79 M16.56 69.54 C30.82 68.77, 31.09 60.77, 45.62 42.36 M19.75 72.79 C28.1 63.88, 39.79 51.77, 50.18 42.05 M19.44 73.66 C25.34 69.32, 37.97 58, 54.33 47.54 M22.91 76.3 C32.16 62.58, 42.39 51.71, 52.9 42.41 M25.66 82.58 C31.09 74.23, 40.19 67.57, 40.98 60.89 M23.23 79.64 C29.32 77.55, 33.56 73.97, 41.24 64.44" stroke="#eaddd7" stroke-width="0.5" fill="none"></path><path d="M23.77 -1.17 C37.25 15.14, 46.71 30.89, 49.86 45.37 M26.67 0.24 C32.09 11.65, 39.24 23.79, 49.17 40.2 M49.58 40.47 C40.34 52.56, 36.46 72.15, 26.42 84.91 M49.23 43.1 C46.96 49.89, 39.69 58.68, 25.57 80.94 M23.03 80.05 C18.06 76.04, 14.93 63.89, -1.8 39.96 M25.32 83.39 C20.06 68.03, 10.9 57.92, -0.01 42.23 M3.15 44.39 C9.48 33.95, 14.54 21.98, 25.17 1.62 M0.98 40.83 C6.02 33.04, 12.44 23.35, 26.92 0.74" stroke="#1e1e1e" stroke-width="1" fill="none"></path></g><g stroke-linecap="round" transform="translate(10 35) rotate(0 29 29)"><path d="M-0.24 30.27 C-0.24 30.27, -0.24 30.27, -0.24 30.27 M-0.24 30.27 C-0.24 30.27, -0.24 30.27, -0.24 30.27 M4.92 35.26 C12.57 29.22, 13.82 22.41, 33.3 1.3 M4.57 34.55 C14.2 20.16, 24.25 9.51, 32.27 1.39 M5.08 38.75 C12.01 29.36, 21.95 19.74, 32.49 0.36 M5.1 36.14 C17.54 22.86, 25.47 10.33, 33.85 4.26 M12.42 36.92 C15.58 28.22, 21.31 24.99, 39.58 5.03 M7.26 39.71 C17.53 28.02, 24.15 20.24, 38.21 4.81 M12.86 39.89 C22.26 36.9, 22.45 27.35, 36.96 7.91 M10.83 41.77 C17.04 33.74, 23.65 27.18, 38.04 11.44 M18.23 44.64 C21.25 33.02, 31.58 25.74, 43.07 9.91 M14.75 43.27 C21.13 36.62, 30.13 29.27, 40.08 13.75 M21.8 47.47 C23.56 36.24, 28.37 30, 47.32 14.03 M19.38 47.4 C26.79 33.22, 39.51 22.91, 46.75 13.59 M17.08 49.25 C28.2 35.03, 42.42 27.05, 47.52 19.61 M20.1 50.04 C28.85 40.62, 39.72 28.15, 48.41 16.47 M20 48.93 C28.57 45.99, 42.3 34.1, 47.39 24.56 M24.14 50.53 C35.15 40.95, 45.49 30.02, 51.53 19.15 M28.41 52.55 C32.37 45.55, 38.55 37.92, 55.43 27.1 M24.96 53.94 C34.79 41.92, 45.87 31.55, 52.36 24.59 M28.26 58.72 C36.95 50.54, 38.62 44.12, 53.69 24.3 M31.08 57.78 C35.16 47.08, 42.06 41.85, 56.48 25.7" stroke="#eaddd7" stroke-width="0.5" fill="none"></path><path d="M28.83 2.03 C35.21 9.85, 41.31 15.45, 61.37 29.49 M30.24 -1.35 C40.59 9.66, 50.88 20.87, 56.2 30.56 M56.47 27.7 C45.28 41.82, 41.57 50.72, 32.91 54.31 M59.1 31.64 C48.17 38.61, 39.17 48.29, 28.94 56.57 M28.05 56.25 C23.79 49.35, 10.84 37.2, -2.04 30.44 M31.39 59.76 C20.32 51.42, 15.08 43.66, 0.23 28.41 M2.39 33.19 C8.3 25.01, 12.63 14.64, 31.62 -2.17 M-1.17 29.45 C9.74 20.82, 18.74 13.89, 30.74 0.18" stroke="#1e1e1e" stroke-width="1" fill="none"></path></g></svg>