<svg version="1.1" xmlns="http://www.w3.org/2000/svg" viewBox="0 0 82 108" width="246" height="324">
  <!-- svg-source:excalidraw -->
  
  <defs>
    <style class="style-fonts">
      @font-face {
        font-family: "Virgil";
        src: url("https://excalidraw.com/Virgil.woff2");
      }
      @font-face {
        font-family: "Cascadia";
        src: url("https://excalidraw.com/Cascadia.woff2");
      }
    </style>
    
  </defs>
  <g stroke-linecap="round" transform="translate(10 10) rotate(0 25 41)"><path d="M25.96 0.04 C25.96 0.04, 25.96 0.04, 25.96 0.04 M25.96 0.04 C25.96 0.04, 25.96 0.04, 25.96 0.04 M8.63 20.45 C14.56 11.79, 26.74 7.09, 31.39 1.48 M11.48 22.05 C17.07 12.47, 25.28 7.29, 27.19 1.81 M-3.09 46.12 C2.84 36.87, 11.86 30.08, 31.14 9.82 M-1.38 41.31 C7.04 33.69, 15.59 23.47, 31.82 8.05 M1.68 44.02 C12.41 33.43, 19.38 28.07, 35.58 10.51 M1.48 47.58 C11.59 33.39, 22.17 24.07, 33.22 9.54 M3.44 46.76 C19.51 35.02, 27.88 21.76, 33.93 18.59 M3.24 49.21 C15.08 37.27, 26.24 25.15, 35.74 16.77 M6.59 52 C15.96 40.72, 27.65 34.75, 35.37 20.01 M7.67 54.12 C13.63 43.06, 20.36 36, 35.6 18.37 M12.88 59.33 C16.77 46.11, 20.59 40.45, 36.92 20.41 M9.7 57.37 C18.7 43.06, 29.21 32.79, 37.99 20.62 M9.85 57.74 C17.91 51.53, 29.41 41.98, 37.95 22.34 M13.27 59.44 C23 43.88, 32.14 32.13, 40.84 27.51 M14.74 61.93 C26.78 54.01, 35.48 44.33, 46.61 26.53 M12.34 65.24 C21.41 52.54, 30.08 42.14, 42.47 28.65 M17.6 64.74 C25.07 52.48, 38.25 42.84, 47.77 32.63 M15.31 67.33 C26.92 54.9, 36.06 43.08, 42.8 34.83 M21.8 69.19 C28.68 61.64, 40.41 47.04, 44.73 36.71 M18.84 68.68 C28.77 57.9, 38.42 46.13, 46.37 38.25 M19.23 72.98 C27.04 62.39, 37.7 53.43, 51.17 40 M20.17 73.94 C31 60.42, 42.01 48.66, 47.41 40.02 M26.09 80.73 C30.34 63.37, 43.48 56.31, 50.25 41.42 M22.29 76.4 C30.13 66.51, 36.41 57.08, 50.29 45.45 M23.4 83.47 C33.42 78.17, 35.39 69.98, 40.67 65.66 M23.62 80.3 C29.42 76.11, 35.18 71.88, 40.83 62.8" stroke="#eaddd7" stroke-width="0.5" fill="none"></path><path d="M27.87 -2.77 C35.85 15.66, 41.79 32.38, 52.79 39.13 M24.72 1.26 C35.44 13.55, 40.1 27.32, 49.14 42.19 M49.53 41.05 C39.05 55.85, 38.12 62.51, 29.13 78.67 M51.1 42.31 C42.02 54.35, 36.41 65.4, 24.91 83.51 M29.62 82.09 C21 66.56, 9.79 60.26, -2.72 41.94 M27.35 81.74 C20.81 72.21, 11.89 61.59, -0.71 42.71 M1.09 45.97 C6.69 29.28, 23.66 7.74, 22.62 3.38 M0.7 41.7 C9.28 24.46, 21.36 9.91, 24.15 -1.32" stroke="#343a40" stroke-width="1" fill="none"></path></g><g stroke-linecap="round" transform="translate(14 40) rotate(0 29 29)"><path d="M-0.24 30.27 C-0.24 30.27, -0.24 30.27, -0.24 30.27 M-0.24 30.27 C-0.24 30.27, -0.24 30.27, -0.24 30.27 M1.7 29.45 C10.39 23.98, 23.12 11.57, 29.05 3.97 M3.3 30.93 C6.28 26.63, 13.96 18.64, 29.38 -1.35 M9.65 31.97 C15.23 26.36, 23.3 19.66, 35.62 1.85 M4.84 35.3 C14.82 26.39, 22.19 17.22, 33.85 2.92 M7.19 40.82 C14.41 29.88, 26.84 20.83, 35.95 6.81 M10.75 38.55 C16.97 28.88, 28.05 16.93, 34.98 7.99 M9.57 44.07 C16.73 34.47, 22.35 26.77, 42.26 12.85 M12.02 40.35 C21.56 30.72, 30.94 22.65, 40.44 9.69 M14.45 44.1 C22.54 36.33, 35.97 20.62, 43.32 9.82 M16.57 43.08 C21.24 33.79, 29.88 24.5, 41.67 11.28 M21.41 46.13 C23.62 34.02, 33.4 27, 43.36 17.14 M19.46 45.59 C27.36 33.81, 39.29 21.47, 43.57 14.52 M18.81 47.48 C28.57 43.43, 34.96 31.2, 43.52 22.06 M20.51 49.67 C26.81 36.86, 36.93 28.76, 48.69 19.11 M21.89 54.99 C30.95 47.17, 38.24 42.51, 47.35 21.92 M25.2 50.84 C32.48 39.85, 42.09 30.94, 49.47 22.19 M24.34 54.14 C33.42 45.83, 45.13 35.62, 51.68 25.87 M26.93 56.56 C35.12 45.22, 43.92 31.12, 53.87 25.39 M28.43 58.44 C42.66 47.87, 49.83 30.95, 55.39 29.38 M27.92 57.02 C34.53 49.8, 40.16 43.76, 56.93 26.54" stroke="#eaddd7" stroke-width="0.5" fill="none"></path><path d="M27.23 1.8 C38.48 6.7, 47.57 17.81, 55.13 31.19 M31.26 1.54 C38.5 7.61, 46.8 17.45, 58.19 29.88 M57.05 26.51 C53.04 39.57, 40.94 47.09, 26.67 58.35 M58.31 29.48 C49.83 39.82, 40.3 45.68, 31.51 58.07 M30.09 60.65 C18.08 50.36, 15.89 40.8, -0.06 27.68 M29.74 59.38 C20.73 47.79, 9.76 38.98, 0.71 31.91 M3.97 26.15 C12 24.58, 15.16 10.28, 33.38 3.04 M-0.3 29.61 C7.66 22.32, 18.3 9.16, 28.68 1.66" stroke="#343a40" stroke-width="1" fill="none"></path></g></svg>