<svg version="1.1" xmlns="http://www.w3.org/2000/svg" viewBox="0 0 82 108" width="246" height="324">
  <!-- svg-source:excalidraw -->
  
  <defs>
    <style class="style-fonts">
      @font-face {
        font-family: "Virgil";
        src: url("https://excalidraw.com/Virgil.woff2");
      }
      @font-face {
        font-family: "Cascadia";
        src: url("https://excalidraw.com/Cascadia.woff2");
      }
    </style>
    
  </defs>
  <g stroke-linecap="round" transform="translate(10 10) rotate(0 25 41)"><path d="M25.96 0.04 C25.96 0.04, 25.96 0.04, 25.96 0.04 M25.96 0.04 C25.96 0.04, 25.96 0.04, 25.96 0.04 M10.57 24.13 C17.71 17.97, 24.38 3.82, 25.98 0.47 M12.85 20.97 C20.22 14.75, 25.32 9.14, 28.8 3.47 M-1.38 42.53 C12.94 26.08, 20.11 19.18, 33.03 11.25 M-0.58 40.65 C8.53 34.78, 14.25 23.77, 31.66 7.15 M1.28 45.21 C12.7 34.68, 12.27 28.15, 32.27 13.27 M1.86 45.04 C13.76 30.96, 23.86 18.79, 32.11 8.99 M0.82 45.25 C15.99 38.39, 24.65 27.82, 37.21 11.57 M2.86 49.87 C15.22 38.6, 24.26 22.84, 34.77 14.09 M5.89 50.32 C12.84 44.65, 21.81 34.02, 35.76 19.59 M8.41 51.69 C13.33 45.51, 20.26 34.2, 34.84 18.96 M9 59.46 C14.98 46.89, 18.84 42.56, 38.23 19.96 M10.46 55.45 C16.18 50.12, 21.09 40.49, 39.26 23.04 M14.98 58.69 C15.12 49.24, 29.65 41.48, 43.75 29.7 M12.66 60.77 C19.95 46.73, 29.16 36.74, 42.43 24.68 M12.83 65.16 C25.63 51.36, 33.16 37.64, 46.74 29.53 M11.48 64.92 C24.77 52.94, 34.12 38.9, 41.94 29.12 M14.85 63.7 C28.93 59.15, 30.45 49.44, 44.82 36.58 M16.57 66.11 C21.66 60.01, 30.84 50.05, 43.69 32.04 M17.2 70.83 C30.06 58.09, 37.96 47.21, 48.57 37.9 M16.56 70.19 C24.27 59.73, 35.04 53.68, 48.95 35.78 M23 71.22 C26.9 62.41, 31.01 58.31, 49.43 39.22 M19.45 73.93 C25.91 67.23, 32.2 56.74, 47.47 40.83 M22.24 77.97 C36.13 66.15, 44.59 55.38, 50.82 41.44 M21.71 76.03 C32.9 64.3, 42.48 53.37, 49.84 45.12 M28.22 80.11 C29.26 70.82, 35.21 69.99, 42.22 60.73 M26.02 79.34 C33.13 72.5, 37.82 66.07, 38.88 62.81" stroke="#eaddd7" stroke-width="0.5" fill="none"></path><path d="M27.86 -1.94 C34.56 12.54, 46 29.65, 53.17 41.16 M25.58 0.65 C36.48 13.47, 43.99 26.87, 48.2 43.35 M53.7 41.13 C43.58 58.83, 36.97 69.62, 23.77 81.85 M50.74 40.62 C40.45 56.57, 31.2 70.98, 25.4 83.39 M24.77 81.55 C17.55 69.84, 13.22 59.03, 1.84 41.76 M25.71 82.5 C16.97 67.52, 8.33 53.33, -1.92 41.79 M3.26 45.91 C6.55 25.43, 18.69 15.3, 24.56 -2.19 M-0.54 41.59 C6.39 29.38, 11.92 17.61, 24.6 1.84" stroke="#343a40" stroke-width="1" fill="none"></path></g><g stroke-linecap="round" transform="translate(14 40) rotate(0 29 29)"><path d="M-0.24 30.27 C-0.24 30.27, -0.24 30.27, -0.24 30.27 M-0.24 30.27 C-0.24 30.27, -0.24 30.27, -0.24 30.27 M5.38 32.05 C13.54 24.06, 14.04 12.75, 28.05 3.73 M2.22 34.19 C8.92 26.4, 16.14 19.7, 31.04 2.06 M6.06 37.13 C11.21 23.37, 25.88 19.49, 37.05 1.87 M4.18 36.73 C15.78 24.92, 22.24 17.13, 32.95 2.34 M8.38 41.95 C14.53 24.66, 24.69 17.81, 38.71 9.39 M8.2 37.79 C12.9 30.05, 19.49 24.62, 34.43 5.99 M8.06 43.85 C18.12 36.19, 24.49 27.1, 35.24 12.06 M12.68 40.79 C21.08 31.04, 25.01 24.42, 37.76 9.32 M12.76 40.97 C23.71 33.6, 29.69 26.1, 42.9 9.99 M14.14 42.58 C23.48 33.51, 27.71 24.24, 42.27 10.85 M21.55 44.81 C23 34.64, 32.73 30.34, 42.9 11.37 M17.54 47.25 C29.25 34.23, 36.66 23.15, 45.99 14.31 M19.76 45.43 C27.68 41.97, 37.3 32.21, 50.88 18.73 M21.84 48.61 C25.17 40.39, 32.59 34.44, 45.86 20.15 M25.12 52.97 C32.72 39.65, 40.38 36.81, 50.34 23.15 M24.88 52.88 C32.34 43.74, 37.73 34.35, 49.94 21.01 M23.3 58.64 C33.97 45.55, 39.46 42.65, 55.63 22.05 M25.71 53.06 C33.11 48.68, 36.69 40.71, 51.09 24.76 M30.07 60.24 C36.09 49.64, 43.95 39.93, 56.59 25.69 M29.43 55.55 C34.73 51.06, 44.45 43.66, 54.47 26.21" stroke="#eaddd7" stroke-width="0.5" fill="none"></path><path d="M28.06 -0.51 C37.83 13.05, 50.18 24.72, 57.16 31.41 M30.65 1.91 C39.88 12.35, 49.33 20.02, 59.35 30.94 M57.13 31.17 C50 44.35, 35.97 50.18, 29.85 60.3 M56.62 29.75 C52.41 35.19, 46.62 41.41, 31.39 57.46 M29.55 56.88 C18.2 50.28, 8.48 41.3, -0.24 32.33 M30.5 57.72 C22.03 51.89, 15.3 43.17, -0.21 30.99 M3.91 27.3 C6.56 21.47, 19.49 11.29, 27.81 -1.36 M-0.41 30.18 C10.02 17.45, 20.92 5.75, 31.84 0.51" stroke="#343a40" stroke-width="1" fill="none"></path></g></svg>