<svg version="1.1" xmlns="http://www.w3.org/2000/svg" viewBox="0 0 82 108" width="246" height="324">
  <!-- svg-source:excalidraw -->
  
  <defs>
    <style class="style-fonts">
      @font-face {
        font-family: "Virgil";
        src: url("https://excalidraw.com/Virgil.woff2");
      }
      @font-face {
        font-family: "Cascadia";
        src: url("https://excalidraw.com/Cascadia.woff2");
      }
    </style>
    
  </defs>
  <g stroke-linecap="round" transform="translate(10 10) rotate(0 25 41)"><path d="M25.96 0.04 C25.96 0.04, 25.96 0.04, 25.96 0.04 M25.96 0.04 C25.96 0.04, 25.96 0.04, 25.96 0.04 M15.71 20.28 C21.6 17.13, 24.36 10.26, 24.97 2.22 M10.91 22.93 C17.31 15.59, 25.48 6.93, 27.69 1.95 M2.27 42.59 C9.58 31.89, 12.85 26.28, 29.55 6.73 M-0.79 40.77 C6.59 33.23, 16.07 22.25, 29.94 5.59 M-0.79 45.14 C15.43 35.28, 24.55 18.5, 30.61 10.4 M1.49 44.23 C9.34 39.72, 13.43 29.17, 32.39 9.55 M8.05 46.22 C15.98 35.65, 22.02 24.14, 33.93 18.49 M5.56 47.69 C13.57 40.28, 20.58 32.26, 34.26 16.09 M5.75 53.7 C18.51 40.87, 26.88 25.12, 32.71 15.65 M8.01 52.82 C17.6 41.16, 25.68 31.27, 34.86 17.36 M6.09 53.87 C18.2 44.93, 31.52 32.72, 39.55 22.72 M8.89 56.22 C21.45 45.51, 29.51 31.62, 38.73 22.93 M8.17 62.94 C17.17 52.39, 25.62 46.37, 36.84 25.97 M13.49 59.64 C19.86 51.05, 26.38 39.52, 39.39 27.79 M16.29 67.3 C19.82 53.47, 30.28 51.64, 39.29 26.32 M13.37 65.02 C24.58 52.58, 32.28 39.24, 43.03 28.34 M15.02 63.99 C26.56 58.05, 39.12 47.24, 45.81 32.11 M14.78 65.69 C23.35 59.23, 29.64 49.78, 45.68 33.88 M17.79 68.74 C25.35 58.75, 30.9 50.19, 49.26 40.63 M16.48 69.13 C30.38 58.31, 39.01 45.28, 48.19 34.9 M18.03 76.46 C21.94 68.36, 31.59 57.86, 52.35 38.81 M22.07 72.28 C29.48 66.11, 35 56.72, 49.44 38.54 M25 73.46 C32.47 73.37, 39.2 64.29, 50.79 43.78 M21.13 76.46 C32.31 67.07, 40.83 58.35, 50.62 43.84 M28.26 80.97 C31.33 71.96, 33 69.1, 39.33 58.92 M26.94 81.66 C30.1 76.9, 33.17 68.76, 38.66 64.64" stroke="#eaddd7" stroke-width="0.5" fill="none"></path><path d="M27.9 -2.81 C32.78 14.96, 38.92 25.55, 52.96 43.35 M24.9 0.01 C32.1 11.32, 40.97 27.49, 50.75 41.79 M51.7 45.72 C43.68 55.05, 33.29 64.13, 28.87 80.47 M49.35 41.71 C41.7 54.96, 32.18 70.86, 24.99 80.51 M27.07 82.45 C18.02 70.35, 13.72 60.44, 2.15 40.63 M26.69 82.52 C15.68 66.97, 4.48 50.64, -1.24 43.57 M2.51 40.2 C7.85 28.4, 15.86 10.82, 25.22 1.97 M-0.52 43.89 C7.42 32.27, 12.97 23.02, 25.54 -1.11" stroke="#1e1e1e" stroke-width="1" fill="none"></path></g><g stroke-linecap="round" transform="translate(14 40) rotate(0 29 29)"><path d="M-0.24 30.27 C-0.24 30.27, -0.24 30.27, -0.24 30.27 M-0.24 30.27 C-0.24 30.27, -0.24 30.27, -0.24 30.27 M1.53 36.56 C14.58 21.66, 24.25 5.8, 29.8 4.01 M4.18 31.8 C14.5 21.89, 23.69 7.88, 29.53 0.08 M6.12 37.3 C15.72 19.66, 30.38 10.56, 32.53 2.42 M4.3 34.47 C15.07 25.64, 22.41 14.61, 31.39 5.62 M8.31 39.38 C19.41 28.61, 23.58 19.7, 35.84 3.32 M7.4 39.11 C21.02 24.71, 28.61 14.35, 34.99 6.95 M9.03 42.41 C16.97 29.78, 23.99 22.91, 42.16 7.8 M10.5 42.73 C20.99 31.29, 30.86 19.01, 39.76 11.51 M16.15 43.83 C25.29 30.76, 31.5 19.3, 38.96 12.23 M15.27 45.32 C21.54 35.32, 29.55 23.31, 40.67 14.41 M15.96 43.41 C29.59 35, 39.94 26.35, 45.67 18.08 M18.31 47.55 C30.29 33.22, 39.07 23.2, 45.88 13.5 M24.01 48.49 C28.79 41.85, 38.08 27.83, 47.15 18.17 M20.72 49.35 C30.81 36.65, 37.93 27.22, 48.97 16.82 M27.26 51.49 C26.86 48.21, 38.45 34.23, 47.13 22.84 M24.98 52.56 C30.27 43.12, 34.69 38.2, 49.15 22.14 M23.59 54.92 C35.89 49.9, 43.32 40.99, 51.16 21.83 M25.28 55.26 C33.58 47.04, 38.86 39.99, 52.93 23.94 M27.98 56.85 C35.9 44.37, 45.26 39.3, 59.32 30.64 M28.37 58.49 C39.03 46.48, 47.46 39.26, 53.59 25.13" stroke="#eaddd7" stroke-width="0.5" fill="none"></path><path d="M27.19 -0.14 C42.93 9.75, 51.97 23.74, 59.35 30.48 M30.01 -0.83 C34.69 7.85, 44.28 15.01, 57.79 29.23 M61.72 30.42 C53.73 33.34, 45.56 46.7, 28.47 60.21 M57.71 29.57 C46.03 39.09, 37.01 50.21, 28.51 57.03 M30.45 56.2 C19.78 51.42, 12.23 45.95, -1.37 32.79 M30.52 57.99 C19.09 45.76, 5.91 35.24, 1.57 31.19 M-1.8 29.17 C12.88 16.06, 21.81 6.06, 31.97 -2.34 M1.89 30.92 C8.54 22.16, 17.6 13.35, 28.89 0.35" stroke="#1e1e1e" stroke-width="1" fill="none"></path></g></svg>