<svg version="1.1" xmlns="http://www.w3.org/2000/svg" viewBox="0 0 82 108" width="246" height="324">
  <!-- svg-source:excalidraw -->
  
  <defs>
    <style class="style-fonts">
      @font-face {
        font-family: "Virgil";
        src: url("https://excalidraw.com/Virgil.woff2");
      }
      @font-face {
        font-family: "Cascadia";
        src: url("https://excalidraw.com/Cascadia.woff2");
      }
    </style>
    
  </defs>
  <g stroke-linecap="round" transform="translate(10 10) rotate(0 25 41)"><path d="M25.96 0.04 C25.96 0.04, 25.96 0.04, 25.96 0.04 M25.96 0.04 C25.96 0.04, 25.96 0.04, 25.96 0.04 M9.77 22.38 C19.25 16.56, 21.11 12.58, 25.96 4.17 M11.89 22.65 C16.85 18.06, 19.66 13.37, 28.07 2.24 M-0.99 43.68 C13.22 30.65, 20.78 18.09, 33.86 6.66 M1.21 43.21 C13.2 29.73, 24.37 16.76, 30.62 9.07 M2.07 47.96 C9.89 35.14, 26.17 17.39, 31.9 10.96 M3.61 45.12 C10.4 38.37, 16.89 27.96, 31.83 10.14 M4.34 51.36 C12.06 40.72, 24.39 26.58, 33.54 13.85 M4.37 50.02 C13.76 37.16, 25.23 29.86, 32.75 13.91 M4.75 51.05 C19.01 43.52, 23.72 30.83, 36.82 15.9 M8.78 52.92 C15.35 44.94, 20.82 38.2, 38.18 20.28 M12.12 54.98 C20.41 44.67, 24.43 34.72, 39.22 23.29 M9.27 57.28 C19.83 44.49, 30.66 30.66, 38.4 23.6 M8.72 62.45 C17.28 48.43, 30.05 38.58, 43.12 26.04 M11.71 60.79 C20.48 46.62, 29.01 37.97, 41.34 24.2 M17.06 61.35 C20.45 56.3, 25.72 43.85, 45.32 32.21 M12.97 61.82 C21.98 54.34, 28.99 44.43, 44.8 27.87 M18.07 69.62 C18.59 58.56, 27.64 51.26, 43.9 29.71 M13.79 66.23 C22.14 59.31, 27.14 50.01, 46.14 32.85 M14.6 72.29 C29.02 58.73, 37.52 45.46, 47 40.77 M17.12 69.56 C24.64 62.05, 31.28 53.71, 45.76 37.6 M21.61 70.98 C27.03 68.5, 38.42 54.78, 47.7 43.71 M20.98 71.84 C27.17 67.29, 35.46 58.88, 48.73 39.79 M20.95 73.12 C31.19 70.28, 36.51 62.7, 54.16 46.42 M24.04 76.06 C32.36 66.98, 42.26 56.46, 49.71 43.04 M28.93 80.48 C29.59 77.3, 38.51 70.13, 38.7 59.46 M23.91 81.9 C29.82 74.34, 33.56 71.19, 40.75 63.29" stroke="#eaddd7" stroke-width="0.5" fill="none"></path><path d="M25.58 0.36 C36.31 11.3, 41.17 32.77, 50.8 38.03 M24.6 1.54 C33.46 14.41, 43.56 30.82, 51.65 41.18 M53.52 45.02 C43.06 56.55, 31.87 67.42, 25.16 84.59 M51.7 41.86 C45.01 55.2, 37.03 64.81, 26.35 81.35 M27.56 79.37 C14.75 63.03, 6.44 53.77, -0.62 38.3 M25.92 80.84 C18.59 72.23, 13.84 61.49, 0.06 41.49 M-1.42 44.06 C8.66 30.85, 11.92 26.92, 25.15 -2.21 M-1.2 41.45 C6.3 28.6, 13.68 17.56, 25.04 0.47" stroke="#1e1e1e" stroke-width="1" fill="none"></path></g><g stroke-linecap="round" transform="translate(14 40) rotate(0 29 29)"><path d="M-0.24 30.27 C-0.24 30.27, -0.24 30.27, -0.24 30.27 M-0.24 30.27 C-0.24 30.27, -0.24 30.27, -0.24 30.27 M3.63 34.42 C14.63 18.73, 27.79 5.94, 31.74 -3.54 M3.89 34.16 C12.72 22.85, 21.37 10.5, 29.81 1.65 M7.21 37.99 C14.79 25.44, 22.86 20.76, 32.46 6.58 M6.74 37.34 C12.81 29.28, 19.35 20.31, 34.87 5.27 M11.12 34.57 C19.47 30.18, 22.86 18.75, 36.4 4.61 M8.29 38.7 C18.81 27.44, 25.66 17.79, 35.58 7.27 M14.17 37.92 C22.18 32.07, 26.72 23.95, 37.52 10.6 M12.83 40.36 C18.28 33.9, 29.27 22.36, 37.58 10 M13.5 46.73 C26.04 31.6, 33.4 22.02, 39.21 10.03 M15.37 44.09 C21.09 35.62, 28.03 31.86, 43.59 12.7 M17.07 48.09 C26.19 32.36, 35.67 25.73, 46.24 18.54 M19.37 45.59 C29.6 33.63, 38.8 22.83, 46.55 15.03 M23.53 45.77 C24.93 44, 30.47 39.72, 47.22 19.21 M21.86 49.45 C28.17 37.38, 40.01 27.43, 45.38 17.09 M21.31 52.72 C34.08 39.19, 39.47 31.02, 53.02 19.78 M21.78 52.44 C30.28 43.71, 36.37 38.12, 48.69 19.35 M29.22 51.06 C32.07 45.79, 38.68 37.97, 48.75 21.41 M25.82 54.23 C32.79 45.85, 37.37 41.86, 51.9 26.23 M31.53 56.57 C37.17 47.03, 43.13 43.24, 59.45 24.18 M28.8 56.67 C34.46 50.53, 39.29 43.39, 56.29 26.3" stroke="#eaddd7" stroke-width="0.5" fill="none"></path><path d="M30.36 2.03 C35.61 7.25, 50.52 18.21, 54.03 33.31 M31.54 -1.48 C36.38 7.96, 44.31 18.33, 57.18 30.27 M61.02 31 C53.08 34.76, 44.47 43.52, 32.59 57.31 M57.86 31.02 C48.85 41.4, 36.05 53.03, 29.35 59.88 M27.37 57.53 C16.06 49.41, 11.54 37.05, -3.7 29.02 M28.84 57.38 C24.17 52.71, 16.9 43.93, -0.51 28.4 M2.06 33.26 C8.27 20.87, 23.72 9.08, 27.79 -0.6 M-0.55 29.12 C8.45 19.61, 19.21 9.72, 30.47 0.86" stroke="#1e1e1e" stroke-width="1" fill="none"></path></g></svg>