<svg version="1.1" xmlns="http://www.w3.org/2000/svg" viewBox="0 0 81 105" width="243" height="315">
  <!-- svg-source:excalidraw -->
  
  <defs>
    <style class="style-fonts">
      @font-face {
        font-family: "Virgil";
        src: url("https://excalidraw.com/Virgil.woff2");
      }
      @font-face {
        font-family: "Cascadia";
        src: url("https://excalidraw.com/Cascadia.woff2");
      }
    </style>
    
  </defs>
  <g stroke-linecap="round" transform="translate(10 10) rotate(0 25 41)"><path d="M25.96 0.04 C25.96 0.04, 25.96 0.04, 25.96 0.04 M25.96 0.04 C25.96 0.04, 25.96 0.04, 25.96 0.04 M14.94 25.43 C21.99 13.3, 28.45 10.04, 29.18 5.26 M14.24 22.65 C14.42 18.74, 18.4 14.7, 29.27 3.09 M3.09 40.47 C10.87 33.4, 18.32 22.91, 26.57 10.86 M0.48 43.39 C8.04 30.99, 16.33 22.99, 30.47 6.27 M0.99 45.9 C8.81 34.34, 21.97 27.79, 30.98 10.89 M3.79 45.85 C9.29 35.83, 18.7 30.22, 30.76 9.92 M3.7 52.74 C17.38 35.88, 24.4 26.73, 32.19 12.83 M5.58 47.64 C13.7 37.95, 23.42 28.55, 35.72 14.83 M8.19 51.1 C14.5 42.74, 25.23 32.3, 33.92 17.06 M6.82 50.96 C14.57 45.85, 21.52 36.76, 37.77 16.88 M10.76 55.01 C12.94 45.83, 20.04 42.83, 37.78 25.68 M10.68 54.15 C18.13 44.97, 29.46 35.72, 37.34 22.66 M11.52 57.91 C16.33 53.59, 27.44 40.4, 41.7 27.66 M12.31 57.99 C19.48 52.79, 23.61 46.69, 38.56 25.42 M10.29 60.91 C22.84 59.53, 26.57 44.52, 46.38 32.17 M11.88 64.66 C20.08 57.64, 26.82 50.15, 40.97 29.06 M13.65 65.31 C24.21 53.49, 34.06 48.91, 47.25 37.3 M15.03 64.99 C24.54 55.1, 35.64 44.97, 44.74 31.65 M19.55 72.55 C27.87 57.14, 37.96 44.87, 44.18 35.55 M18.61 69.25 C26.16 56.76, 39.32 46.76, 45.58 37.68 M24.43 76.79 C29.11 65.02, 38.26 52.13, 49.42 38.6 M19.11 74.35 C33.14 60, 43.22 50.51, 47.97 41.53 M19.07 77.06 C34.37 63.77, 43.66 60.92, 54.67 45.8 M21.71 74.89 C29.11 67.4, 40.02 57.34, 53.51 42.79 M25.05 80.85 C31.94 76.51, 33.29 69.51, 37.22 64.28 M26.08 81.36 C31.45 76.94, 34.83 72.29, 40.2 61.02" stroke="#eaddd7" stroke-width="0.5" fill="none"></path><path d="M28.03 -1.77 C34.04 8.9, 38.62 26.66, 49.49 44.59 M24.65 -0.06 C34.16 15.66, 43.41 29.55, 50.56 43.27 M47.7 39.25 C43.52 59.03, 34.15 71.71, 22.31 83.53 M51.64 41.24 C40.12 56.85, 31.41 70.96, 24.57 82.63 M24.25 85.45 C21.18 72.21, 11.83 59.74, 0.44 40.09 M27.76 80.19 C17.76 68.73, 7.87 54.29, -1.59 40.69 M3.19 42.9 C8.04 29.89, 10.89 23.31, 23.83 -0.84 M-0.55 43.26 C6.36 32.41, 15.09 19.48, 26.18 1.62" stroke="#1e1e1e" stroke-width="1" fill="none"></path></g><g stroke-linecap="round" transform="translate(13 37) rotate(0 29 29)"><path d="M-0.24 30.27 C-0.24 30.27, -0.24 30.27, -0.24 30.27 M-0.24 30.27 C-0.24 30.27, -0.24 30.27, -0.24 30.27 M6.68 36.02 C6.88 29.68, 16.13 20.31, 32.83 -2.91 M3.89 31.22 C11.22 22.57, 18.72 15.85, 30.66 -0.2 M4 37.94 C12.48 29.67, 17.54 17.25, 36.66 3.34 M6.92 34.87 C12.22 25.45, 21.91 18.08, 32.07 3.73 M9.07 35.14 C13.29 33.16, 22.56 24.12, 36.33 4.66 M9.02 37.42 C15.79 29.6, 26.95 17.9, 35.36 6.44 M15.55 44.24 C15.07 35.39, 22.31 24.7, 36.5 9.65 M10.45 41.75 C21.18 30.54, 32.2 18.25, 38.5 9.99 M13.55 42.2 C25.06 32.8, 34.53 18.96, 40.37 8.7 M13.41 44.46 C21.49 38.23, 25.59 30.49, 40.19 10.84 M17.1 42.8 C21.95 35.62, 33.02 29.59, 48.63 15.79 M16.24 45.6 C26.51 37.2, 36.74 24.2, 45.61 14.98 M18.98 45.9 C34.05 37.53, 40.21 28.6, 48.84 14.76 M19.06 51.22 C28.84 39.88, 37.71 28.66, 46.6 17.31 M20.87 54.94 C38.29 39.79, 42.06 31.68, 52.99 17.47 M24.62 52.01 C30.75 46.01, 36.43 36.61, 49.88 21.21 M24.9 53.92 C29.82 47.65, 41.98 42.48, 56.35 25.66 M24.59 53.69 C32.66 47.41, 40.48 38.91, 50.7 25.53 M31.79 56.96 C36.55 46.98, 44.43 34.94, 54.24 29.37 M28.49 55.64 C38.18 46.45, 50.4 31.94, 56.36 28.31" stroke="#eaddd7" stroke-width="0.5" fill="none"></path><path d="M28.23 1.9 C33.85 6.9, 46.87 13.87, 60.59 32.96 M29.94 -1.1 C39.43 9.56, 46.96 20.96, 59.27 30.75 M55.25 31.7 C53.4 38.21, 44.49 42.2, 31.53 60.87 M57.24 29.35 C50.69 37.36, 42.59 43.69, 30.63 56.99 M33.45 59.07 C23.95 49.62, 14.69 45.54, -1.91 32.15 M28.19 58.69 C22.16 51.08, 13.89 42.06, -1.31 28.76 M0.9 32.51 C9.2 17.33, 23.98 4.63, 29.16 -0.78 M1.26 29.48 C12.72 20.6, 22.05 9.39, 31.62 -0.46" stroke="#1e1e1e" stroke-width="1" fill="none"></path></g></svg>