<svg version="1.1" xmlns="http://www.w3.org/2000/svg" viewBox="0 0 82 102" width="246" height="306">
  <!-- svg-source:excalidraw -->
  
  <defs>
    <style class="style-fonts">
      @font-face {
        font-family: "Virgil";
        src: url("https://excalidraw.com/Virgil.woff2");
      }
      @font-face {
        font-family: "Cascadia";
        src: url("https://excalidraw.com/Cascadia.woff2");
      }
    </style>
    
  </defs>
  <g stroke-linecap="round" transform="translate(22 10) rotate(0 25 41)"><path d="M25.96 0.04 C25.96 0.04, 25.96 0.04, 25.96 0.04 M25.96 0.04 C25.96 0.04, 25.96 0.04, 25.96 0.04 M14.86 24.8 C16.96 16.41, 17.33 8.68, 31.43 3.66 M11.58 22.88 C18.29 17.7, 20.95 12.87, 27.27 3.81 M-0.07 45.48 C12.1 34.07, 20.18 19.8, 29.16 3.67 M1.42 43.44 C9.04 30.65, 21 18.15, 28.9 6.39 M0.46 43.52 C10.57 34.4, 23.19 19.5, 32.49 14.21 M2.77 47.44 C10.04 36.16, 16.46 29.53, 32.61 11.61 M1.37 46.1 C12.72 42.59, 18.45 30.26, 33.06 14.9 M3.09 47.44 C11.65 40.64, 19.51 32.69, 36.04 13.18 M9.51 55.44 C12.36 47.52, 20.53 33.33, 32.49 22.26 M7.42 50.56 C13.9 46.32, 19.22 36.61, 37.69 17.93 M11.05 53.68 C20.46 42.39, 33.19 26.42, 42.24 18.48 M8.99 54.1 C15.66 47.89, 27.22 38.01, 38.04 21.39 M7.99 62.41 C21 51.41, 30.83 43.05, 42.12 24.68 M11 59.75 C23.74 44.68, 34.67 34.93, 39.28 27.74 M14 66.85 C20.85 54.62, 23.06 48.82, 42.72 30.15 M11.71 64.65 C20.73 56.18, 28.6 46.85, 41.03 29.81 M13.55 64.42 C24.43 58.99, 32.34 45.83, 45.33 33.1 M16.79 68.56 C22.85 57.71, 32.07 47.5, 45.49 32.63 M18.48 72.71 C28.34 57.42, 34.16 47.25, 43.7 38.16 M17.18 68.68 C24.58 62.73, 32 50.13, 48.46 37.6 M19.08 73.97 C26.44 63.97, 34.04 52.87, 47.95 41.13 M21.42 74.88 C27.52 64.03, 38.5 49.56, 48.48 42.07 M20.01 75.38 C35.24 65.54, 36.64 58.44, 51.67 45.5 M24.75 76.67 C32.46 67.75, 41.87 58.26, 51.19 42.54 M28.73 80.55 C31.5 76.41, 29.33 74.85, 38 66.5 M26.9 81.49 C30.1 75.71, 34.44 71.82, 40.68 61.52" stroke="#eaddd7" stroke-width="0.5" fill="none"></path><path d="M27.18 1.88 C34.34 12.84, 41.06 29.38, 51 40.3 M24.26 0.13 C31.93 9.26, 33.49 15.21, 49.16 42.59 M51.4 39.47 C38.09 57.06, 29.49 70.81, 23.42 82.95 M51.64 42.69 C39.17 56.36, 31.07 72.36, 27.56 82.61 M28.84 80.6 C14.67 70.45, 9.69 57.83, 2.35 42.71 M26.25 83.94 C18.45 71.15, 15.54 65.03, -1.52 40.79 M-1.15 43.46 C4.81 30.79, 16.12 18.36, 25.61 -3.41 M-1.37 43.28 C8.53 28.2, 17.94 13.67, 26.07 0.27" stroke="#343a40" stroke-width="1" fill="none"></path></g><g stroke-linecap="round" transform="translate(10 22) rotate(0 29 29)"><path d="M-0.24 30.27 C-0.24 30.27, -0.24 30.27, -0.24 30.27 M-0.24 30.27 C-0.24 30.27, -0.24 30.27, -0.24 30.27 M6.05 33.55 C12.02 18.26, 18.71 12.87, 31.23 -0.3 M4.12 33.84 C10.19 25.59, 16.34 18.6, 31.38 1.3 M9.01 37.99 C20.03 23.63, 28.15 10.48, 29.47 6.51 M6.97 34.14 C17.22 22.73, 27.77 10.27, 32.19 4.38 M6.69 37.04 C18.98 28.48, 25.48 15.47, 39.65 4.6 M10.61 37.95 C15.02 28.65, 24.08 22.4, 37.05 5.44 M8.91 41.19 C20.52 32.31, 23.33 24.83, 38.57 8.43 M10.25 40.23 C21.38 30.39, 31.37 22.57, 36.85 8.56 M17.89 41.27 C23.93 35.31, 23.68 25.49, 45.57 10.27 M13.01 43.63 C27.3 29.87, 36.1 21.07, 41.24 14.31 M15.77 44.94 C23.41 39.4, 26.37 36.35, 41.43 13.98 M16.19 44.28 C27.18 38.77, 34.47 27.09, 44.34 14.71 M23.48 49.94 C27.19 45.93, 33.58 39.08, 45.86 21.26 M20.83 50.26 C23.94 43.86, 32.42 34.66, 48.92 16.73 M26.81 53.56 C31.44 38.35, 42.48 29.71, 50.97 17.86 M24.61 52.36 C29.55 47.36, 33.62 36.92, 50.63 21.82 M24.02 53.72 C38.07 42.62, 44.43 36.52, 52.15 23.39 M28.16 54.33 C36.08 44.23, 44.65 32.93, 51.68 24.88 M31.94 58.37 C35.73 45.2, 44.63 34.62, 56.85 25.75 M27.92 55.64 C37.09 48.37, 39.64 44.55, 56.29 26.02" stroke="#eaddd7" stroke-width="0.5" fill="none"></path><path d="M31.88 -0.96 C37.53 7.41, 48.55 22.16, 56.3 26.09 M30.13 1.37 C37.93 6.52, 42.81 15.56, 58.59 31.98 M55.47 26.87 C45.9 39.24, 32.51 49.99, 30.95 61.7 M58.69 28.32 C47.21 39.48, 38.13 50.8, 30.61 58.41 M28.6 54.22 C26.24 52.35, 20.39 49.45, 0.71 27.5 M31.94 56.45 C19.47 52.01, 14.52 40.99, -1.21 29.24 M1.46 27.46 C6.81 25.04, 12.47 15.62, 26.59 1.79 M1.28 30.4 C12.64 19.27, 24.58 6.51, 30.27 -1.98" stroke="#343a40" stroke-width="1" fill="none"></path></g></svg>