<svg version="1.1" xmlns="http://www.w3.org/2000/svg" viewBox="0 0 82 102" width="246" height="306">
  <!-- svg-source:excalidraw -->
  
  <defs>
    <style class="style-fonts">
      @font-face {
        font-family: "Virgil";
        src: url("https://excalidraw.com/Virgil.woff2");
      }
      @font-face {
        font-family: "Cascadia";
        src: url("https://excalidraw.com/Cascadia.woff2");
      }
    </style>
    
  </defs>
  <g stroke-linecap="round" transform="translate(22 10) rotate(0 25 41)"><path d="M25.96 0.04 C25.96 0.04, 25.96 0.04, 25.96 0.04 M25.96 0.04 C25.96 0.04, 25.96 0.04, 25.96 0.04 M9.01 25.3 C14.05 17.69, 22.41 10.75, 30.1 6.54 M13.85 21.88 C18.19 15.36, 21.16 11.44, 29.37 4.51 M-3.68 43.86 C4.6 37.18, 18.14 27.2, 26.07 9.54 M1.11 43.19 C6.64 36.67, 10.6 26.89, 29.59 9.09 M4.78 46.21 C10.18 34.46, 17.98 22.12, 30.58 12.26 M0.71 44.04 C9.32 35.58, 18.37 27.08, 32.11 11.04 M6.56 52.28 C17.59 38.07, 27.89 18.6, 30.54 19.06 M4.5 50.6 C12.86 39.95, 17.05 33.41, 34.95 13.68 M3.77 49.04 C10.74 42.44, 17.33 40.34, 38.79 15.21 M5.88 51.64 C13.96 41.13, 20.79 34.24, 36.96 17.48 M9.82 59.39 C15.66 44.35, 25.51 34.41, 38.07 23.64 M10.48 54.07 C16.23 46.52, 26.46 35.07, 39.02 23.58 M13.97 57.64 C22.32 53.2, 25.35 42.86, 43.41 26.25 M9.85 57.21 C19.32 49.69, 26.62 44.13, 39.68 25.8 M17.13 61.79 C20.24 52.33, 27.77 48.76, 44.67 29.04 M14.64 63.82 C21.33 54.55, 29.8 45.23, 42.94 30.59 M15.03 70 C29.08 53.33, 31.02 42.19, 46.38 31 M14.89 67.29 C23.68 56.77, 33.16 45.83, 43.37 32.59 M14.75 68.61 C28.76 61.64, 34.5 56.19, 45.56 37.49 M17.91 70.44 C27.97 56.34, 38.94 44.23, 45.16 38.85 M17.84 72.62 C28.81 63, 41.69 55, 47.55 37.08 M20.62 72.76 C28.15 63.5, 36.4 55.35, 51.21 40.33 M24.21 73.96 C30.77 63.32, 39.28 58.01, 49.22 41.99 M22.64 77.4 C33.82 66.2, 42.5 53.48, 51.54 43.15 M28.56 76.99 C30.34 74.32, 31.28 67.01, 36.94 60.22 M24.07 81.43 C27.91 76.62, 32.24 71.6, 38.62 63.45" stroke="#eaddd7" stroke-width="0.5" fill="none"></path><path d="M29.86 3.16 C34.78 14.09, 42.59 28.78, 52.91 39.63 M26.94 -0.02 C33.58 9.3, 35.61 20.64, 48.36 41.25 M52.59 41.74 C46.17 52.08, 36.95 63.05, 25.59 78.63 M49.15 43.17 C43.38 54.09, 35.3 66.79, 25.92 82.03 M25.97 78.53 C17.7 65.86, 8.73 53.51, -0.53 44.17 M25.58 81.03 C16.37 69.16, 8.47 54.85, -1.68 43.58 M0.63 40.49 C5.64 26.29, 20.03 14.02, 23.64 -1.99 M-0.9 42.58 C6.43 33.6, 12.58 21.37, 26.11 -1.36" stroke="#1e1e1e" stroke-width="1" fill="none"></path></g><g stroke-linecap="round" transform="translate(10 22) rotate(0 29 29)"><path d="M-0.24 30.27 C-0.24 30.27, -0.24 30.27, -0.24 30.27 M-0.24 30.27 C-0.24 30.27, -0.24 30.27, -0.24 30.27 M6.55 29.37 C12.97 23.45, 20.29 15.61, 34.11 -0.94 M3.13 34.12 C8.18 24.66, 15.93 17.78, 32.09 -0.55 M7.39 32.13 C15.33 31.76, 19.99 18.35, 35.34 -0.05 M6.72 36.85 C18.19 21.74, 26.41 9.55, 34.9 4.28 M9.38 36.94 C19.37 22.55, 28.75 11.8, 37.7 4.81 M7.21 37.06 C14.54 30.88, 21.85 22.61, 36.48 8.41 M15.09 41.55 C20.59 32.72, 20.82 22.73, 42.73 7.35 M13.41 42.08 C19.17 29.71, 29.01 22.56, 37.35 8.33 M11.49 40.03 C18.63 33.41, 30.26 32.17, 38.52 11.1 M14.09 42.93 C22.2 31.14, 33.95 22.1, 40.79 12.97 M21.48 43.3 C27.74 31.67, 39.11 21.61, 46.59 15.17 M16.16 44.13 C27.37 35.31, 34.72 26.29, 46.53 14.71 M18.71 52.34 C33.47 35.65, 42.29 29.42, 47.42 16.5 M18.29 50.11 C28.48 39.9, 40.62 27.51, 46.98 16.93 M21.75 51.71 C25.68 45.45, 35.5 39.94, 49.86 20.1 M23.78 52.06 C32.78 41.79, 41.75 31.17, 51.41 21.42 M29.6 58.55 C30.24 43.65, 36.4 40.95, 50.05 24.82 M26.88 54.09 C36.16 43.91, 45.02 31.71, 51.64 23.48 M27.84 60.08 C34.74 52.67, 43.15 43.62, 56.18 29.82 M29.68 56.05 C33.93 49.42, 40.15 41.49, 57.54 27.58" stroke="#eaddd7" stroke-width="0.5" fill="none"></path><path d="M33.16 1.2 C40.31 10.53, 50.85 21.37, 55.63 27.75 M29.98 1.83 C37.86 6.39, 47.03 15.38, 57.25 28.4 M57.74 30.87 C48.94 37.69, 40.73 50.74, 26.63 58.71 M59.17 31.01 C48.93 38.7, 40.55 46.42, 30.03 59.5 M26.53 59.26 C19.83 52.28, 14.17 41.96, 2.17 32.3 M29.03 57.47 C24.21 51.05, 15.96 40.82, 1.58 30.46 M-1.51 27.98 C9.49 22.26, 22.41 4.32, 28.01 -1.91 M0.58 30.21 C12.43 19.88, 20.99 9.98, 28.64 -0.8" stroke="#1e1e1e" stroke-width="1" fill="none"></path></g></svg>