<svg version="1.1" xmlns="http://www.w3.org/2000/svg" viewBox="0 0 82 102" width="246" height="306">
  <!-- svg-source:excalidraw -->
  
  <defs>
    <style class="style-fonts">
      @font-face {
        font-family: "Virgil";
        src: url("https://excalidraw.com/Virgil.woff2");
      }
      @font-face {
        font-family: "Cascadia";
        src: url("https://excalidraw.com/Cascadia.woff2");
      }
    </style>
    
  </defs>
  <g stroke-linecap="round" transform="translate(22 10) rotate(0 25 41)"><path d="M25.96 0.04 C25.96 0.04, 25.96 0.04, 25.96 0.04 M25.96 0.04 C25.96 0.04, 25.96 0.04, 25.96 0.04 M12.82 22.4 C18.68 19.54, 17.77 13.16, 30.88 5.72 M13.12 21.18 C18.07 15.26, 24.59 6.11, 27.26 2.06 M-2.22 41.78 C7.8 30.36, 11.04 25.21, 31.86 4.4 M-1.66 41.02 C8.07 31.84, 16.22 25.11, 29.41 7.8 M0.28 44.96 C10.13 30.45, 26.32 19.11, 30.35 13.45 M2.87 47.42 C9.6 35.71, 19.77 26.5, 32.41 10.72 M5.96 47.63 C14.4 37.39, 25.06 30.64, 31.21 12.54 M4.71 49.8 C14.94 40.15, 24.79 29.15, 34.18 15.62 M6.87 56.07 C15.92 43.63, 22.19 36.94, 33.74 17.72 M7.17 52.37 C13.47 45.71, 20.49 37.64, 37.24 16.7 M6.87 55.98 C19.72 47.28, 31.92 32.42, 39.63 18.25 M9.5 53.79 C18.08 46.48, 25.43 38.31, 37.83 21.08 M10.17 55.96 C16.46 51.17, 33.28 38.6, 43.38 25.79 M12.67 57.36 C19.45 51.55, 24.24 46.26, 41.68 24.79 M17.16 59.82 C27.28 48.14, 33.91 34.35, 46.77 27.67 M12.47 62.04 C21.55 54.52, 28.62 45.93, 43.68 28.78 M15.49 67.01 C25.67 61.26, 28.83 52.54, 42.82 35.65 M15.84 65.73 C21.28 60.84, 29.05 52.95, 45.05 34.4 M20.7 72.66 C23.36 58.96, 31.13 56.22, 49.47 35.41 M18.75 71.96 C27 61.46, 34.42 48, 48.37 35.68 M19.32 76.08 C28.5 59.05, 43.16 50.86, 45.54 43.29 M18.5 73.2 C31.16 63.49, 38.97 52.48, 50.7 38.8 M20.68 76.99 C28.5 63.01, 43.18 54.26, 49.83 42.83 M22.87 77.82 C32.3 65.48, 37.73 59.13, 51.94 45.38 M21.45 79.04 C26.47 71.66, 34.56 72.42, 39.18 60.81 M23.85 80.36 C27.01 76.17, 33.09 70.72, 42.23 63.26" stroke="#eaddd7" stroke-width="0.5" fill="none"></path><path d="M27.48 -3.95 C33.24 13.51, 42.64 27.84, 53.91 41.96 M24.25 0.59 C30.02 11.03, 36.88 19.76, 49.04 40.04 M50.18 45.97 C40.21 55.62, 34.43 72.35, 26.53 78.28 M50.55 42.83 C42.24 59.07, 33.83 73.53, 26.96 80.3 M24.16 83.61 C14.14 68.61, 5.8 52.07, 3.05 39.83 M27.54 82.38 C16.32 69.39, 11.95 56.59, -0.95 41.52 M3.01 42.21 C6.95 30.1, 20.47 13.93, 24.02 -1.86 M1.5 42.24 C6.6 32.47, 11.55 18.58, 26.98 0.65" stroke="#343a40" stroke-width="1" fill="none"></path></g><g stroke-linecap="round" transform="translate(10 22) rotate(0 29 29)"><path d="M-0.24 30.27 C-0.24 30.27, -0.24 30.27, -0.24 30.27 M-0.24 30.27 C-0.24 30.27, -0.24 30.27, -0.24 30.27 M3.65 35.41 C15.21 18.83, 23.49 11.77, 33.3 3.32 M2.43 32.59 C12.2 22.81, 18.74 11.09, 29.63 -0.66 M5.31 36.7 C13.07 20.54, 27.1 13.04, 30.2 1.82 M4.55 36.85 C14.91 25.35, 27.75 10.27, 33.6 5.41 M8.13 34.78 C15.8 29.45, 26.61 15.72, 38.89 5.12 M10.59 37.01 C14.56 31.56, 21.04 23.23, 36.16 6.05 M10.44 42.38 C18.02 35.03, 29.08 18.6, 36.21 10.4 M12.6 41.78 C21.46 33.33, 28.95 22.84, 39.29 8.87 M18.52 45.01 C23.08 34.15, 33.37 21.33, 41.03 9.11 M14.82 43.36 C22.98 35.37, 29.71 26.99, 40.01 13.71 M18.06 45.54 C29.08 38.9, 33.89 30.23, 41.2 12.84 M15.88 47.14 C23.21 39.96, 29.67 30.42, 44.03 15.6 M17.04 45.41 C33.7 40.76, 42.61 27.94, 46.97 15.47 M18.43 50.22 C26.4 41.02, 34.87 35.84, 45.97 20.31 M19.78 54.12 C28.68 40.33, 35.46 38.75, 48.49 19.47 M22 52.17 C29.96 44.13, 36.87 37.7, 49.6 19.79 M26.61 58.28 C38.55 43.32, 47.53 30.15, 54.7 21.65 M25.33 53.26 C34.78 46.65, 41.22 39.65, 53.45 23.22 M31.9 55.06 C31.69 49.22, 42.42 46.63, 54.09 27.61 M31.2 57.23 C39.41 45.88, 44.66 39.4, 54.37 28.74" stroke="#eaddd7" stroke-width="0.5" fill="none"></path><path d="M26.05 -0.42 C33.99 6.35, 39.13 15.83, 57.96 26.59 M30.59 -1.56 C41.25 11.15, 50.77 20.57, 56.04 31.12 M61.97 28.8 C49.17 39.81, 43.44 46.99, 26.28 61.3 M58.83 30.8 C49.16 42.31, 37.73 52.29, 28.3 59.19 M31.61 56.23 C18.25 45.95, 4.3 38.79, -2.17 29.7 M30.38 56.1 C20.32 50.78, 9.56 39.48, -0.48 30.88 M0.21 27.92 C11.25 23.37, 18.2 10.19, 28.14 -1.69 M0.24 30.02 C10.76 18.38, 17.13 11.65, 30.65 0.5" stroke="#343a40" stroke-width="1" fill="none"></path></g></svg>