<svg version="1.1" xmlns="http://www.w3.org/2000/svg" viewBox="0 0 82 102" width="246" height="306">
  <!-- svg-source:excalidraw -->
  
  <defs>
    <style class="style-fonts">
      @font-face {
        font-family: "Virgil";
        src: url("https://excalidraw.com/Virgil.woff2");
      }
      @font-face {
        font-family: "Cascadia";
        src: url("https://excalidraw.com/Cascadia.woff2");
      }
    </style>
    
  </defs>
  <g stroke-linecap="round" transform="translate(22 10) rotate(0 25 41)"><path d="M25.96 0.04 C25.96 0.04, 25.96 0.04, 25.96 0.04 M25.96 0.04 C25.96 0.04, 25.96 0.04, 25.96 0.04 M13.79 22.33 C13.13 17.17, 21.12 11.95, 28.69 5.04 M13.14 19.99 C20.2 14.22, 23.07 7.84, 28.05 4.34 M-1.17 43.18 C9.17 28.56, 16.68 16.36, 33.72 4.02 M-2.05 40.48 C5.69 32.87, 11.04 27.91, 31.67 7.76 M3.84 46.02 C9.41 36.36, 18.59 30.13, 32.09 14.91 M3.2 45.91 C11.86 34.08, 20.32 24.63, 32.68 10.95 M2.99 48.76 C14.64 34.4, 21.97 24.23, 36.71 16.07 M3.73 47.47 C17.56 36.54, 28.69 25.66, 36.1 14.24 M8.37 52.38 C20.83 38.99, 30.6 30.18, 38.45 14.76 M7.95 50.91 C15.73 39.63, 26.25 28.39, 35.8 19.1 M11.4 53.77 C17.08 46.79, 33.54 34.17, 38.03 23.93 M8.47 56.15 C17.42 48.64, 22.75 38.52, 39.62 23.66 M11.35 57.25 C20.03 50.06, 24.7 41.21, 44.48 23.45 M11.87 59.5 C19.72 53.33, 27.55 44, 41.15 26.74 M11.13 62.82 C26.59 52.88, 34.83 42.01, 41.66 25.35 M11.77 64.73 C24.93 53.8, 32.95 41.92, 43.37 27.81 M16.45 66.64 C23.5 52.92, 39.98 44.08, 44.12 34.61 M17.23 66.22 C25.38 57.12, 30.62 48.22, 43.86 34.49 M20.4 69.04 C24.04 57.98, 35.23 46.85, 50.84 38.58 M18.56 71.8 C29.35 56.75, 40.79 42.26, 45.79 38.84 M18.55 75.03 C26.76 62.82, 37.82 55.96, 53.2 39.84 M19.66 73.96 C29.75 64.15, 39.32 53.17, 51.08 40.81 M20.77 74.55 C35.65 65.69, 46.97 55.55, 50.03 40.61 M23.18 76.84 C29.84 68.32, 36.52 61.29, 52.75 43.53 M23.8 77.93 C31.17 76.89, 35.48 71.19, 37.74 62.88 M24.19 78.52 C30.45 73.39, 34.27 68.59, 42.26 64.14" stroke="#eaddd7" stroke-width="0.5" fill="none"></path><path d="M22.14 -0.47 C33.66 11.13, 35.82 27.57, 52.44 39.02 M26.87 0.28 C35.13 12.28, 43.83 25.51, 51.46 43.99 M46.55 43.47 C42.33 52.41, 33.63 69.98, 28.11 79.07 M51.17 42.62 C41.83 56.5, 31.15 72.57, 25.94 82.57 M26.42 85.8 C13.33 69.95, 6.69 52.29, 3.79 43.85 M26.77 80.04 C16.08 69.89, 7.18 54.58, -0.63 43.33 M-1.62 43.49 C6.75 33.97, 8.96 22.56, 22.57 1.1 M-0.44 42.54 C8.49 30.96, 14.47 18.81, 27.27 0.01" stroke="#343a40" stroke-width="1" fill="none"></path></g><g stroke-linecap="round" transform="translate(10 22) rotate(0 29 29)"><path d="M-0.24 30.27 C-0.24 30.27, -0.24 30.27, -0.24 30.27 M-0.24 30.27 C-0.24 30.27, -0.24 30.27, -0.24 30.27 M3.58 30.1 C11.11 24.68, 18.34 13.32, 32.61 3.55 M1.24 34.7 C11.54 20.57, 21.46 10.66, 31.92 0.94 M6.71 35.04 C11.67 23.31, 19.07 20.21, 29.82 -0.08 M4.01 35.26 C11.77 25.41, 22.19 18.46, 33.56 2.45 M9.19 38.84 C17.77 29.08, 29.78 14.16, 40.35 7.08 M9.08 38.4 C17.08 26.87, 27.45 17.78, 36.39 7.36 M11.57 41.24 C19.49 26.48, 31.58 19.38, 39.74 12.74 M10.28 42.44 C18.9 34.89, 27.56 27.18, 37.91 11.15 M14.83 46.34 C21.42 36.42, 32.6 27.81, 38.07 14.41 M13.36 41.41 C20.16 34.19, 27 28.11, 42.41 13.74 M15.86 43.03 C29.33 39.16, 37.15 26.38, 46.88 13.21 M18.24 46.81 C28.05 34.85, 35.26 26.98, 46.61 14.54 M18.32 50.31 C30.08 35.78, 40.18 30.67, 44.63 16.09 M20.57 50.11 C28.94 43.43, 34.12 34.98, 47.92 19.9 M22.78 54.73 C35.53 40.75, 47.34 28.02, 46.17 22.05 M24.68 53.45 C30.65 45.57, 35.67 39.41, 48.63 22.64 M26.24 51.43 C32.7 48.15, 44.01 36.57, 53.65 23.95 M25.82 55.97 C34.02 43.59, 42.43 35.65, 53.54 25.03 M28.28 53.64 C35.65 46.37, 42.95 43.53, 57.27 30.94 M31.04 56.52 C34.8 49.87, 39.14 42.94, 57.52 26.56" stroke="#eaddd7" stroke-width="0.5" fill="none"></path><path d="M29.53 1.26 C35.69 5.12, 47.72 18.72, 55.02 31 M30.28 0.64 C39.07 12.77, 49.36 24.18, 59.99 30.91 M59.47 31.04 C47.67 37.08, 44.48 45.5, 27.07 61.38 M58.62 31.19 C49.15 38.02, 41.89 46.16, 30.57 59.22 M33.8 54.35 C24.43 50.02, 13.56 47.59, 1.85 31.21 M28.04 57.1 C20.69 47.1, 7.98 37.76, 1.33 28.48 M1.49 30.8 C9.93 18.85, 16.52 9.63, 31.1 0.04 M0.54 30.4 C9.71 20.62, 18.28 15.26, 30.01 -0.38" stroke="#343a40" stroke-width="1" fill="none"></path></g></svg>