<svg version="1.1" xmlns="http://www.w3.org/2000/svg" viewBox="0 0 82 102" width="246" height="306">
  <!-- svg-source:excalidraw -->
  
  <defs>
    <style class="style-fonts">
      @font-face {
        font-family: "Virgil";
        src: url("https://excalidraw.com/Virgil.woff2");
      }
      @font-face {
        font-family: "Cascadia";
        src: url("https://excalidraw.com/Cascadia.woff2");
      }
    </style>
    
  </defs>
  <g stroke-linecap="round" transform="translate(22 10) rotate(0 25 41)"><path d="M25.96 0.04 C25.96 0.04, 25.96 0.04, 25.96 0.04 M25.96 0.04 C25.96 0.04, 25.96 0.04, 25.96 0.04 M11.19 22.9 C11.61 17.34, 22.56 14.31, 30.61 1.32 M13.61 20.82 C17.56 14.83, 22.58 6.66, 28.95 3.23 M3.71 44.66 C7.72 35.56, 18.93 21.84, 27.96 11.02 M-0.26 41.63 C6.81 30.59, 16.17 18.96, 29.57 9.53 M4.33 45.45 C8.12 36.98, 16.24 26.9, 34.99 7.57 M1.56 45.44 C13.36 32.73, 24.34 16.25, 31.2 10.87 M1.1 51.05 C11.04 40.85, 15.03 28.4, 30.32 18.87 M4.4 49.73 C12.63 38.43, 22.18 27.59, 33.68 16.77 M10.06 53.72 C16.97 41.5, 21.71 36.5, 39.62 22.11 M6.34 52.56 C16.25 44.14, 24.38 32.05, 37.39 19.43 M7.69 58.03 C20.12 44.76, 25.44 44.69, 38.5 25.57 M9.39 55.73 C15.37 49.41, 25.01 37.55, 36.89 20.81 M14.4 61.38 C18.55 52.9, 26.07 43.39, 38 22.87 M9.71 58.47 C18.62 48.92, 26.84 43.28, 41.18 24.04 M17.34 67.28 C19.21 57.56, 23.24 46.06, 42.05 27.19 M15.23 64.01 C19.13 57.2, 27.71 46.28, 41.86 28.97 M16.57 62.77 C18.98 60.6, 29.02 45.24, 46.38 33.06 M14.49 66.24 C27 55.22, 37.47 41.81, 42.85 35.19 M16.59 67.5 C33.32 56.59, 42.09 42.53, 47.25 38.8 M19 72.05 C26.73 60.16, 35.13 52.91, 47.83 37.7 M16.49 71.18 C29.75 61.19, 41.31 49.46, 48.4 40.35 M20.07 72.03 C28.76 61.54, 39.98 53.77, 49.96 42 M20.79 78.87 C29.58 71.67, 38.82 62.34, 51.13 40.7 M22.45 74.98 C26.59 68.96, 35.51 64.08, 52.69 42.79 M26.9 83.44 C26.99 73.91, 39.54 69.99, 43.39 63.04 M26.53 81.67 C30.77 76.53, 36.04 68.05, 41.62 62.32" stroke="#eaddd7" stroke-width="0.5" fill="none"></path><path d="M23.41 -3.67 C33.32 9.72, 42.86 24.04, 52.55 39.13 M27.92 1.11 C30.95 8.79, 35.71 22.49, 51.71 42.71 M47.33 40.74 C43.07 52.86, 33.81 70.71, 24.21 85.77 M49.38 40.95 C42.85 55.01, 33.43 69.98, 24.57 80.71 M23.92 85.36 C14.2 63.4, 5.99 51.14, -0.91 43.57 M27.53 82.75 C17.28 68.26, 10.41 55.84, 0 42.86 M-1.78 40.96 C6.4 29.73, 10.05 24.19, 25.49 2.76 M-1.76 41.06 C9.3 30.07, 15.28 13.5, 25.35 0.86" stroke="#343a40" stroke-width="1" fill="none"></path></g><g stroke-linecap="round" transform="translate(10 22) rotate(0 29 29)"><path d="M-0.24 30.27 C-0.24 30.27, -0.24 30.27, -0.24 30.27 M-0.24 30.27 C-0.24 30.27, -0.24 30.27, -0.24 30.27 M4.15 28.97 C12.94 24.67, 24.26 10.94, 28.89 3.18 M2.06 31.82 C9.08 23.33, 14.03 18.39, 30.8 -0.49 M8.19 35.61 C15.62 29.74, 18.43 15.13, 36.82 4.33 M5.16 33.65 C15.66 21.3, 25.58 10.47, 35.33 3.27 M8.62 35.47 C16.51 27.17, 22.76 24.64, 33.01 10.36 M8.61 37.44 C18.56 26.41, 24.74 16.77, 36.31 5.18 M13.86 40.45 C20.54 27.71, 25 17.04, 42.54 9.96 M12.54 39.59 C18.58 32.16, 25.07 24.23, 40.44 8.62 M16.17 45.86 C18.25 36, 27.56 31.94, 45.42 11.75 M15.01 44.95 C26.63 32.9, 34.58 20.46, 42.74 10.66 M20.11 49.95 C19.42 43.01, 31.95 33.36, 48.52 13.03 M17.82 45 C29.11 36.76, 34.85 23.02, 43.75 13.51 M22.46 50.15 C30.5 40.36, 37.53 25.39, 44.05 16.99 M19.55 48.91 C27.51 39.99, 39.36 30.44, 45.22 16.56 M27.24 51.51 C31.42 40.98, 33.82 34.67, 48.01 18.02 M23.96 50.73 C31.08 44.92, 34.1 35.91, 49.79 20.34 M22.37 50.81 C38.86 41.72, 42.16 33.48, 52.11 26.44 M25.84 56.21 C35.84 46.08, 43.44 31.56, 54.23 26.08 M26.73 60.97 C34.39 52.17, 38.87 44.23, 57.49 25.95 M31.29 57.99 C36.06 49.55, 45.45 40.38, 56.38 27.9" stroke="#eaddd7" stroke-width="0.5" fill="none"></path><path d="M26.33 0.39 C31.57 8.93, 38.34 15.55, 55.13 28.01 M31.11 -0.75 C35.91 5.35, 46.45 16.93, 58.71 31.42 M56.74 32.01 C45.68 39.56, 40.4 44.4, 33.77 60.3 M56.95 31.89 C50.01 37.64, 43.92 41.93, 28.71 59.94 M33.36 56.19 C19.96 50.75, 15.82 42.31, 1.57 31.57 M30.75 57.88 C22.37 52.67, 15.35 43.23, 0.86 29.11 M-1.04 30.22 C9.15 16.87, 24.97 8.49, 32.76 0.9 M-0.94 31.3 C12.06 19.03, 19.43 9.09, 30.86 1.25" stroke="#343a40" stroke-width="1" fill="none"></path></g></svg>