<svg version="1.1" xmlns="http://www.w3.org/2000/svg" viewBox="0 0 82 102" width="246" height="306">
  <!-- svg-source:excalidraw -->
  
  <defs>
    <style class="style-fonts">
      @font-face {
        font-family: "Virgil";
        src: url("https://excalidraw.com/Virgil.woff2");
      }
      @font-face {
        font-family: "Cascadia";
        src: url("https://excalidraw.com/Cascadia.woff2");
      }
    </style>
    
  </defs>
  <g stroke-linecap="round" transform="translate(22 10) rotate(0 25 41)"><path d="M25.96 0.04 C25.96 0.04, 25.96 0.04, 25.96 0.04 M25.96 0.04 C25.96 0.04, 25.96 0.04, 25.96 0.04 M9.01 23.31 C16.64 14.95, 27.9 7.61, 26.63 4.64 M12.29 20.31 C15.92 15.62, 19.28 10.29, 26.65 2.7 M2.27 40.86 C11.75 31.96, 19.58 13.25, 29.65 8.32 M-1.95 40.47 C9.74 34.73, 14.94 24.76, 28.72 7.15 M5.02 43.88 C7.34 34.43, 19.39 30.03, 32.71 9.58 M2.38 47.53 C11.7 35.59, 22.25 24.45, 33.09 9.51 M8.13 46.55 C11.27 41.24, 19.36 33.37, 33.73 16.24 M3.07 48.88 C14.89 35.58, 24.5 23.35, 35.79 13.47 M2.99 49.07 C13.99 41.14, 25.54 34.77, 34.23 20.91 M8.41 50.75 C13.54 46.84, 18.29 38.95, 35.16 19.65 M9.89 59.42 C19.52 41.5, 25.22 33.07, 38.13 18.79 M8.38 57.35 C16.29 47.42, 21.64 41.25, 37.5 20.66 M9.57 57.94 C19.3 43.82, 34.45 34.95, 41.32 25.93 M12.83 60.57 C23.9 45.1, 33.4 34.76, 41.23 24.55 M10.02 66.53 C26.42 47.69, 38.93 34.09, 45.03 25.42 M13.16 62.56 C21.34 53.72, 31.01 45.54, 41.19 30.35 M12.61 70.18 C23.74 61.23, 28.65 46.21, 46.84 33.21 M15.14 66.38 C25.09 57.15, 33.17 44.46, 46.25 35.04 M19.69 73.95 C28.68 63.23, 35.12 48.86, 49.34 40.56 M17.21 70.32 C29.22 56.12, 42.33 42.97, 46.82 37.29 M16.67 72.48 C28.92 62.92, 30.64 57.88, 51.08 39.82 M19.42 74.65 C29.21 64.55, 34.97 54.08, 48.49 40.52 M22.87 79.24 C27.02 63.66, 40.6 59.3, 52.7 41.9 M20.96 76.07 C34.66 64.13, 44.7 48.4, 52.93 43.6 M23.07 83.03 C28.89 73.37, 35.11 72.31, 37.97 65.41 M26.44 81.52 C29.75 73.91, 37.82 68.2, 41.71 63.18" stroke="#eaddd7" stroke-width="0.5" fill="none"></path><path d="M22.42 -3.56 C38.16 11.03, 42.16 22.99, 49.84 45.14 M25.98 0.84 C32.73 14.23, 41.4 30.41, 48.41 40.32 M53.04 44.33 C41.07 48.88, 41.4 61.76, 23.89 80.47 M50.34 42.5 C41.66 53.24, 37.59 64.95, 26.26 83.8 M27.09 81.24 C21.79 72.49, 14.61 65.89, 2.35 38.56 M26.23 82.19 C21.85 73.27, 16.04 63.69, 1.15 41.23 M1.92 44.88 C9.39 24.63, 20.73 7.8, 22.37 -3.91 M1.2 41.14 C9.24 26.17, 16.45 14.07, 27.88 -0.76" stroke="#1e1e1e" stroke-width="1" fill="none"></path></g><g stroke-linecap="round" transform="translate(10 22) rotate(0 29 29)"><path d="M-0.24 30.27 C-0.24 30.27, -0.24 30.27, -0.24 30.27 M-0.24 30.27 C-0.24 30.27, -0.24 30.27, -0.24 30.27 M4.56 30.42 C10.05 28.6, 16.28 17.04, 32.21 -0.66 M1.56 32.01 C10.81 20.81, 19.43 10.57, 30.27 1.85 M4.39 36.16 C16.28 23.35, 18.36 16.55, 34.12 1.39 M4 37.52 C12.19 29.54, 16.13 21.81, 32.95 3.3 M7.05 34.99 C15.37 28.87, 28.76 19.03, 35.02 6.64 M10.7 38.24 C16.86 30.89, 23.83 21.48, 34.95 5.81 M9.36 39.15 C19.7 31.34, 27.47 24.9, 39.91 12.64 M11.69 40.31 C19.64 29.41, 28.65 22.89, 37.14 10.23 M11.52 40.77 C21.69 35.11, 33.4 25.11, 44.22 9.3 M13.2 44.01 C27.05 30.06, 36.89 18.18, 42.96 12.82 M21.51 47.44 C24.87 31.61, 37.74 21.14, 41.74 11.75 M19.44 46.04 C22.73 38.47, 29.81 31.4, 43.61 16.76 M19.01 46.39 C27.56 39.31, 41.38 27.63, 47.11 21.54 M21.65 50.54 C25.95 40.48, 35.41 33.06, 45.73 20.16 M26.49 53.02 C26.18 48.32, 31.14 42.03, 46.24 19.87 M22.52 52.27 C31.93 43.61, 41.98 29.52, 51.17 20.01 M29.78 54.94 C34.6 46.72, 33.34 44.46, 52.26 24.37 M25.98 55.43 C34.61 45.87, 39.8 38.07, 54.08 23.75 M33.19 60.4 C39.84 49.09, 42.85 39.65, 59.25 30.6 M29.56 56.88 C34.9 51.36, 41.31 42.01, 55.98 25.44" stroke="#eaddd7" stroke-width="0.5" fill="none"></path><path d="M26.44 3.99 C37.48 11.6, 46.09 21.89, 61.14 32.62 M30.84 -1.39 C34.25 5.17, 41.3 11.72, 56.32 28.32 M60.33 26.76 C49.53 39.34, 47.13 41.6, 28.47 57.08 M58.5 29.03 C52.24 37.58, 47 42.08, 31.8 56.64 M29.24 59.82 C21.46 50.45, 15.17 43.75, -3.44 26.22 M30.19 59.76 C18.69 48.99, 6.23 38.48, -0.77 31.47 M2.88 30.29 C9.54 20.44, 19.58 3.73, 26.09 1.44 M-0.86 29.84 C4.86 21.33, 13.49 18.28, 29.24 -0.15" stroke="#1e1e1e" stroke-width="1" fill="none"></path></g></svg>