<svg version="1.1" xmlns="http://www.w3.org/2000/svg" viewBox="0 0 78 102" width="234" height="306">
  <!-- svg-source:excalidraw -->
  
  <defs>
    <style class="style-fonts">
      @font-face {
        font-family: "Virgil";
        src: url("https://excalidraw.com/Virgil.woff2");
      }
      @font-face {
        font-family: "Cascadia";
        src: url("https://excalidraw.com/Cascadia.woff2");
      }
    </style>
    
  </defs>
  <g stroke-linecap="round" transform="translate(18 10) rotate(0 25 41)"><path d="M25.96 0.04 C25.96 0.04, 25.96 0.04, 25.96 0.04 M25.96 0.04 C25.96 0.04, 25.96 0.04, 25.96 0.04 M15.57 21.76 C18.25 18.1, 18.92 15.96, 31.25 1.41 M10.96 19.83 C17.66 16.61, 24.91 7.28, 28.19 2.67 M-2.59 42.87 C10.38 34.47, 13.04 25.89, 30.18 8.14 M-1.36 43.09 C6.38 33.25, 15.98 25.38, 30.58 7.08 M4.05 42.14 C10.19 35.22, 26.99 16.1, 29.28 11.57 M3.33 45.98 C13.6 30.61, 26.93 19.32, 31.18 11.05 M6.07 51.32 C12.94 42.14, 16.59 31.08, 34.7 16.57 M3.85 50.24 C15.88 35.97, 26.02 24.93, 32.8 14.87 M7.04 55.63 C16.11 44.2, 27.52 31.71, 32.62 20.29 M5.28 52.72 C16.55 38.24, 27.81 25.6, 36.3 20.01 M7.99 55.62 C18.74 50.15, 26.33 43.35, 36.21 21.99 M10.1 56.45 C19.81 46.53, 25.38 37.24, 38.24 20.18 M10.82 55.66 C18.58 50.39, 29.08 42.63, 43.02 25.25 M12.45 60.45 C21.88 46.71, 32.55 33.72, 39.09 24.79 M13.25 61.2 C24.35 55.19, 30.42 45.26, 40.51 32.21 M11.75 62.2 C22.81 55.17, 31.8 45.24, 43.44 30.45 M14.86 64.29 C22.28 60.2, 26.89 51.02, 44.96 37.38 M17.53 68.37 C27.11 56.9, 38.29 43.82, 45.7 32.01 M16.68 68.52 C30 56.15, 36.67 46.79, 46.15 34.06 M19.78 69.12 C22.06 62.16, 30.83 56.52, 45.53 38.25 M19.33 74.58 C29.99 61.44, 39.42 53.8, 46.35 40.14 M21.81 72.79 C29.4 61.19, 40.43 53.17, 49.57 38.92 M25.85 77.5 C34.72 61.45, 48.31 54.16, 50.39 43.59 M21.82 76.46 C29.66 69.34, 38.18 59.27, 52.26 43.49 M21.2 79.11 C27.2 73.12, 36.52 66.02, 38.75 63.56 M23.21 79.64 C28.2 76.17, 32.71 71.75, 39.69 63.49" stroke="#eaddd7" stroke-width="0.5" fill="none"></path><path d="M29.1 2.43 C33.34 10.4, 36.54 18.7, 48.86 41.83 M26.55 -0.92 C33.97 14.17, 41.42 28.84, 48.46 41.62 M49.81 43.09 C44.19 54.87, 35.24 70.06, 27.68 81.8 M48.67 42.69 C43.4 53.59, 35.34 69.62, 25.41 81.11 M26.24 82.24 C16 75.55, 9.44 61.64, 1.53 42.94 M27.89 81.06 C20.52 71.83, 12.87 60.95, 1.71 40.93 M0.94 45.62 C6.52 30.77, 12.52 26.83, 29.27 1.44 M-1.94 40.52 C10.42 27.17, 17.93 12.04, 24.17 -0.92" stroke="#343a40" stroke-width="1" fill="none"></path></g><g stroke-linecap="round" transform="translate(10 32) rotate(0 29 29)"><path d="M-0.24 30.27 C-0.24 30.27, -0.24 30.27, -0.24 30.27 M-0.24 30.27 C-0.24 30.27, -0.24 30.27, -0.24 30.27 M3.01 35.1 C13.25 20.43, 25.1 12.84, 28.98 2.25 M1.08 32.44 C11.88 25.91, 16.46 15.6, 30.24 -0.23 M6.4 38.04 C15.66 23.33, 24.72 16.69, 33.94 1.31 M6.62 34.36 C11.17 30.05, 17.69 22.23, 32.88 5.44 M5.31 34.48 C19.32 30.68, 21.12 17.07, 37.01 10.32 M9.15 38.02 C17.67 27.41, 30.29 13.3, 36.5 5.39 M14.13 41.88 C21.59 28.55, 27.17 22.19, 40.24 12.52 M13.05 41.82 C21.69 29.33, 33.54 15.7, 38.54 10.51 M18.08 42.06 C23.55 37.19, 27.96 26.74, 43.6 16.04 M15.16 42.08 C24.28 30.34, 35.25 19.8, 43.32 10.82 M17.71 48.81 C27.01 41.65, 35.01 26.64, 44.94 14.7 M18.54 47.26 C23.87 37.82, 29.86 32.79, 43.13 15.05 M16.73 48.08 C31.07 38.89, 42.96 29.64, 46.42 21.27 M21.52 49.02 C28.51 39.04, 36.29 28.26, 45.97 18.56 M21.16 54.47 C35.5 40.04, 45.94 26.66, 53.03 20.63 M22.16 53.39 C34.87 42.88, 44.67 30.17, 51.27 19.36 M23.88 55.28 C35.92 43.48, 42.84 34.44, 56.43 26.64 M27.97 55.61 C35.5 47.79, 41.41 38.67, 51.06 25.68 M27.75 58.97 C36.18 45.3, 47.59 36.45, 52.75 23.53 M28.36 55.31 C37 47.65, 46.98 35.61, 56.94 28.1" stroke="#eaddd7" stroke-width="0.5" fill="none"></path><path d="M32.43 1.86 C41.64 10.7, 51.59 20.39, 57.83 31.07 M29.08 -0.31 C39.92 9.71, 50.73 19.46, 57.62 31.34 M59.09 32.28 C45.25 43.04, 34.83 53.51, 29.8 58.86 M58.69 30.77 C47.11 39.66, 40.67 48.26, 29.11 56.82 M30.24 54.89 C20.9 44.04, 5.27 38.39, 0.94 29.05 M29.06 59.56 C23.42 51.74, 15.11 44.44, -1.07 28.17 M3.62 31.52 C7.93 21.49, 23.21 12.18, 31.44 2.26 M-1.48 30.64 C7.23 22.3, 14.23 14.42, 29.08 -0.31" stroke="#343a40" stroke-width="1" fill="none"></path></g></svg>