<svg version="1.1" xmlns="http://www.w3.org/2000/svg" viewBox="0 0 82 108" width="246" height="324">
  <!-- svg-source:excalidraw -->
  
  <defs>
    <style class="style-fonts">
      @font-face {
        font-family: "Virgil";
        src: url("https://excalidraw.com/Virgil.woff2");
      }
      @font-face {
        font-family: "Cascadia";
        src: url("https://excalidraw.com/Cascadia.woff2");
      }
    </style>
    
  </defs>
  <g stroke-linecap="round" transform="translate(22 10) rotate(0 25 41)"><path d="M25.96 0.04 C25.96 0.04, 25.96 0.04, 25.96 0.04 M25.96 0.04 C25.96 0.04, 25.96 0.04, 25.96 0.04 M10.65 22.57 C21.52 12.95, 22.67 11.34, 30.89 6.4 M14.42 22.19 C14.89 19.1, 17.52 12.27, 26.38 2.55 M-3.74 39.88 C11.75 34.35, 17.8 22, 32.56 9.26 M-1.78 41.39 C9.84 31.23, 21.94 15.27, 30.4 7.86 M2.68 49.19 C11.11 36.34, 28.15 16.49, 30.85 10.15 M1.04 44.85 C8.36 38.87, 16.85 30.11, 30.95 10.49 M6.27 48.79 C10.28 39.5, 20.73 29.68, 33.81 14.78 M4.41 49.85 C17.94 37.94, 25.62 24.77, 35.22 13.33 M6.26 50.97 C15.77 40.03, 23.85 32.13, 36.47 16.75 M6.91 52.73 C15.06 46.21, 21.76 37.95, 34.76 16.93 M6.24 54.99 C17.88 46.57, 25.05 41.59, 36.7 22.35 M10.82 56.48 C17.13 43.3, 29.75 34.61, 38.58 23.02 M10.61 58.52 C22.39 42.92, 31.76 37.46, 41.7 27.81 M11.88 60.99 C20.41 48.09, 31.74 36.78, 40.92 26.48 M12.46 61.87 C17.44 53.92, 26.17 49.8, 42.47 28.49 M12.4 62.1 C22.08 56.64, 27.16 44.98, 40.96 27.34 M16.65 68.57 C28.75 55.37, 31.8 44.48, 45.72 35.7 M17.61 66.79 C25.18 54.38, 38.78 42.99, 43.94 34.34 M16.42 69.29 C32.54 54.47, 41.06 43.3, 43.6 34.17 M17.47 71.94 C26.18 60.73, 33.31 52.92, 48.21 37.09 M16.49 74.38 C27.23 65.74, 38.76 56.45, 45.63 38.8 M19.09 71.64 C27.2 63.62, 39.4 53.64, 50.35 41.62 M20.92 78.11 C33.11 64.08, 45.12 55.76, 53.81 47.16 M23.75 76.1 C30.41 69.77, 35.89 63.47, 53.55 41.65 M21.56 78.18 C31.34 73.25, 31.04 74.45, 36.69 59.58 M24.73 81.97 C28.31 77.44, 31.12 71.69, 38.95 61.39" stroke="#eaddd7" stroke-width="0.5" fill="none"></path><path d="M23.63 1.96 C34.19 13.33, 38.88 27.27, 47.93 41.83 M27.62 1.32 C34.64 15.07, 44.47 33.09, 51.88 40.57 M49.64 44.35 C43.76 52.23, 43.43 54.44, 24.25 80.29 M51.51 43.35 C43.9 54.08, 35.65 66, 25.14 82.53 M28.19 82.45 C20.53 74.97, 13.82 62.19, 3.08 45.88 M24.44 80.89 C18.68 65.98, 8.66 54.09, -1.88 42.81 M1.07 42.56 C3.88 34.79, 11.23 23.54, 25.64 -1.3 M1.47 43.55 C6.39 29.39, 12.95 19.87, 27.04 -0.77" stroke="#1e1e1e" stroke-width="1" fill="none"></path></g><g stroke-linecap="round" transform="translate(10 40) rotate(0 29 29)"><path d="M-0.24 30.27 C-0.24 30.27, -0.24 30.27, -0.24 30.27 M-0.24 30.27 C-0.24 30.27, -0.24 30.27, -0.24 30.27 M3.82 36.68 C5.61 26.71, 15.25 22.58, 33.97 -2.91 M3.44 32.07 C14.86 18.64, 22.49 6.16, 30.12 -0.07 M3.41 39.13 C15.67 27.88, 21.12 19.52, 35.06 6.29 M4.92 35.21 C18.01 24.53, 25.31 11.73, 33.66 5.07 M12.36 35.77 C19.07 33.78, 18.79 20.47, 35.59 3.01 M8.02 37.53 C16.58 31.73, 22.34 20.73, 35.93 5.27 M11.6 39.51 C19.17 32.6, 26.24 20.23, 38.45 13.12 M12.66 42.53 C20.6 31.1, 27.26 26.19, 37 8.67 M13.42 44.58 C16.88 38.5, 23.38 29.29, 40.06 9.29 M15.18 44.92 C23.99 36.13, 31.03 23.75, 40.24 11.38 M17.08 47.05 C24.09 39.27, 34.51 28.13, 45.3 16.79 M18.57 44.36 C27.72 34.19, 41.34 20.83, 45.97 16.47 M19.59 50.05 C26.79 36.77, 44.16 26.45, 48.99 19.74 M22.06 47.99 C26.04 42.98, 31.58 36.33, 47.66 17.46 M21.83 49.31 C32.89 38.69, 47.77 27.57, 49.31 19.27 M22.06 53.14 C33.11 41.93, 37.95 32.29, 48.16 21.84 M28.17 58.11 C34.93 41.23, 44.02 35.53, 54.75 27.42 M26.38 53.61 C35.55 45.39, 45.74 32.43, 53.39 26.07 M28.53 60.84 C34.69 49, 44.5 34.92, 52.86 25.5 M31.18 58.42 C38.79 46.5, 49.79 35.28, 55.77 27.29" stroke="#eaddd7" stroke-width="0.5" fill="none"></path><path d="M31.96 -0.29 C37.08 5.98, 45.39 17.4, 57.83 33.99 M31.32 -1.75 C38.8 9.86, 51.06 25.07, 56.57 28.05 M60.35 28.71 C52.02 41.29, 38.03 44.41, 28.29 58.86 M59.35 31.41 C48.11 40.43, 38.03 47.85, 30.53 57.29 M30.45 59.78 C22.36 50.58, 9.78 42.01, 3.88 32.14 M28.89 59.18 C22.18 51.88, 18 43.66, 0.81 28.29 M0.56 28.7 C12.25 19.89, 20.42 8.63, 28.7 -1.48 M1.55 29.26 C6.45 20.58, 15.95 14.65, 29.23 1.12" stroke="#1e1e1e" stroke-width="1" fill="none"></path></g></svg>