<svg version="1.1" xmlns="http://www.w3.org/2000/svg" viewBox="0 0 82 108" width="246" height="324">
  <!-- svg-source:excalidraw -->
  
  <defs>
    <style class="style-fonts">
      @font-face {
        font-family: "Virgil";
        src: url("https://excalidraw.com/Virgil.woff2");
      }
      @font-face {
        font-family: "Cascadia";
        src: url("https://excalidraw.com/Cascadia.woff2");
      }
    </style>
    
  </defs>
  <g stroke-linecap="round" transform="translate(22 10) rotate(0 25 41)"><path d="M25.96 0.04 C25.96 0.04, 25.96 0.04, 25.96 0.04 M25.96 0.04 C25.96 0.04, 25.96 0.04, 25.96 0.04 M16.36 18.32 C16.8 17.64, 23.16 15.41, 24.97 6.38 M11.75 22.98 C15.17 14.75, 19.35 10.14, 27.81 3.43 M3.46 43.92 C11.13 30.79, 21.55 23, 32.5 11.09 M-0.46 43.89 C10.86 29.75, 19.93 20.83, 31.28 6.62 M-0.15 49.05 C15.51 30.15, 19.88 22.14, 28.96 9.22 M1.6 45.91 C11.13 36.67, 15.37 29.12, 31.22 11.4 M3.32 48.22 C17.86 33.39, 27 22.32, 37.39 13.25 M6.34 50.56 C9.82 42.05, 19.8 30.9, 32.95 13.66 M8.13 48.52 C19.31 37.41, 27.33 27.61, 33.3 18.05 M8.47 53.15 C14.69 45.36, 17.31 36.92, 35.4 17.67 M10.34 54.46 C17.17 50.59, 20.54 41.66, 40.55 25.68 M7.65 54.42 C15.83 50.05, 20.93 42.53, 40.22 23.66 M12.32 55.47 C21.23 50.85, 33.07 38.02, 41.82 22.62 M10.27 58.76 C18.79 50.07, 25.68 43.4, 39.54 27.76 M10.66 62.16 C19.65 58.13, 28.09 45.42, 41.09 29.01 M14.5 65.25 C20.96 52.71, 28.94 41.9, 43.66 30 M19.2 66.78 C21.86 55.9, 35.74 46.74, 47.57 35.42 M14.71 66.85 C25.76 57.64, 32.21 47.09, 46.21 33.83 M21.67 67.28 C29 57.92, 34.03 45.61, 45.38 40.35 M19.25 69.2 C26.87 60.52, 35.16 51.79, 47.17 38.38 M18.78 75.79 C29.37 68.2, 32.15 54.93, 49.53 42.95 M18.85 73.87 C31.93 63.9, 40.42 54.09, 50 41.91 M24.04 74.84 C33.79 69.3, 39.38 63.94, 49.01 43.57 M23.69 77.32 C29.89 70.05, 39.88 57.22, 50.03 45.14 M28.33 76.9 C28.96 77.53, 29.71 68.13, 36.84 63.81 M25.16 81.18 C29.52 73.49, 33.32 67.69, 41.78 62.01" stroke="#eaddd7" stroke-width="0.5" fill="none"></path><path d="M25.71 -1.51 C27.41 7.83, 35.08 19.98, 53.99 45.76 M24.25 -1.95 C31.23 9.56, 40.67 19.44, 48.05 41.79 M48.71 44.14 C46.01 50.45, 33.87 64.42, 26.86 83.06 M51.41 41 C43.22 54.14, 33.24 70.36, 25.29 82.93 M27.78 85.17 C17.78 68.06, 9.17 55.99, 2.14 38.57 M27.18 80.35 C20.36 72.15, 11.54 62.19, -1.71 42.95 M-1.3 43.65 C7.33 29.9, 13.57 17.78, 24.52 -1.37 M-0.74 40.18 C4.88 30.78, 13.44 19.8, 27.12 -1.08" stroke="#1e1e1e" stroke-width="1" fill="none"></path></g><g stroke-linecap="round" transform="translate(10 40) rotate(0 29 29)"><path d="M-0.24 30.27 C-0.24 30.27, -0.24 30.27, -0.24 30.27 M-0.24 30.27 C-0.24 30.27, -0.24 30.27, -0.24 30.27 M-0.44 33.02 C10.42 26.75, 19.8 12.67, 33.95 -0.06 M4.22 31.3 C12.15 18.46, 23.82 7.17, 31 0.59 M7.45 36.9 C10.79 30.89, 19.46 24.18, 36.89 4.5 M7.42 36.39 C10.31 29.06, 18.41 23.03, 32.43 4.21 M12.22 41.87 C12.98 27.05, 24.65 15.28, 34.66 3.85 M9.08 39.55 C14.66 29.23, 21.91 21.85, 36.85 8.23 M11.03 42.84 C18.64 30.06, 30 23.05, 36.92 7.34 M13.37 38.93 C20.77 32.39, 25.53 21.1, 37.33 10.69 M10.97 45.51 C19.14 34.48, 28.6 22.56, 41.36 8.62 M15.6 45.1 C22.76 32.04, 29.29 23.45, 40.98 10.8 M16.55 46.94 C26.08 36.84, 30.54 33.77, 48.63 11.46 M16.51 46.86 C29.36 34.59, 39.06 24.61, 46.61 16.02 M16.55 48.75 C30.83 42, 36.91 33.66, 43.8 15.94 M19.83 49.74 C27.34 40.55, 36.91 29.56, 48.94 17.53 M22.11 50.64 C34.17 43.39, 37.53 33.44, 49.82 20.71 M25.21 50.69 C29.33 42, 35.16 36.93, 50.82 21.67 M26.37 51.4 C34.9 45.56, 45.16 37.67, 54.47 24.76 M26.45 56.41 C37.78 42.37, 47.77 32.76, 52.88 25.05 M26.52 58.38 C34.87 45.64, 40.28 39.64, 59.04 25.9 M28.44 58.03 C35.76 50.1, 43.07 40.95, 57.06 26.18" stroke="#eaddd7" stroke-width="0.5" fill="none"></path><path d="M28.49 -3.92 C34.91 5.19, 43.6 18.47, 61.76 28.09 M28.05 -1.51 C40.34 13.8, 50.3 21.39, 57.79 29.96 M60.14 33.24 C46.42 36.22, 40.32 46.97, 31.06 59.76 M57 30.87 C45.93 40.05, 37.87 50.72, 30.93 59.49 M33.17 59.95 C20.27 51.41, 12.54 40.54, -3.43 28.16 M28.35 58.35 C24.24 50.26, 17.79 44.21, 0.95 29.44 M1.65 30.48 C9.12 20.04, 18.22 9.11, 28.63 -1.99 M-1.82 28.99 C10.44 20.06, 21.17 8.95, 28.92 -0.46" stroke="#1e1e1e" stroke-width="1" fill="none"></path></g></svg>