<svg version="1.1" xmlns="http://www.w3.org/2000/svg" viewBox="0 0 82 108" width="246" height="324">
  <!-- svg-source:excalidraw -->
  
  <defs>
    <style class="style-fonts">
      @font-face {
        font-family: "Virgil";
        src: url("https://excalidraw.com/Virgil.woff2");
      }
      @font-face {
        font-family: "Cascadia";
        src: url("https://excalidraw.com/Cascadia.woff2");
      }
    </style>
    
  </defs>
  <g stroke-linecap="round" transform="translate(22 10) rotate(0 25 41)"><path d="M25.96 0.04 C25.96 0.04, 25.96 0.04, 25.96 0.04 M25.96 0.04 C25.96 0.04, 25.96 0.04, 25.96 0.04 M15.14 24.51 C12.67 20.46, 18.98 17.21, 29.64 1.76 M10.63 20.66 C18.22 15.03, 24.73 6.49, 27.13 5.23 M2.38 43.97 C12.38 34.14, 20.89 15.49, 28.26 6.93 M0.22 42.58 C12.3 28.66, 22.94 16.6, 31.8 6.37 M0.67 44.87 C9.75 31.16, 22.2 17.16, 30.79 9.71 M0.77 45.2 C10 35.57, 22.41 25.08, 32.27 10.31 M4.29 48.74 C15.78 38.07, 18.25 30.06, 35.75 18.6 M5.7 47.29 C15.17 34.44, 28.29 22.72, 33.38 15.66 M6.95 50.71 C9.41 45.65, 14.73 39.09, 37.11 21.51 M5.23 50.89 C15.24 40.2, 24.61 27.99, 36.07 18.96 M7.18 56.31 C18.75 50.27, 21.3 40.38, 40.2 18.52 M9.05 56.98 C17.24 49.3, 23.63 39.08, 38.5 22.15 M12.83 61.02 C19.05 48.48, 21.25 45.35, 44.18 23.16 M12.05 59.68 C18.63 51.88, 26.77 40.34, 39.82 24.6 M12.95 62.45 C19.82 53.27, 29.27 42.45, 40.5 31.58 M11.43 61.31 C26.32 50.78, 37.88 37.08, 43.84 31.07 M16.85 68.91 C27.97 58.52, 34.04 50.28, 44.81 31.41 M15.07 67.55 C25.66 56.45, 33.54 45.01, 44.22 35.26 M14.73 67.38 C22.99 66.09, 30.04 53.69, 50.73 39.15 M19.34 70.29 C25.48 63.05, 31.8 51, 47.44 36.01 M16.76 72.01 C30.88 63.76, 41.84 46.37, 45.73 37 M21.48 74.83 C29.83 64.27, 37.33 50.95, 49.98 40.84 M24.95 80.36 C26.78 68.34, 35.44 61.91, 50.26 45.33 M24.68 74.86 C30.68 66.99, 40.89 52.84, 50.69 45.18 M21.6 76.93 C25.07 77.27, 32.22 71.6, 43.82 62.78 M23.86 78.74 C32.04 73.46, 37.16 67.76, 42.1 63.23" stroke="#eaddd7" stroke-width="0.5" fill="none"></path><path d="M23.93 -0.17 C35.46 15.03, 35.86 25.53, 52.63 38.51 M27.88 -1.43 C28.28 8.47, 35.06 17.01, 51.17 41.35 M48.25 40.29 C43.03 56.74, 35.44 72.84, 28.69 84.81 M49.14 42.53 C43.64 52.47, 39.83 62.65, 26.22 82.89 M29.08 85.88 C17.88 63.52, 4.05 48.67, -2.22 44.36 M24.12 82.81 C18.49 74.4, 13.99 65.29, 0.28 41.35 M-0.36 40.7 C7.29 26.38, 15.66 16.34, 29.11 -1.48 M1.04 41.23 C6.98 32.22, 10.83 25.22, 24.44 1.03" stroke="#343a40" stroke-width="1" fill="none"></path></g><g stroke-linecap="round" transform="translate(10 40) rotate(0 29 29)"><path d="M-0.24 30.27 C-0.24 30.27, -0.24 30.27, -0.24 30.27 M-0.24 30.27 C-0.24 30.27, -0.24 30.27, -0.24 30.27 M5.76 29.54 C14.18 22.2, 23.45 14.18, 29.33 3.32 M1.91 32.38 C9.47 26.45, 13.88 17.96, 32.8 1.27 M7.5 37.99 C18.74 25.25, 21.15 12.19, 32.73 7.06 M6.11 36.77 C14.9 24.93, 25.52 15.42, 32.17 5.52 M8.04 34.71 C18.55 23.3, 28.75 11.82, 35.15 6.97 M8.37 36.97 C19.84 28.59, 30.42 14.93, 35.75 6.04 M11.55 44.06 C19.86 27.43, 30.81 20.68, 42.27 12.88 M10.1 39.62 C15.61 34.89, 22.27 26.88, 39.33 7.88 M13.16 40.23 C24.5 28.64, 34.33 22.19, 44.82 13.93 M13.34 42.33 C24.45 30.28, 34.05 19.62, 42.27 11.79 M18.4 47.74 C30.1 32.7, 37.96 27.69, 41.47 12.33 M19.07 47.41 C28.43 36.45, 35.27 24.58, 45.1 13.23 M22.09 50.68 C24.05 37.95, 35.45 35.32, 44.34 17.64 M20.76 48.41 C30.79 38.55, 37.06 28.95, 45.78 17.88 M22.41 50.22 C29.57 43.5, 35.1 33.25, 52.4 24.97 M21.27 52.78 C30.53 45.91, 36.61 39.03, 51.89 21.12 M28.51 57.61 C33.9 48.2, 41.44 41.49, 50.46 24.79 M27.15 56.25 C36.46 43.69, 45.45 31, 54.31 23.07 M26.62 55.68 C41.59 46.63, 45.45 41.68, 57.84 25.37 M29.53 57.47 C39.7 45.84, 45.06 37, 54.7 28.26" stroke="#eaddd7" stroke-width="0.5" fill="none"></path><path d="M29.83 3.99 C39.1 4.44, 44.23 15.05, 54.51 26.11 M28.57 -1.95 C35.86 6.18, 42.19 14.13, 57.35 31.07 M56.29 30.86 C47.87 42.18, 39.17 53.78, 32.81 56.01 M58.53 29.29 C48.77 40.87, 39.32 49.22, 30.89 59.59 M33.88 60.14 C15.97 46.86, 5.82 36.72, 2.36 26.7 M30.81 56.29 C21.27 47.99, 11.33 39.95, -0.65 30.83 M-1.3 28.52 C8.08 18.71, 21.74 14.44, 28.52 -3.64 M-0.77 31.12 C6.49 21.74, 15.76 13.15, 31.03 -0.97" stroke="#343a40" stroke-width="1" fill="none"></path></g></svg>