<svg version="1.1" xmlns="http://www.w3.org/2000/svg" viewBox="0 0 82 108" width="246" height="324">
  <!-- svg-source:excalidraw -->
  
  <defs>
    <style class="style-fonts">
      @font-face {
        font-family: "Virgil";
        src: url("https://excalidraw.com/Virgil.woff2");
      }
      @font-face {
        font-family: "Cascadia";
        src: url("https://excalidraw.com/Cascadia.woff2");
      }
    </style>
    
  </defs>
  <g stroke-linecap="round" transform="translate(22 10) rotate(0 25 41)"><path d="M25.96 0.04 C25.96 0.04, 25.96 0.04, 25.96 0.04 M25.96 0.04 C25.96 0.04, 25.96 0.04, 25.96 0.04 M8.69 19.5 C14.45 17.98, 24.14 9.14, 28.45 4.12 M14.06 21.29 C19.88 15.86, 22.95 10.05, 26.73 1.95 M-0.14 42.56 C2.68 32.99, 16.01 30, 31.41 6.38 M1.62 42.61 C8.88 28.4, 21.17 18.3, 30.9 5.77 M0.35 46.44 C12.19 37.76, 18.97 26.55, 36.13 7.07 M1.36 44.35 C9.06 36.29, 17.51 28.28, 33.8 9.87 M5.52 52.61 C13.15 41.4, 16.93 33.09, 36.17 12.62 M3.67 47.79 C13.1 39.42, 23.68 30.18, 32.26 16.41 M4.12 54.13 C17.37 39.22, 29.75 24.67, 38.58 14.89 M6.74 50.5 C16.06 43, 26.48 33.22, 38.17 18.43 M7.75 52.49 C13.09 48.02, 23.52 40.2, 39.75 23.9 M11.23 53.98 C18.01 47.84, 22.13 37.4, 39.67 23.42 M15.34 61.07 C18.51 48.57, 28.52 35.98, 39.89 29.09 M10 57.91 C21.07 49.88, 28.96 36.72, 40.88 25.27 M16.98 61.45 C21.71 51.32, 29.34 40.76, 41.52 32.58 M13.21 63.12 C21.09 52.54, 31.72 45.86, 41.57 28.28 M17.06 67.87 C23.17 61.61, 31.59 53.07, 41.36 33.91 M16.71 66.83 C26.7 55.47, 33.26 44.64, 46.37 34.68 M18.82 71.24 C23.83 59.96, 36.79 49.09, 48.08 35.54 M19.85 69.47 C24.15 65, 32.15 55.1, 47.73 36.83 M23.51 71.64 C26.87 62.29, 39.61 51.68, 50.21 43.6 M21.82 73.84 C25.32 64.72, 31.07 60.06, 51.1 40.81 M26.19 74.6 C30.58 66.27, 43.83 51.35, 55.28 44.39 M22.81 76.19 C33.35 64.76, 43.48 54.26, 51.31 45.55 M28.25 78.52 C27.83 71.61, 40.52 63.51, 39.84 64.5 M25.67 80.41 C28.19 78.57, 31.79 74.14, 39.84 61.79" stroke="#eaddd7" stroke-width="0.5" fill="none"></path><path d="M26.76 -2.29 C29.34 12.98, 37.84 20.76, 46.08 39.87 M27.88 -0.96 C33.54 11.26, 36.13 18.42, 48.49 41.28 M49.58 41.93 C39.61 59.64, 29.22 75.2, 29.24 78.24 M50.53 42.88 C45.02 53.7, 38.76 61.61, 26.87 80.07 M27.86 84.98 C21.29 71.98, 14.21 64.42, 1.95 42.98 M24.28 81.08 C13.86 66.09, 6.8 50.47, 0.35 42.6 M1.9 40.88 C6.09 34.34, 9.09 26.78, 26.48 -0.6 M-0.68 41.01 C9.31 31.52, 14.67 15.92, 24.99 -0.3" stroke="#1e1e1e" stroke-width="1" fill="none"></path></g><g stroke-linecap="round" transform="translate(10 40) rotate(0 29 29)"><path d="M-0.24 30.27 C-0.24 30.27, -0.24 30.27, -0.24 30.27 M-0.24 30.27 C-0.24 30.27, -0.24 30.27, -0.24 30.27 M0.74 30.97 C13.72 25.8, 19.39 10.72, 31.69 3.01 M2.53 34.74 C14.55 19.5, 25.89 6.58, 29.52 -1.5 M6.09 31.92 C10.63 31.01, 21.73 20.65, 32.18 6.35 M6.14 33.88 C13.96 23.86, 25.91 14.18, 31.57 4.19 M9.61 38.61 C20.65 26.04, 29.19 22.15, 32.51 4.9 M7.52 36.96 C16.29 28.88, 25.08 22.02, 35.31 5 M15.42 42.46 C19.43 30.8, 26.33 25.53, 36.29 9.54 M10.6 40.6 C20.03 33.72, 28.61 21.06, 40.08 10.95 M16.58 42.71 C19.51 38.37, 22.79 32.71, 38.2 12.46 M12.95 43.36 C22.6 37.01, 29.94 29.21, 41.74 10.74 M14.58 42.95 C23.45 40.32, 28.94 33.27, 46.85 12.94 M16.07 47.53 C26.72 34.16, 33.09 26.96, 46.37 14.82 M22.14 48.34 C28.83 38.43, 35.46 26, 50.27 19.62 M18.99 49.61 C31.18 37.73, 38.26 28.76, 46.45 18.84 M21.41 51.1 C30.9 38.74, 39.95 29.99, 53.4 20.65 M23.08 51.05 C29.84 44.56, 40.48 33.49, 49.1 19.14 M27.47 55.55 C33.19 51.89, 36.65 39.13, 52.96 25.57 M26.43 56.52 C35.27 42.62, 44.67 34.67, 53.72 23.79 M30.48 55.59 C37.05 50.38, 44.06 37.55, 54.23 23.71 M28.7 56.64 C37.54 50.92, 40.91 43.5, 55.52 28.32" stroke="#eaddd7" stroke-width="0.5" fill="none"></path><path d="M27.71 -2.37 C38.24 6.04, 40.79 8.85, 55.87 27.93 M29.04 1.62 C40.19 6.6, 45.21 15.71, 57.28 31.88 M57.93 29.64 C53.4 35.05, 46.78 45.99, 26.24 56.25 M58.88 31.51 C52.27 38.76, 42.73 45.42, 28.07 57.14 M32.98 60.19 C20.86 50.92, 13.78 41.95, 0.98 33.08 M29.08 56.44 C16.68 47.55, 4.23 35.59, 0.6 28.12 M-1.12 31.07 C11.28 18.21, 22.59 9.77, 29.4 -0.36 M-0.99 31.47 C9.8 21.44, 14.46 13.14, 29.7 1.04" stroke="#1e1e1e" stroke-width="1" fill="none"></path></g></svg>