<svg version="1.1" xmlns="http://www.w3.org/2000/svg" viewBox="0 0 82 108" width="246" height="324">
  <!-- svg-source:excalidraw -->
  
  <defs>
    <style class="style-fonts">
      @font-face {
        font-family: "Virgil";
        src: url("https://excalidraw.com/Virgil.woff2");
      }
      @font-face {
        font-family: "Cascadia";
        src: url("https://excalidraw.com/Cascadia.woff2");
      }
    </style>
    
  </defs>
  <g stroke-linecap="round" transform="translate(22 10) rotate(0 25 41)"><path d="M25.96 0.04 C25.96 0.04, 25.96 0.04, 25.96 0.04 M25.96 0.04 C25.96 0.04, 25.96 0.04, 25.96 0.04 M12.7 22.23 C19.93 18.86, 19.15 12.94, 27.82 7.11 M10.98 20.06 C16.03 14.4, 22.7 9.25, 28.47 1.62 M1.23 41.09 C9 35.39, 16.19 28.89, 30.71 4.28 M0.72 40.49 C8.05 33.21, 16.64 23.1, 30.42 7.79 M5.95 41.78 C12.81 30.86, 22.65 16.44, 29.8 8.58 M3.63 44.59 C8.83 36.1, 16.93 28, 34.18 11.78 M6.65 46.58 C13.18 38.88, 25.44 27.37, 31.61 14.73 M2.74 50.37 C15.18 35.25, 22.97 23.99, 34.96 14.73 M9.06 48.85 C14.54 42.31, 19.17 34.65, 32.64 18.38 M8.65 52.39 C14.05 39.94, 24.02 29.94, 34.81 16.92 M10.23 57.86 C15.27 47, 27.39 40.81, 35.22 24.85 M10.15 57.38 C19.49 46.03, 31.01 35.32, 39.78 21.3 M11.02 62.3 C20.91 52.13, 29.22 37.52, 38.03 26.39 M12.01 58.48 C23.81 46.81, 33.73 35.11, 39.61 25.5 M12 66.54 C21.21 53.64, 27.64 45.18, 42.53 27.39 M12.04 62.24 C18.14 52.58, 27.93 47.08, 43.49 29.79 M12.49 67.12 C26.3 57.37, 38.18 45.55, 44.91 37.22 M17.5 67.88 C24.23 57.36, 35.31 46.72, 45.19 32.63 M19.21 68.75 C22.24 58.46, 32.13 55.31, 45.78 35.6 M18.86 70.04 C30.34 57.45, 40.68 45.65, 46.07 34.87 M21.35 76.81 C26.38 60.93, 39.62 54.34, 50.13 37.49 M22.24 74.01 C28.08 67.73, 33.8 61.04, 48.22 39.28 M26.41 77.6 C34.34 69.61, 39.12 54.99, 50.44 45.47 M22.44 78.76 C32.02 65.94, 36.13 60.66, 50.85 41.8 M24.75 81.86 C25.1 72.85, 29.01 72.75, 40.71 61.92 M24.75 79.15 C29.73 71.85, 38.42 65.74, 41.62 62.38" stroke="#eaddd7" stroke-width="0.5" fill="none"></path><path d="M22.08 -2.13 C32.24 14.66, 46.67 33.25, 48.09 45.24 M24.49 -0.72 C35.93 14.41, 40.88 30.98, 49.96 41.82 M53.24 38.24 C39.39 54.89, 33.39 72.01, 27.76 85.02 M50.87 40.07 C40.89 56.98, 32.23 72.07, 27.49 83.09 M27.95 82.98 C20.63 73.85, 11.59 54.08, -1.84 38.88 M26.35 82.6 C17.29 72.59, 11.1 62.95, -0.56 42.53 M0.48 41.4 C8.08 27.31, 15.11 14.05, 24.01 2.93 M-1.01 41.7 C11.17 25.85, 21.07 9.67, 25.54 0.69" stroke="#1e1e1e" stroke-width="1" fill="none"></path></g><g stroke-linecap="round" transform="translate(10 40) rotate(0 29 29)"><path d="M-0.24 30.27 C-0.24 30.27, -0.24 30.27, -0.24 30.27 M-0.24 30.27 C-0.24 30.27, -0.24 30.27, -0.24 30.27 M3.48 35.46 C17.41 16.72, 28.53 6.77, 34.68 1.76 M1.31 30.95 C8.73 24.45, 16.9 16.71, 29.2 -0.76 M4.62 38.05 C18 25.43, 30.58 11.27, 30.08 2.05 M4.02 35.89 C13.43 27.52, 20.03 17.65, 33.59 5.59 M4.95 36.6 C14.13 26.56, 19.83 19.77, 34.02 4.84 M7.76 36.7 C15.71 28.04, 24.05 22.47, 37.22 6.32 M9.39 40.48 C18.9 35.47, 24.6 21.38, 38.4 11.47 M13.18 41.89 C20.07 28.1, 30.84 18.1, 38.4 9.11 M11.3 43.4 C22.63 29.74, 32.8 18.87, 41.69 13.1 M14.84 41.68 C23.24 30.22, 34.11 17.99, 40.23 12.05 M19.95 43.89 C27.37 37.53, 39.46 22.12, 47.8 16.45 M19.47 45.77 C25.34 40.46, 31.84 33.29, 44.25 14.75 M23.37 50.56 C31.17 40.97, 34.49 27.39, 47.57 22.1 M19.55 49.78 C27.07 41.2, 34.54 34.15, 46.68 17.74 M26.5 51.59 C28.83 43.22, 35.59 37.47, 48.21 18.68 M22.2 50.08 C30.24 42.12, 42.48 30.93, 50.61 22.02 M26.72 55.76 C38.64 46.36, 48.51 32.03, 56.26 24.67 M27.48 53.98 C33.62 48.29, 39.63 39.77, 51.68 24.07 M27.99 53.9 C37.26 43.78, 53.65 32.43, 54.29 30.85 M29.28 58.51 C39.17 46.48, 49.84 34.59, 53.55 27.55" stroke="#eaddd7" stroke-width="0.5" fill="none"></path><path d="M27.87 -2.07 C37.8 13.32, 49.92 16.2, 61.24 32.63 M29.28 1.88 C33.95 4.85, 41.11 13.15, 57.82 31.17 M54.24 28.25 C49.09 38.81, 44.37 47.2, 33.02 60.69 M56.07 29.14 C47.88 39.91, 37.91 52.47, 31.09 58.22 M30.98 61.08 C23.1 50.78, 5.45 37.16, -3.12 27.78 M30.6 56.12 C20.5 46.34, 9.88 37.44, 0.53 30.28 M-0.6 29.64 C6.48 20.42, 14.44 11.89, 32.93 3.11 M-0.3 31.04 C7.67 23.54, 15.24 14.07, 30.69 -1.56" stroke="#1e1e1e" stroke-width="1" fill="none"></path></g></svg>