<svg version="1.1" xmlns="http://www.w3.org/2000/svg" viewBox="0 0 82 108" width="246" height="324">
  <!-- svg-source:excalidraw -->
  
  <defs>
    <style class="style-fonts">
      @font-face {
        font-family: "Virgil";
        src: url("https://excalidraw.com/Virgil.woff2");
      }
      @font-face {
        font-family: "Cascadia";
        src: url("https://excalidraw.com/Cascadia.woff2");
      }
    </style>
    
  </defs>
  <g stroke-linecap="round" transform="translate(22 10) rotate(0 25 41)"><path d="M25.96 0.04 C25.96 0.04, 25.96 0.04, 25.96 0.04 M25.96 0.04 C25.96 0.04, 25.96 0.04, 25.96 0.04 M9.23 24.5 C16.85 19.23, 23.66 8.14, 31.21 0.23 M12.07 21.54 C16.64 15.78, 18.86 15.28, 29.15 4.11 M2.32 45.8 C8.26 29.35, 13.97 22.6, 33.27 9.29 M1.1 41.34 C6.48 35.1, 14.22 26.36, 31.73 9.42 M-1.22 43.94 C6.02 36.36, 13.15 30.43, 32.92 13.76 M1.04 46.12 C11.96 38.06, 17.5 28.01, 31.99 11.97 M7.87 47.21 C9.19 40.62, 20.38 36.38, 37.16 11.39 M3.43 47.62 C15.89 36.74, 25.15 25.21, 32.16 16.13 M3.78 52.01 C9.34 45.43, 20.05 41.38, 37.94 21.86 M5.88 51.63 C14.7 41.17, 24.78 33.06, 35.8 18.91 M11.03 59.64 C16.44 46.79, 31.81 28.52, 36.08 23.52 M10.7 57.63 C21.55 42.02, 31.47 29.99, 36.98 21.5 M12.95 55.82 C19.89 46.77, 36.96 30.98, 39.72 26.65 M10.68 60.97 C18.28 49.75, 26.15 40.03, 39.96 25.27 M11.57 62.97 C24.33 48.54, 33.55 39.79, 46.79 26.68 M14.14 63.96 C21.92 55.96, 29.56 48.85, 42.94 27.72 M18.7 68.63 C24.84 59.77, 33.72 43.64, 44.94 37 M17.35 67.04 C26.94 53.63, 36.36 44.3, 43.21 34.03 M16.51 73.56 C25.19 60.32, 37.85 55, 45.25 38.38 M18.31 71.58 C25.43 58.07, 35.43 49.28, 48.14 37.29 M20.67 76.16 C32.97 58.14, 39.66 44.9, 50.2 43.78 M21.14 75.12 C28.5 61.16, 39.75 51.81, 48.34 42.02 M20.14 76.78 C30.44 67.55, 39.49 56.8, 52.7 42.84 M21.17 78.35 C32.83 62.38, 44.13 52.58, 50.04 43.39 M21.75 81.17 C31.08 73.6, 39.34 68.53, 42.25 61.96 M26.69 79.37 C30.51 75.66, 34.72 72.2, 38.41 62.08" stroke="#eaddd7" stroke-width="0.5" fill="none"></path><path d="M29.99 3.76 C29.58 13.62, 40.05 17.26, 46.11 38.99 M24.05 -0.21 C33.09 11.25, 40.64 21.88, 51.07 43.62 M50.86 43.06 C46.46 53.06, 42.45 61.09, 24.01 83.74 M49.29 42.93 C46.27 51.35, 40.12 59.28, 27.59 82.98 M28.14 78.57 C15.11 66.41, 6.3 58.91, -3.3 42.69 M24.29 82.95 C17.62 69.55, 9.88 55.18, 0.83 42.24 M-1.48 40.63 C5.5 33.13, 18 16.75, 22.36 -2.02 M1.12 40.92 C6.52 30.92, 12.82 19.28, 25.03 1.7" stroke="#1e1e1e" stroke-width="1" fill="none"></path></g><g stroke-linecap="round" transform="translate(10 40) rotate(0 29 29)"><path d="M-0.24 30.27 C-0.24 30.27, -0.24 30.27, -0.24 30.27 M-0.24 30.27 C-0.24 30.27, -0.24 30.27, -0.24 30.27 M5.74 32.39 C16.26 22.87, 21.18 12.62, 27.8 -2.51 M2.79 33.04 C6.99 25.26, 16.31 20.7, 31.68 -0.15 M9.33 36.2 C12.27 21.89, 24.92 15.39, 35.09 0.25 M4.87 35.91 C14.72 26.85, 22.08 16.68, 35.22 1.89 M7.1 35.55 C13.79 28.72, 22.12 22.57, 39.2 4.32 M9.29 39.93 C16.09 31.12, 20.89 23.62, 37.41 5.22 M10.02 38.28 C19.42 32.91, 31.17 25.26, 35.06 12.5 M10.43 41.63 C21.62 29.34, 32.13 17.09, 39.8 8.05 M14.46 39.56 C23.13 35.18, 34.33 26.72, 45.17 12.41 M14.08 41.74 C19.57 36.64, 27.39 29.73, 42.22 13.48 M21.73 42.41 C27.46 39.52, 27.77 27.77, 46.47 18.25 M19.72 46.97 C24.71 36.42, 33.3 26, 44.45 16.64 M16.9 46.89 C29.23 42.69, 34.86 28.04, 47.82 17.07 M22.04 48.47 C28.21 39.07, 35.9 29.33, 46.45 20.07 M22.93 51.66 C29.23 40.91, 41.2 38.25, 47.5 18.96 M23.92 52.61 C29.79 46.48, 36.53 39.3, 48.54 21.3 M28.23 54.95 C38.29 44.57, 41.09 34.79, 56.05 26.86 M26.64 55.23 C32.18 45.78, 41.81 36.72, 53.08 23.8 M32.79 56.08 C34.12 54.73, 43.33 42.73, 57.06 27.05 M30.82 56.37 C36.75 46.75, 47.39 36.52, 55.98 28.76" stroke="#eaddd7" stroke-width="0.5" fill="none"></path><path d="M33.76 -1.91 C40.16 9.52, 40.38 10.44, 54.99 28.57 M29.79 -0.04 C40.43 13.54, 51 25.26, 59.62 28.12 M59.06 31.76 C53.61 39.99, 46.22 42.48, 31.74 54.13 M58.93 31.49 C52.05 37.22, 44.65 45.78, 30.98 58.49 M26.57 56.16 C15.03 45.55, 9.2 33.91, 0.69 31.19 M30.95 57.44 C24.12 51.99, 16.75 46.76, 0.24 29.7 M-1.37 28.01 C11.86 24.59, 16.18 9.11, 27.98 -0.6 M-1.08 29.54 C11.48 17.54, 22.38 7.57, 31.7 -1.12" stroke="#1e1e1e" stroke-width="1" fill="none"></path></g></svg>