<svg version="1.1" xmlns="http://www.w3.org/2000/svg" viewBox="0 0 81 105" width="243" height="315">
  <!-- svg-source:excalidraw -->
  
  <defs>
    <style class="style-fonts">
      @font-face {
        font-family: "Virgil";
        src: url("https://excalidraw.com/Virgil.woff2");
      }
      @font-face {
        font-family: "Cascadia";
        src: url("https://excalidraw.com/Cascadia.woff2");
      }
    </style>
    
  </defs>
  <g stroke-linecap="round" transform="translate(21 10) rotate(0 25 41)"><path d="M25.96 0.04 C25.96 0.04, 25.96 0.04, 25.96 0.04 M25.96 0.04 C25.96 0.04, 25.96 0.04, 25.96 0.04 M14.66 21.74 C12.51 15.48, 18.09 14.4, 32.11 0.2 M14.07 19.86 C18.77 15.59, 23.9 11.01, 27.5 4.86 M-1.9 41.25 C7.01 35.51, 10.05 25.18, 33.64 9.2 M0.7 43.51 C11.92 30.62, 18.61 17.78, 29.72 9.17 M2.82 48.15 C11.33 34.4, 24.03 25.24, 30.02 14.33 M1.82 43.93 C13.9 30.93, 25.45 17.78, 31.78 11.2 M3.68 46.67 C16.82 40.45, 28.51 24.05, 32.85 14.26 M4.43 50.68 C14.47 35.88, 25.6 26, 35.87 16.6 M3.46 50.11 C9.81 46.74, 18.09 36.52, 37.65 14.56 M6.09 50.83 C17.77 38.51, 28.35 28.76, 37.99 19.19 M6.27 53.66 C19.13 39.91, 28.99 29.33, 39.86 20.5 M9.57 56.65 C20.42 43.33, 29.54 34.85, 37.17 20.45 M14.05 61.96 C24.69 49.78, 29.84 35.86, 41.19 22.27 M12.59 59.81 C17.67 48.32, 27.75 41.97, 39.13 25.55 M14.41 61.32 C26.58 50.57, 31.42 40.22, 40.18 28.19 M12.95 62.4 C20.5 54.16, 27.53 44.13, 44.02 31.29 M11.75 68.21 C24.15 60.67, 30.48 53.62, 48.07 33.57 M16.85 68.16 C22.96 59.4, 30.17 52.09, 43.57 33.64 M19.84 73.28 C29.63 58.54, 38.43 43.7, 50.54 34.07 M16.76 69.27 C29.53 59.07, 36.62 50.66, 48.11 36 M20.93 73.85 C33.28 60.06, 36.02 51.56, 47.64 42.58 M19.75 73.54 C30.56 63.68, 37.13 50.78, 47.71 40.66 M25.61 78.16 C37.22 61.39, 43.17 52, 52.91 41.64 M24.6 75.47 C33.92 62.94, 46.12 49.91, 52.55 44.11 M21.27 76.88 C32.15 73.37, 29.7 68.16, 43.42 59.54 M23.56 78.48 C29.89 75.66, 33.31 72.2, 40.25 63.83" stroke="#eaddd7" stroke-width="0.5" fill="none"></path><path d="M22.58 1.87 C35.21 12.78, 40.61 31.94, 49.71 40.49 M25.91 1.99 C32.28 7.78, 36.87 18.54, 48.25 40.05 M47.15 38.1 C43.9 51.37, 38.56 62.77, 24.71 84.14 M49.14 42.43 C40.64 57.9, 32.48 73.61, 27.41 81 M27.06 80.59 C19.7 71.01, 11.1 54.74, 1.78 45.17 M27.94 83.07 C15.02 67.53, 6.11 53.39, 1.18 40.35 M1.61 38.57 C9.9 28.04, 17.31 16.39, 24.7 1.65 M-0.65 41.26 C7.55 27.95, 17.82 17.39, 25.26 -1.82" stroke="#1e1e1e" stroke-width="1" fill="none"></path></g><g stroke-linecap="round" transform="translate(10 37) rotate(0 29 29)"><path d="M-0.24 30.27 C-0.24 30.27, -0.24 30.27, -0.24 30.27 M-0.24 30.27 C-0.24 30.27, -0.24 30.27, -0.24 30.27 M2.99 29 C7.93 22.76, 17.88 20.56, 27.78 0.57 M1.11 34.37 C11.07 24.01, 20.94 11.04, 32.43 -1.16 M4.78 35.52 C12.94 24.99, 16.49 25.03, 35 5.2 M7.04 37.28 C13.2 25.07, 19.42 17.82, 34.98 4.69 M11.32 36.28 C15.3 31.84, 23.86 22.32, 39.77 10.18 M7.1 37.29 C13.37 30.63, 19.46 24.75, 36.64 7.86 M9.48 41.71 C22.51 34.94, 25.33 24.35, 37.93 11.9 M13.49 39.86 C17.06 33.25, 25.56 27.79, 40.27 7.98 M12.55 40.57 C26.11 31.82, 32.82 22.34, 37.87 14.57 M13.28 43.19 C18.62 37.06, 26.54 32.09, 42.5 14.15 M15.75 44.47 C23.15 34.11, 33.7 28.95, 43.45 16 M18.74 47.94 C25.86 36.57, 37.82 22.53, 43.4 15.92 M23.03 53.07 C32.43 36.28, 40.08 26.24, 43.44 17.81 M20.88 47.72 C28.98 37.66, 42.23 24.34, 46.73 18.79 M21.28 55.63 C28.43 42.75, 35.99 32.74, 49.01 19.7 M22.36 51.85 C33.39 39.37, 42.62 29.68, 52.1 19.75 M27.81 55.96 C34.54 48.62, 41.72 43.72, 52.62 21.21 M27.76 55.62 C34.42 46.83, 42.54 34.54, 52.69 26.22 M32.52 57.99 C40.13 44.49, 47.63 38.87, 52.76 28.19 M28.5 59.02 C36.23 48.93, 45.71 42.63, 54.68 27.84" stroke="#eaddd7" stroke-width="0.5" fill="none"></path><path d="M31.87 0.76 C35.68 6.86, 48.09 17.68, 56.49 26.08 M31.99 1.88 C35.64 9.05, 44.83 13.09, 56.05 28.49 M54.1 29.58 C51.06 36.63, 46.08 43.1, 32.14 61.24 M58.43 30.53 C52.86 37.04, 47.56 42.71, 29 58.87 M28.59 59.86 C27.12 54.65, 18.49 48.56, 3.17 31.95 M31.07 56.28 C18.92 47.94, 8.99 41.59, -1.65 30.35 M-3.43 31.9 C9.34 20.93, 20.91 8.67, 31.65 0.48 M-0.74 29.32 C7.61 23.11, 18.71 12.35, 28.18 -1.01" stroke="#1e1e1e" stroke-width="1" fill="none"></path></g></svg>