<svg version="1.1" xmlns="http://www.w3.org/2000/svg" viewBox="0 0 78 103" width="234" height="309">
  <!-- svg-source:excalidraw -->
  
  <defs>
    <style class="style-fonts">
      @font-face {
        font-family: "Virgil";
        src: url("https://excalidraw.com/Virgil.woff2");
      }
      @font-face {
        font-family: "Cascadia";
        src: url("https://excalidraw.com/Cascadia.woff2");
      }
    </style>
    
  </defs>
  <g stroke-linecap="round" transform="translate(16.926709345638756 10) rotate(0 25 41)"><path d="M25.96 0.04 C25.96 0.04, 25.96 0.04, 25.96 0.04 M25.96 0.04 C25.96 0.04, 25.96 0.04, 25.96 0.04 M10.33 19.65 C19.14 16.71, 17.74 9.21, 26.4 4.46 M12.93 22.82 C20.57 12.7, 26.78 6.98, 30.17 4.08 M-3.1 38.38 C5.41 32.76, 14.96 25.1, 26.43 5.16 M-0.74 43.54 C12.2 29.75, 24.89 15.31, 28.39 6.67 M-1.35 46.39 C10.84 38.02, 16.95 26.43, 32.86 14.48 M0.28 44.88 C8.5 35.01, 15.3 27.08, 31.22 10.13 M2.46 46.14 C11.54 37.11, 21.33 33.9, 35.79 14.83 M3.36 48.89 C12.5 41.25, 19.67 29.24, 33.93 15.89 M9.62 54.66 C14.41 37.46, 26.52 28.31, 35.78 17.01 M5.16 52.41 C16.49 39.32, 26.87 27.78, 36.43 18.77 M9.27 52.37 C17.14 40.37, 29.73 26.42, 35.76 21.03 M10.34 54.72 C19.41 45.45, 30.69 31.72, 40.34 22.51 M14.85 58.67 C20.78 54.49, 28.35 46.39, 39.48 25.31 M13.23 59.75 C22.34 49.4, 28.88 36.99, 40.75 27.78 M11.99 64.08 C21.33 53.41, 30.7 45.73, 41.98 27.91 M14.99 63.09 C20 54.72, 27.11 47.55, 41.92 28.14 M13.62 62.8 C21.38 56.77, 36.97 44.6, 45.51 35.36 M15.96 67.24 C28 55.79, 39.02 41.62, 46.47 33.58 M20.51 68.73 C26.96 64.52, 33.11 54.23, 45.29 36.08 M17.44 68.38 C28.46 56.18, 42.79 43.44, 46.34 38.74 M20.43 75.92 C31.54 61.76, 44.43 47.69, 45.36 41.17 M22.15 71.59 C26.8 64.85, 36.32 56.59, 47.96 38.43 M23.98 78.85 C31.79 70.37, 38.71 59.52, 49.78 44.9 M23.22 77.88 C34.46 63.98, 42.21 53.73, 52.62 42.89 M29.07 83.91 C26.36 70.98, 38.52 66.67, 36.65 60.83 M26.02 78.4 C29.55 71.94, 37.38 67.3, 39.82 64.61" stroke="#eaddd7" stroke-width="0.5" fill="none"></path><path d="M25.66 -1.29 C27.88 11.55, 37.74 17.35, 47.63 43.96 M24.94 -1.04 C32.62 14.76, 41.61 24.1, 51.62 43.32 M48.57 45.77 C41.27 46.25, 38.59 58.58, 25.64 84.35 M48.12 41.13 C43.15 53.53, 38.11 64.68, 27.51 83.35 M22.13 80.28 C17.82 66, 9 55.57, 2.19 42.45 M26.49 83.54 C18.35 69.54, 5.73 53.77, -1.56 40.89 M1.19 38.25 C11.64 23.41, 21.26 10.64, 27.07 0.56 M-0.3 41.82 C5.96 29.96, 12.88 18.47, 27.47 1.55" stroke="#343a40" stroke-width="1" fill="none"></path></g><g stroke-linecap="round" transform="translate(10 35) rotate(0 29 29)"><path d="M-0.24 30.27 C-0.24 30.27, -0.24 30.27, -0.24 30.27 M-0.24 30.27 C-0.24 30.27, -0.24 30.27, -0.24 30.27 M0.9 34.97 C12.6 18.79, 19.5 10.23, 32.03 4.22 M4.07 34.38 C7.28 27.15, 14.9 20.39, 31.65 -0.39 M1.91 33.77 C15.54 24.14, 27.1 8.74, 30.96 7.43 M7.07 36.37 C16.22 26.63, 24.73 12.42, 32.47 3.51 M9.56 38.75 C21.54 24.7, 30.32 14.95, 39.92 4.08 M8.05 37.75 C17.12 25.62, 28.14 13.1, 35.57 5.83 M8.95 39.87 C17.47 32.3, 31.83 23.36, 38.49 8.57 M11.7 40.62 C20.69 31.53, 25.32 23.62, 39.56 11.59 M17.1 39.91 C23.25 28.56, 37.41 19.05, 40.32 13.64 M14.86 42.54 C18.41 37.4, 23.53 31.29, 42.08 13.98 M14.46 42.98 C24.28 34.04, 32.18 22.1, 43.98 16.1 M16.81 46.28 C25.77 39.41, 30.29 30.73, 45.46 13.42 M19.74 51.78 C28.99 45.48, 34.33 33.59, 46.49 19.11 M20.82 50.32 C26.57 40.88, 30.26 36.34, 48.96 17.05 M24.03 53.05 C28.69 47.16, 36.35 33.98, 48.73 18.36 M23.05 51.59 C29.87 43.02, 37.89 33.82, 48.96 22.2 M22.4 50.66 C38.64 44.25, 48.72 31.84, 54.41 27.92 M26.84 55.76 C36.19 46.43, 42.79 38.2, 52.63 23.42 M27.97 59.01 C40.08 48.37, 46.13 36.65, 54.77 30.65 M27.61 55.93 C34.39 52.23, 40.64 42.89, 57.42 28.23" stroke="#eaddd7" stroke-width="0.5" fill="none"></path><path d="M28.71 -3.42 C39.3 8.42, 42.25 12.9, 59.96 29.71 M28.96 -0.09 C38.75 10.05, 43.15 17.65, 59.32 28.25 M61.77 27.15 C48.01 35.05, 46.16 40.78, 32.35 56.71 M57.13 29.14 C48.99 39.9, 39.54 50.77, 31.35 59.41 M28.28 59.06 C20.83 52.27, 17.72 45.6, 0.45 31.78 M31.54 59.94 C19.42 45.81, 6.05 35.35, -1.11 31.18 M-3.75 31.61 C3 25.2, 11.83 17.84, 30.56 -1.3 M-0.18 29.35 C9.43 19.17, 19.41 11.08, 31.55 -0.74" stroke="#343a40" stroke-width="1" fill="none"></path></g></svg>