<svg version="1.1" xmlns="http://www.w3.org/2000/svg" viewBox="0 0 78 102" width="234" height="306">
  <!-- svg-source:excalidraw -->
  
  <defs>
    <style class="style-fonts">
      @font-face {
        font-family: "Virgil";
        src: url("https://excalidraw.com/Virgil.woff2");
      }
      @font-face {
        font-family: "Cascadia";
        src: url("https://excalidraw.com/Cascadia.woff2");
      }
    </style>
    
  </defs>
  <g stroke-linecap="round" transform="translate(15 10) rotate(0 25 41)"><path d="M25.96 0.04 C25.96 0.04, 25.96 0.04, 25.96 0.04 M25.96 0.04 C25.96 0.04, 25.96 0.04, 25.96 0.04 M10.49 17.65 C14.58 15.04, 22.05 10.17, 26.02 2.58 M11.04 22.23 C19.76 15.84, 24.55 9.89, 26.53 1.51 M0.17 39.14 C10.41 34.75, 17.93 29.1, 30.55 5.43 M0.32 40.67 C9.18 33.86, 14.83 24.05, 30.96 9.34 M5.56 43.26 C9.85 33.53, 21.44 31.54, 35.05 7.4 M3.17 47.49 C12.62 32.47, 26.23 18.21, 32.51 9.56 M5.56 45.25 C15.77 33.68, 26.88 25.74, 31.18 14.74 M6.36 48.09 C15.65 36.96, 24.7 27.99, 34.72 13.31 M7.87 50.62 C11.67 41.3, 19.31 33.42, 38 21.15 M8.59 50.45 C14.22 44.1, 21.4 36.74, 38.02 18.23 M7.97 52.37 C18.21 39.99, 30.63 30.68, 35.55 21.03 M9.41 57.58 C19.04 43.17, 33.1 30, 37.18 22.83 M15.26 62.92 C25.7 45.74, 31.28 35.49, 36.92 27.02 M11.1 60.58 C17.74 51.3, 23.4 43.82, 39.11 27.23 M10.55 62.7 C24.8 54.46, 32 40.58, 44.33 27.62 M13.99 62.45 C24.43 51.84, 36.36 38.4, 42.87 28.05 M14.79 68.98 C25.4 56.68, 40.49 38.29, 42.7 36.38 M17.01 68.14 C22.01 56.52, 29.95 47.63, 42.93 34.66 M19.25 72.34 C23.56 64.18, 34.75 49.57, 46.97 37.72 M17.68 68.16 C23.82 63.27, 29.42 55.49, 48.4 36.27 M22.31 73.49 C27.68 61.68, 35.74 57.3, 47.69 44.06 M20.69 72.57 C31.17 62.32, 38.99 49.26, 50.36 38.25 M18.87 79.89 C26.15 70.3, 32.2 61.1, 47.73 44.73 M21.18 74.86 C28.93 68.81, 35.75 63.55, 50.45 44.19 M26.52 81.64 C27.62 74.66, 33.63 68.12, 37.98 66.41 M26.66 80.95 C29.43 74.3, 31.61 71.24, 38.31 63.54" stroke="#eaddd7" stroke-width="0.5" fill="none"></path><path d="M24.36 1.18 C36.91 14.57, 42.2 34.75, 49.8 39.89 M25.21 1.18 C30.51 9.16, 35.41 19.53, 51.04 42.87 M51.91 39.97 C39.78 58.14, 36.22 68.91, 23.25 81.45 M51.05 40.15 C41.18 56.63, 33.32 73.35, 26.24 82.19 M28.79 82.32 C16 72.29, 13.17 62.17, -1.17 41.3 M25.62 83 C20.04 74.26, 14.24 65.12, -1.25 40.23 M-1.48 40.06 C11.83 30.56, 15.48 7.98, 23.37 3.75 M1.39 43.9 C7.25 31.88, 15.03 20.31, 26.87 -1.09" stroke="#1e1e1e" stroke-width="1" fill="none"></path></g><g stroke-linecap="round" transform="translate(10 34) rotate(0 29 29)"><path d="M-0.24 30.27 C-0.24 30.27, -0.24 30.27, -0.24 30.27 M-0.24 30.27 C-0.24 30.27, -0.24 30.27, -0.24 30.27 M0.43 31.5 C9.91 25.26, 13.45 18.06, 33.38 1.42 M4.39 33.85 C13.7 23.08, 20.85 8.51, 29.73 0.79 M9.33 35.67 C15.44 32.02, 17.84 20.52, 31.68 1.16 M6.88 35.53 C10.43 28.4, 18.26 24.3, 32.58 3.69 M8.53 34.52 C17.38 35.4, 22.31 21.87, 40.01 7.77 M7.66 38.36 C16.66 28.54, 23.63 19.01, 37.58 6.96 M12.56 37.34 C19.5 34.53, 22.01 25.71, 39.93 11.53 M13.47 40.02 C20.85 32.58, 29.14 19.43, 37.45 8.04 M12.03 40.66 C22.34 29.79, 35.8 23.84, 38.78 13.83 M15.71 43.3 C26.3 31.96, 37.08 19.35, 43.66 14.11 M15.68 44.17 C27.1 36.7, 35.74 21.6, 47.27 12.32 M16.45 45.23 C25.67 37.1, 27.99 32.96, 45.79 14.35 M23.92 47.31 C25.48 40.53, 29.4 34.62, 43.5 14.57 M19.64 48.87 C29.42 36.48, 38.94 27.35, 47.41 18.8 M25.55 54.15 C33.49 40.01, 44.25 28.4, 53.09 23.61 M23.73 53.35 C33.01 42.95, 40.2 31.22, 52.02 19.13 M23.95 57.77 C36.12 42.62, 41.07 38.22, 50.74 27.15 M25.62 53.47 C35.94 41.02, 44.5 32.12, 52.36 22.99 M25.85 61.17 C36.74 46.42, 45.72 38.75, 51.56 27.39 M29.28 57.71 C39.72 45.01, 51.85 33.04, 55.62 27.04" stroke="#eaddd7" stroke-width="0.5" fill="none"></path><path d="M31.97 -1.58 C36.07 11.19, 46.11 15.46, 55.58 26.35 M29.53 -0.51 C39.09 10.87, 52.09 23.34, 58.65 31.15 M55.3 32.84 C51.55 38.46, 38.64 46.04, 33.23 60.43 M57.83 29.81 C53.38 36.8, 46.49 41.71, 29.18 57.81 M26.66 58.83 C22.23 51.71, 12.57 42.54, -2.82 26.76 M29.36 59.04 C18.34 48.85, 6.27 35.45, 1.2 29.32 M2.19 33.51 C4.8 18.24, 13.78 17.86, 28.31 -0.46 M0.46 31.04 C12.07 18.77, 22.35 6.44, 31.14 0.03" stroke="#1e1e1e" stroke-width="1" fill="none"></path></g></svg>