<svg version="1.1" xmlns="http://www.w3.org/2000/svg" viewBox="0 0 78 102" width="234" height="306">
  <!-- svg-source:excalidraw -->
  
  <defs>
    <style class="style-fonts">
      @font-face {
        font-family: "Virgil";
        src: url("https://excalidraw.com/Virgil.woff2");
      }
      @font-face {
        font-family: "Cascadia";
        src: url("https://excalidraw.com/Cascadia.woff2");
      }
    </style>
    
  </defs>
  <g stroke-linecap="round" transform="translate(15 10) rotate(0 25 41)"><path d="M25.96 0.04 C25.96 0.04, 25.96 0.04, 25.96 0.04 M25.96 0.04 C25.96 0.04, 25.96 0.04, 25.96 0.04 M11.54 20.64 C15.47 19.32, 22.98 10.59, 31.6 0.38 M11.88 21.77 C16.38 16.08, 20.31 13.94, 28.81 4.29 M1.76 43.74 C9.39 30.45, 9.26 23.77, 30.73 3.95 M-0.07 44.22 C11.05 31.31, 17.92 19.52, 28.7 5.8 M2.24 43.52 C10.84 35.96, 25.84 21.34, 32.14 7.18 M0.41 47.36 C15.94 33.71, 24.01 20.88, 33.06 10.37 M5.02 50.33 C13.27 37.8, 21.73 28.16, 35.12 12.91 M2.87 49.63 C15.24 36.44, 24.22 27.47, 34.95 15.48 M5.44 54.29 C21.7 39.95, 26.71 22.93, 32.9 20.99 M5.58 51.33 C15.49 42.62, 27.69 29.38, 37.15 20.32 M9.11 58.52 C21.7 45.66, 32.13 33.36, 42.15 25.39 M8.38 55.06 C18.89 45.42, 25.23 39.25, 37.45 20.21 M10.1 63.03 C16.59 46.14, 30.7 41.32, 39.09 23.87 M10.62 58.73 C21.95 43.89, 34.08 30.93, 38.59 27.37 M12.33 61.36 C18.79 51.41, 31.49 45.56, 43.6 31.55 M14.44 63.42 C19.7 55.89, 26.16 48.85, 44.16 29.72 M18.41 69.42 C26.71 55.51, 32.54 48.28, 40.71 34.08 M17.3 67.39 C22.22 56.89, 32.76 47.78, 45.95 35.2 M15.74 69.87 C24.95 54.83, 40.98 45.77, 44.04 37.49 M20.05 69.72 C26.7 59.64, 37.13 46.73, 47.12 38.85 M21.34 73.03 C27.79 67.04, 36.04 55.07, 49.25 37.32 M19.42 72.29 C32.26 61.35, 42.35 51.7, 49.56 39.11 M23.26 73.48 C29.73 68.35, 37.15 52.4, 54.85 47.5 M23.36 75.66 C27.57 68.49, 34.48 61.83, 50.46 43.88 M22.73 81.93 C29.24 73.94, 33.27 71.87, 37.89 64.81 M24.93 80.08 C29 73.41, 36.91 67.8, 39.77 62.18" stroke="#eaddd7" stroke-width="0.5" fill="none"></path><path d="M24.03 3.09 C31.35 13.46, 41.22 23.88, 48.72 41.83 M25.21 -0.98 C33.71 10.54, 37.62 20.3, 48.18 43.6 M48.98 39.36 C43.82 54.38, 39.71 64.01, 28.3 82.06 M51.42 42.86 C41.4 54.21, 32.63 71.1, 27.21 80.3 M25.62 84.21 C20.17 68.33, 8.79 52.1, -0.38 40.58 M26.42 82.28 C16.86 66.19, 6.36 50.57, -1.62 43.53 M2.08 41.05 C9.06 27.87, 10.63 20.97, 24.65 -1.21 M1.76 40.24 C5.27 29.35, 15.97 18.77, 25.77 1.3" stroke="#1e1e1e" stroke-width="1" fill="none"></path></g><g stroke-linecap="round" transform="translate(10 34) rotate(0 29 29)"><path d="M-0.24 30.27 C-0.24 30.27, -0.24 30.27, -0.24 30.27 M-0.24 30.27 C-0.24 30.27, -0.24 30.27, -0.24 30.27 M0.83 35.94 C10 25.61, 18.78 15.54, 28.9 -3.44 M2.33 31.74 C9.39 26.19, 17.11 18.03, 29.46 1.14 M8.84 31.93 C12.16 20.74, 27.15 7.61, 33.67 0.69 M7.16 35.78 C15.41 21.84, 25.83 8.62, 33.82 2.22 M7.14 39.99 C22.13 25.67, 28.06 12.25, 39.72 4.06 M10.55 39.47 C15.69 30.22, 26.18 18.56, 37.33 8.29 M10.89 41 C15.53 35.52, 25.82 23.45, 39.72 6.05 M12.28 39.31 C20.76 31.36, 30.34 21.33, 40.52 8.89 M17.81 44.62 C21.83 28.77, 32.05 22.08, 42.69 10.66 M13.56 44.16 C22.8 35.1, 28.3 31.37, 43.41 10.49 M18.31 49.14 C26.69 38.86, 39.66 28.01, 43.44 11.66 M19.01 44.38 C24.36 39.88, 29.97 29.44, 44.88 16.86 M16.94 46.1 C28.63 43.83, 31.33 32.65, 50.73 22.21 M19.9 47.59 C31.63 35.56, 39.7 26.67, 46.57 19.86 M21.13 49.18 C33.23 44.47, 38.64 37.79, 47.33 20.47 M22.71 52.74 C31.68 42.4, 43.41 30.26, 50.78 20.22 M27.41 54.6 C31.78 48.24, 38.96 35.37, 51.57 26.75 M25.17 53.69 C33.61 46.27, 39.85 41.58, 53.79 25.92 M26.14 53.92 C39.04 48.9, 40.75 41.8, 56.69 29.36 M28.79 57.27 C34.75 48.91, 40.08 46.45, 55.12 25.18" stroke="#eaddd7" stroke-width="0.5" fill="none"></path><path d="M28.88 3.1 C39.95 10.75, 43.04 15.05, 56.36 31.18 M31.24 -0.1 C38.49 9.54, 47.5 22.83, 57.21 31.18 M57.59 32.08 C51.85 38.67, 44.67 45.17, 31.91 55.97 M58.15 28.62 C51.61 38.37, 46.59 41.56, 31.05 56.15 M32.6 58.48 C21.7 48.53, 12.19 40.59, 2.79 30.32 M30.54 57.41 C23.04 50.62, 15.28 47.49, -0.38 31 M2.18 27.5 C4.18 24.49, 14.42 12.85, 28.52 -1.94 M-1.98 28.69 C11.99 19.04, 20.52 10.55, 31.39 1.9" stroke="#1e1e1e" stroke-width="1" fill="none"></path></g></svg>