<svg version="1.1" xmlns="http://www.w3.org/2000/svg" viewBox="0 0 78 102" width="234" height="306">
  <!-- svg-source:excalidraw -->
  
  <defs>
    <style class="style-fonts">
      @font-face {
        font-family: "Virgil";
        src: url("https://excalidraw.com/Virgil.woff2");
      }
      @font-face {
        font-family: "Cascadia";
        src: url("https://excalidraw.com/Cascadia.woff2");
      }
    </style>
    
  </defs>
  <g stroke-linecap="round" transform="translate(15 10) rotate(0 25 41)"><path d="M25.96 0.04 C25.96 0.04, 25.96 0.04, 25.96 0.04 M25.96 0.04 C25.96 0.04, 25.96 0.04, 25.96 0.04 M13.13 22.25 C13.13 13.61, 20.93 7.05, 26.9 6.69 M13.34 22.67 C18.37 16.21, 23.62 8.96, 26.95 2.77 M-3.82 45.83 C11.57 31.16, 19.62 19.03, 33.1 8.55 M-1.18 41.85 C10.21 30.87, 17.13 19.69, 29.06 7.09 M2.46 46.85 C9.82 40.98, 12.33 33.3, 31.67 8.51 M3.2 46.16 C8.73 36.98, 16.51 28.86, 32.46 11.07 M5.48 47.66 C12.36 37.67, 24.85 28.63, 30.64 13.54 M6.06 50.95 C13.91 40.79, 20.48 28.62, 34.19 16.44 M4.36 48.44 C16.54 38.58, 25.46 29.09, 38.03 17.87 M5.63 52.29 C18.83 38.45, 28.76 25.53, 37 17.47 M8.58 58.64 C14.75 48.51, 25.07 40.54, 37.16 18.44 M8.71 56.38 C20.37 42.27, 30.33 32.66, 39.84 20.19 M9.91 59.17 C19.69 44.37, 32.2 31.61, 44.5 26.71 M9.74 57.37 C22.67 47.75, 32.02 37.34, 40.86 24.08 M13.6 65.21 C22.16 53.19, 35.14 40.73, 43.49 28.6 M15.24 62.13 C22.37 53.11, 30.68 43.29, 42.44 29.75 M12.86 69.39 C22.99 54.49, 29.9 44.36, 43.83 35.8 M17.47 65.17 C25.71 56.05, 36.87 44.8, 43.7 32.12 M16.83 68.38 C26.1 62.7, 29.95 58.92, 50.6 33.93 M19.54 69.04 C23.7 63.17, 32.98 53.59, 48.76 36.37 M17.08 70.02 C30.14 60.42, 44.02 52.49, 51.57 41.94 M21.13 75.32 C27.56 65.49, 38.91 54.31, 51.26 39.13 M26.78 76.21 C36.05 63.93, 44.88 54.44, 55.66 47.17 M22.89 77.27 C31.08 68.04, 35.91 59.06, 52.01 43.4 M28.66 77.03 C27.87 73.39, 35.2 71.48, 38.4 60.13 M25.48 81.8 C29.16 76.94, 30.31 71.7, 41.61 63.11" stroke="#eaddd7" stroke-width="0.5" fill="none"></path><path d="M24.28 0.39 C36.58 10.39, 43.57 32.29, 48.15 38.16 M27.5 -1.42 C32.97 7.98, 38.16 20.21, 51.96 41.21 M47.71 39.69 C44.98 49.42, 41.01 63.1, 28.72 83.53 M50.03 41.09 C42.84 51.47, 38 59.43, 26.82 81.12 M26.33 80.1 C18.06 73.88, 15.25 64.87, 1.54 40.66 M26.61 80.41 C18.93 67.51, 7.87 56.5, -0.33 42.13 M0.31 40.6 C10.55 29.28, 15.33 14.32, 25.12 -2.64 M-1.77 42.91 C4.11 33.86, 9.67 25.89, 27.36 -0.34" stroke="#1e1e1e" stroke-width="1" fill="none"></path></g><g stroke-linecap="round" transform="translate(10 34) rotate(0 29 29)"><path d="M-0.24 30.27 C-0.24 30.27, -0.24 30.27, -0.24 30.27 M-0.24 30.27 C-0.24 30.27, -0.24 30.27, -0.24 30.27 M3.49 29.02 C11.27 19.48, 21.05 6.33, 34.26 0.98 M3.92 34.06 C14.14 21.66, 23.43 6.3, 30.35 0.53 M9.36 38.35 C14.75 26.84, 22.64 17.32, 34.35 4.22 M5.38 36.43 C13.05 25.2, 20.51 16.68, 32.89 2.36 M10.02 39.2 C21.49 23.91, 31.17 15.57, 33.95 4.49 M9.33 37.75 C19.79 25.11, 31.32 12.78, 36.51 5.98 M10.47 40.2 C17.25 35.92, 24.98 20.21, 37.21 9.29 M13.75 41.05 C19.07 32.16, 22.37 27.28, 40.11 10.25 M10.89 44.13 C22.47 31.78, 34.44 21.03, 41.18 16.13 M14.74 44.04 C23.57 31.98, 33.33 22.75, 40.78 11.31 M20.73 43.77 C24.91 40.04, 31.25 30.53, 41.39 17.64 M18.47 46.23 C24.4 36.78, 34.83 29.56, 43.14 16.91 M20.24 46.54 C28.29 36.67, 38.38 30.97, 47.89 19.23 M18.44 50.71 C25.61 44.24, 32 35.98, 45.26 19.17 M25.17 51.38 C34.5 42.95, 43.41 29.66, 49.42 20.67 M22.09 52.23 C30.08 43.22, 37.29 34.54, 50.57 21.43 M28.99 53.09 C33.95 40.51, 43.67 32.83, 54.85 25.28 M24.77 54.74 C31.73 49.96, 36.55 40.83, 51.17 22.57 M27.62 59.27 C36.41 48.57, 47.09 43.52, 52.62 25.74 M28.28 55.46 C40.27 46.31, 48.54 37.97, 55.06 28.04" stroke="#eaddd7" stroke-width="0.5" fill="none"></path><path d="M30.39 2.45 C34.4 10.08, 49.95 15.67, 54.16 26.98 M28.58 1.24 C37.86 10.86, 50.22 22.02, 57.21 29.31 M55.69 31.56 C47.11 41.29, 42.52 47.7, 31.53 55.59 M57.09 28.86 C50.41 37.25, 41.31 45.76, 29.12 56.36 M28.1 55.44 C22.01 50.97, 13.82 44.82, -1.34 31.59 M28.41 59.88 C20.13 49.04, 13.29 40.27, 0.13 30.05 M-1.4 32.17 C7.15 21.9, 12.03 14.8, 27.36 -3.96 M0.91 29.66 C12 18.76, 24.24 8.36, 29.66 -1.7" stroke="#1e1e1e" stroke-width="1" fill="none"></path></g></svg>