<svg version="1.1" xmlns="http://www.w3.org/2000/svg" viewBox="0 0 78 102" width="234" height="306">
  <!-- svg-source:excalidraw -->
  
  <defs>
    <style class="style-fonts">
      @font-face {
        font-family: "Virgil";
        src: url("https://excalidraw.com/Virgil.woff2");
      }
      @font-face {
        font-family: "Cascadia";
        src: url("https://excalidraw.com/Cascadia.woff2");
      }
    </style>
    
  </defs>
  <g stroke-linecap="round" transform="translate(15 10) rotate(0 25 41)"><path d="M25.96 0.04 C25.96 0.04, 25.96 0.04, 25.96 0.04 M25.96 0.04 C25.96 0.04, 25.96 0.04, 25.96 0.04 M8.76 19.57 C21.21 15.36, 21.3 12.17, 30.49 7.06 M13.76 23.41 C16.07 17.52, 21.85 10.76, 28.11 5.33 M-3.82 39.89 C5.59 32.84, 21.25 22.84, 30.68 6.34 M-1.64 42.23 C12.55 28.27, 23.84 15.58, 28.68 7.78 M-1.59 47.67 C11.1 30.43, 26.28 22.77, 33.88 14.93 M2.46 46.5 C12.76 35.2, 21.39 23.14, 32.06 10.75 M6.27 51.04 C9.13 41.99, 16.19 29.75, 33.75 11.88 M3.83 47.65 C16.85 37.96, 26.41 26.33, 32.71 14.52 M8.46 49.31 C12.2 46.3, 18.73 35.78, 32.52 16.56 M6.65 52.31 C14.1 44.21, 20.52 36.74, 34.49 20.43 M10.6 58.17 C15.78 48.54, 20.27 43.81, 42.49 17.92 M8.34 56.69 C15.96 48.76, 22.36 41.37, 37.98 23.23 M9.38 57.55 C22.57 52.31, 23.57 43.03, 42.15 28 M11.53 57.64 C19.73 49.16, 28.82 40.23, 40.39 25.89 M9.99 64.3 C27.11 50.42, 38.8 34.1, 40.23 27.61 M13.31 62.5 C23.32 52.56, 33.93 42.97, 41.45 28.39 M18.9 69.01 C24.74 60.36, 32.08 47.47, 41.3 35.47 M15.83 65.11 C24.3 56.19, 34.48 43.38, 44.81 34.06 M18.04 72.42 C23.76 63.66, 27.15 51.68, 49.07 34.02 M16.26 71.39 C29.55 55.98, 37.91 45.06, 47.15 38.63 M21.53 70.27 C29.12 56.39, 40.36 48.75, 47.99 38.62 M21.37 71.44 C25.81 63.22, 33.44 54.91, 47.58 40.52 M21.19 77.94 C28.51 67.55, 44.38 52.58, 51.93 42.39 M24.82 77.31 C36.19 62.23, 46.57 51.85, 50.18 44.97 M24.63 78.32 C27.57 75.4, 33.11 74.55, 43.94 64.66 M27.07 82.06 C31.08 73.89, 34.62 67.95, 39.51 61.61" stroke="#eaddd7" stroke-width="0.5" fill="none"></path><path d="M27.08 -1.79 C32.51 16.51, 42.56 30.49, 49.63 44.76 M24.89 -1.1 C33.3 11.85, 43 25.72, 48.04 43.22 M51.85 42.91 C41.79 56.82, 30.36 75.83, 22.46 85.01 M48.5 40.44 C43.47 56.72, 36.49 69.24, 24.09 83.84 M26.47 84.54 C16.24 68.93, 5.28 53.37, -0.76 42.92 M26.19 82.98 C18.75 75.11, 12.97 64.76, 0.9 42.06 M-3.28 43.44 C7.27 24.49, 15.99 12.66, 23.2 3.2 M-0.7 41.95 C5.06 31.12, 9.33 23.72, 27.53 -1.85" stroke="#1e1e1e" stroke-width="1" fill="none"></path></g><g stroke-linecap="round" transform="translate(10 34) rotate(0 29 29)"><path d="M-0.24 30.27 C-0.24 30.27, -0.24 30.27, -0.24 30.27 M-0.24 30.27 C-0.24 30.27, -0.24 30.27, -0.24 30.27 M0.82 36.89 C8.56 25.19, 17.34 19.79, 34.63 -0.2 M4.66 31.79 C11.42 24.1, 17.34 15.02, 32.9 0.57 M3.42 32.25 C16.3 28.51, 26.21 15.37, 32.14 7.18 M5.76 36.19 C11.69 28.77, 18.89 19.51, 33.58 5.08 M10.84 36.21 C15.04 30.81, 28.81 19.83, 40.37 7.78 M9.66 38.12 C16.17 29.45, 21.91 23.39, 36.19 5.12 M13.85 38.58 C21.47 28.46, 25.91 20.07, 35.55 11.36 M10.46 42.62 C18.61 35.05, 24.84 24.91, 38.19 8.51 M11.76 42.34 C27.16 29.72, 35.05 15.2, 39.87 8.98 M14.76 43.91 C20.6 36.39, 27.09 26.05, 43.74 10.61 M20.26 45.75 C23.43 37.32, 31.5 36.31, 40.87 12.39 M18.78 45.23 C24.59 38.32, 30.93 32.05, 46.18 13.55 M18.62 53.3 C26.71 41.35, 30.77 37.77, 49.18 17.87 M18.72 49.61 C29.28 39.43, 39.45 27.16, 47.07 19.91 M24.26 54.71 C30.96 46.72, 35.24 31.57, 48.43 22.13 M22.46 52.74 C33.29 42.58, 44.49 28.27, 49.21 20.38 M28.61 55.69 C35.39 47.32, 37.95 35.63, 54.51 25.69 M24.7 53.49 C33.99 45.79, 39.39 38.21, 53.11 22.97 M31.66 56.96 C40.49 42.25, 46.08 36.23, 52.7 28.99 M30.63 58.75 C34.89 48.18, 43.67 39.18, 57.31 28.97" stroke="#eaddd7" stroke-width="0.5" fill="none"></path><path d="M28.21 -3.27 C39.04 6.96, 45.55 19.21, 60.76 31.12 M28.9 -1.3 C38.81 12.46, 49.75 21.59, 59.22 31.96 M58.91 31.12 C47.72 38.72, 41.58 45.15, 33.01 59.39 M56.44 30.84 C48.69 42.18, 37.1 49.09, 31.84 59.9 M32.54 58.35 C23.94 49.85, 15.74 41.57, 0.92 26.47 M30.98 56.35 C21.82 47.41, 10.59 41.51, 0.06 31.32 M1.44 28.23 C8.58 17.23, 22.83 6.29, 33.2 -3.01 M-0.05 29.69 C9.29 17.64, 22.02 10.37, 28.15 0.76" stroke="#1e1e1e" stroke-width="1" fill="none"></path></g></svg>