<svg version="1.1" xmlns="http://www.w3.org/2000/svg" viewBox="0 0 86 102" width="258" height="306">
  <!-- svg-source:excalidraw -->
  
  <defs>
    <style class="style-fonts">
      @font-face {
        font-family: "Virgil";
        src: url("https://excalidraw.com/Virgil.woff2");
      }
      @font-face {
        font-family: "Cascadia";
        src: url("https://excalidraw.com/Cascadia.woff2");
      }
    </style>
    
  </defs>
  <g stroke-linecap="round" transform="translate(10 10) rotate(0 25 41)"><path d="M25.96 0.04 C25.96 0.04, 25.96 0.04, 25.96 0.04 M25.96 0.04 C25.96 0.04, 25.96 0.04, 25.96 0.04 M9.11 22.02 C12.55 15.27, 19.95 13.34, 27.52 0.01 M13.97 22.66 C15.04 14.7, 22.59 10.3, 28.69 3.13 M2.49 43.5 C11.09 31.66, 18.95 19.21, 26.52 6.53 M-1.44 41.94 C9.66 29.63, 19.66 21.44, 30.66 5.63 M0.79 44.68 C9.91 40.24, 17.28 28.07, 31.04 10.96 M1.17 47.36 C9.7 37.33, 19.34 27.15, 31.24 9.7 M4.66 52.52 C14.35 36.14, 26.26 24.09, 35.46 13.69 M2.68 50.34 C16.84 36.9, 29.04 22.38, 35.99 13.41 M7.65 50.01 C12.23 46.38, 20.66 39.28, 39.11 17 M8 54.36 C14.23 47.23, 17.73 37.01, 37.77 17.46 M9.67 53.08 C14.54 50, 22.03 38.14, 38.16 17.89 M8.77 54.57 C18.74 45.97, 27.56 36.2, 37.97 20.73 M13.42 58.08 C18.87 51.15, 25.89 49.6, 40.15 25.25 M13.06 60.05 C23.48 47.34, 31.2 35, 42.15 24.27 M12.3 62.05 C22.56 50.05, 31.55 36.51, 46.39 29.14 M14.52 64.76 C22.25 55.28, 28.05 43.27, 43.85 31.26 M13.5 63.16 C20.02 58.45, 28.99 46.53, 43.88 33.57 M16.74 66.84 C20.86 60.91, 28.52 54.25, 45.64 34.58 M14.56 68.79 C27.84 59.87, 32.09 54.44, 47.1 37.94 M19.02 71.35 C24.72 62.72, 27.99 55.17, 46.22 37.02 M18.52 71.99 C27.9 65.53, 41 50.94, 49.88 37.84 M20.79 73.5 C27.39 68.03, 30.76 58, 49.51 38.75 M21.74 79.69 C26.06 71.65, 32.46 59.91, 48.53 41.53 M22.71 77.69 C33.04 65.1, 46.44 52.06, 53.05 44.66 M26.41 76.3 C27.37 73.67, 37.13 64.29, 39.92 66.03 M24.38 79.71 C30.56 76.18, 35.73 69.25, 39.32 63.1" stroke="#eaddd7" stroke-width="0.5" fill="none"></path><path d="M25.71 3.71 C29.98 11.78, 33.23 18.59, 50.62 45.15 M25.14 -0.25 C31.01 10.21, 35.49 18.04, 51.84 42.79 M49.7 44.17 C42.58 50.34, 38.99 58.53, 24.42 78.22 M51.99 41.92 C42.8 50.64, 36.01 60.02, 26.74 80.93 M22.77 78.58 C20.86 74.91, 11.75 60, -3.94 42.86 M27.16 81.68 C17.52 71.09, 9.35 57.77, 0.73 40.89 M1.02 39.94 C7.06 29.94, 15.5 19.23, 23.1 3.86 M-1.95 41.79 C7.38 30.17, 16.17 19, 25.37 -1.37" stroke="#343a40" stroke-width="1" fill="none"></path></g><g stroke-linecap="round" transform="translate(18 34) rotate(0 29 29)"><path d="M-0.24 30.27 C-0.24 30.27, -0.24 30.27, -0.24 30.27 M-0.24 30.27 C-0.24 30.27, -0.24 30.27, -0.24 30.27 M3.26 29.02 C9.12 23.68, 19.76 13.74, 27.58 -0.99 M3.91 31.03 C7.6 25.81, 15.13 16.43, 30.7 1.73 M7.03 36.29 C18.25 20.85, 28.83 7.78, 32.33 5.01 M5.47 35.59 C13.74 25.51, 26.12 15.52, 31.43 2.72 M7.85 38.78 C21.47 27.94, 27.37 14.95, 36.4 6.37 M10.53 36.36 C18.09 29.01, 25.46 20.7, 35.14 7.88 M15.33 39.71 C20.24 30.66, 29.48 22.18, 37.36 13.28 M13.15 41.19 C19.2 35.18, 24.16 28.55, 37.08 8.73 M12.45 41.63 C25.94 32.61, 35.96 25.69, 40.31 8.72 M16.81 44.11 C22.97 34.04, 26.01 30.07, 40.77 11.69 M15.16 42.92 C26.66 36.11, 29.35 32.28, 40.84 14.29 M16.66 47.16 C25.6 38.63, 33.38 26.85, 43.68 13.18 M19.15 51.03 C28.54 40.98, 43.3 26.95, 46.43 20.38 M21.12 50.79 C26.58 40.5, 32.4 35.46, 45.45 19.07 M22.01 51.98 C31.48 39.56, 39.41 32.09, 49.96 20.48 M24.72 52.7 C33.87 39.49, 40.47 32.11, 52.08 20.2 M22.76 51.39 C33.86 44.84, 37.77 37.36, 52.62 20.91 M26.44 54.01 C36.77 44.68, 46.37 34.16, 53.63 23.36 M28.03 59.95 C35.23 48.44, 45.89 39.55, 56.63 23.3 M30.58 58.1 C37.26 45.47, 45 36.81, 55.7 27.04" stroke="#eaddd7" stroke-width="0.5" fill="none"></path><path d="M33.71 -1.45 C44.18 8.23, 53.02 23.07, 61.15 26.65 M29.75 -0.44 C40.21 9.02, 48.23 21.94, 58.79 28.45 M60.17 27.88 C48.93 38.13, 39.68 45.46, 26.22 55.79 M57.92 29.13 C50.07 35.56, 42.88 44.88, 28.93 57.07 M26.58 58.76 C25.76 49.8, 14.6 41.64, 0.86 29.6 M29.68 57.64 C18.9 46.94, 6.01 38.25, -1.11 28.86 M-2.06 31.27 C8.99 22.36, 19.37 5.16, 33.86 -0.88 M-0.21 30.11 C8.64 23.4, 18 12.26, 28.63 0.23" stroke="#343a40" stroke-width="1" fill="none"></path></g></svg>