<svg version="1.1" xmlns="http://www.w3.org/2000/svg" viewBox="0 0 79 102" width="237" height="306">
  <!-- svg-source:excalidraw -->
  
  <defs>
    <style class="style-fonts">
      @font-face {
        font-family: "Virgil";
        src: url("https://excalidraw.com/Virgil.woff2");
      }
      @font-face {
        font-family: "Cascadia";
        src: url("https://excalidraw.com/Cascadia.woff2");
      }
    </style>
    
  </defs>
  <g stroke-linecap="round" transform="translate(10 10) rotate(0 25 41)"><path d="M25.96 0.04 C25.96 0.04, 25.96 0.04, 25.96 0.04 M25.96 0.04 C25.96 0.04, 25.96 0.04, 25.96 0.04 M12.67 18.06 C16.71 16.53, 27.22 10.1, 28.68 -0.22 M12.4 19.8 C16.62 15.51, 19.01 13.17, 28.6 3.02 M3.22 45.05 C8.83 31.38, 9.48 30.71, 27.22 8.29 M-2.13 43.59 C8.64 32.28, 17.36 20.8, 30.86 5.8 M-0.15 43.06 C9.64 36.08, 15.45 26.67, 35.8 12.19 M3.32 44.94 C8.26 38.62, 16.59 31.55, 32.27 10.26 M0.81 46.95 C16.89 35.48, 25.27 26.57, 37.37 12.76 M5.08 49.07 C12.87 40.28, 18.1 32.66, 34.33 15.75 M4.24 48.62 C16.81 44.61, 23.22 37.18, 34.86 22.22 M8.02 52.77 C12.52 44, 21.44 37.22, 38.38 19.77 M5.64 57.91 C21.63 48.67, 28.14 34.48, 35.05 24.44 M8.21 55.97 C15.61 46.25, 25.76 37.62, 38.73 21.5 M10.32 58.09 C15.19 54.77, 22.44 49.17, 39.06 24.24 M10.7 60.04 C18.83 51.53, 25.72 43.94, 42.42 25.77 M13.25 66.08 C23.14 56.83, 29.16 42.59, 40.78 32.58 M14.58 62.76 C18.89 55.49, 25.05 47.79, 40.92 31.09 M14.23 68.98 C27.27 58.05, 35.76 43, 42.84 35.37 M17.4 65.56 C25.7 52.03, 39.26 39.67, 43.27 33.11 M18.4 72.06 C27.73 58.45, 38.75 51.52, 50.28 38.93 M16.9 68.29 C28.1 59.58, 37.79 46.36, 47.12 36.92 M19.37 75.27 C33.11 64.11, 38.65 47.92, 46.54 38.74 M19.49 72.47 C28.65 62.64, 39.12 54.66, 47.83 40.51 M19.11 77.48 C30.44 70.7, 39.77 56.95, 48.53 43.97 M21.25 76.28 C31.2 67.29, 37.44 59.54, 50.92 42.03 M24.39 79.97 C30.41 73.73, 33.8 74.44, 40.69 65.55 M25.75 80.8 C28.21 72.14, 35.73 67.89, 39.3 62.66" stroke="#eaddd7" stroke-width="0.5" fill="none"></path><path d="M27.08 3.34 C32.43 18.62, 44.03 33.94, 50.88 43.42 M26.68 -0.15 C32.59 8.67, 38.07 17.64, 50.95 42.31 M49.33 40.29 C39.75 56.42, 33.24 70.15, 25.59 85.69 M50.92 41.85 C42.32 54.54, 32.7 69, 25.25 81.21 M26.86 85.99 C20.93 71.75, 13.25 61.68, -3.31 43.47 M27.67 80.39 C18.25 72.06, 14.86 60.94, -1.07 40.03 M2.34 44.32 C7.8 27.4, 17.58 12.62, 23.32 1.46 M1.28 42.51 C5.81 32.04, 12.43 22.84, 24.98 -1.45" stroke="#1e1e1e" stroke-width="1" fill="none"></path></g><g stroke-linecap="round" transform="translate(11 34) rotate(0 29 29)"><path d="M-0.24 30.27 C-0.24 30.27, -0.24 30.27, -0.24 30.27 M-0.24 30.27 C-0.24 30.27, -0.24 30.27, -0.24 30.27 M-0.69 31.22 C15.01 23.71, 25.92 9.36, 27.35 -2.45 M1.05 33.13 C7.74 24.14, 16.35 17.51, 30.59 -1.27 M8.58 37.77 C9.65 23.11, 23.71 15.51, 34.09 3.24 M7.12 36.13 C15.74 25.23, 24.22 13.78, 31.6 3.31 M6.23 37.49 C17.85 24.9, 27.05 20.97, 37.63 2.58 M8.11 37.66 C15.58 31.79, 22.32 22.19, 35.7 6.46 M9.76 44.19 C16.53 34.98, 25.85 26.09, 36.43 7.35 M11.88 42.51 C21.18 29.07, 31.65 17.85, 39.42 9.13 M11.07 46.01 C26.48 32.99, 38.47 18.24, 45.53 9.13 M15.21 42.19 C20.4 36.83, 27.59 29.85, 43.08 11.73 M20 49.92 C25.31 42.72, 25.65 29.93, 47.39 13.1 M18.06 44.66 C23.92 39.6, 30.85 30.01, 44.45 13.1 M19.16 46.97 C30.08 39.9, 38.72 30.75, 45.42 16.26 M21.12 48.85 C26.25 42.57, 32.32 38.85, 46.95 18.1 M26.04 53.78 C35.76 40.7, 40.47 28.37, 53.4 17.69 M22.72 51.39 C31.64 40.63, 40.16 29.23, 51.9 20.98 M28.58 57.56 C34.92 49.12, 37.16 35.86, 54.42 28.29 M25.16 52.88 C31.5 46.85, 39.01 37.41, 52.16 24.51 M31.3 57.58 C33.27 53.44, 41.93 47.78, 57.61 29.3 M27.53 56.64 C37.05 48.99, 42.07 42.94, 55.61 27.63" stroke="#eaddd7" stroke-width="0.5" fill="none"></path><path d="M33.34 -3.3 C44.5 11.27, 55.47 24.72, 59.42 27.29 M29.85 1.86 C35.33 7.59, 40.17 12.8, 58.31 31.58 M56.29 29.51 C51.24 38.06, 43.76 41.61, 33.69 59.58 M57.85 31.08 C50.74 36.1, 45.38 41.98, 29.21 56.11 M33.99 57.83 C21.25 48.77, 12.06 41.12, 1.47 27.87 M28.39 56.29 C23.26 52.71, 14.39 43.22, -1.97 30.43 M2.32 29.36 C7.55 21.73, 14.98 9.57, 31.46 -2.22 M0.51 28.97 C7.54 21.57, 15.89 14.03, 28.55 1.93" stroke="#1e1e1e" stroke-width="1" fill="none"></path></g></svg>