<svg version="1.1" xmlns="http://www.w3.org/2000/svg" viewBox="0 0 86 102" width="258" height="306">
  <!-- svg-source:excalidraw -->
  
  <defs>
    <style class="style-fonts">
      @font-face {
        font-family: "Virgil";
        src: url("https://excalidraw.com/Virgil.woff2");
      }
      @font-face {
        font-family: "Cascadia";
        src: url("https://excalidraw.com/Cascadia.woff2");
      }
    </style>
    
  </defs>
  <g stroke-linecap="round" transform="translate(10 10) rotate(0 25 41)"><path d="M25.96 0.04 C25.96 0.04, 25.96 0.04, 25.96 0.04 M25.96 0.04 C25.96 0.04, 25.96 0.04, 25.96 0.04 M8.71 19.62 C17.19 16.77, 21.26 7.54, 26.89 1.56 M10.72 19.75 C19.91 13, 24.79 7.15, 29.61 4.95 M0.62 43.71 C3.09 36.76, 8.01 27.12, 31.22 8.79 M-0.08 40.71 C7.7 35.71, 15.47 23.71, 28.93 8.51 M2.85 49.08 C13.81 33.21, 22.56 21.15, 32.32 9.39 M0.43 47.11 C7.65 39.63, 13.84 29.61, 33.83 11.38 M3.52 48.92 C14.04 37.94, 25.12 25.05, 37.56 12.52 M5 49.62 C13.3 39.94, 20.84 31.19, 33 15.61 M5.18 55.02 C16.7 44.58, 30.35 27.3, 32.74 15.72 M7.66 53.72 C10.84 42.87, 20.19 36.69, 35.7 16.66 M6.2 58.57 C13.14 47.67, 23.05 35.61, 38.04 21.75 M10.45 55.29 C19.04 46.37, 24.35 36.97, 36.93 22.88 M13.3 57.68 C21.37 54.75, 25.52 41.91, 42.46 23.77 M13.07 58.89 C18.84 48, 29.97 37.5, 41.15 27.58 M13.33 61.65 C23.38 47.29, 38.34 38.8, 42.3 30.62 M14.05 64.75 C18.78 53.08, 29.43 46.97, 42.02 28.92 M12.49 67.44 C25.49 51.81, 37.5 41.85, 41.06 35.56 M15.11 67.98 C25.21 58.08, 34.19 47.33, 43.5 33.54 M20.79 67.66 C25.48 62.57, 32.69 55.38, 43.19 37.75 M18.93 69.39 C23.84 59.24, 32.79 51.74, 46.92 36.7 M19.25 75.15 C31.33 62.31, 35.85 54.57, 46 43.06 M21.6 74.7 C24.58 64.96, 32.49 58.19, 48.09 41.83 M19.72 79.1 C25.82 67.5, 32.63 59.62, 54.79 40.51 M21.63 77.52 C32.26 67.47, 40.39 59.01, 53.68 43.8 M21.38 80.69 C29.96 72.83, 34.63 72.29, 40.91 62.38 M25.76 81.64 C30.74 75.16, 33.26 70.31, 40.54 63.71" stroke="#eaddd7" stroke-width="0.5" fill="none"></path><path d="M24.55 3.52 C30.94 15.48, 42.6 30.77, 46.65 43.24 M25.56 1.05 C31.29 11.75, 41.08 24.65, 48.45 42.1 M47.88 41.22 C41.27 54.61, 31.75 66.16, 23.79 79.7 M49.13 40.75 C41.29 53.18, 36.1 66.63, 25.07 80.26 M26.76 84.63 C14.93 64.08, 2.77 51.75, -0.4 44.88 M25.64 82.39 C15.22 66.23, 7.62 52.12, -1.14 43.26 M1.27 40.48 C12.66 24.94, 15.81 15.55, 25.12 -0.2 M0.11 42.21 C12.11 27.23, 19.44 9.59, 26.23 1.32" stroke="#1e1e1e" stroke-width="1" fill="none"></path></g><g stroke-linecap="round" transform="translate(18 34) rotate(0 29 29)"><path d="M-0.24 30.27 C-0.24 30.27, -0.24 30.27, -0.24 30.27 M-0.24 30.27 C-0.24 30.27, -0.24 30.27, -0.24 30.27 M0.87 32.61 C9.27 25.71, 11.33 18.15, 29.13 3.81 M1 34.43 C11.44 21.8, 22.97 10.73, 32.52 -1.54 M7.24 33.15 C17.34 20.3, 24.76 13.39, 34.59 1.46 M4.24 35.65 C14.09 28.67, 16.94 19.48, 34.31 4.93 M12.25 38.76 C16.01 28.32, 23.58 21.22, 34.84 2.68 M10.28 37.01 C16.74 29.62, 20.7 24.36, 36.82 6.95 M11.73 40.64 C19.89 32.92, 26.17 25.67, 36.19 7.13 M12.43 41.98 C16.15 36.19, 20.82 26.86, 39.28 10.9 M17.47 42.83 C27.61 36.44, 30.88 20.24, 39.03 8.79 M16.17 41.5 C21.87 33.58, 32.27 20.58, 39.97 11.35 M20.66 42.68 C26.42 36.21, 30.99 26.52, 44.7 13.72 M17.38 47.71 C24.86 36.4, 31.85 26.91, 45.83 14.1 M18.75 52.13 C33.43 38.16, 38.19 29.83, 44.95 18.33 M19.96 48.46 C28.85 39.2, 38.16 26.77, 48.75 19.66 M21.61 51.2 C26.85 47.07, 37.95 34.53, 51.44 19.57 M24.7 50.07 C31.54 41.72, 43.96 28.83, 49.74 22.74 M27.03 52.97 C30.55 46.98, 39.72 36.79, 54.61 24.75 M27.58 55.57 C37.08 45.28, 45.72 32.57, 52.59 23.26 M26.9 57.13 C35.34 50.67, 41.68 40.36, 56.44 25.99 M28.63 55.44 C36.59 45.86, 47.23 36.13, 55.38 26.11" stroke="#eaddd7" stroke-width="0.5" fill="none"></path><path d="M33.52 -3.02 C40.65 9.61, 50.1 14.42, 59.24 29.33 M31.05 -1.15 C36.93 9.68, 45.12 14.01, 58.1 30.92 M57.22 29.63 C48.62 36.31, 38.14 43.87, 27.7 58.86 M56.75 28.21 C45.13 41.68, 34.53 51.22, 28.26 59.67 M32.63 56.25 C21.76 48.04, 18.18 45.43, 2.88 32.34 M30.39 57.01 C18.01 48.6, 7.5 36.7, 1.26 31.28 M-1.52 33.41 C8.03 17.15, 23.69 9.41, 29.8 2.81 M0.21 31.66 C6.85 23.27, 10.83 18.06, 31.32 -1.18" stroke="#1e1e1e" stroke-width="1" fill="none"></path></g></svg>