<svg version="1.1" xmlns="http://www.w3.org/2000/svg" viewBox="0 0 86 102" width="258" height="306">
  <!-- svg-source:excalidraw -->
  
  <defs>
    <style class="style-fonts">
      @font-face {
        font-family: "Virgil";
        src: url("https://excalidraw.com/Virgil.woff2");
      }
      @font-face {
        font-family: "Cascadia";
        src: url("https://excalidraw.com/Cascadia.woff2");
      }
    </style>
    
  </defs>
  <g stroke-linecap="round" transform="translate(10 10) rotate(0 25 41)"><path d="M25.96 0.04 C25.96 0.04, 25.96 0.04, 25.96 0.04 M25.96 0.04 C25.96 0.04, 25.96 0.04, 25.96 0.04 M12.19 21.18 C12.67 18.41, 15.55 12.24, 28.04 3.96 M11.65 23.22 C18.69 17.7, 19.84 9.72, 29.86 2.02 M2.91 38.31 C12.2 32.06, 19.94 21.22, 27.66 9.2 M0.47 41.09 C5.14 34.4, 12.91 25.8, 30.16 9.26 M4.12 47.87 C11.46 33.52, 23.52 26.41, 33.01 10.68 M1.45 43.77 C9.2 38.13, 16.49 28.64, 31.26 12.57 M5.46 50.04 C12.23 43.86, 18.25 32.04, 33.98 15.53 M3.3 47.68 C12.78 38.48, 24.95 26.43, 35.32 14.27 M8.03 54.56 C19.86 36.94, 29.02 28.57, 35.9 22.28 M5.58 50.58 C19.06 42.48, 29.52 29.41, 34.57 16.56 M5.72 53.59 C20.79 40.89, 28.11 33.98, 35.49 21.63 M9.27 55.11 C17.8 45.06, 27.85 36.15, 40.52 21.09 M13.78 57.23 C21.2 50.09, 28.5 41.16, 43.27 29.74 M10.57 59.11 C21.56 50.12, 29.96 39.32, 39.6 24.9 M16.6 65.72 C24.12 48.92, 36.41 35.59, 42.07 25.38 M14.02 62.55 C25.99 51.69, 36.95 38.53, 40.95 28.46 M14.9 70 C22.89 51.87, 31.91 44.61, 42.93 30.81 M16.78 66.83 C24.86 57.98, 31.37 49.76, 45.53 35.13 M18.23 67.67 C24.35 57.43, 40.73 44.61, 46.83 37.16 M18.55 69.51 C27.6 61.81, 36.27 49.78, 45.14 35.46 M20.15 71.49 C26.05 63.28, 34.36 57.71, 52.62 37.24 M21.88 71.58 C30.25 63.56, 40.12 54.33, 47.58 38.65 M26.03 73.67 C31.15 69.79, 38.05 58.94, 48.11 42.06 M21.27 76.42 C29.44 69.9, 34.74 62.39, 53 43.81 M25.56 81.33 C31.77 69.62, 32.3 67.61, 40.2 60.88 M24.96 80.09 C28.49 74.61, 34.26 71.49, 41.25 62.84" stroke="#eaddd7" stroke-width="0.5" fill="none"></path><path d="M28.94 1.36 C33.19 18.28, 40.09 32.18, 46.98 43.9 M26.62 -0.33 C33.38 13.41, 41.37 27.96, 48.85 41.8 M50.2 43.84 C40.61 59.48, 29.37 72.22, 25.63 80.51 M48.85 42.43 C44.99 52.07, 35.88 61.32, 24.21 80.35 M22.53 85.33 C14.44 64.87, 9.68 57.44, -1.75 39.86 M27.44 83.17 C21.75 73.56, 14.98 66.21, -0.99 40.66 M2.53 44.56 C10.23 26.11, 19.23 12.51, 29.41 -2.04 M-0.1 43.4 C3.15 32.35, 11.13 23.21, 27.66 0.72" stroke="#1e1e1e" stroke-width="1" fill="none"></path></g><g stroke-linecap="round" transform="translate(18 34) rotate(0 29 29)"><path d="M-0.24 30.27 C-0.24 30.27, -0.24 30.27, -0.24 30.27 M-0.24 30.27 C-0.24 30.27, -0.24 30.27, -0.24 30.27 M2.43 29.43 C10.06 21.69, 14.1 17.88, 31.54 -0.36 M4.47 34.28 C10.2 24.33, 13.34 20.76, 29.59 0.81 M1.84 38.16 C14.49 26.82, 22.57 14.63, 35 0.31 M4.62 34.22 C12.85 26.72, 19.18 18.08, 35.06 4.45 M11.04 36.72 C13.81 32.07, 23.81 25.6, 36.12 5.09 M6.94 37.1 C18.83 27.04, 26.87 18.16, 38.01 5.29 M12.85 40.85 C21.29 32.22, 24.1 25.78, 39.2 11.18 M10.49 38.87 C19.75 33.31, 26.18 25.9, 37.94 11.71 M17.01 44.1 C18.63 34.77, 29.49 29.25, 45.59 15.09 M13.03 44.46 C24.48 36.31, 30.94 25.54, 39.87 13.76 M15.68 46.38 C22.15 35.64, 34.38 27.64, 44.58 14.41 M17.2 45.48 C22.21 40.93, 28.34 35.24, 44.04 14.21 M18.3 51.15 C26.34 43.15, 32.54 36.66, 50.92 18.07 M20.18 50.79 C28.41 42.35, 34.85 31.29, 46.08 20.07 M25.68 50.94 C27.61 44.88, 33 37.44, 46.2 24.57 M22.51 53.17 C32.75 43.39, 40.67 31.64, 49.27 22.03 M29.6 52.41 C33.42 39.55, 48.08 29.18, 49.86 23.73 M26.43 55.65 C34.91 44.61, 43.99 37.03, 54.18 25.49 M26.9 53.73 C37.7 49.2, 45.9 35.65, 55.84 27.22 M28.75 58.19 C39.74 48.1, 46.38 35.56, 54.15 26.33" stroke="#eaddd7" stroke-width="0.5" fill="none"></path><path d="M31.36 -0.29 C39.62 5.1, 45.92 10.5, 59.9 30.62 M29.67 -0.86 C39.86 10.75, 51.76 21.4, 57.8 31.84 M59.84 29.7 C50.23 37.42, 37.77 48.67, 28.51 56.42 M58.43 31.99 C51.85 34.57, 44.93 39.39, 28.35 58.74 M33.33 54.77 C19.44 51.34, 18.08 41.92, -2.14 26.06 M31.17 59.16 C20.09 49.07, 11.15 39.43, -1.34 30.73 M2.56 31.02 C5.62 23.56, 13.49 18.36, 27.96 -2.9 M1.4 28.05 C11.81 18.25, 24.13 7.91, 30.72 -0.63" stroke="#1e1e1e" stroke-width="1" fill="none"></path></g></svg>