<svg version="1.1" xmlns="http://www.w3.org/2000/svg" viewBox="0 0 83 102" width="249" height="306">
  <!-- svg-source:excalidraw -->
  
  <defs>
    <style class="style-fonts">
      @font-face {
        font-family: "Virgil";
        src: url("https://excalidraw.com/Virgil.woff2");
      }
      @font-face {
        font-family: "Cascadia";
        src: url("https://excalidraw.com/Cascadia.woff2");
      }
    </style>
    
  </defs>
  <g stroke-linecap="round" transform="translate(10 10) rotate(0 25 41)"><path d="M25.96 0.04 C25.96 0.04, 25.96 0.04, 25.96 0.04 M25.96 0.04 C25.96 0.04, 25.96 0.04, 25.96 0.04 M10.9 23.62 C20.62 18.35, 23.5 6.01, 25.43 1.1 M12.82 19.6 C16.23 16.41, 22.02 10.89, 26.62 2.7 M2.1 38.55 C3.34 36.12, 11.75 25, 29.45 10.13 M0.47 42.66 C12.63 27.62, 24.09 13.98, 29.52 8.15 M1.56 45.79 C9.49 34.81, 26 24.32, 28.53 8.73 M1.73 45.97 C14.03 34.11, 22.68 21.06, 32.41 10.9 M8 45.47 C15.86 38.19, 23.92 29.27, 31.63 17.94 M6.32 48.5 C13.86 38.02, 23.66 27.82, 33.41 16.8 M9.56 53.24 C15.56 47.38, 19.74 40.7, 33.15 16.25 M5.74 51.53 C17.54 40.91, 27.81 31.4, 35.74 16.59 M13.2 57.23 C19.39 43.82, 19.84 42.34, 36.86 20.3 M7.95 54.24 C17.28 46.92, 22.01 41.11, 36.86 21.43 M9.24 61.45 C19.5 52.81, 27.62 37.81, 38.35 22.16 M11.12 59.98 C21.43 48.57, 34.25 35.29, 40.18 26.93 M15.13 66.1 C20.08 52.69, 25.77 49.47, 39.51 30.58 M12.75 63.28 C23.38 50.12, 33.47 39.34, 42.8 29.04 M18.65 68.03 C28.46 51.43, 33.39 46.19, 48.44 31.72 M13.98 65.05 C23.62 56.9, 29.97 48.1, 44.65 31.7 M18.41 68.8 C30.81 59.93, 41.7 48.46, 49.19 34.65 M17.47 71.4 C26.06 60.43, 36.16 50.49, 47.51 34.96 M23.04 75.11 C28.62 58.82, 36.48 50.26, 49.66 40.15 M19.74 72.83 C30.07 65.66, 36.16 54.59, 48.13 38.57 M22.95 79.09 C36.66 60.91, 41.68 52.46, 48.74 41.13 M24.26 75.27 C35.46 62.56, 44.51 50.16, 50.65 45.16 M26.94 77.8 C30.01 78.97, 32.38 75.21, 42.38 66.81 M23.24 78.29 C30 74.7, 33.45 69.18, 41.87 63.16" stroke="#eaddd7" stroke-width="0.5" fill="none"></path><path d="M22.7 3.18 C33.37 16.05, 42.54 28.02, 47.29 38.03 M27.86 -0.73 C37.01 14.21, 45.16 31.72, 51.58 40.33 M49.51 41.12 C44.02 52.73, 33.58 71.95, 27.58 78.9 M51.08 40.94 C42.65 53.98, 34.98 65.58, 24.11 80.89 M25.83 80.27 C17.01 69.23, 9.91 64.58, -2.13 40.15 M24.29 82.38 C21.1 72.18, 13.17 62.55, 0.43 41.8 M-0.64 41.28 C9.96 24.09, 16.17 11.91, 23.78 -2.29 M-1.03 42.64 C8.14 28.32, 17.33 9.91, 27.93 -0.44" stroke="#1e1e1e" stroke-width="1" fill="none"></path></g><g stroke-linecap="round" transform="translate(15 34) rotate(0 29 29)"><path d="M-0.24 30.27 C-0.24 30.27, -0.24 30.27, -0.24 30.27 M-0.24 30.27 C-0.24 30.27, -0.24 30.27, -0.24 30.27 M4.86 35.66 C14.49 23.68, 16.76 10.62, 28.67 0.05 M0.85 31.94 C11.41 23.65, 19.37 12.23, 30.28 -0.49 M2.08 31.95 C19.01 20.22, 27.27 10.27, 35.94 6.88 M6.19 36.24 C9.73 29.81, 14.7 22.1, 33.95 4.44 M8.96 35.02 C16.13 34, 23.76 19.1, 34.17 8.35 M9.14 39.86 C19.15 26.89, 27.96 15.76, 36.34 5.68 M8.28 43.69 C15.43 37.21, 20.93 25.1, 41.61 10.71 M11.31 40.71 C20.51 30.47, 30 19.49, 40.47 8.55 M15.69 44.58 C24.13 34.24, 31.73 25.33, 39.56 13.54 M13.98 44.7 C23.98 34.69, 35.1 21.11, 39.9 11.08 M19.32 48.63 C19.37 35.27, 31.37 30.62, 43.25 11.49 M16.33 47.41 C22.74 38.7, 30.67 29.25, 44.38 15.03 M22.52 48.4 C30.95 40.01, 33.01 31.06, 43.34 20.56 M21.06 48.65 C28.1 43.65, 33.31 33.62, 48.1 17.36 M26.06 51.46 C28.95 40.48, 42.05 30.02, 51.4 24.31 M23.24 51.2 C32.71 39.06, 44.57 29.78, 49.86 21.72 M27.63 57.53 C28.92 44.57, 41.6 42.26, 50.76 23.62 M24.65 55.02 C35.83 42.21, 46.36 32.03, 50.75 25.5 M28.04 59.87 C38.92 51.26, 47.2 40.89, 53.34 27.22 M30.64 56.07 C36.07 50.34, 42.51 43.48, 53.65 27.53" stroke="#eaddd7" stroke-width="0.5" fill="none"></path><path d="M33.18 -0.57 C42.61 11.15, 50.24 17.37, 54.03 32.94 M29.27 1.76 C37.8 10.45, 48.98 21.1, 56.33 30.62 M57.12 32.1 C47.53 37.46, 45.58 47.38, 26.9 58.2 M56.94 29.61 C48.09 39.25, 37.79 47.79, 28.89 56.85 M28.27 55.49 C16.21 45.67, 11.63 37.84, -1.85 26.53 M30.38 59.31 C18.08 45.68, 5.48 36.45, -0.2 31.44 M-0.72 30.78 C8.42 16.66, 22.63 6.36, 27.71 2.53 M0.64 29.24 C12.47 18.37, 20.24 10.4, 29.56 -0.1" stroke="#1e1e1e" stroke-width="1" fill="none"></path></g></svg>