<svg version="1.1" xmlns="http://www.w3.org/2000/svg" viewBox="0 0 86 102" width="258" height="306">
  <!-- svg-source:excalidraw -->
  
  <defs>
    <style class="style-fonts">
      @font-face {
        font-family: "Virgil";
        src: url("https://excalidraw.com/Virgil.woff2");
      }
      @font-face {
        font-family: "Cascadia";
        src: url("https://excalidraw.com/Cascadia.woff2");
      }
    </style>
    
  </defs>
  <g stroke-linecap="round" transform="translate(10 10) rotate(0 25 41)"><path d="M25.96 0.04 C25.96 0.04, 25.96 0.04, 25.96 0.04 M25.96 0.04 C25.96 0.04, 25.96 0.04, 25.96 0.04 M12.94 17.89 C14.98 12.63, 23.02 8.22, 24.86 3.9 M12.85 21.13 C14.24 17.16, 18.22 15.88, 29.71 4.55 M-2.95 43.01 C6.14 37.21, 16.02 23.48, 32.67 8.78 M0.68 40.52 C8.73 32.14, 19.49 19.28, 28.74 7.23 M5.62 46.9 C8.06 32.87, 22.98 26.75, 30.97 9.97 M2.09 44.98 C11.17 34.55, 19.92 21.74, 31.35 12.64 M7.84 46.72 C7.84 45.08, 17.42 36.05, 34.18 18.56 M4.81 49.71 C11.98 41.49, 19.47 29.12, 32.21 16.38 M5.34 56.18 C12.9 38.96, 26.77 32.4, 37.18 16.04 M8.86 53.73 C13.33 41.94, 20.25 33.27, 37.53 20.4 M5.53 58.4 C16.81 43.41, 25.12 31.32, 39.19 19.11 M9.21 55.46 C13.43 48.33, 21.93 40.49, 38.29 20.61 M10.19 57.45 C19.95 43.03, 34.56 33.02, 42.28 24.87 M13.56 58.98 C21.4 48.42, 30.49 36.08, 41.92 26.84 M11.26 66.54 C21 52.25, 38.54 40.87, 41.82 28.09 M11.4 65.05 C22.38 52.97, 31.95 42.36, 44.05 30.8 M13.97 68.58 C28.73 54.4, 33.7 48.39, 42.36 29.95 M14.41 66.32 C21.98 57.89, 29.28 52.54, 45.6 33.63 M21.42 72.13 C27.64 58.68, 33.31 49.56, 43.43 35.59 M18.25 70.13 C29.64 56, 40.15 45.15, 47.88 38.14 M17.68 71.94 C30.88 62.53, 40.1 49.32, 47.39 38.78 M18.97 73.72 C26.77 62.34, 37.16 53.19, 49.66 40.3 M19.66 77.17 C29.75 63, 46.21 50.48, 50.61 46.49 M22.05 75.24 C27.83 71.5, 33.74 62.16, 51.58 44.48 M25.6 82.91 C30.79 79.8, 32.69 72.79, 41.49 58.94 M24.21 80.02 C29.83 76.97, 31.1 72.99, 39.47 62.35" stroke="#eaddd7" stroke-width="0.5" fill="none"></path><path d="M26.88 1.42 C32.27 11.61, 47.03 32.88, 49.71 45.71 M26.95 0.31 C34.64 9.76, 40.01 22.18, 49.14 41.75 M49.59 45.69 C45.33 49.74, 37.28 65.8, 25.7 84.17 M49.25 41.21 C42.02 50.73, 36.84 62.15, 27.99 81.92 M22.69 83.47 C17.69 69.42, 9.68 64.33, -3.23 38.58 M24.93 80.03 C17.61 68.81, 10.32 57.42, 1.16 41.68 M-2.68 43.46 C4.95 28.13, 17.03 21.13, 27.02 -2.06 M-1.02 40.55 C10.88 27.18, 17.47 15.09, 24.05 -0.21" stroke="#1e1e1e" stroke-width="1" fill="none"></path></g><g stroke-linecap="round" transform="translate(18 34) rotate(0 29 29)"><path d="M-0.24 30.27 C-0.24 30.27, -0.24 30.27, -0.24 30.27 M-0.24 30.27 C-0.24 30.27, -0.24 30.27, -0.24 30.27 M-0.86 30 C10.45 20.48, 22.83 5.42, 31.47 -3.43 M2.38 31.19 C9.23 23.7, 18.74 17.84, 32.12 -1.42 M6.54 34.94 C13.7 32.29, 12.96 25.19, 34.58 4.59 M4.05 35.01 C16.03 25.26, 23.52 12.69, 33.03 3.89 M10.07 34.28 C12.69 32.54, 23.23 22.18, 35.41 7.08 M8.14 38.16 C19.31 25.18, 28.09 12.69, 38.08 4.66 M9.53 38.3 C25.1 29.67, 33.27 17.32, 42.23 8.77 M12.52 40.08 C21.58 30.23, 26.5 20.41, 40.05 10.24 M18.63 40.08 C21.15 34.49, 34.37 23.92, 39.35 10.69 M16.18 42.67 C22.91 30.21, 32.77 21.33, 43.71 13.17 M20.49 44.04 C26.77 31.63, 35.93 24.27, 42.06 11.97 M17.55 44.05 C27.94 34.57, 37.6 22.64, 43.56 16.21 M18.52 47.21 C23.32 43.2, 32.57 34.32, 46.05 20.08 M20.05 49.04 C27.85 39.66, 33.9 34.01, 48.02 19.85 M26.5 48.63 C32.48 46.68, 41.36 33.52, 48.9 21.04 M25.01 51.92 C30.05 45.18, 36.56 37.69, 51.61 21.75 M28.18 58.48 C34.88 42.8, 49.72 30.16, 49 21.2 M25.92 54.69 C33.13 46.41, 43.42 36.74, 52.68 23.83 M31.37 59.49 C36.39 45.95, 45.78 31.26, 54.28 29.77 M29.37 57.81 C33.73 50.43, 41.38 43.65, 56.83 27.91" stroke="#eaddd7" stroke-width="0.5" fill="none"></path><path d="M31.42 -2.71 C34.47 11.39, 47.8 16.72, 61.71 28.55 M30.31 1.58 C38.73 11.99, 50.94 22.15, 57.75 29.56 M61.69 31.58 C44.71 40.01, 39.78 49.38, 32.17 55.88 M57.21 28.11 C48.99 36.5, 42.67 47.49, 29.92 57.13 M31.47 55.87 C21.53 47.39, 19.6 40.99, -3.42 30.76 M28.03 58.43 C19.08 48.88, 9.48 38.36, -0.32 29.64 M1.46 27.78 C7.59 23.35, 22.02 12.25, 27.94 1.27 M-1.45 31.93 C6.91 22.35, 16.61 12.64, 29.79 0.11" stroke="#1e1e1e" stroke-width="1" fill="none"></path></g></svg>