<svg version="1.1" xmlns="http://www.w3.org/2000/svg" viewBox="0 0 86 102" width="258" height="306">
  <!-- svg-source:excalidraw -->
  
  <defs>
    <style class="style-fonts">
      @font-face {
        font-family: "Virgil";
        src: url("https://excalidraw.com/Virgil.woff2");
      }
      @font-face {
        font-family: "Cascadia";
        src: url("https://excalidraw.com/Cascadia.woff2");
      }
    </style>
    
  </defs>
  <g stroke-linecap="round" transform="translate(10 10) rotate(0 25 41)"><path d="M25.96 0.04 C25.96 0.04, 25.96 0.04, 25.96 0.04 M25.96 0.04 C25.96 0.04, 25.96 0.04, 25.96 0.04 M9.69 19.21 C17.91 14.85, 20.59 9.06, 24.45 1.51 M10.87 20.82 C16.21 17.98, 23.14 12.11, 26.46 1.64 M-0.73 44.85 C14.76 25.13, 25.71 17.25, 30.8 9 M-0.66 42.87 C7.45 33.26, 12.81 25.76, 30.1 6 M-1.65 43.44 C12.77 37.04, 18.7 23.22, 33.03 14.36 M2.23 45.61 C11.01 33.02, 20.26 25.66, 30.61 12.4 M2.11 51.91 C12.09 42.11, 18.47 36.33, 33.04 14.96 M3.89 50.76 C11.99 37.4, 20.13 29.97, 34.52 15.66 M3.63 50.21 C18.95 41.75, 29.23 24.94, 34.7 21.06 M6.22 50.55 C13.37 40.48, 24.24 34.55, 37.19 19.76 M7.33 54.26 C12.43 46.23, 22.44 38.74, 35.73 24.61 M7.34 55.4 C15.69 47.86, 21.58 39.97, 39.97 21.33 M9.48 55.37 C25.12 44.7, 35.86 32.79, 42.16 24.47 M11.31 60.13 C20.58 46.93, 33.7 35.64, 41.93 25.68 M9.99 64.54 C24.44 56.64, 27.62 44.36, 42.86 27.69 M13.28 63 C22.94 52.54, 31.69 45.26, 43.57 30.78 M19.57 64.92 C21.05 63, 25.49 49.43, 41.35 34.23 M15.79 64.91 C24.68 58.36, 32.09 49.79, 43.97 34.77 M20.32 67.86 C27.68 55.86, 34.01 45.49, 49.65 34.46 M18.65 68.17 C27.06 59.64, 36.09 51.62, 47.8 36.18 M20.79 73.36 C26.64 64.77, 31.04 58.33, 48.12 41.94 M19.27 71.77 C33.41 58.81, 43.35 48.04, 50.46 41.49 M19.87 74.34 C32.69 66.56, 34.54 65.53, 48.59 45.9 M21.78 78.37 C27.61 69.88, 35.12 64.17, 50.49 44.31 M27.29 84.17 C31.04 74.78, 37.4 63.41, 36.47 63.33 M26.78 80.51 C29.63 74.94, 33.54 69.39, 40.85 64.29" stroke="#eaddd7" stroke-width="0.5" fill="none"></path><path d="M23.29 -3.97 C38.1 16.89, 43.84 34.94, 48.55 45.52 M27.58 -1.67 C32.41 9.02, 36.32 18.54, 49.56 43.05 M51.58 38.9 C44.3 53.98, 37.98 64.01, 23.88 81.22 M48.11 40.89 C41.57 53.87, 37.74 64.99, 25.13 80.75 M23.87 80.15 C17.72 77.11, 12.49 61.94, 0.76 44.63 M26.43 81.8 C21.2 72.41, 14.26 60.66, -0.36 42.39 M-2.22 39.71 C9.6 33.85, 14.6 18.72, 27.27 -1.52 M1.93 41.56 C10.34 27.6, 18.5 9.81, 26.11 0.21" stroke="#1e1e1e" stroke-width="1" fill="none"></path></g><g stroke-linecap="round" transform="translate(18 34) rotate(0 29 29)"><path d="M-0.24 30.27 C-0.24 30.27, -0.24 30.27, -0.24 30.27 M-0.24 30.27 C-0.24 30.27, -0.24 30.27, -0.24 30.27 M0.46 32.51 C11.73 19.81, 21.29 9.38, 29.08 0.16 M2.06 31.96 C13.44 24.59, 21.73 11.16, 29.21 1.97 M8.38 38.58 C8.05 30.96, 19.58 21.8, 34.8 1.45 M6.39 36.14 C14.58 23.55, 24.83 14.1, 31.8 3.95 M6.61 40.04 C21.45 25.05, 28.88 14.9, 39.8 7.06 M8.78 37.37 C15.24 27.79, 26.93 17.74, 37.84 5.31 M14.72 41.65 C23.47 29.37, 36.22 16.42, 38.63 9.7 M13.57 39.49 C18.66 29.42, 29.7 22.09, 39.33 11.04 M12.66 44.48 C23.41 36.51, 25.85 26, 44.37 11.88 M13 42.03 C23.26 32.4, 37.69 19.82, 43.07 10.56 M16.35 42.43 C20.81 40.28, 25.82 30.46, 47.56 11.73 M17.49 45.98 C25.24 36.88, 32.64 29.42, 44.28 16.76 M16.45 51.51 C25.64 43.3, 33.57 35.04, 45.65 21.19 M21.21 48.3 C30.85 38.68, 42.4 26.48, 46.86 17.52 M24.5 55.25 C31.83 43.75, 34.8 37.14, 48.51 20.25 M22.96 52.66 C27.38 46.97, 35 40.27, 51.6 19.13 M24.52 53.81 C36.03 44.18, 35.9 35.44, 53.28 22.78 M24.51 55.69 C32.66 48.58, 38.8 39.9, 53.82 25.38 M27.1 57.4 C36.64 41.88, 47.82 36.54, 53.15 26.95 M27.41 57.72 C36.8 48.76, 46.71 39.39, 54.87 25.26" stroke="#eaddd7" stroke-width="0.5" fill="none"></path><path d="M26.03 2.94 C40.59 9.75, 51.96 18.25, 61.52 26.98 M28.33 0.62 C39.49 9.13, 49.3 19.97, 59.05 28.85 M54.9 30.2 C52.24 38.04, 44.45 44.33, 29.22 57.63 M56.89 28.85 C50.85 38.82, 42.98 43.32, 28.75 56.21 M28.15 54.53 C26.61 48.37, 13.34 46.27, 2.63 28.25 M29.8 59.44 C24.33 52.39, 15.44 43.96, 0.39 29.01 M-2.29 32.53 C9.33 24.36, 11.7 17.63, 28.48 3.41 M-0.44 29.9 C9.31 20, 15.16 14.59, 30.21 1.66" stroke="#1e1e1e" stroke-width="1" fill="none"></path></g></svg>